<?xml version="1.0" encoding="UTF-8"?>
<!-- Generator: Adobe Illustrator 28.0.0, SVG Export Plug-In . SVG Version: 6.00 Build 0)  -->
<svg xmlns="http://www.w3.org/2000/svg" xmlns:xlink="http://www.w3.org/1999/xlink" version="1.1" id="Layer_1" x="0px" y="0px" viewBox="0 0 442 80.2" style="enable-background:new 0 0 442 80.2;" xml:space="preserve">
<style type="text/css">
	.st0{fill:#12487D;}
	.st1{fill:#68BB45;}
	.st2{fill:#A5AED1;}
	.st3{fill:#6D83B1;}
	.st4{fill:#BDDEAA;}
	.st5{fill:#D9EACB;}
	.st6{fill:#9FD088;}
	.st7{fill:#D8EAC3;}
	.st8{fill:#B8DB9F;}
	.st9{fill:#5A5B5D;}
</style>
<g>
	<path class="st0" d="M211.5,74.4c-1.1,0-2-0.1-2.5-0.2c-0.5-0.1-1-0.3-1.3-0.6c-0.4-0.3-0.6-0.7-0.8-1.2c-0.2-0.5-0.2-1.2-0.2-2.1   v-3c0-0.9,0.1-1.7,0.2-2.2c0.2-0.5,0.4-1,0.8-1.3c0.3-0.3,0.8-0.5,1.3-0.6c0.5-0.1,1.4-0.2,2.5-0.2h3.5c1.8,0,3,0.2,3.7,0.7   c0.6,0.5,1,1.3,1,2.5c0,0.2,0,0.3,0,0.4c0,0.1,0,0.2,0,0.2h-1.3v-0.2c0-0.9-0.2-1.5-0.6-1.8c-0.4-0.3-1.1-0.5-2-0.5h-4.8   c-0.7,0-1.2,0.1-1.5,0.2c-0.4,0.1-0.7,0.3-0.9,0.6c-0.1,0.2-0.2,0.4-0.3,0.7c-0.1,0.3-0.1,0.8-0.1,1.4v0.2v2.7c0,0.7,0,1.1,0.1,1.4   c0.1,0.3,0.2,0.5,0.3,0.7c0.2,0.3,0.5,0.5,0.9,0.6c0.4,0.1,0.9,0.2,1.5,0.2h4.8c1.1,0,1.8-0.2,2.2-0.5c0.4-0.3,0.6-1,0.6-1.8v-0.3   h1.3c0,0.1,0,0.2,0,0.3c0,0.1,0,0.2,0,0.3c0,0.7-0.1,1.3-0.2,1.7c-0.1,0.4-0.4,0.8-0.7,1c-0.3,0.3-0.7,0.4-1.3,0.5   c-0.5,0.1-1.4,0.2-2.6,0.2H211.5L211.5,74.4z M227,74.4c-1.2,0-2.1-0.1-2.6-0.2c-0.6-0.1-1-0.3-1.4-0.6c-0.4-0.3-0.7-0.7-0.9-1.3   c-0.2-0.5-0.3-1.2-0.3-2v-3c0-0.9,0.1-1.7,0.3-2.2c0.2-0.5,0.5-1,0.9-1.3c0.4-0.3,0.8-0.5,1.4-0.6c0.6-0.1,1.5-0.2,2.6-0.2h3.7   c1.2,0,2,0.1,2.6,0.2c0.6,0.1,1,0.3,1.4,0.6c0.4,0.3,0.7,0.7,0.8,1.3c0.2,0.5,0.3,1.2,0.3,2.1v3.1c0,0.9-0.1,1.6-0.3,2.1   c-0.2,0.5-0.5,1-0.8,1.3c-0.4,0.3-0.8,0.5-1.4,0.6c-0.6,0.1-1.4,0.2-2.7,0.2H227L227,74.4z M231.3,64.2h-5c-0.7,0-1.3,0.1-1.7,0.2   c-0.4,0.1-0.7,0.3-0.9,0.6c-0.2,0.2-0.3,0.5-0.3,0.7c-0.1,0.3-0.1,0.8-0.1,1.4v0.2v2.7c0,0.7,0,1.1,0.1,1.4   c0.1,0.3,0.2,0.5,0.3,0.7c0.2,0.3,0.5,0.5,0.9,0.6c0.4,0.1,0.9,0.2,1.7,0.2h5c0.7,0,1.3-0.1,1.7-0.2c0.4-0.1,0.7-0.3,0.9-0.6   c0.1-0.2,0.3-0.4,0.3-0.7c0.1-0.3,0.1-0.7,0.1-1.3v-0.4V67c0-0.6,0-1-0.1-1.3c-0.1-0.3-0.2-0.5-0.3-0.7c-0.2-0.3-0.5-0.5-0.9-0.6   C232.6,64.3,232.1,64.2,231.3,64.2L231.3,64.2z M243,74.4c-1.1,0-1.9-0.1-2.4-0.2c-0.5-0.1-1-0.3-1.3-0.6c-0.4-0.3-0.6-0.7-0.8-1.2   c-0.2-0.5-0.2-1.2-0.2-2v-7.2h1.4v7.2c0,0.6,0,1,0.1,1.3c0.1,0.3,0.2,0.5,0.3,0.7c0.2,0.3,0.5,0.5,0.8,0.6c0.4,0.1,0.9,0.2,1.5,0.2   h4.6c0.6,0,1.2-0.1,1.5-0.2c0.4-0.1,0.6-0.3,0.8-0.6c0.1-0.2,0.2-0.4,0.3-0.7c0.1-0.3,0.1-0.7,0.1-1.3v-0.4v-6.8h1.4v7.1   c0,0.9-0.1,1.5-0.2,2.1c-0.2,0.5-0.4,1-0.8,1.3c-0.3,0.3-0.7,0.5-1.3,0.6c-0.5,0.1-1.3,0.2-2.4,0.2H243L243,74.4z M255.1,74.2h-1.4   V63.1h2.2L266,73v-9.9h1.4v11.1h-2l-10.2-10V74.2L255.1,74.2z M276,74.2h-1.4v-9.9h-5.5v-1.2h12.4v1.2H276V74.2L276,74.2z    M291.6,64.3h-7v4.3h7c1,0,1.7-0.1,2-0.4c0.3-0.2,0.5-0.7,0.5-1.5v-0.5c0-0.7-0.2-1.2-0.5-1.5C293.3,64.5,292.6,64.3,291.6,64.3   L291.6,64.3z M284.6,74.2h-1.4V63.1h7.9c1.8,0,2.9,0.2,3.5,0.6c0.6,0.4,0.9,1.1,0.9,2.1v1.3c0,0.7-0.1,1.2-0.4,1.5   c-0.3,0.3-0.8,0.6-1.5,0.7c0.6,0.1,1.1,0.3,1.4,0.6c0.3,0.4,0.5,0.9,0.5,1.5v2.8H294v-2.5c0-0.7-0.2-1.2-0.5-1.5   c-0.3-0.3-1.1-0.4-2.2-0.4h-6.7V74.2L284.6,74.2z M302.3,74.2v-4.7l-6.3-6.5h2l5.1,5.2l5.1-5.2h2l-6.3,6.5v4.7H302.3L302.3,74.2z    M328,73.1c1.1,0,1.8-0.2,2.1-0.5c0.3-0.3,0.5-1.1,0.5-2.2v-0.6H325v-1.2h7.1v1.8c0,1.1-0.1,1.8-0.2,2.2c-0.1,0.4-0.4,0.7-0.7,1   c-0.3,0.3-0.7,0.4-1.3,0.5c-0.5,0.1-1.4,0.2-2.6,0.2h-4c-1.1,0-1.9-0.1-2.5-0.2c-0.5-0.1-1-0.3-1.3-0.6c-0.4-0.3-0.6-0.7-0.8-1.2   c-0.2-0.5-0.2-1.2-0.2-2v-3c0-0.9,0.1-1.7,0.2-2.2c0.2-0.5,0.4-1,0.8-1.3c0.3-0.3,0.8-0.5,1.3-0.6c0.5-0.1,1.4-0.2,2.5-0.2h4   c1.8,0,3,0.2,3.7,0.7c0.6,0.5,1,1.3,1,2.5c0,0.2,0,0.3,0,0.4c0,0.1,0,0.2,0,0.2h-1.3v-0.2c0-0.9-0.2-1.5-0.6-1.8   c-0.4-0.3-1.1-0.5-2-0.5h-5.3c-0.7,0-1.2,0.1-1.5,0.2c-0.4,0.1-0.6,0.3-0.9,0.6c-0.1,0.2-0.2,0.4-0.3,0.7c-0.1,0.3-0.1,0.8-0.1,1.4   v0.2v2.7c0,0.7,0,1.1,0.1,1.4c0.1,0.3,0.2,0.5,0.3,0.7c0.2,0.3,0.5,0.5,0.9,0.6c0.4,0.1,0.9,0.2,1.5,0.2H328L328,73.1z M339.4,74.4   c-1.2,0-2.1-0.1-2.6-0.2c-0.6-0.1-1-0.3-1.4-0.6c-0.4-0.3-0.7-0.7-0.9-1.3c-0.2-0.5-0.3-1.2-0.3-2v-3c0-0.9,0.1-1.7,0.3-2.2   c0.2-0.5,0.5-1,0.9-1.3c0.4-0.3,0.8-0.5,1.4-0.6c0.6-0.1,1.5-0.2,2.6-0.2h3.7c1.2,0,2,0.1,2.6,0.2c0.6,0.1,1,0.3,1.4,0.6   c0.4,0.3,0.7,0.7,0.8,1.3c0.2,0.5,0.3,1.2,0.3,2.1v3.1c0,0.9-0.1,1.6-0.3,2.1c-0.2,0.5-0.5,1-0.8,1.3c-0.4,0.3-0.8,0.5-1.4,0.6   c-0.6,0.1-1.4,0.2-2.7,0.2H339.4L339.4,74.4z M343.8,64.2h-5c-0.7,0-1.3,0.1-1.7,0.2c-0.4,0.1-0.7,0.3-0.9,0.6   c-0.2,0.2-0.3,0.5-0.3,0.7c-0.1,0.3-0.1,0.8-0.1,1.4v0.2v2.7c0,0.7,0,1.1,0.1,1.4c0.1,0.3,0.2,0.5,0.3,0.7c0.2,0.3,0.5,0.5,0.9,0.6   c0.4,0.1,0.9,0.2,1.7,0.2h5c0.7,0,1.3-0.1,1.7-0.2c0.4-0.1,0.7-0.3,0.9-0.6c0.1-0.2,0.3-0.4,0.3-0.7c0.1-0.3,0.1-0.7,0.1-1.3v-0.4   V67c0-0.6,0-1-0.1-1.3c-0.1-0.3-0.2-0.5-0.3-0.7c-0.2-0.3-0.5-0.5-0.9-0.6C345.1,64.3,344.5,64.2,343.8,64.2L343.8,64.2z    M350.8,74.2V63.1h1.4V73h8.6v1.2H350.8L350.8,74.2z M362.5,74.2V63.1H373v1.2h-9.1v3.6h8.8v1.2h-8.8v5.1H362.5L362.5,74.2z    M386.9,74.4c-1.1,0-2-0.1-2.5-0.2c-0.5-0.1-1-0.3-1.3-0.6c-0.4-0.3-0.6-0.7-0.8-1.2c-0.2-0.5-0.2-1.2-0.2-2.1v-3   c0-0.9,0.1-1.7,0.2-2.2c0.2-0.5,0.4-1,0.8-1.3c0.3-0.3,0.8-0.5,1.3-0.6c0.5-0.1,1.4-0.2,2.5-0.2h3.5c1.8,0,3,0.2,3.7,0.7   c0.6,0.5,1,1.3,1,2.5c0,0.2,0,0.3,0,0.4c0,0.1,0,0.2,0,0.2h-1.3v-0.2c0-0.9-0.2-1.5-0.6-1.8c-0.4-0.3-1.1-0.5-2-0.5h-4.8   c-0.7,0-1.2,0.1-1.5,0.2c-0.4,0.1-0.7,0.3-0.9,0.6c-0.1,0.2-0.2,0.4-0.3,0.7c-0.1,0.3-0.1,0.8-0.1,1.4v0.2v2.7c0,0.7,0,1.1,0.1,1.4   c0.1,0.3,0.2,0.5,0.3,0.7c0.2,0.3,0.5,0.5,0.9,0.6c0.4,0.1,0.9,0.2,1.5,0.2h4.8c1.1,0,1.8-0.2,2.2-0.5c0.4-0.3,0.6-1,0.6-1.8v-0.3   h1.3c0,0.1,0,0.2,0,0.3c0,0.1,0,0.2,0,0.3c0,0.7-0.1,1.3-0.2,1.7c-0.1,0.4-0.4,0.8-0.7,1c-0.3,0.3-0.7,0.4-1.3,0.5   c-0.5,0.1-1.4,0.2-2.6,0.2H386.9L386.9,74.4z M397.5,74.2V63.1h1.4V73h8.6v1.2H397.5L397.5,74.2z M413.5,74.4   c-1.1,0-1.9-0.1-2.4-0.2c-0.5-0.1-1-0.3-1.3-0.6c-0.4-0.3-0.6-0.7-0.8-1.2c-0.2-0.5-0.2-1.2-0.2-2v-7.2h1.4v7.2c0,0.6,0,1,0.1,1.3   c0.1,0.3,0.2,0.5,0.3,0.7c0.2,0.3,0.5,0.5,0.8,0.6c0.4,0.1,0.9,0.2,1.5,0.2h4.6c0.6,0,1.2-0.1,1.5-0.2c0.4-0.1,0.6-0.3,0.8-0.6   c0.1-0.2,0.2-0.4,0.3-0.7c0.1-0.3,0.1-0.7,0.1-1.3v-0.4v-6.8h1.4v7.1c0,0.9-0.1,1.5-0.2,2.1c-0.2,0.5-0.4,1-0.8,1.3   c-0.3,0.3-0.7,0.5-1.3,0.6c-0.5,0.1-1.3,0.2-2.4,0.2H413.5L413.5,74.4z M425.6,64.3v3.5h6.3c1.5,0,2.4-0.1,2.7-0.3   c0.3-0.2,0.5-0.7,0.5-1.4c0-0.4,0-0.7-0.1-1c-0.1-0.2-0.2-0.4-0.4-0.5c-0.2-0.1-0.4-0.2-0.8-0.2c-0.3,0-0.9-0.1-1.7-0.1h-0.4H425.6   L425.6,64.3z M434.6,68.3c0.8,0.1,1.3,0.3,1.7,0.6c0.3,0.3,0.5,0.9,0.5,1.6v1.2c0,1-0.3,1.7-1,2c-0.6,0.4-2,0.6-4,0.6h-7.7V63.1   h7.9c1,0,1.7,0,2.2,0.1c0.5,0.1,0.9,0.2,1.1,0.4c0.3,0.2,0.6,0.5,0.7,0.8c0.1,0.3,0.2,0.8,0.2,1.5c0,0.8-0.1,1.3-0.4,1.7   C435.8,67.9,435.3,68.2,434.6,68.3L434.6,68.3z M432.9,69.1h-7.3V73h7.3c1.1,0,1.8-0.1,2.1-0.4c0.3-0.2,0.5-0.7,0.5-1.5   c0-0.9-0.2-1.4-0.5-1.7C434.7,69.2,434,69.1,432.9,69.1L432.9,69.1z"></path>
	<path class="st1" d="M289.3,49.6c0.7,0,1.7-0.3,3.5-1.1c3.7-1.6,10.4-7.3,13.3-11.6c0.6-0.9,0.7-1.5,0.7-2c0-0.7-0.5-0.7-1-0.1   c-4.2,4.4-11.4,11.2-14.9,11.2c-1,0-1.6-0.8-1-3.2c1.2-4.1,3.7-10.1,5.9-13.9c0.7-1.2,0.3-2.2-0.1-2.6c-0.2-0.3-0.5-0.5-0.8-0.5   c-1.4,0-4.1,4.2-5.1,6.3c-0.3,0.8-0.5,1.3-0.5,1.9c-0.1,0.4-0.1,0.7-0.4,1.5c-0.7,2-2.2,6.5-2.5,7.8c-0.5,1.4-0.3,2.7,0.3,3.9   C287.6,49,288.5,49.6,289.3,49.6L289.3,49.6L289.3,49.6z"></path>
	<path class="st1" d="M232.2,17.8c-0.5,0-1.2,0.2-2.7,2c-1.2,1.6-5.3,6.8-10.4,13.2c-0.5,0.7-0.8,1-1.5,1.2c-0.7,0.1-1,0.5-1.6,1.2   c-0.5,0.7-0.5,1-0.5,1.2c0,0.3,0,0.5-0.3,1c-1.6,2-2.8,3.4-4.7,5.9c-2,2.5-2.5,3.9-2.5,4.7c-0.1,0.9,0.7,1.8,1.4,1.8   c1,0,2.8-1,3.7-1.6c0.7-0.5,0.8-1.1,0.7-1.6c-0.1-0.6-0.1-1.1-0.1-1.5c0.4-2.7,4-6.6,4.4-7.1c0.7-0.8,1.6-1.2,3.1-1.4   c2.3-0.5,4.5-0.7,7.3-0.7c0.6,0,0.7,0,0.8,0.4c0.2,3.7,0.8,7.4,1,9.3c0.5,2.5,1.5,3.2,2.5,3.2c1.8,0,3.3-1.4,3.5-3.5   c0.1-0.5-0.1-1.2-0.8-1c-1.2,0.3-1.7,0.2-2-1c-0.3-1.2-0.6-3.2-1-7c-0.1-0.5,0.1-0.7,0.5-0.7c1.4-0.1,3.5-0.4,5-0.9   c1.4-0.5,1.7-1.1,0.3-1.3c-1.8-0.2-4.1-0.3-5.6-0.3c-0.5,0-0.5-0.3-0.5-0.8c-0.3-5-0.5-9-0.4-10.1c0.1-0.7,0.5-1,1.4-1.8   c0.5-0.5,0.5-1,0.3-1.5C233.3,18.5,232.7,17.8,232.2,17.8L232.2,17.8L232.2,17.8z M317,45.2c0,2.4,0.9,4.2,2.3,4.2   c4.6,0,13.7-8.3,16.4-12.3c0.6-0.9,0.8-1.7,0.8-2.2s-0.4-0.7-0.8-0.3c-4.2,5-11.8,11.2-14.1,11.2c-0.8,0-1.6-0.7-0.5-5.1   c1.3-4.9,4.9-15.2,10.7-26.1c0.9-1.6,1.3-2.9,0.1-4.2c-0.2-0.3-0.6-0.4-0.9-0.4c-0.3,0-0.7,0.2-1,0.6c-0.8,1-3.1,5.3-7.8,16.9   c-1.5,3.5-2.5,6.6-3.3,9.2c-4.3,4.5-10.2,9.1-12.2,9.1c-0.8,0-1.6-0.7-0.5-5.1c1.3-4.9,4.9-15.2,10.7-26.1c0.9-1.6,1.3-2.9,0.1-4.2   c-0.2-0.3-0.6-0.4-0.9-0.4c-0.3,0-0.7,0.2-1,0.6c-0.8,1-3.1,5.3-7.8,16.9c-4.1,10-5.2,16.3-5.2,17.6v0.1c0,2.4,0.9,4.2,2.3,4.2   c3.5,0,9.5-4.8,13.4-8.8C317.2,43,317,44.5,317,45.2L317,45.2L317,45.2z M297.6,14.3c-1,0-1.8,0.4-1.9,2.5c0,1,0.1,1.9,0.3,2.5   c0.2,0.9,0.7,1.7,1.7,2.2c0.8,0.5,1.4,0.3,1.4-0.5c-0.1-1.3,0.1-3.3,0.5-4.8C299.8,15.1,298.9,14.3,297.6,14.3L297.6,14.3   L297.6,14.3z M274.7,45.9c-1.6,0-2.2-1-1.8-3.3c0.4-2.3,2-7.3,3.2-10.3c0.3-0.7,0.5-0.7,1.2-0.8c6.3-0.8,10.1-1.5,11.8-2   c1.1-0.3,1.8-1.4,0.5-1.4c-3.7,0-9.1,0.4-11,0.5c-0.5,0-0.8,0-0.7-0.5c0.3-0.6,1.4-3.7,3.1-7.2c0.5-0.9,0.4-1.6,0-2.3   c-0.3-0.5-0.6-0.7-1-0.7c-1,0-2.2,1.1-2.5,2c-0.7,1.4-2.7,7.4-3.1,8.3c-0.2,0.5-0.5,0.7-1.1,0.8c-1.2,0.1-2.4,0.3-3.4,0.5   c-0.9,0.2-1.3,0.4-1.8,0.9c-0.5,0.5-0.6,1.2-0.1,1.6c0.3,0.3,0.8,0.5,1.4,0.4c0.7-0.1,2.2-0.3,2.9-0.3c0.6-0.1,0.7,0.1,0.5,0.7   c-0.3,0.6-0.9,2.5-1.6,4.5c-3.4,4.3-8.6,9.9-11.4,9.9c-1.7,0-3-1.7-1.8-6.5c0.7-2.7,1.9-6.1,3.1-8.7c0.6-1.4,1.4-2.4,2-3.3   c0.5-1,0.6-1.8-0.1-2.5c-0.4-0.5-0.8-0.8-1.3-0.8c-0.5,0-0.8,0.5-1.2,1c-0.3,0.6-0.8,1-1.2,1.2c-0.6,0.3-1.1,0.6-3,2   c-1.9,1.4-7.3,6.6-9.4,9.6c-0.5,0.6-0.8,0.4-0.7-0.3c0.6-2.5,2-7.1,2.9-8.8c0.6-1,1-1.6,1.7-1.8c0.3-0.1,0.6-0.2,0.6-0.7   c0-0.9-0.9-2.7-2-2.7h-0.1c-0.8,0-1.6,0.3-2.7,2.7c-1.2,2.3-3.3,8.8-5.3,17.6c-0.3,1.1-0.4,2.5-0.1,2.9c0.4,0.5,0.8,0.8,1.2,0.8   c0.7,0,1.4-1.2,1.9-2c1.7-3.1,5.5-8.8,11.4-14c0.8-0.7,1.2-1,1.4-0.8c0.2,0.2,0.1,0.5-0.3,1.6c-0.5,1.4-1.4,4-2,6.9   c-1.4,6.3,0.7,9.7,3.5,9.7c2.8,0,6.6-2.2,11.2-8.1c-0.1,0.3-0.2,0.5-0.2,0.7c-0.5,1.4-0.8,2.4-0.8,3.2c0,2.2,2.3,3.4,3.7,3.4   c0.6,0,1.4-0.1,2.4-0.5c5.3-2,8.2-4.6,9.3-5.7c0.7-0.7,0.4-1.7-0.5-1C281.8,43.2,277.6,45.9,274.7,45.9L274.7,45.9L274.7,45.9z    M228.2,33.4c-1.5,0-3.5,0.1-4.8,0.2c-0.8,0.1-0.9-0.1-0.5-0.7c1.2-1.6,3.4-4.6,4.7-6.1c0.7-0.8,0.9-0.8,1,0.1   c0.1,2.3,0.3,3.9,0.3,5.9C229,33.2,229,33.4,228.2,33.4L228.2,33.4L228.2,33.4z"></path>
	<path class="st1" d="M434.7,25.8c-1.1,0-2.3,0.4-5.1,2.3c-3.7,2.5-8.9,7.8-10.1,9c-0.5,0.6-0.8,0.5-0.6-0.3   c1.6-5.6,5.9-18.2,10.3-24.2c0.6-0.8,0.5-1.4,0-2c-0.5-0.5-0.8-0.8-1.6-0.8c-0.7,0-1.4,0.5-2.2,1.9c-1.2,2-3.5,6.5-5.9,13.2   c-3.5,9.5-5.2,16.7-5.9,19.3c-0.5,2.2-0.6,3-0.5,3.8c0.1,0.9,0.6,1.3,1,1.3c1,0,2.4-1.1,2.7-2.6c0.3-2.6,0.9-4.4,2.7-6.3   c1-1,1.6-1,2.6,0.4c1.1,1.8,2.1,3.3,3.4,5.4c1.6,2.4,3.5,3.7,5,3.7c2.7,0,7.6-3.1,11-9.2c0.5-0.9,0.7-1.6,0.6-2.1   c-0.2-0.5-0.7-0.5-1.2,0.1c-1.8,2.6-5.8,8-9.2,8c-2.4,0-6.1-6.4-7.1-8.8c-0.7-1.2-0.4-1.8,0.3-2.5c1.3-1.4,5.8-5.9,9.3-6.1   c0.8-0.1,1.2-0.1,1.8-0.5c0.9-1,1-1.6,0.5-2.3C435.8,26,435.3,25.8,434.7,25.8L434.7,25.8L434.7,25.8z M371.2,26.6   c0-1.2-0.1-2.5-1.2-3.9c-1.5-2-5.9-3.7-8.2-3.7c-0.7,0-0.7-0.1-1-0.4c-0.7-1.1-1.4-1.6-2-1.6c-0.8,0-1.5,1.3-1.8,2   c-0.1,0.3-0.3,0.5-0.8,0.7c-2,0.8-3.7,1.6-5.3,2.9c-0.8,0.7-0.8,1.2-0.5,1.6c0.3,0.4,0.7,0.6,1.2,0.6c0.4,0,1.4-0.6,3.7-2   c0.5-0.3,0.7-0.2,0.5,0.5c-2.4,7.3-5.3,15.7-6.9,21c-0.3,1-0.7,1.4-1.3,1.6c-1.8,0.6-2.1,1.2-1.6,2.1c0.5,1,1.7,1.8,3.1,1.8   c0.8,0,1.4-0.4,1.7-0.7c0.4-0.3,1-0.5,1.9-0.5c2.5,0,4.4-0.5,5.2-1.2c0.8-0.5,0.8-1.1-0.1-1.2c-1.3-0.1-3.5-0.2-4.6-0.5   c-0.8-0.3-1.2-0.5-0.8-1.5c1.4-5.2,3.5-10.7,4.7-14c1.8-4.7,2.5-6.7,3-7.7c0.3-0.6,0.6-0.8,1.3-0.8c2.4,0.1,6.3,1.2,6.3,4.6   c0,4-4.6,5.7-7.8,7.3c-1.4,0.7-2.8,1.5-3.4,2.1c-0.4,0.4-0.5,0.8-0.5,1.1c0,0.5,0.9,0.7,1.4,0.7c0.4,0,0.8-0.1,1.3-0.2   c2.4-0.8,5.2-2.1,7.3-3.3C367.9,32.8,371.2,29.4,371.2,26.6L371.2,26.6L371.2,26.6z M384.1,25.8c-0.7,0-2.5,0.3-5.2,2.7   c-3.2,2.7-6.3,7.1-8,10.5c-2.1,3.9-2.5,6-2.5,7.1c0,2.4,2.2,3.2,2.7,3.2c1,0,2.2-0.6,3.8-2c1.8-1.5,5.4-5.6,6.3-6.8   c0.4-0.4,0.5-0.3,0.5,0.1c0,0.7,0.1,2.5,0.2,3.9c0.3,2.7,2.2,4.7,3.7,4.7c2.6,0,7.3-3.9,10.4-7.9c-0.4,1.9-0.9,3.6-1.3,4.5   c-0.4,1-0.5,1.7,0,2.3c0.4,0.6,1,0.9,1.5,0.9c0.6,0,1.1-0.3,1.5-1.3c2.5-5.4,5.2-10.5,8.8-14.8c1.5-1.8,2.8-3.2,3.7-3.2   c0.6,0,1.1,0.3,1.5,0.6c0.4,0.3,1,0.3,1.5-0.3c0.5-0.5,1.1-1.6,1.2-2.4c0.2-1.2-0.5-2.3-1.9-2.3h-0.1c-1.4,0-2.8,1-4.6,2.7   c-2.5,2.4-5.5,6.5-7.3,9.1c-0.6,0.8-0.8,0.8-0.7-0.1c0.3-1.8,1.4-6.1,2.3-7.8c0.3-0.5,0.6-1,0.6-1.7c0.1-0.8-0.5-2.1-1.4-2.1   c-0.7,0-1.7,1.1-2.2,1.7c-0.6,0.6-0.8,1.6-1.2,3.9c-0.2,1.3-0.6,3.4-1.1,5.8c-3.1,4.1-7.6,8.9-10,8.9c-1.6,0-2-2.2-2-5.1   c0-3.7,1.2-7.5,3.2-11.8c0.3-0.7,0.4-1.3-0.6-1.9c-0.4-0.3-0.8-0.3-1.2,0.1c-0.3,0.2-0.5,0.1-0.6-0.1   C385.4,26.6,384.8,25.8,384.1,25.8L384.1,25.8L384.1,25.8z M382.3,29.3c0.8,0,1.2,0.7,1.4,1.4c0.1,0.8-0.1,1.8-0.3,2.4   c-0.3,0.5-1.6,3.3-2.4,4.4c-2,2.6-3.8,4.9-4.9,5.9c-1.2,1.1-2.2,1.8-2.7,1.8c-0.8,0-1.1-1-0.7-2.2c0.7-2.4,2.5-6.8,5.6-10.5   C379.9,30.5,381.3,29.3,382.3,29.3L382.3,29.3L382.3,29.3z"></path>
</g>
<g>
	<polygon class="st2" points="60.6,40.1 68.6,33.3 92.5,40.9 60.6,40.1  "></polygon>
	<polygon class="st3" points="24.1,39.2 7.1,47 59.8,40.3 61.9,35.9 24.1,39.2  "></polygon>
	<polygon class="st3" points="50,34.8 50.5,27.6 54.3,28.2 53.8,34.3 50,34.8  "></polygon>
	<polygon class="st3" points="41,36.5 40.7,32.1 44.5,31.7 44.8,37 41,36.5  "></polygon>
	<polygon class="st3" points="133.7,10.9 133.2,7.3 137.5,6.7 136.5,11.1 133.7,10.9  "></polygon>
	<polygon class="st3" points="93.6,8.9 93.1,1.2 98.6,0.1 98,7.4 93.6,8.9  "></polygon>
	<polygon class="st4" points="100.6,62.5 98.8,45.5 183.4,48.3 182.7,60.3 100.6,62.5  "></polygon>
	<polygon class="st5" points="98.8,39.2 99.8,15.3 174,24.3 176.5,43 98.8,39.2  "></polygon>
	<polygon class="st2" points="83.2,45.5 97.9,40 181.4,44 192.1,47.4 83.2,45.5  "></polygon>
	<polygon class="st2" points="97.3,14.9 102.3,8.6 151.6,13.2 167.9,22 97.3,14.9  "></polygon>
	<polygon class="st5" points="59.3,41.3 61.4,62.5 80.1,62.1 83.2,41.1 59.3,41.3  "></polygon>
	<polygon class="st3" points="56.6,20.6 97.7,8.4 97.3,13.8 56.6,20.6  "></polygon>
	<polygon class="st6" points="81.1,46.6 82.2,63.5 97,63.3 97.3,45.5 81.1,46.6  "></polygon>
	<path class="st6" d="M5,48.3l1,14.4c0,0,43.6,0.2,53.5,0.4l-0.4-19.5L5,48.3L5,48.3z"></path>
	<polygon class="st6" points="56.8,22.7 58.1,35 69.2,33.6 97.1,39.6 98.5,14.7 56.8,22.7  "></polygon>
	<polygon class="st0" points="112.8,32.2 107.2,32.1 107.2,20.3 112.8,20.6 112.8,32.2  "></polygon>
	<polygon class="st0" points="129.2,33.2 124.2,33.1 124.2,22 129.2,22.3 129.2,33.2  "></polygon>
	<polygon class="st0" points="144.8,34.2 140.3,34.2 140.3,23.6 144.8,23.9 144.8,34.2  "></polygon>
	<polygon class="st0" points="159,34.9 154.9,34.9 154.9,25.1 159,25.4 159,34.9  "></polygon>
	<polygon class="st0" points="171,35.8 167.1,35.7 167.1,26.6 171,26.8 171,35.8  "></polygon>
	<polygon class="st0" points="10.7,58.1 9,58.1 9,50.2 10.7,50.2 10.7,58.1  "></polygon>
	<polygon class="st0" points="18.7,57.8 16.8,57.8 16.8,49.4 18.7,49.4 18.7,57.8  "></polygon>
	<polygon class="st0" points="24.9,57.9 23,57.9 23,49.2 24.9,49.2 24.9,57.9  "></polygon>
	<polygon class="st0" points="33.2,61.8 31.1,61.8 31.1,49.5 33.2,49.5 33.2,61.8  "></polygon>
	<path class="st0" d="M63.5,19.7l38.2-12.2l43,5.9l34.8,9.9c0,0-4.2,1.3-8.2,0c-4-1.3-27.7-8.6-27.7-8.6l-41.1-5.5L63.5,19.7   L63.5,19.7z"></path>
	<path class="st0" d="M54.1,22.2L97.9,14l67.9,8l-68.4-6.5c0,0-44,9.9-45.7,8.4C50.1,22.4,54.1,22.2,54.1,22.2L54.1,22.2z"></path>
	<polygon class="st0" points="95.3,13.9 102,9.8 97.9,13.5 95.3,13.9  "></polygon>
	<polygon class="st0" points="74.2,46.5 97.5,44.9 193.7,47 97.5,46.5 74.2,46.5  "></polygon>
	<polygon class="st0" points="79,44.7 91.4,41.1 98.3,40.9 79,44.7  "></polygon>
	<polygon class="st0" points="98.3,40.9 177.4,43.2 95.4,42.6 98.3,40.9  "></polygon>
	<path class="st0" d="M3.4,48L60,39.2l29.4,1.9c0,0-20.5,1.9-29.4,0.6C60,41.7,8.6,48.2,3.4,48L3.4,48z"></path>
	<polygon class="st0" points="6.1,46.3 21.6,40 27.7,39.6 6.1,46.3  "></polygon>
	<polygon class="st0" points="84.7,36.9 69,32.9 27,39.6 70.4,34.2 84.7,36.9  "></polygon>
	<polygon class="st0" points="97.9,40 97.1,16.4 98.6,16.4 97.9,40  "></polygon>
	<polygon class="st0" points="176.8,42.1 176.5,24.3 175.4,24.4 176.2,42.2 176.8,42.1  "></polygon>
	<polygon class="st0" points="56.2,34.4 55.4,24.5 56.8,24.1 56.2,34.4  "></polygon>
	<polygon class="st0" points="92.9,9.9 92.7,0.8 98.1,0 93.6,1.7 92.9,9.9  "></polygon>
	<polygon class="st0" points="98.2,8.4 98,0.3 101.1,0.1 101.1,7.3 100.4,0.8 98.8,0.9 98.2,8.4  "></polygon>
	<polygon class="st0" points="90.2,3.8 97.6,2.1 103.8,3.6 90.2,3.8  "></polygon>
	<polygon class="st0" points="133.1,11.5 132.9,6.9 138.1,6.4 133.9,7.7 133.1,11.5  "></polygon>
	<polygon class="st0" points="137.5,11.3 137.5,6.7 140.5,6.6 140.5,12.4 139.6,7.2 138.2,7.4 137.5,11.3  "></polygon>
	<polygon class="st0" points="130.7,9.2 137.4,8.1 142.5,9.5 130.7,9.2  "></polygon>
	<path class="st0" d="M92.8,63.4l0-1.3c0,0-0.1,0-0.1-0.1l0.1-0.1l0-0.2l0-0.1l0,0l-0.1,0l-0.1,0.1l0.1-0.1l0.1-0.1l0-0.2l0,0.2   l0,0.1l0,0l0-0.4l0-0.1c0-0.1-0.1-0.2,0-0.3l0-0.1l0,0l0,0l0-0.3l-0.1-0.2l0.1-0.1l-0.1-0.1l-0.2,0.2c-0.1,0.1,0.2,0.1,0,0.2   c0.2-0.1-0.1-0.2,0-0.2l0.2-0.2c0-0.1,0-0.2,0.1-0.3c0.1,0.1,0,0.2-0.1,0.3l0.1,0.1l-0.1,0.1l0.1,0.2l0-0.6c0.1-1.3,0-2.6,0.1-4   l0.2-2.2c0.2-1.4-0.1-2.7,0.3-4.2c0.2-0.6,0-1.6,0-2.1c-0.3-0.7-1.1-0.3-1.2-0.2c-0.7,0.5-0.3,0.8-0.7,1.7c0.2-0.6,0.5,0.4,0,1   c-0.7,0.9-0.1,2-0.2,3c0,0.3,0,0.5,0,0.8c-0.2,1.6,0.2,3,0.2,4.7c0,0.4,0.2,0.8,0.3,1.2c0,0.3,0,0.6,0,0.8c0,0.3,0.1,0.6,0.2,0.9   l-0.1-0.9c0-0.2,0.2,0.1,0.3,0.3c0,0.1-0.2,0.2-0.1,0.2c0,0.1,0.1,0.3,0.2,0.4c0,0.1-0.1,0.1-0.1,0.1c0,0.2,0.3,0.4,0.2,0.5   l-0.1,0.3l0,0.2l0.1,0.1l0.2-0.1l-0.1,0.2l0.1-0.2l-0.2,0.1l0.3,0.9l0,0c0-0.2,0-0.3,0.1-0.5c0,0.1-0.1,0.1-0.1,0l0.1-0.1   c0.1,0.2,0.1,0.3,0,0.5l0.1,0.1l-0.1,0.1l0,0.1C92.7,63.7,92.8,63.4,92.8,63.4L92.8,63.4z"></path>
	<path class="st0" d="M115.7,63.1l0-1.3c0,0-0.1,0-0.1-0.1l0.1-0.1l0-0.2l0-0.1l0,0l-0.1,0l-0.1,0.1l0.1-0.1l0-0.1l0-0.2l0,0.2   l0,0.1l0,0l0-0.4l0-0.1c0-0.1-0.1-0.2,0-0.3l0-0.1l0,0l0,0l0-0.3l-0.1-0.2l0.1-0.1l-0.1-0.1l-0.2,0.2c-0.1,0.1,0.2,0.1,0,0.2   c0.2-0.1-0.1-0.2,0-0.2l0.2-0.2c0-0.1,0-0.2,0.1-0.3c0.1,0.1,0,0.2-0.1,0.3l0.1,0.1l-0.1,0.1l0.1,0.2l0-0.6c0.1-1.3,0-2.6,0.1-4   l0.2-2.2c0.2-1.4-0.1-2.7,0.3-4.2c0.2-0.6,0-1.6,0-2.1c-0.3-0.7-1.1-0.3-1.2-0.2c-0.7,0.5-0.3,0.8-0.7,1.7c0.2-0.6,0.5,0.4,0,1   c-0.7,0.9-0.1,2-0.2,3c0,0.3,0,0.5,0,0.8c-0.2,1.6,0.2,3,0.2,4.7c0,0.4,0.2,0.8,0.3,1.2c0,0.3,0,0.6,0,0.8c0,0.3,0.1,0.6,0.2,0.9   l-0.1-0.9c0-0.2,0.2,0.1,0.3,0.3c0,0.1-0.2,0.2-0.1,0.2c0,0.1,0.1,0.3,0.2,0.4c0,0.1-0.1,0.1-0.1,0.1c0,0.2,0.3,0.4,0.2,0.5   l-0.1,0.3l0,0.2l0.1,0.1l0.2-0.1l-0.1,0.2l0.1-0.2l-0.2,0.1l0.3,0.9l0,0c0-0.2,0-0.3,0.1-0.5c0,0.1-0.1,0.1-0.1,0l0.1-0.1   c0.1,0.2,0.1,0.3,0,0.5l0.1,0.1l-0.1,0.1l0,0.1C115.6,63.3,115.7,63.1,115.7,63.1L115.7,63.1z"></path>
	<path class="st0" d="M133.2,62.9l0-1.3c0,0-0.1,0-0.1-0.1l0.1-0.1l0-0.2l0-0.1l0,0l-0.1,0l-0.1,0.1l0.1-0.1l0.1-0.1l0-0.2l0,0.2   l0,0.1l0,0l0-0.4l0-0.1c0-0.1-0.1-0.2,0-0.3l0-0.1l0,0l0,0l0-0.3l-0.1-0.2l0.1-0.1l-0.1-0.1l-0.2,0.2c-0.1,0.1,0.2,0.1,0,0.2   c0.2-0.1-0.1-0.2,0-0.2l0.2-0.2c0-0.1,0-0.2,0.1-0.3c0.1,0.1,0,0.2-0.1,0.3l0.1,0.1l-0.1,0.1l0.1,0.2l0-0.6c0.1-1.3,0-2.5,0.1-3.9   l0.2-2.2c0.2-1.4-0.1-2.7,0.3-4.1c0.2-0.6,0-1.5,0-2.1c-0.3-0.7-1.1-0.3-1.2-0.2c-0.7,0.5-0.3,0.8-0.7,1.7c0.2-0.6,0.5,0.4,0,1   c-0.7,0.9-0.1,2-0.2,3c0,0.3,0,0.5,0,0.8c-0.2,1.6,0.2,3,0.2,4.6c0,0.4,0.2,0.8,0.3,1.2c0,0.3,0,0.6,0,0.8c0,0.3,0.1,0.6,0.2,0.9   l-0.1-0.9c0-0.2,0.2,0.1,0.3,0.3c0,0.1-0.2,0.2-0.1,0.2c0,0.1,0.1,0.3,0.2,0.4c0,0.1-0.1,0.1-0.1,0.1c0,0.2,0.3,0.4,0.2,0.5   l-0.1,0.3l0,0.2l0.1,0.1l0.2-0.1l-0.1,0.2l0.1-0.2l-0.2,0.1l0.3,0.9l0,0c0-0.2,0-0.3,0.1-0.5c0,0.1-0.1,0.1-0.1,0l0.1-0.1   c0.1,0.2,0.1,0.3,0,0.5l0.1,0.1l-0.1,0.1l0,0.1C133.1,63.1,133.2,62.9,133.2,62.9L133.2,62.9z"></path>
	<path class="st0" d="M97,63.3l0-1.3c0,0-0.1,0-0.1-0.1l0.1-0.1l0-0.2l0-0.1l0,0l-0.1,0l-0.1,0.1l0.1-0.1l0.1-0.1l0-0.2l0,0.2l0,0.1   l0,0l0-0.4l0-0.1c0-0.1-0.1-0.2,0-0.3l0-0.1l0,0l0,0l0-0.3l-0.1-0.2l0.1-0.1l-0.1-0.1l-0.2,0.2c-0.1,0.1,0.2,0.1,0,0.2   c0.2-0.1-0.1-0.2,0-0.2l0.2-0.2c0-0.1,0-0.2,0.1-0.3c0.1,0.1,0,0.2-0.1,0.3l0.1,0.1l-0.1,0.1l0.1,0.2l0-0.6c0.1-1.3,0-2.6,0.1-4   l0.2-2.2c0.2-1.4-0.1-2.7,0.3-4.2c0.2-0.6,0-1.6,0-2.1c-0.3-0.7-1.1-0.3-1.2-0.2c-0.7,0.5-0.3,0.8-0.7,1.7c0.2-0.6,0.5,0.4,0,1   c-0.7,0.9-0.1,2-0.2,3c0,0.3,0,0.5,0,0.8c-0.2,1.6,0.2,3,0.2,4.7c0,0.4,0.2,0.8,0.3,1.2c0,0.3,0,0.6,0,0.8c0,0.3,0.1,0.6,0.2,0.9   L96,60.5c0-0.2,0.2,0.1,0.3,0.3c0,0.1-0.2,0.2-0.1,0.2c0,0.1,0.1,0.3,0.2,0.4c0,0.1-0.1,0.1-0.1,0.1c0,0.2,0.3,0.4,0.2,0.5   l-0.1,0.3l0,0.2l0.1,0.1l0.2-0.1l-0.1,0.2l0.1-0.2l-0.2,0.1l0.3,0.9l0,0c0-0.2,0-0.3,0.1-0.5c0,0.1-0.1,0.1-0.1,0l0.1-0.1   c0.1,0.2,0.1,0.3,0,0.5l0.1,0.1l-0.1,0.1l0,0.1C96.9,63.5,97,63.3,97,63.3L97,63.3z"></path>
	<path class="st0" d="M150.6,62l0-1.2c0,0-0.1,0-0.1-0.1l0.1-0.1l0-0.2l0-0.1l0,0l-0.1,0l-0.1,0.1l0.1-0.1l0.1-0.1l0-0.2l0,0.2   l0,0.1l0,0l0-0.4l0-0.1c0-0.1-0.1-0.2,0-0.2l0-0.1l0,0l0,0l0-0.3l-0.1-0.2l0.1-0.1l-0.1-0.1l-0.2,0.1c-0.1,0.1,0.2,0.1,0,0.2   c0.2-0.1-0.1-0.1,0-0.2l0.2-0.1c0-0.1,0-0.2,0.1-0.3c0.1,0.1,0,0.2-0.1,0.3l0.1,0.1l-0.1,0.1l0.1,0.2l0-0.6c0.1-1.2,0-2.3,0.1-3.6   l0.2-2c0.2-1.3-0.1-2.4,0.3-3.8c0.2-0.5,0-1.4,0-1.9c-0.3-0.6-1.1-0.2-1.2-0.2c-0.7,0.4-0.3,0.7-0.7,1.6c0.2-0.6,0.5,0.4,0,0.9   c-0.7,0.8-0.1,1.8-0.2,2.8c0,0.2,0,0.5,0,0.8c-0.2,1.4,0.2,2.7,0.2,4.2c0,0.4,0.2,0.7,0.3,1.1c0,0.2,0,0.5,0,0.7   c0,0.3,0.1,0.6,0.2,0.8l-0.1-0.8c0-0.2,0.2,0.1,0.3,0.3c0,0.1-0.2,0.2-0.1,0.2c0,0.1,0.1,0.2,0.2,0.4c0,0.1-0.1,0.1-0.1,0.1   c0,0.2,0.3,0.3,0.2,0.4l-0.1,0.3l0,0.2l0.1,0.1l0.2-0.1l-0.1,0.2l0.1-0.2l-0.2,0.1l0.3,0.8l0,0c0-0.2,0-0.3,0.1-0.5   c0,0.1-0.1,0.1-0.1,0l0.1-0.1c0.1,0.1,0.1,0.3,0,0.4l0.1,0.1l-0.1,0.1l0,0.1C150.5,62.3,150.6,62,150.6,62L150.6,62z"></path>
	<path class="st0" d="M166.4,61.3l0-1.1c0,0-0.1,0-0.1-0.1l0.1-0.1l0-0.2l0-0.1l0,0l-0.1,0l-0.1,0.1l0.1-0.1l0-0.1l0-0.1l0,0.1   l0,0.1l0,0l0-0.3l0-0.1c0-0.1-0.1-0.2,0-0.2l0-0.1l0,0l0,0l0-0.3l-0.1-0.2l0.1-0.1l-0.1-0.1l-0.1,0.1c-0.1,0.1,0.2,0.1,0,0.2   c0.2-0.1-0.1-0.1,0-0.2l0.1-0.1c0-0.1,0-0.2,0.1-0.3c0.1,0.1,0,0.2-0.1,0.3l0.1,0.1l-0.1,0.1l0.1,0.2l0-0.5c0.1-1.1,0-2.2,0.1-3.3   l0.2-1.8c0.2-1.2-0.1-2.3,0.3-3.5c0.1-0.5,0-1.3,0-1.8c-0.3-0.6-1.1-0.2-1.1-0.2c-0.6,0.4-0.3,0.7-0.6,1.4c0.2-0.5,0.4,0.3,0,0.9   c-0.6,0.7-0.1,1.7-0.2,2.6c0,0.2,0,0.4,0,0.7c-0.2,1.3,0.1,2.5,0.1,3.9c0,0.4,0.2,0.7,0.3,1c0,0.2,0,0.5,0,0.7   c0,0.3,0.1,0.5,0.2,0.8l-0.1-0.8c0-0.2,0.2,0.1,0.3,0.3c0,0.1-0.1,0.2-0.1,0.2c0,0.1,0.1,0.2,0.1,0.4c0,0.1-0.1,0.1-0.1,0.1   c0,0.2,0.3,0.3,0.2,0.4l-0.1,0.2l0,0.1l0.1,0.1l0.2-0.1l-0.1,0.2l0.1-0.2l-0.2,0.1l0.3,0.7l0,0c0-0.1,0-0.3,0.1-0.5   c0,0.1-0.1,0.1-0.1,0l0.1-0.1c0.1,0.1,0.1,0.3,0,0.4l0.1,0.1l-0.1,0.1l0,0.1C166.3,61.5,166.4,61.3,166.4,61.3L166.4,61.3z"></path>
	<path class="st0" d="M179.5,61.3l0-1.1c0,0-0.1,0-0.1-0.1l0.1-0.1l0-0.2l0-0.1v0l-0.1,0l-0.1,0.1l0.1-0.1l0-0.1l0-0.1l0,0.1l0,0.1   l0,0l0-0.3l0-0.1c0-0.1-0.1-0.2,0-0.2l0-0.1l0,0l0,0l0-0.3l-0.1-0.2l0.1-0.1l-0.1-0.1l-0.1,0.1c-0.1,0.1,0.2,0.1,0,0.2   c0.2-0.1-0.1-0.1,0-0.2l0.1-0.1c0-0.1,0-0.2,0.1-0.3c0.1,0.1,0,0.2-0.1,0.3l0.1,0.1l-0.1,0.1l0.1,0.2l0-0.5c0.1-1.1,0-2.2,0.1-3.3   l0.2-1.8c0.2-1.2-0.1-2.3,0.3-3.5c0.1-0.5,0-1.3,0-1.8c-0.3-0.6-1.1-0.2-1.1-0.2c-0.6,0.4-0.3,0.7-0.6,1.4c0.2-0.5,0.4,0.3,0,0.9   c-0.6,0.7-0.1,1.7-0.2,2.6c0,0.2,0,0.4,0,0.7c-0.2,1.3,0.1,2.5,0.1,3.9c0,0.4,0.2,0.7,0.3,1c0,0.2,0,0.5,0,0.7   c0,0.3,0.1,0.5,0.2,0.8l-0.1-0.8c0-0.2,0.2,0.1,0.3,0.3c0,0.1-0.2,0.2-0.1,0.2c0,0.1,0.1,0.2,0.1,0.4c0,0.1-0.1,0.1-0.1,0.1   c0,0.2,0.3,0.3,0.2,0.4l-0.1,0.2l0,0.1l0,0.1l0.2-0.1l0,0.2l0-0.2l-0.2,0.1l0.3,0.7l0,0c0-0.1,0-0.3,0.1-0.5c0,0.1-0.1,0.1-0.1,0   l0.1-0.1c0.1,0.1,0.1,0.3,0,0.4l0.1,0.1l-0.1,0.1l0,0.1C179.3,61.5,179.5,61.3,179.5,61.3L179.5,61.3z"></path>
	<path class="st0" d="M189.5,60.8l0-1c0,0-0.1,0-0.1-0.1l0.1-0.1l0-0.1l0,0l0,0l-0.1,0l-0.1,0.1l0.1-0.1l0-0.1l0-0.1l0,0.1l0,0.1   l0,0l0-0.3l0-0.1c0-0.1-0.1-0.2,0-0.2l0-0.1l0,0l0,0l0-0.3l-0.1-0.2l0.1-0.1l-0.1-0.1l-0.1,0.1c-0.1,0.1,0.2,0.1,0,0.2   c0.2-0.1-0.1-0.1,0-0.2l0.1-0.1c0-0.1,0-0.2,0.1-0.3c0.1,0.1,0,0.2-0.1,0.3l0.1,0.1l-0.1,0.1l0.1,0.2l0-0.5c0.1-1.1,0-2.1,0.1-3.3   l0.2-1.8c0.2-1.2-0.1-2.2,0.3-3.4c0.1-0.5,0-1.3,0-1.7c-0.3-0.6-1-0.2-1.1-0.2c-0.6,0.4-0.3,0.7-0.6,1.4c0.2-0.5,0.4,0.3,0,0.8   c-0.6,0.7-0.1,1.6-0.2,2.5c0,0.2,0,0.4,0,0.7c-0.2,1.3,0.1,2.5,0.1,3.8c0,0.4,0.2,0.7,0.3,1c0,0.2,0,0.5,0,0.6   c0,0.3,0.1,0.5,0.2,0.7l-0.1-0.7c0-0.2,0.2,0.1,0.3,0.2c0,0.1-0.1,0.2-0.1,0.2c0,0.1,0.1,0.2,0.1,0.4c0,0.1-0.1,0.1-0.1,0.1   c0,0.2,0.3,0.3,0.2,0.4l-0.1,0.2l0,0.1l0,0.1l0.2-0.1l-0.1,0.2l0.1-0.2l-0.2,0.1l0.3,0.7l0,0c0-0.1,0-0.3,0.1-0.4   c0,0.1-0.1,0.1-0.1,0l0.1-0.1c0.1,0.1,0.1,0.3,0,0.4l0.1,0.1l-0.1,0.1l0,0.1C189.4,61,189.5,60.8,189.5,60.8L189.5,60.8z"></path>
	<path class="st0" d="M177.9,43l15.9,3.1c0,0-3.6,0.3-4.9,0.3C187.6,46.4,177.9,43,177.9,43L177.9,43z"></path>
	<polygon class="st0" points="59.8,38.6 68.6,34.3 62.4,38.6 59.8,38.6  "></polygon>
	<polygon class="st0" points="59.3,62.2 58.5,42.2 60.4,42.2 59.3,62.2  "></polygon>
	<polygon class="st0" points="40.4,37 40.4,31.3 45.1,31.2 44.8,35 44,32 41.3,32 40.4,37  "></polygon>
	<polygon class="st0" points="49.4,35.6 50,26.8 54.7,26.7 54.6,33.5 53.7,27.5 50.9,27.5 49.4,35.6  "></polygon>
	<polygon class="st0" points="38.8,33.8 42,32.6 45.9,33.1 45.6,33.9 38.8,33.8  "></polygon>
	<polygon class="st0" points="47.5,29.6 51.1,28.3 55.4,28.9 55,29.7 47.5,29.6  "></polygon>
	<path class="st0" d="M74.2,62.6l0-1.3c0,0-0.1,0-0.1-0.1l0.1-0.1l0-0.2l0-0.1l0,0l-0.1,0L74,61l0.1-0.1l0-0.1l0-0.2l0,0.2l0,0.1   l0,0l0-0.4l0-0.1c0-0.1-0.1-0.2,0-0.3l0-0.1l0,0l0,0l0-0.3l-0.1-0.2l0.1-0.1l-0.1-0.1L74,59.6c-0.1,0.1,0.2,0.1,0,0.2   c0.2-0.1-0.1-0.2,0-0.2l0.2-0.2c0-0.1,0-0.2,0.1-0.3c0.1,0.1,0,0.2-0.1,0.3l0.1,0.1l-0.1,0.1l0.1,0.2l0-0.6c0.1-1.3,0-2.6,0.1-4   l0.2-2.2c0.2-1.4-0.1-2.7,0.3-4.2c0.2-0.6,0-1.6,0-2.1c-0.3-0.7-1.1-0.3-1.2-0.2c-0.7,0.5-0.3,0.8-0.7,1.7c0.2-0.6,0.5,0.4,0,1   c-0.7,0.9-0.1,2-0.2,3c0,0.3,0,0.5,0,0.8c-0.2,1.6,0.2,3,0.2,4.7c0,0.4,0.2,0.8,0.3,1.2c0,0.3,0,0.6,0,0.8c0,0.3,0.1,0.6,0.2,0.9   l-0.1-0.9c0-0.2,0.2,0.1,0.3,0.3c0,0.1-0.2,0.2-0.1,0.2c0,0.1,0.1,0.3,0.2,0.4c0,0.1-0.1,0.1-0.1,0.1c0,0.2,0.3,0.4,0.2,0.5   l-0.1,0.3l0,0.2l0.1,0.1l0.2-0.1l-0.1,0.2l0.1-0.2L73.6,62l0.3,0.9l0,0c0-0.2,0-0.3,0.1-0.5c0,0.1-0.1,0.1-0.1,0l0.1-0.1   c0.1,0.2,0.1,0.3,0,0.5l0.1,0.1L74,62.9l0,0.1C74.1,62.9,74.2,62.6,74.2,62.6L74.2,62.6z"></path>
	<path class="st0" d="M69.8,62.8c0,0-45-2.8-69.8-1.3c0,0,48.7,1.9,54.4,2.8C54.4,64.4,62.6,62.8,69.8,62.8L69.8,62.8z"></path>
	<polygon class="st0" points="5.2,60.6 5,48.3 6.3,48.2 5.2,60.6  "></polygon>
	<polygon class="st0" points="113,59.4 107.5,59.4 107.5,45.6 113,46 113,59.4  "></polygon>
	<polygon class="st0" points="130,59.2 124.4,59.2 124.4,46.1 130,46.4 130,59.2  "></polygon>
	<polygon class="st0" points="146.8,58.8 139.4,58.7 139.4,46.1 146.8,46.4 146.8,58.8  "></polygon>
	<polygon class="st0" points="160,57.9 155.3,57.9 155.3,46.5 160,46.8 160,57.9  "></polygon>
	<polygon class="st0" points="172,57.9 167.9,57.9 167.9,46.5 172,46.8 172,57.9  "></polygon>
	<polygon class="st0" points="81.1,62.7 80.3,47.2 81.9,47.2 81.1,62.7  "></polygon>
	<path class="st7" d="M28.4,78.5c0.5,0,1.1-0.2,1.5-0.3c1-0.4,2.1,0.5,3.1,0.1c1.3-0.6,2.7,0.2,4.1-0.2c2.5-0.8,5.1-1.7,7.8-1.4   c5,0.6,9.5,0.5,14.2,1.9c2.7,0.8,5.8,1.4,8.6,1.3c2.1,0,6.2,0.8,8.1-0.1c-2.4,0.2-4.9-0.3-7.2-1c5.2,0,10.6,0.4,15.9,0   c-9.9,0.4-19.1-1.4-28.2-5.3c5.8,0.9,12.2,2.5,18.6,3.3L72,77c0.1,0,4.7,0.8,10.6,0.5c2.8,0,5.6-0.2,8.3-0.7   c0.9-0.2,1.8-0.5,2.6-0.8c-2.5,0.7-5,1.1-7.5,1.2c1.8-0.2,3.7-0.6,5.6-1.2l-13.9,0.7c-4-0.5-8-1.4-11.9-2.3   c8.8,1.1,24.4,2.6,31.7-0.8l-35,0.1c-1.2-0.3-2.4-0.5-3.6-0.7c-5-1-10.2-1.6-15.4-1.4c-1.4-0.1-2.9-0.1-4.3,0   c-2.9,0.1-5.9,0.3-8.8,0.8c-2.5,0.4-7.2,1.2-7.4,3.9c0.9,0,1.7-0.5,2.5-0.4c-0.2,0.3-0.5,0.6-0.8,0.8c0.3-0.1,0.7,0,1-0.2   c-0.2,0.2-0.4,0.4-0.5,0.6c0.4,0,0.9-0.4,1.1-0.6c0.2-0.1,0.8-0.8,1.1-0.8c-0.5,0.6-1.2,1.1-1.5,1.8c0.2,0,0.4-0.1,0.6,0   c-0.2,0.3-0.7,0.4-0.7,0.7c0.5-0.1,0.9-0.3,1.5-0.4c0.4,0,0.8-0.1,1.2-0.2c-0.4,0.3-1.1,0.5-1.3,1c0.3,0.1,0.5,0,0.7-0.1l0,0.1   c0.1,0,0.3,0,0.4,0L28.4,78.5l-0.1-0.1L28.4,78.5L28.4,78.5z"></path>
	<path class="st8" d="M27.4,73.6c0.4,0,0.9-0.1,1.2-0.3c0.8-0.4,1.7,0.5,2.5,0.1c1-0.6,2.2,0.2,3.3-0.2c2-0.8,4.1-1.7,6.2-1.4   c4,0.6,7.6,0.5,11.4,1.9c2.2,0.8,4.6,1.4,6.9,1.4c1.7,0,5,0.8,6.5-0.1c-2,0.2-3.9-0.3-5.8-1c4.2,0,8.5,0.4,12.7,0   c-7.9,0.4-15.3-1.4-22.6-5.3c4.7,0.9,9.8,2.5,14.9,3.3l-2.3,0.1c0.1,0,3.8,0.8,8.5,0.5c2.3,0,4.5-0.2,6.7-0.7   c0.7-0.2,1.5-0.5,2.1-0.8c-2,0.7-4,1.1-6,1.2c1.5-0.2,3-0.6,4.5-1.2L67,71.8c-3.2-0.5-6.4-1.4-9.5-2.3c7.1,1.1,19.6,2.6,25.4-0.8   l-28.1,0.1c-1-0.3-1.9-0.5-2.9-0.7c-4-1-8.2-1.7-12.4-1.4c-1.1-0.1-2.3-0.1-3.5,0c-2.4,0.1-4.7,0.3-7,0.8c-2,0.4-5.8,1.2-6,3.9   c0.7-0.1,1.3-0.5,2-0.4c-0.2,0.3-0.4,0.6-0.6,0.8c0.3-0.1,0.6,0,0.8-0.2c-0.2,0.2-0.3,0.4-0.4,0.6c0.3,0,0.7-0.4,0.9-0.6   c0.1-0.1,0.7-0.8,0.9-0.8c-0.4,0.6-0.9,1.1-1.2,1.8c0.2,0,0.3-0.1,0.5,0c-0.2,0.3-0.5,0.4-0.6,0.7c0.4-0.1,0.7-0.3,1.2-0.4   c0.4,0,0.7,0,1-0.2c-0.4,0.3-0.9,0.5-1.1,1c0.2,0.1,0.4,0,0.6-0.1l0,0.1c0.1,0,0.2,0,0.3,0L27.4,73.6L27.4,73.6L27.4,73.6   L27.4,73.6z"></path>
	<path class="st0" d="M44.4,50.9l-0.1,0.2l0.1-0.1C44.4,51,44.4,50.9,44.4,50.9L44.4,50.9z"></path>
	<polygon class="st0" points="44.2,51.3 44.2,51.4 44.1,51.4 44.2,51.3  "></polygon>
	<path class="st0" d="M44,51.7c0-0.1,0.1-0.1,0.1-0.2C44.1,51.6,44,51.6,44,51.7L44,51.7z"></path>
	<path class="st0" d="M44.2,51.4C44.2,51.4,44.1,51.4,44.2,51.4L44.2,51.4L44.2,51.4L44.2,51.4L44.2,51.4z"></path>
	<path class="st0" d="M44.2,51.4C44.2,51.4,44.2,51.4,44.2,51.4L44.2,51.4L44.2,51.4z"></path>
	<path class="st0" d="M44.5,51.8c0,0-0.1,0-0.1,0.1c-0.1,0.2-0.1,0.4-0.2,0.6c0,0.1-0.2,0.2-0.2,0.2c-0.1,0.2-0.1,0.8,0,0.5   c0.2-0.4,0.2-0.7,0.4-1.1c0.1-0.3,0.2-0.7,0.3-1c0-0.1,0.1-0.2,0.1-0.2c-0.1,0.1-0.1,0.2-0.2,0.3C44.5,51.2,44.6,51.5,44.5,51.8   L44.5,51.8z"></path>
	<path class="st0" d="M45.3,49.3c0,0,0,0.1,0,0.1C45.1,49.6,45,49.8,45,50l0.1,0c0.1-0.1,0-0.1,0-0.1c0.2-0.2,0.3-0.3,0.4-0.6   C45.4,49.3,45.3,49.3,45.3,49.3L45.3,49.3z"></path>
	<polygon class="st0" points="45.5,49.2 45.4,49.3 45.4,49.3 45.5,49.2 45.5,49.2  "></polygon>
	<path class="st0" d="M43.7,52.6c-0.2,0.5-0.4,1.1-0.6,1.6c0,0.1,0,0.1,0,0.1L43,54.4L43,54.7l0,0.1v0c0,0,0,0,0,0l0.1-0.1   c0,0,0,0-0.1,0.1l-0.1,0.1c0,0.1,0,0.1-0.1,0.2c0-0.1,0-0.2,0.1-0.2l0-0.1l0,0l-0.2,0.5l0,0.1c0,0.1,0,0.3-0.1,0.3l0,0.1l0,0l0,0   l-0.1,0.4l0,0.3c0,0-0.1,0-0.1,0.1c0,0,0,0.1,0,0.2c0-0.1,0.1-0.1,0.1-0.2c0.1-0.1,0-0.2,0.1-0.3c-0.1,0.1,0,0.2-0.1,0.3   c0,0.1-0.1,0.1-0.1,0.2c0,0.1-0.1,0.3-0.2,0.4c0-0.2,0.1-0.3,0.2-0.4c0-0.1,0-0.1,0-0.2c0,0,0.1-0.1,0.1-0.1l0-0.3   c-0.1,0.3-0.2,0.5-0.2,0.8c-0.5,1.7-0.8,3.4-1.2,5.2c-0.2,1-0.3,2-0.5,2.9c-0.3,1.9-0.2,3.7-0.5,5.6c-0.1,0.8,0,2.2,0.1,2.9   c0.2,1,0.7,0.4,0.7,0.4c0.4-0.6,0.1-1.1,0.3-2.3c-0.1,0.8-0.3-0.6,0-1.4c0.4-1.1,0.1-2.7,0.3-4c0.1-0.3,0.1-0.7,0.1-1.1   c0.3-2.1,0.4-4,0.9-6.1c0.1-0.6,0.1-1.1,0.2-1.6c0.1-0.3,0.2-0.7,0.3-1c0.1-0.4,0.2-0.8,0.3-1.2c-0.1,0.4-0.2,0.7-0.3,1.2   c-0.1,0.3-0.1-0.3,0-0.5c0-0.1,0.2-0.2,0.2-0.3c0.1-0.2,0.1-0.4,0.1-0.6c0-0.1,0.1,0,0.1-0.1c0.1-0.3,0-0.5,0.1-0.7   c0.1-0.1,0.1-0.2,0.2-0.3l0.1-0.2l0-0.2c0,0-0.1,0-0.1,0c0-0.1,0.1-0.2,0.1-0.2c0,0.1-0.1,0.2-0.1,0.2c0,0,0.1,0,0.1,0   c0.1-0.4,0.2-0.8,0.3-1.2h0c-0.1,0.2-0.2,0.4-0.3,0.6c0.1-0.1,0.1-0.1,0,0.1l-0.1,0.1c0-0.2,0.1-0.4,0.2-0.6c0,0,0-0.1,0-0.1   c0-0.1,0.1,0,0.1,0l0-0.1C43.9,52.4,43.7,52.6,43.7,52.6L43.7,52.6z"></path>
	<path class="st9" d="M42.9,54.9l0-0.1l-0.2,0.4C42.9,55.1,42.9,55,42.9,54.9L42.9,54.9z"></path>
	<polygon class="st9" points="42.6,74.1 42.5,74.1 42.6,74.2 42.6,74.1  "></polygon>
	<polygon class="st9" points="42.5,74.2 42.4,74.2 42.4,74.2 42.5,74.2  "></polygon>
	<polygon class="st9" points="42.3,74.2 42.4,74.2 42.3,74.2  "></polygon>
	<polygon class="st9" points="42.4,74.2 42.4,74.2 42.4,74.2 42.4,74.2 42.4,74.2  "></polygon>
	<polygon class="st9" points="42.4,74.2 42.5,74.2 42.4,74.2  "></polygon>
	<path class="st9" d="M42.5,74.5C42.5,74.5,42.4,74.5,42.5,74.5l-0.3,0.1c0,0-0.1-0.1-0.1,0c-0.1,0-0.3,0.2-0.1,0.2   C42.1,74.7,42.2,74.6,42.5,74.5l0.3-0.2l0.1,0l-0.2,0C42.6,74.3,42.6,74.5,42.5,74.5L42.5,74.5z"></path>
	<path class="st9" d="M43.3,73.9L43.3,73.9c-0.1,0-0.2,0.1-0.3,0.1l0.1,0c0,0,0,0,0,0C43.2,74,43.3,74,43.3,73.9L43.3,73.9   L43.3,73.9z"></path>
	<polygon class="st9" points="43.5,74 43.4,74 43.4,74 43.5,74 43.5,74  "></polygon>
	<path class="st0" d="M41.9,74.4c-0.2,0.1-0.4,0.1-0.7,0.1l0,0l-0.1,0l-0.1,0l0,0l0,0l0,0l0,0l-0.1,0l-0.1,0l0.1,0l0.1,0l0,0l-0.2,0   l0,0c-0.1,0-0.1,0-0.1,0l0,0l0,0l0,0l-0.2,0l-0.1,0.1l0,0l-0.1,0l0.1,0.1c0,0,0.1-0.1,0.1,0c0-0.1-0.1,0.1-0.1,0l-0.1-0.1   c-0.1,0-0.1,0-0.2,0c0.1,0,0.1,0,0.2,0l0.1,0l0,0l0.1-0.1l-0.3,0c-0.7,0-1.3-0.1-2-0.3c-0.4-0.1-0.6-0.5-0.5-0.4   c0.4-0.2,1.1-0.6,1.8-0.5c0.3,0,0.8-0.1,1-0.2c0.3-0.2,0.1-0.6,0.1-0.6c-0.3-0.3-0.4-0.1-0.9-0.2c0.3,0-0.2,0.2-0.5,0.1   c-0.5-0.2-1.1,0.2-1.7,0.5c-0.1,0-0.4,0.3-0.5,0.5c0.1,2.2,1.6,1.5,2.4,1.8c0.2,0,0.5-0.1,0.7-0.1c0.1,0,0.3,0,0.4,0   c0.2,0,0.3-0.1,0.5-0.1c-0.2,0-0.3,0.1-0.5,0.1c-0.1,0,0.1-0.1,0.2-0.1c0,0,0.1,0.1,0.1,0l0.2-0.1c0,0,0,0.1,0.1,0.1   c0.1,0,0.2-0.2,0.3-0.1l0.2,0l0.1,0l0.1,0l0-0.1l0.1,0l-0.1,0l0,0.1l0.4-0.2l0,0c-0.1,0-0.2,0-0.3,0c0,0,0,0,0,0l0,0   C41.8,74.5,41.9,74.4,41.9,74.4L41.9,74.4l0.1,0.1l0.1,0C42.1,74.4,41.9,74.4,41.9,74.4L41.9,74.4z"></path>
	<path class="st9" d="M41,74.6L41,74.6l-0.1,0C40.9,74.6,41,74.6,41,74.6L41,74.6z"></path>
	<path class="st0" d="M50.7,53.2c0,0.1,0.7-0.7,0.5-0.7c-0.7,0.1-0.2,0-0.3-0.4c0-0.1-0.3,0-0.3-0.1c-0.1-0.3-0.3-0.2-0.6-0.3   c-0.4,0-0.4-0.5-0.8-0.2c-0.1,0-0.5,0.2-0.5,0.2c-0.3-0.2-0.5,0.2-0.7-0.3c-0.3,0.4-0.6-0.1-0.9-0.1c-0.3,0.1-0.4-0.3-0.6-0.5   c-0.1,0-0.1,0-0.2-0.1c0-0.1-0.1,0.2-0.2,0.1l0-0.2L46,50.6c0,0,0-0.1,0-0.1c0-0.1,0-0.2,0-0.3c-0.1-0.1-0.2-0.2-0.3-0.2l-0.3,0.3   v0.2l-0.1,0.1c0,0.2,0,0.4,0,0.5c0.1,0.5-0.9,2.3-0.8,2.7c0,0.1,0.2,0.2,0.3,0.4c0,0.1,0,0.2,0,0.4c0.1,0,0.1,0.2,0.1,0.3l0,0   c0,0.1,0,0.2,0,0.2c0.2,0.2,0.4,0.6,0.6,0.4c0,0,0.1-0.2,0.1-0.3c0,0,0.1,0.1,0.1,0.1l0-0.5c0.1,0.2,0.4,0.5,0.4-0.1   c0.1,0,1.1,0.3,1.3,0.2c0.2,0,0.3,0,0.5-0.1c0.1,0,0.2,0,0.3,0l0.1,0c0.9,0.5,0-0.1,0.8,1c1.6,2.2,3.9,0.4,4.2,1l0.1-0.2   c-0.3-0.6-1.3-0.6-1.7-0.9c-0.2-0.1-0.3-0.1-0.4-0.2c-0.1-0.1,0.1,0,0.4,0.2c0.1,0.1,0.3,0.1,0.4,0.2c-0.2-0.3-0.4-0.5-0.5-0.7   l-0.3-0.1c-0.4-0.2-0.8-0.4-0.9-0.7c0-0.1-0.1-0.4,0-0.6C50.6,53.8,50.5,53.5,50.7,53.2L50.7,53.2z"></path>
	<path class="st0" d="M60.4,64.4c86.8-7.5,137.4-3.8,137.4-3.8S89.9,60.9,47.5,68.8L60.4,64.4L60.4,64.4z"></path>
</g>
</svg>
