<?xml version="1.0" encoding="UTF-8"?> <svg xmlns="http://www.w3.org/2000/svg" id="Layer_1" data-name="Layer 1" viewBox="0 0 2596.25 1000"><defs><style> .cls-1 { fill: #fff; } </style></defs><g><path class="cls-1" d="M253.72,562.39l-94.39,55.04-.63-1.08c18.01-10.5,17.29-21.67-5.45-61.51l-89.49-153.46c-23.47-39.42-32.83-45.54-50.84-35.04l-.42-.72,82.14-47.9c87.18-50.84,149.84,40.07,86.88,98.5,112.48-55.45,186.76,79.37,72.2,146.17ZM61.79,341.7l62.39,106.99,34.94-20.38c59.08-34.45-3.1-141.08-62.18-106.63l-.21-.36-34.94,20.38ZM173.47,424.78l-47.19,27.52,77.93,133.65,47.19-27.52c81.78-47.68,3.84-181.33-77.94-133.65Z"></path><path class="cls-1" d="M494.28,452.54c-151.91,59.3-261.55-221.59-109.64-280.88,151.52-59.14,261.16,221.74,109.64,280.88ZM386.31,175.93c-112.66,43.98-6.36,316.32,106.3,272.34,112.66-43.98,6.36-316.32-106.3-272.34Z"></path><path class="cls-1" d="M770.56,367.69c-158.89,36.7-226.76-257.12-67.86-293.82,158.49-36.61,226.35,257.21,67.86,293.82ZM703.73,78.34c-117.85,27.22-52.05,312.1,65.8,284.88,117.85-27.22,52.05-312.09-65.8-284.88Z"></path><path class="cls-1" d="M1153.18,66.54l17.36,187.3c4.64,41.04,10.89,49.67,30.82,47.83l.12,1.25-80.57,7.47-.12-1.25c20.77-1.93,24.82-12.36,21.01-58.08l-18.1-195.19,1.72-8.54-62.58,224.03-18.69,1.73-111.3-202.04,12.52,134.97c6.93,74.75,18.01,103.88,65.79,113.28l.11,1.25-59.39,5.51-19.59-211.38c-5.59-64.83-9.73-77.85-33.4-75.65l-.08-.83,29.48-2.73-.04-.42,14.12-1.31,120.51,220.04-.53,3.4,67.77-240.43,44.44-4.12.08.83c-19.94,1.85-24.49,11.49-21.47,53.09Z"></path><path class="cls-1" d="M1440.38,271.82l1.25.03-.95,37.1-196.77-5.05.03-1.25c20.84.54,26.1-9.34,27.7-55.19l4.55-177.6c.76-45.87-3.99-56-24.83-56.53l.02-.83,188.01,4.82-.95,37.1-1.25-.03c-12.66-27.02-28.34-33.68-77.11-34.93l-54.2-1.39-3.57,139.24,94.21,2.42-11.68,32.66-1.25-.03c-9.1-19.42-26.37-29.04-66.81-30.08v-.42s-14.58-.37-14.58-.37l-3.57,139.24,62.95,1.62c48.78,1.25,64.77-4.18,78.79-30.52Z"></path><path class="cls-1" d="M1725.52,343.58l-.17,1.24-84.25-11.79.18-1.24c22.71,3.18,17.05-16.56-6.06-74.12l-17.22-42.41c-7.6-17.91-14.52-22.66-28.97-24.68l-22.3-3.12-11.38,81.36c-4.9,41-.8,50.84,19.03,53.61l-.18,1.24-80.12-11.21.18-1.24c20.65,2.89,26.99-6.33,33.76-51.7l24.62-175.94c5.94-45.48,2.31-55.68-18.34-58.57l.17-1.24,108.21,15.14c109.45,15.31,90.01,166.29-16.42,156.45,10.75,4.45,19.68,12.86,24.02,23.99l14.67,36.58c26.37,64.33,37.05,84.35,60.59,87.64ZM1567.36,182.92l54.1,7.57c69.8,9.76,90.84-137.62,20.63-147.44l-54.1-7.57-20.63,147.44Z"></path><path class="cls-1" d="M1973.62,337.73l-12.38-229.14c-.46-6.18-4.52-10.32-9.34-11.65-4.83-1.32-10.43.17-13.98,5.25l-92.6,134.17c-13.79-3.35-29.55-4.22-47.4-2.2l3.61,32.56c9.07-3.13,17.82-5.06,27.15-5.96l-63.2,91.64c-.11.4-.22.8.18.91l58.72,16.11.33-1.21c-39.01-10.7-34.39-40.14,10.96-107.7,10.42-.17,20.4,1.27,30.06,3.92,22.52,6.18,42.77,19.08,58.87,36.04l1.03-.58c-20.33-31.52-43.41-52.99-75.07-62.11l76.84-112.98c2.09-2.88,6.51-1.67,6.43,1.77l10.17,193.07c4.29,64.75-1.44,80.9-21.15,75.5l-.33,1.21,77.62,21.3.33-1.21c-18.91-5.19-22.72-19.64-26.84-78.72Z"></path><path class="cls-1" d="M2327.39,239.87l-115.21,267.78-15.71-6.76-45.74-302.07-55.05,127.95c-29.67,68.96-33.87,99.84,3.6,130.93l-.5,1.15-54.78-23.57,115.21-267.78,16.47,7.09,45.85,300.75,54.72-127.18c29.5-68.58,33.49-100-3.97-131.1l.33-.77,54.78,23.57Z"></path><path class="cls-1" d="M2471,496.72l68.3,43.38-.67,1.05c-17.25-10.96-26.62-5.54-51.03,31.33l-13.19,20.77c-28.7,31.18-74.76,30.58-110.31,7.99-48.58-30.86-78.87-102.96-22.07-192.38,53.67-84.49,131.52-95.81,188.19-59.81,21.83,13.86,40.46,35.09,53.53,61.18l-29.27,42.18-.35-.22c6.68-48.62-8.61-86-35.37-103-37.31-23.7-97.34-6.99-150.34,76.45-57.02,89.77-24.44,150.48,13.22,174.41,21.83,13.86,45.34,14.97,53.39,2.29l27.73-43.65c24.02-38.6,25.17-49.73,7.56-60.91l.67-1.05Z"></path></g><g><rect class="cls-1" x="379.88" y="831.1" width="260.66" height="10.43"></rect><rect class="cls-1" x="1955.72" y="831.1" width="260.66" height="10.43"></rect></g><g><path class="cls-1" d="M1100.59,769.79v132.63c-.42,65.48,2.5,78.41,26.28,78.41v1.25h-80.91v-1.25c20.85,0,25.86-10.01,26.27-55.89v-177.68c-.42-45.88-5.42-55.89-26.27-55.89v-.83h80.91v.83c-23.78,0-26.69,13.35-26.28,78.41Z"></path><path class="cls-1" d="M1396.87,944.96h1.25v37.12h-196.86v-1.25c20.85,0,25.85-10.01,26.27-55.89v-177.68c-.42-45.88-5.42-55.89-26.27-55.89v-.83h80.91v.83c-20.02,0-25.44,9.18-26.28,49.63v236.48h62.98c48.8,0,64.65-5.84,77.99-32.53Z"></path><path class="cls-1" d="M1626.7,944.96h1.25v37.12h-196.86v-1.25c20.86,0,25.86-10.01,26.28-55.89v-177.68c-.42-45.88-5.42-55.89-26.28-55.89v-.83h80.91v.83c-20.02,0-25.44,9.18-26.27,49.63v236.48h62.98c48.8,0,64.65-5.84,77.99-32.53Z"></path><path class="cls-1" d="M1858.28,914.51c0,51.72-43.79,72.99-95.09,72.99-31.7,0-66.31-8.34-95.09-22.52l2.09-51.72h.42c18.35,47.13,58.39,68.4,93.42,68.4s63.4-20.02,63.4-56.3c0-67.98-148.48-95.93-148.48-170.17,0-46.29,38.37-70.07,84.25-70.07,25.44,0,52.97,7.51,77.58,22.52l-2.09,51.3h-.42c-22.94-50.05-54.64-70.49-80.91-70.49s-47.55,21.69-47.55,55.89c0,62.14,148.48,91.34,148.48,170.16Z"></path><g><path class="cls-1" d="M970.7,691.38v-.83h-80.91v.83c20.86,0,25.86,10.01,26.28,55.89v177.67c-.42,45.88-5.42,55.89-26.28,55.89v1.25h80.91v-1.25c-23.77,0-26.69-12.93-26.28-78.41v-132.63c-.42-65.06,2.5-78.41,26.28-78.41Z"></path><path class="cls-1" d="M792.61,769.79c-.42-65.06,2.5-78.41,26.27-78.41v-.83h-80.91v.83c20.86,0,25.86,10.01,26.28,55.89v86.32c-8.34,1.71-16.92,4.36-26.28,8.04l12.09,30.45c4.6-3.15,9.32-5.92,14.19-8.34v61.2c-.42,45.88-5.42,55.89-26.28,55.89v1.25h80.91v-1.25c-23.77,0-26.69-12.93-26.27-78.41v-47.91c29.29-5.08,59.66,2.21,85.08,17.58l.83-.83c-27.11-24.28-54.23-38.7-85.91-39.92v-61.53Z"></path></g></g></svg> 