<svg xmlns="http://www.w3.org/2000/svg" id="Layer_1" viewBox="0 0 1080 423.75"><defs><style>      .st0 {        fill: #fff;      }    </style></defs><g><path class="st0" d="M220.09,346.14c-6.31-.1-12.72-.15-19.2-.15-103.24,0-186.93,13.07-186.93,29.2s83.69,29.2,186.93,29.2c79.72,0,147.74-7.8,174.61-18.77-27.66,5.36-72.26,8.39-122.54,7.51-83.68-1.46-151.33-13.16-151.11-26.14.2-11.18,50.73-19.65,118.24-20.84h0Z"></path><path class="st0" d="M320.61,103.57c-.96-.05-.9-.74-.72-1.12,1.02-2.15.24-4.38.41-6.56.01-.14-.01-.3-.08-.42-.47-.86-.91-1.75-1.45-2.57-.46-.7-.49-1.3-.1-2.04.16-.31.03-.86-.14-1.23-.4-.87-1.03-1.29-2.04-.83-.28.13-.7.2-.98.1-.96-.35-1.57.41-2.01.86-.65.68-1.3.96-2.13.8-1.03-.19-1.85-.18-2.73.65-.82.78-1.68.11-2.38-.61-.45-.47-.85-.97-.34-1.52.81-.88.65-1.79.39-2.79-.11-.41-.26-.96-.09-1.28.49-.9.11-1.52-.39-2.19-.14-.2-.24-.65-.13-.77,1.1-1.11,1.49-2.34.84-3.83-.07-.15.02-.37,0-.55-.07-.65-.1-1.32-.26-1.96-.26-1.02-.09-1.78.85-2.38.89-.57,1.08-1.71.51-2.57-.57-.86-1.12-1.72-1.73-2.55-.52-.71-1.08-1.35-2.16-1.22-.32.04-.98-.46-1-.76-.11-1.23-.86-1.6-1.88-1.99-.49-.18-1.09-1.13-.98-1.58.21-.95.86-1.8,1.32-2.69.54-1.05.43-1.28-.76-1.55-.26-.06-.55-.11-.75-.27-.49-.39-.94-.83-1.54-1.36.03-.09.14-.4.24-.7.33-.95,0-2.73-.74-3.03-.82-.33-1.76-.66-2.64.2-.22.22-1.05.05-1.44-.19-1.02-.64-1.92-1.46-2.93-2.11-.53-.34-1.38-.48-1.64.22-.36.98-1.24,1.22-1.92,1.57-2.83,1.46-5-.85-7.46-1.51-.12-.03-.22-.21-.28-.33-.56-1.14-1.55-1.6-2.91-1.72.12-.67.26-1.26.33-1.87.14-1.09-.2-1.35-1.23-1.06-.84.23-1.7.39-2.65.6.37-2.99,1.45-5.13,4.49-5.32v-4.69c-1.15.35-2.19,1.35-3.66.19-1.77-1.4-1.96-1.31-1.62-2.93-.4-.68-.73-1.15-.96-1.65-.13-.28-.13-.63-.19-.95-.35.17-.84.24-1.01.52-.46.74-1.06.9-1.86.81-1.08-.12-2.13-.08-3.06.66-.28.22-.76.21-1.15.29-1.19.24-2.49-.16-3.6.69-.23.17-.95.05-1.19-.19-1.27-1.22-2.26-2.77-4.03-3.38-1.32-.45-2.69-1.3-3.97-1.2-1.58.12-2.38-1.03-3.62-1.36-.48-.13-.89-.49-1.37-.66-.34-.12-.75-.04-1.09-.15-1.52-.49-1.68-.4-1.92,1.24-.81-.06-1.63-.21-2.44-.17-.84.04-1.35-.3-1.23-1.06.05-.32.23-.62.36-.92.46-1.15.27-1.94-.86-2.43-1.1-.48-1.79-1.87-3.29-1.5-.12.03-.31-.28-.49-.41-.5-.35-1.01-.7-1.53-1.02-.76-.47-1.53-.93-2.31-1.37-.48-.27-.95-.6-1.46-.73-1.38-.36-2.62-1.37-4.18-.93-.06.02-.16,0-.21-.05-.86-.75-1.67-.56-2.46.23-.26-.24-.61-.41-.66-.64-.22-1.05-.94-1.04-1.77-1.01-1.7.06-3.41.07-5.12.07-.13,0-.38-.19-.38-.3-.07-.75-.57-.72-1.15-.85-1.36-.3-2.82-.49-3.13-2.35-.21-1.23-2.58-1.77-3.09-.86-.45.79-1.23,1.03-1.93,1.49-1.89,1.23-3.38.52-4.83-.45-.69-.47-1.04-.26-1.51.08-.6.42-1.11,1.08-1.77,1.28-1.82.56-3.69.94-5.71,1.43.06.44.13.98.2,1.52-.61.08-1.38.18-1.92.26-.73-.25-1.33-.67-1.89-.62-1.21.11-2.39.46-3.59.68-.23.04-.61.06-.71-.07-.62-.79-1.32-.55-2.07-.13-.25-1.05-.58-1.8-1.78-.97-.23.16-.85.03-1.09-.19-.48-.43-.84-.43-1.38-.15-.48.26-1.04.44-1.57.51-.93.12-1.97.31-2.16-1.1-.02-.16-.2-.43-.31-.43-.73-.04-1.44-.04-1.17-1.12,0-.04-.24-.21-.37-.2-.97.06-1.94.14-2.91.23-.09,0-.22.11-.25.2-.34,1.09-1.17.75-1.89.63-.93-.16-1.85-.36-2.78-.54.01-.02.02-.04.04-.06-.53-.17-1.06-.33-1.6-.5-.1.04-.19.09-.29.13,1.14,2.06-1.32,1.53-1.49,2.8-.54-1.7-.84-1.88-1.93-1.24-.32.19-.52.77-.81.79-1.14.11-1.71.84-2.21,1.73-.4.72-1.52,1.08-2.25.75-.66-.29-2.44.14-2.93.54-.41.34-1.06.76-1.45.65-.93-.26-1.58.26-2.34.46-.19.05-.38.09-.84.19.56-.48.89-.77,1.23-1.06-.09-.09-.19-.18-.28-.26-.1.16-.21.33-.24.38-.46-.19-.88-.47-1.3-.48-.2,0-.41.52-.61.8-.68.23-1.45.48-2.22.73,0,0-.06-.2-.2-.63-.52.59-.91,1.02-1.32,1.48-.08-.13-.21-.38-.4-.59-.18-.19-.49-.29-.61-.51-.4-.72-.98-.79-1.54-.14-.5.58-1.02,1.14-1.58,1.76.05.17.14.46.32,1.08-.65-.35-1.03-.55-1.41-.75-.59.38-1.23.61-1.9.69-.84.11-1.29.63-.94,1.43.25.59.75,1.07,1.13,1.59-.1-.02-.27-.12-.43-.1-.44.07-1.07.06-1.24.32-.19.28.06.85.13,1.29.08.52.22,1.04.26,1.57.05.64.01,1.28.01,1.91-.05,0-.33-.13-.43-.04-.93.79-1.81.38-2.78.06-.71-.24-1.52-.29-2.28-.28-.56,0-2.13,3.65-1.86,4.17.76,1.45,1.19,3,.94,4.61-.13.83-.42,1.91-1.03,2.35-1.83,1.32-1.45,3.37-2,5.1-.04.12.15.33.26.47.42.53.86,1.05,1.27,1.55.12-.21.29-.52.46-.83.1.02.21.04.31.06.07.41.34.98.17,1.21-.63.86-.08,1.45.13,1.78-.22,1.09-.38,1.91-.56,2.83h-2.57c.04.31.01.51.09.66.43.83.32,1.49-.55,1.94-.98.5-2.01.91-2.93,1.5-.75.48-1.36,1.18-1.95,1.71-.08-.45-.52-.9-1.1-.28-.53.57-1.01.93-1.78.88-.1,0-.23.05-.3.12-1.19,1.16-2.37,2.32-3.56,3.48-.23.22-.43.53-.71.63-.94.33-1.71.2-2.28-.78-.64-1.1-1.03-1.12-1.9-.34-.41.37-.76.84-1.23,1.07-.38.19-.9.11-1.35.08-.07,0-.16-.41-.16-.64-.02-.81,0-1.62,0-2.44-2.54.2-4.83,1.3-7.37.49-.49.7-.24,2.28-1.89,2.07-.06,0-.17.14-.22.23-.88,1.52-2.18,2.22-3.94,2.25-1.31.02-2.65,1.55-2.33,2.79.56,2.13-.46,3.97-.78,5.94-.01.07-.06.19-.09.2-.92.01-1.13.87-1.66,1.35-1,.91-2.55,1.41-2.03,3.25.03.1,0,.28-.06.32-.75.46-.31,1.05-.18,1.6.11.46.27.91.4,1.31-1.03.87-1.06,2.01-1.06,3-.35.07-.76.04-.96.23-1.09,1.06-2.13,2.17-3.18,3.27-.1.1-.21.26-.2.39.07.8.16,1.59.26,2.39.1.79.21,1.58.37,2.36.06.29.27.54.44.86-.31.21-.66.46-1.05.72.23.32.41.58.68.95-.75,1-1.5,2-2.25,3-.23.3-.45.6-.66.91-.19.28-.34.58-.55.84-.24.29-.73.54-.73.81,0,.32.37.68.65.94.38.34.8.66,1.25.89,1.03.52,1.02,1.37.66,2.23-.31.74-.83,1.38-1.2,2.09-.19.36-.46.88-.33,1.17.26.63.76,1.16,1.17,1.74-.12.13-.46.35-.43.48.32,1.34.63,2.69,1.13,3.96.12.31.89.36,1.36.55.2.08.4.2.56.35.43.41.79.48,1.19-.06.14-.18.41-.27.69-.44.51,1.09,1.24,1.48,2.41,1.16,1.02-.28,1.87.06,2.63.93.45.51,1.34.88,2.03.87,1.12-.03,2.22-.42,3.3-.65.13.25.3.57.47.87.78,1.34,1.82,2.58,1.14,4.35-.13.35.26.95.51,1.37.17.3.65.45.73.74.25.91.52,1.86.5,2.79-.02,1.15.65,1.81,1.31,2.53.22.24.53.41.74.66.33.39.56.78-.27.86-.19.02-.36.2-.59.33.72.99.26,1.73-.48,2.45.32.37.6.7.79.91.75-.35,1.29-.6,1.83-.85.08.13.15.26.23.4-.39.32-.77.64-1.16.96q.55,1.48,1.01,1.44c.08-.72.15-1.38.23-2.03.09,0,.19,0,.28.01.12.28.24.55.31.7.39-.13.78-.4.95-.3,1.06.62,1.33,1.67,1.39,2.89-.39.08-.77.16-1.13.24.23,1.22-.51.79-.97.63,1.19,1.08,2.44,2.22,3.74,3.4.56-.5,1.22-1.3,2.28-1.18.4.04.83.29,1.12.57.22.22.25.64.31.82.85-.6,1.67-1.17,2.49-1.75.06.08.13.16.19.24-.08.28-.15.55-.23.83.44-.17.86-.4,1.31-.48,1.02-.2.85.86,1.29,1.29.4-.21.81-.43,1.21-.65-.04-.08-.08-.16-.11-.24-.34-.02-.67-.04-1.2-.07.49-.44.82-.74,1.15-1.04q3.25,2.37,3.99,2c-.1-.43-.2-.85-.29-1.29.58-.33,1.11-.64,1.62-.92.31.43.57.79.98,1.36-.4-1.41-.37-1.47.55-1.8-1.63.28-2.3.03-2.92-1.33-.36-.78-.15-1.54.66-2.22.15,1.08,2.13.96,1.3,2.5.32.09.57.15.64.17v-2.59c.14,0,.29,0,.43,0v.53c.46.16.91.32,1.53.54-.62.41-.99.65-1.35.89.04.09.08.19.12.28.58-.12,1.16-.25,1.75-.34.4-.06.96-.24,1.17-.06.75.64,1.34,1.45,2.06,2.13.56.52,1.17,1.19,1.85,1.32.53.1.94.21,1.32.55.02.02.12-.04.25-.09-.12-.27-.24-.54-.39-.85.41-.17.74-.31.9-.38.06-.42.11-.74.16-1.05.27.13.53.29.81.39.43.14.88.24,1.32.35,0,0,0,0,0-.01-.35-.24-.69-.49-1.04-.74.07-.11.13-.23.2-.34.41-.09.81-.19,1.33-.31-.37-.4-.7-.77-1.02-1.11-.11-1.08.85-1.09,1.44-1.17.36-.05.82.57,1.22.91.4.34.77.7,1.2,1.09-.12.63-1.8,2.27-2.45,2.2-.31-.03-.59-.36-.89-.55,0,0,0,0,0,0,0,0,.02.01.03.02,0,0-.02,0-.02,0,.09.35.18.7.27,1.06.7-.2,1.51-.44,2.32-.68.04.07.07.14.11.2-.83.75-1.67,1.5-2.5,2.25.08.07.15.14.23.21.07-.07.12-.18.2-.21.38-.16.77-.38,1.17-.39.16,0,.51.55.45.74-.12.35-.43.77-.76.9-.73.3-1.36.72-2.02,1.13-1.13.7-2.44,1.12-3.52,1.88-.75.53-1.1.46-1.43-.34-.41.2-.86,1.08-1.06-.05-.08-.47-.16-.94-.25-1.46.4-.06.82-.13,1.53-.25-1.17-.31-1.74-.82-1.39-1.96-.67,1.24-1.2,2.62-2.79,1.22.14.27.3.53.38.82.09.35.26.87.1,1.04-.26.28-.76.34-1.16.47-.28.09-.57.15-.94.24.38.47.62.76,1.02,1.25-1.2.18-2.18.32-3.17.47,0,.17,0,.35,0,.52.41.07.91.33,1.22.19,1.38-.63,2.07,0,2.59,1.27-.59-.05-1.19-.28-1.63-.1-.42.17-.67.76-1,1.18.16.13.39.32.6.48-.39.05-.75.09-1.16.14.65.45,1.21.82,1.79,1.22-.33.69-.09,1.86-1.44,1.72-.23,1.04-1.28,1.04-1.91,1.67-.15-.46-.25-.8-.3-.95.47-.4.84-.72,1.26-1.09-.38-.13-.74-.26-1.1-.39,0,.11-.02.21-.02.32-.32.1-.64.23-.97.29-.34.06-.7.07-1.05.05-.76-.06-1.51-.15-2.46-.25.88-1.23.13-1.47-.88-1.65.33-.65.61-1.2.87-1.71.72.13,1.42.25,2.12.37.01-.09.02-.19.04-.28-.16-.11-.33-.23-.49-.35,1.33.38,1.3-.84,1.78-1.33-1.32-.1-2.64-.19-4-.29-.24-.19-.56-.45-.9-.72.15.93.28,1.77.42,2.68-.71,1.24-2.85.13-3.5,1.81-.69-.95-1.37-1.87-1.89-2.58-1.24,1.16-2.44,2.43-3.81,3.49-.69.54-1.7.64-2.53,1.02-1.27.58-2.47.92-3.89.33-1.12-.46-2.62.36-3.46,1.37-.44.53-1.08,1.11-1.7,1.2-.73.11-1.53-.29-2.29-.47.29-.43.57-.84,1.06-1.56-1.02.28-1.72.61-2.42.62-1.13,0-2.42,1.25-3.42-.32-.06-.1-.5-.09-.64.02-.61.47-1.17.99-1.79,1.53.61.92.25,2.92,2.46,2.41.04.9.08,1.71.11,2.49-2.03.44-2.75,1.5-2.14,3.39.23.71.95,1.26,1.46,1.87.24.29.51.74.81.78,1.24.17,2.24.63,2.81,2.05.14-.56.22-.88.31-1.21.46.35.86.64,1.27.95,1-.99-.38-1.87.11-2.91.62.55,1.19,1.07,1.62,1.45.59-.07,1.08-.12,1.64-.18-.35,1.13-.62,2.03-.93,3.04.71-.05,1.34-.1,1.97-.15-.31.73-.6,1.39-.89,2.06.9.51.89.77.1,1.24,0,.69,0,1.2,0,1.7-.02,1.05.24,2.05-.12,3.17-.33,1.01-.74,2.3.17,3.39.12.15.11.42.12.64.07,1.55,1.88,2.47,3.28,1.81,1.07-.51,1.67-1.19,1.62-2.21,1.05.2,2.03.39,3.02.58-.41,1.35-1.15.17-1.93.42.49.95.87,1.91,1.43,2.74.86,1.27,2.18.34,3.29.46.08.38.14.69.21,1.06.62-.11,1.16.21,1.76-.22,1.02-.74,2.33-.95,3.14-2.14.87-1.27,1.85-1.35,3.31-.8.24.09.56-.03.84-.06.04-.08.08-.17.12-.25-1.27-.5-.82-1.26-.44-1.98.14-.27.36-.5.55-.74,0,0,0,0,0-.01,0-.01,0-.03,0-.04-.57-.17-1.13-.34-1.7-.51.02-.17.04-.33.07-.5.44,0,.93-.12,1.29.04.21.1.24.61.34.96.01,0,.03,0,.04.01,0,.01-.02.03-.03.04.09.23.19.46.32.79.19-.03.6-.11.72-.13.12-.43.2-.7.26-.9.89.59,1.64,1.08,2.44,1.61.15-2-.68-3.73.38-5.39.34.24.66.48,1.05.76.05-.04.09-.1.15-.14.18-.14.5-.17.74-.13.56.1.65.52.67,1.03,0,.23.25.46.38.69.14-.12.28-.23.42-.35,0,0,0,0,0-.01-.09-.16-.24-.3-.27-.47-.04-.27,0-.55.01-.82.19.01.4-.03.55.04.31.15.61.34.85.57.07.07-.07.33-.07.51,0,.17.07.33.12.49-.19-.09-.41-.15-.56-.29-.23-.2-.41-.66-.63-.03,0,0,0,0,0,0,0,0,0,0,0,0,0,0,0,0,0,.01.74.32,1.49.64,2.35,1,.27-1.47.98-2.35,2.46-2.17.08-.66.16-1.24.25-1.9.24-.12.55-.28.87-.44-1.28-.87-.62-2.23-1-3.29.34-.08.68-.16,1.12-.26-.28-.11-.46-.19-.77-.32.59-.23,1.05-.42,1.21-.48-.46-.41-.96-.87-1.62-1.47.16-.17.37-.6.62-.63,1.98-.23,3.97-.43,5.96-.51.78-.03,1.58.25,2.38.39.15-.7,1.01-.89,2.7-.35.16,2.15-2.06,2.97-2.66,4.83-.55,1.7-1.41,3.54-2.96,4.93-.1-.44-.16-.67-.22-.91-.92.94-.53,1.75-.06,2.65.21.4.04,1.01.04,1.7.03.02.27.16.53.32-.38.53-.76,1.05-1.13,1.58v.03c.56-.2,1.13-.4,1.42-.5,1.36.41,2.54.77,4.02,1.22-.77.64-1.2,1-1.9,1.58h2.41c-.38-.48-.61-.76-.84-1.05,1.45-.8,2.4-.58,2.88.61.55-.28,1.1-.56,1.66-.84-.18-.17-.37-.35-.61-.57,1.21-.37,2.33-.71,3.43-1.04.27.47.48.84.75,1.32.28-.45.47-.77.64-1.06.31.14.58.26,1.17.52-.43-.55-.65-.83-.8-1.02.78-1.32,0-2.4-.36-3.53.24-.12.49-.25.62-.32-.25-.58-.45-1.07-.74-1.76-.68.22-1.41.66-2.11.63-1.22-.06-2.43-.41-3.88-.68-.98.6-3.28.09-4.05-1.16-.1-.16-.05-.53.08-.66.12-.13.47-.17.65-.09.38.16.71.43,1.06.66.09-.05.17-.1.26-.16-.1-.58-.21-1.17-.31-1.76-.38.09-.64.15-1.08.26.14-.65.08-1.33.38-1.6,1.11-1.01,1.69-2.29,2.22-3.64.15-.37.67-.74,1.08-.82,1.11-.21,2.25-.27,3.45-.39v.79c.9-.87,1.8-1.39,3-.85.11.05.3-.01.42-.08,1.03-.56,1.36-.41,1.58.42.93.24,1.74.45,2.53.66.11-.27.19-.48.27-.65.54.68,1.05,1.32,1.59,2-.64.73-1.33,1.52-1.83,2.1.29.67.51,1.15.76,1.74.27.06.8.04,1.12.29.52.42.91,1.01,1.45,1.65.2-.69.32-1.12.47-1.65,1.09.51,2.04.95,2.74,1.28.38-.39.6-.63.83-.86l-.03.03c.04-.27,0-.71.13-.77,1.22-.58,2.32-1.63,3.89-.92.29.13.84-.31,1.27-.49,0,.02.09.26.19.56.68-.62,1.3-1.19,1.91-1.75.37-.22.73-.44,1.1-.66.3-.44.6-.87.78-1.13,1.03-.32,1.91-.59,2.94-.91-.75,1.28,2.03,1.05.92,2.52.28-.32.57-.64.85-.96.63.34,1.21.66,1.86,1.02.09-.41.15-.7.25-1.15.51.2.94.38,1.52.61.2-.31.45-.72.71-1.13,0,0-.01,0-.02,0,0-.01,0-.02.01-.03-.73.18-1.45.38-2.19.5-.07.01-.28-.49-.31-.77-.06-.45-.01-.92-.01-1.49-.52.71-.93,1.27-1.52,2.07-.23-.62-.35-.95-.49-1.3-.39-.1-.91-.23-1.47-.37.61-.62.61-.59,1.36-.56.17,0,.35-.31.71-.65v1.44c.1.06.2.11.3.17.39-.54.84-1.06,1.16-1.64.38-.7,1.09-.99,1.67-.5.38.32.99.71-.01,1.13-.35.15-.57.61-.69,1.09.24-.21.49-.43.77-.68.33.25.65.48,1.03.77-.1.26-.2.53-.31.8,0,0,.02,0,.03,0,0,.01-.01.02-.02.03.42-.13.85-.26,1.27-.39-.1-.05-.2-.11-.3-.16.28-.68.48-1.42.88-2.03.18-.27.96-.17,1.12-.44.72-1.26,1.28-.47,2.02-.03,1.49.86,2.97,1.9,4.6,2.3,2.38.59,4.9.63,7.34,1.02.71.11,1.44.5,2.01.95l3.66-.35s-.01,0-.02,0c-.53-.45-.99-.98-1.48-1.47-1.13-1.13-.94-1.32-.42-2.83.2-.6.42-.96.79-1.37.17.59.32,1.11.47,1.63v-2.24c1.65.48,1.88.99,1.36,2.36.37.23.74.46,1.1.69-.73.31-1.55-.55-1.91.6.21.38.41.77.63,1.14.18.3.38.6.57.89.02.01.03.03.05.04.4-.07.89-.29,1.15-.14.15.09.25.27.33.47h4.49s.38,3.91.38,3.91l11.62-5.49.12-.09c.27-.3.54-.52.69-.62,1.28-.95,1.87-1.56,3.57-1.68.74-.05,1.48,0,2.22,0,.08.14.16.29.25.43-1.54-.35-.68.59-.84,1.04.58-.14,1.07-.37,1.53-.66.38-.23.76-.79,1.05-.74.5.09,1.29.51,1.33.85.05.47-.49,1.01-.71,1.41.07,0,.39-.03.71-.06.17.67-.88,1.18-.03,1.73.11-.07.23-.13.34-.19.24-.56.41-1.16.73-1.68.23-.38.67-.93.98-.91,2.11.11,4.28.14,6.09,1.86-.26,1.35-.57,2.92-.84,4.3.44.52.91.86,1.07,1.32.25.71.32,1.5.38,2.26.06.73-.07,1.39-1.07,1.33-.2-.01-.5.06-.6.2-.32.46-.56.97-.88,1.54.32.11.72.24,1.12.38-.02-.11-.03-.22-.05-.33.28-.08.57-.23.85-.21.42.03.96.4,1.23.24.8-.47,1.29-.1,1.89.35.67.5.96.4,1.56-.34q-1.29.41-1.55-1.28c.32.02.65.05.98.07-.39-.19-.11-1-.82-.88.05-.5.11-.99.16-1.54.26-.03.51-.06.81-.09.05.3.09.58.16,1.02.25-.4.42-.68.76-1.23.13.48.33.88.25.95-.58.49.04,1.89-1.33,1.74,1.51.49,2.68.03,2.93-.94.4.43.89.95,1.38,1.48t0,0c-.3-.75-.63-1.5-.87-2.27-.05-.17.26-.45.61-1.03.55,1.02.95,1.78,1.39,2.59-.41.26-.77.48-1.13.71,0,0,0,0,0,0h0s-.01,0-.02,0c.7-.22,1.37-.35,1.97.29.13.14.49.06.75.08.9.08,1.38-.5,1.68-1.09.47.37.88.7,1.26,1,0,.09-.07.31-.03.5.02.1.3.24.31.23.16-.17.29-.36.42-.55.17-.25.33-.51.48-.77.28.19.59.34.83.57.61.61,1.61.8,1.94,1.73.01.04.13.06.2.07,1.2.21,2.39.41,3.51.6v-1.18c-.24-.13-.57-.2-.68-.39-.38-.65-.71-1.33-.99-2.02-.33-.81-.83-1.66-.79-2.47.04-.92-.28-1.46-.87-1.97,0,0,0,0,0,0h0s-.02-.03-.04-.04c.61,2.11,1.22,4.21,1.8,6.32.04.15-.19.38-.35.66-.56-.49-1.08-.94-1.61-1.4q-1.09.39-2.57-1.08c.34-.3.67-.61,1-.9-.98-.58-1.03-1.33-.19-2.85-.5.43-1.77-1.22-1.69.88h-1.43c0-.09,0-.18-.01-.27.3-.04.6-.08.91-.12-1.84-.67-3.66-1.33-5.69-2.06.08-.51.21-1.26.35-2.1.32.13.66.27,1.06.44-.02-.23-.04-.5-.07-.81,1.15.15,2.25.19,3.3.47,1.01.27,1.97.63,3.04.7.5.04.98.68,1.42,1.11.31.3.52.69.77,1.05h0c-.24-.56-.48-1.13-.81-1.92,1.64-.15,3.16-.42,4.67-.39,1.36.02,2.71.36,4.07.56-.03.06-.05.12-.07.18-.63.11-1.26.21-2.19.37.8.54,1.35.91,1.87,1.27-.14.49-.25.91-.29,1.03.65.05,1.22-.01,1.71.15.53.18.99.57,1.39.82v-.79c.67.34,1.19.61,1.8.91-.13-1.19-.12-1.17.85-1.57.35-.14.71-.36.95-.64.39-.48,2.13-.89,2.65-.57.86.53,1.73,1.04,2.62,1.56.11-.24.17-.31.16-.37-.11-1.19-.21-2.37,1.54-2.35.1,0,.21-.16.3-.26.28-.29.55-.59.94-1.02-.21-1.63-.82-3.28-2.81-4.02.1-1.69,1.91-1.64,2.52-2.45-.65-1.53-1.23-2.91-1.84-4.36-1.06.91-1.7-.26-2.34-.58.06-.9.11-1.63.17-2.36-.56-.03-1.25-.27-1.64-.02-.37.23-.43.96-.62,1.44-.47-.27-1.17-.65-1.85-1.05-.59-.34-2.06-.03-1.13-1.51.03-.04-.07-.21-.15-.27-.44-.35-.92-.67-1.34-1.05-.18-.16-.4-.5-.35-.67.24-.74.58-1.44.96-2.35-.03-.04-.24-.32-.47-.64.23-.21.42-.38.6-.55.75-.67.54-1.84-.44-2.07-.93-.22-1.91-.23-2.87-.35-.24-.03-.5-.07-.69-.2-1-.66-1.94-1.42-2.99-1.98-.37-.2-1.01.01-1.48.18-.27.1-.44.47-.64.71q-1.68-.5-3.05-1.64c-.44-.37-.81-.95-1.31-1.08-1.13-.29-1.14-.98-1.09-1.91.07-1.17-.74-3.06-2.1-2.61-.84.28-1.2-.22-1.73-.51-.31-.17-.6-.4-.92-.56-.56-.28-1.17-.45-1.69-.78-.81-.51-1.57-.58-2.59.11-.23-1.37-.49-2.62-.6-3.89-.03-.34.34-.79.64-1.07.37-.35.84-.6,1.27-.89,1.06-.72,2.14-1.21,3.39-.39.19.13.53,0,.77.07.49.16.97.38,1.44.6.27.13.53.31.78.48.19.13.37.28.56.43.38.31.76.61,1.12.91-.54.13-1.25.3-1.82.43.49.57,1.06,1.24,1.7,1.98.21-.06.68-.2,1.13-.33.32.56-.54,1.46.47,1.63.52.09,1.1-.19,1.76-.33-.45-.67-.73-1.08-1.04-1.54.54-.33,1.08-.67,1.64-1.02-1.83-.68.19-.92,0-1.4.3,1.04,2.12,1.72.46,3.15.18.02.37.04.56.05.24-.52.49-1.04.68-1.46.53.13,1.15.48,1.61.34,1.25-.38,1.57.38,1.87,1.25.41,1.2.67,1.31,1.78.69,1.06-.58,1.61-.3,1.76.91.03.28.1.55.14.79.64-.1,1.3-.04,1.73-.32.44-.29.77-.88.94-1.41.1-.3-.21-.73-.33-1.07.63-.51,1.39-1.1,2.13-1.73.95-.82,1.03-1.37.41-2.44q-.48.96-.98.41c.37-.45.72-.89,1.23-1.52.05.21.11.46.17.7.06-.06.13-.13.19-.19.06-.23.12-.45.17-.62,1.17.15,2.25.29,3.28.42.17-1.45.33-2.65.44-3.85.14-1.61,1.48-.25,2.12-.84.19-.17,1.25-.62,1.67.27.03.07.09.13.09.2,0,.36-.22.96.44.8.35-.09.89-.69.83-.94-.21-.87.58-1.18.81-1.78.03-.07.43.01.4.01.6-.68,1.12-1.28,1.77-2.01.52.58,1.03,1.14,1.39,1.54.17-.32.3-.78.6-1.08.41-.42,1.23-.6.55-1.44-.06-.07.12-.41.27-.54.32-.3.69-.55,1.13-.89,1.32-.24,2.78-1,4.34-.35,0-.01,0-.02,0-.03,0,.01.01.02.02.03,0,0,.01,0,.02,0,.1-1.13-.93-.48-1.34-.82-.26-.22-.74-.2-.94-.43-.11-.13.11-.8.28-.84.39-.09.83.04,1.25.1.07,0,.13.06.17.08.47-1.37,1.73-.23,2.52-.78-.2-.15-.36-.27-.4-.3.47-.68.89-1.36,1.41-1.96.11-.13.68-.07.81.09.18.22.14.62.33.95.02-.27.05-.53.07-.81.13-.04.24-.12.33-.09,1.13.31,2.25.66,3.38.96.27.07.58.03.87.01.38-.03.77-.17,1.12-.1.14.03.35.54.28.72-.16.37-.43.81-.77.96-.29.13-.75-.09-1.11-.21-.71-.23-1.32-.86-2.15-.02-.3.31-1.17.05-1.9.05.08.23.18.5.3.86-1.33.32-2.67.64-3.99.96.05.37.11.74.16,1.11-.1.07-.2.14-.3.21-.14-.23-.27-.46-.41-.69,0,0,0,0-.01,0,.1.4.2.8.33,1.32-.18.08-.49.21-.76.33.11.16.21.3.3.41-1.53.82-1.31-1.05-2.23-1.28-.28.28-.58.59-.85.86.21,1.35.62,2.45,2.13,2.14.41-.24.81-.49,1.37-.82v2.45s.39.25.61.55c.2.28.26.66.4.98.04.08.19.1.27.18.86.87,1.72.82,2.5-.1q.86.91,1.45.21c.26.53.51,1.05.8,1.66h1.07c-.14-.47-.24-.81-.28-.96.53-.52,1-.92,1.38-1.39.17-.21.04-.64.21-.85.32-.42.91-.69,1.11-1.14.48-1.08.96-1.6,2-.57.1.1.43-.01.69-.03-.15-.22-.23-.34-.38-.55.24.06.42.05.51.13.88.77,1.69.54,2.74.18,1.66-.57,3.45-.75,5.19-1.1.39-.21.86-.52,1.24-.43,1.19.29,2.34.76,3.52,1.08.31.08.7-.11,1.1-.18-.19-.37-.29-.57-.34-.67.4-.22,1.02-.53,1.01-.55-.36-.82-.79-1.61-1.31-2.61.01-.04.12-.38.27-.83-1.55.5-2.64.02-3.48-1.23.59-.21,1.12-.39,1.69-.59.15.1.6.24.7.51.24.68.66.87,1.31.82.61-.04,1.23.02,1.83-.07.23-.03.57-.37.58-.58.04-.82.49-.96,1.18-.96.2,0,.39-.24.7-.44-.41-.07-.67-.11-1.05-.18,1.46-.8.26-1.5.08-2.26.31-.17.61-.4.94-.53,1.29-.52,1.5-1.29.57-2.28-.56-.6-.78-1.15.03-1.75.5-.36.7-.78.36-1.48-.42-.86-.46-1.77.55-2.41.25-.16.31-.62.43-.95.26-.74.51-1.49.76-2.24.13-.44.13-.95.22-1.44.18-.95-.63-3.06-1.38-3.09h0ZM291.38,126.04c-.18.58-.37,1.17-.55,1.75-.14,0-.29,0-.43,0-.33-.62-.65-1.24-.97-1.86.09-.11.17-.22.26-.33.57.14,1.13.29,1.7.43h0ZM266.42,176.7c.4-.38.81-.75,1.25-1.08.04-.03.31.28.47.43-.39.38-.78.77-1.26,1.24-.25-.31-.48-.58-.47-.59h0ZM260.38,159.32c-.63.6-1.25,1.08-2.13.52.57-.62,1.05-1.15,1.64-1.8.21.54.34.89.5,1.28h0ZM262.9,175.73c.89-.05,1.77-.1,2.66-.14.08.17.16.34.23.51-.43.37-.85.74-1.22,1.06-.61-.44-1.11-.79-1.61-1.14-.02-.09-.04-.18-.07-.28h0ZM259.06,174.84c-.18-.2-.54-.61-.92-1.05,1.39-.63,1.47-.61,2.21.46.85-.18,1.64-.34,2.44-.51.04.14.08.27.12.4-.53.28-1.06.56-1.39.73.16.46.61,1.11.44,1.45-.18.36-.93.51-1.46.59-.52.08-1.06-.04-1.7-.09.1-.72.18-1.31.28-1.99h0ZM247.53,182.92c.3-.18.62-.45.99-.57.26-.09.59.03.98.07-.04.19-.12.58-.2.97-.62-.17-1.18-.31-1.78-.48h0ZM243.49,183.61c.1-1.34.19-2.57.28-3.82,1.09-.13,1.47.32,1.31,1.43-.03.2.35.5.58.7.46.42.94.81,1.44,1.22-.7.68-1.23,1.02-1.73.08-.46,1.32-1.21.21-1.88.37h0ZM245.42,169.82c-1,.13-1.91.54-2.08-.44-.1-.56.09-1.69,1.38-1.6-.17.45-.32.87-.47,1.26.3.2.61.4,1.18.77h0ZM247.56,163.85c.07.08-.18.66-.31.67-.31.02-.77-.06-.92-.28-.28-.41-.39-.94-.57-1.42l.39-.35c.48.45.99.88,1.41,1.38h0ZM249.62,168.01c.5-.45,1.02-.89,1.56-1.3.2-.15.54-.11.71-.27,1.04-.98,1.92-.31,2.65.35.81.74.16,1.66.01,2.5-.02.13-.16.24-.35.52-.6-.35-1.19-.7-1.79-1.05.22.33.54.68.71,1.1.13.31.21.86.04,1.03-.22.22-.72.24-1.08.21-.24-.03-.56-.26-.67-.49-.38-.78-.69-1.59-1.07-2.5-.24.16-.39.26-.54.35-.01,0-.05-.04-.13-.09-.01-.1-.1-.31-.04-.36h0ZM248.82,164.08c0-.1.01-.2.02-.3.65-.23,1.3-.46,1.94-.68-.02-.04-.18-.29-.38-.63.74.2,1.35.37,1.96.54-.04-.34-.07-.68-.11-1.02.09-.06.17-.12.26-.18.38.36.76.72.97.92-.39.95-.69,1.69-1.11,2.73-1.13-.43-2.34-.9-3.56-1.37h0ZM244.76,175.51c2.61-.77,3.22-.67,3.51.65-1.24-.23-2.38-.44-3.51-.65h0ZM242.48,170.64h2.57s.06.08.08.11c.39-.1.78-.2,1.16-.31.08.37.16.74.28,1.29.33-.24.64-.47,1.08-.78.08.34.16.65.26,1.05.21.06.53.14.68.18.06.78.1,1.43.15,2.16-1.3,0-2.71.1-4.1-.05-.51-.06-1.01-.68-1.39-1.15-.15-.18-.1-.74.07-.95.52-.64.53-.71-.26-1.06-.15-.07-.27-.22-.59-.51h0ZM109.7,180.24c-.37.64-.71,1.23-1.19,2.06-.41-.48-.69-.81-.96-1.14.32-.15.64-.3,1.22-.57.02-.06.12-.42.27-.93.26.23.45.4.66.58h0ZM110.96,187.3s-.34.72-.45.7c-.76-.14-1.5-.39-2.25-.6.06-.13.12-.26.18-.4.2.13.41.26.71.45.04-.47.08-.85.12-1.25,1.02-.33,1.21.64,1.69,1.09h0ZM115.83,159.02c-.62,1.05-1.11,1.89-1.62,2.74-.6-.15-1.22-.3-1.91-.47.3-.33.64-.64.61-.68-.19-.28-.47-.5-.52-.79-.11-.27-.23-.54-.34-.8h3.79ZM122.21,176.69c-.23-1.12.89-2.2,1.89-2.09.37,1.58-1.36,1.14-1.89,2.09h0ZM124.35,181.13c-1.37.57-2.42.22-3.25-.91,0,0,0,0,0,0,0,0,0,0,0,0-.08.87-.15,1.76-.23,2.84-.23-.18-.49-.35-.72-.57-.26-.24-.44-.58-.73-.77-.95-.61-.98-1.52.09-2.31-.04.34-.06.59-.1.89.56-.03,1.13-.06,1.69-.09,0,0,0,0,0-.01,0,0,0,0,.01.01.57.06,1.21.47,1.55-.48.07-.18.78-.13,1.25-.19.16.56.31,1.07.45,1.58h0ZM81.15,109.11c-.09.07-.17.14-.26.21-.38,0-.79.09-1.14-.02-.36-.11-.8-.35-.95-.66-.12-.25.12-.69.2-1.04.34.08.75.07,1,.27.44.35.78.82,1.16,1.24h0ZM85.81,83.51c-.22.37-.44.74-.75,1.26-.41-.22-.86-.46-1.31-.69.33-1.07,1.06-1.24,2.05-.57h0ZM100.32,133.78c-.87.22-1.75.44-2.66.67-.03-.23-.08-.54-.13-.84,2.08-.83,2.32-.82,2.78.17h0ZM102.97,132.63c0,.19,0,.38,0,.57-.53,0-1.05.02-1.58-.03-.05,0-.06-.41-.1-.64.56.03,1.12.06,1.68.09h0ZM109.54,131.11c-.59.13-1.02.23-1.66.37.46-.49.82-.87,1.32-1.41.17.53.27.85.33,1.04h0ZM111.94,140.31h-1.19c-.12.47-.26,1.02-.39,1.52-.87-.23-1.73-.46-2.7-.72.38-.9.69-1.74,1.09-2.55.09-.18.49-.36.67-.3.73.23,1.49.47,2.12.88.27.17.27.77.4,1.17h0ZM112.36,138.75c.85.43,1.49.75,2.17,1.09-.62.54-1.56.08-2.17-1.09h0ZM115.04,127.29c-.19,1.02-.37,2.05-.6,3.06-.03.13-.5.31-.57.25-.19-.16-.43-.51-.36-.67.37-.93.83-1.82,1.25-2.72.09.03.19.06.28.09h0ZM117.32,138.74c-.37.25-.84.45-1.14.79-.66.77-.84.09-1.21-.29-.53-.55-.47-1.06.14-1.33.61-.27,1.33-.31,1.8-.41.15.45.28.83.41,1.24h0ZM118.42,130.76c-.41.49-.84,1.02-1.27,1.54q.26-1.89,1.27-1.54h0ZM257.33,108.07c.95-.28.83-1.89,1.95-1.06.31.35.63.71.95,1.08-.11.17-.3.45-.59.87-.61-.24-1.38-.53-2.32-.89h0ZM253.49,134.04c.58-.44,1.12-1.17,1.74-1.24.87-.1,1.79.31,2.78.52-.37,1.07-.48,1.96.43,2.81-.3.11-.64.32-.98.33-.12,0-.21-.52-.38-.76-.27-.41-.55-.84-.92-1.14-.08-.07-.54.44-.88.55-.23.08-.57,0-.8-.13-.27-.15-.47-.43-.69-.65-.1-.1-.2-.2-.31-.29h0ZM254.07,125.74c-.27.25-1,.14-1.45-.02-.23-.09-.46-.65-.41-.96.08-.52.38-1.01.61-1.57.77.09,1.66.2,2.81.34-.61.91-.97,1.68-1.56,2.21h0ZM238.91,133.76c-.03-.16-.06-.31-.1-.47.38-.23.75-.49,1.14-.7.8-.43.8-.88.12-1.47-.49-.42-.83-1-1.24-1.5-1.22,1.21-2.48,1.59-3.26.87-.46-.42-.8-1.34-.69-1.94.18-.97,1.41-1.3,2.86-.96.1-1.04-1.76-1.57-.84-2.68-.37-.34-.73-.68-1-.94.23-.57.34-.86.35-.88-.33-.6-.55-.99-.89-1.6-.27.16-.66.39-1.18.7-.05-.03-.27-.2-.5-.37-.19.7-.38,1.4-.57,2.1-.1-.03-.21-.06-.31-.1-.38-.88-.75-1.75-1.18-2.75.48-.22,1.06-.49,1.65-.76-.13-.16-.27-.32-.4-.48-.19.8-.77.31-1.16.31-.87,0-1.74-.09-2.78-.16.25-.56.52-1.17.7-1.56,1.07.23,1.99.42,2.92.62-.03.08-.07.16-.1.24.57-.1,1.14-.2,1.72-.29-.16-.34-.35-.68-.44-1.04-.03-.12.19-.45.3-.45.59,0,1.17.07,1.86.12.03-.76.14-1.47,1.18-.95.12.06.38-.14.57-.24,1.5-.76,2.53-.12,2.51,1.74.52-.28.96-.51,1.47-.79-.37,1.48.87.81,1.38,1.07.25-.78.38-1.65.81-2.33.3-.47.73-.79.99-1.39.66-1.51.68-2.25-.4-3.38-.19-.2-.19-.59-.24-.91-.06-.34-.07-.7-.13-1.3.52-.15,1.11-.48,1.71-.47,2.47.02,4.95.1,7.41.24,1.28.07,2.55.31,3.81.52.41.07.79.3,1.39.53-.96.09-1.67.15-2.43.22-.05.8.07,1.42.8,1.95.78.56.13,1.11-.26,1.63.17.2.35.41.71.83-.71.29-1.32.79-1.87.72-1.1-.14-1.81.15-2.1,1.19-.28-.19-.62-.61-.87-.56-.6.11-1.51.31-1.66.72-.41,1.07-1.01.94-1.78.65-1.42,1.22-.97,2.37.66,2.85-.23.28-.42.51-.61.74.15.13.48.39.46.43-.57.95.19,1.66.37,2.47.05.2-.16.47-.19.56.46.58.9,1.13,1.34,1.69v-.81c1.39.69,2.9,1.02,3.33,2.55-.63.28-1.22.53-1.92.84-.17-.27-.39-.63-.62-.99.34,1.27.4,1.34,1.5,1.36-1.2.62-2.23,1.16-3.27,1.67-.08.04-.23-.11-.36-.15-.27-.07-.64-.26-.81-.16-1.98,1.17-1.98,1.19-3.05-.73,0,.16-.04.27-.02.36.15.58.63,1.4.41,1.69-.34.44-1.14.54-1.76.75-1.37.45-2.73.91-4.11,1.31-.4.11-.87.02-1.3.02h0ZM256.44,104.86c-.91-.1-1.83-.21-2.74-.31.55.44,1.09.88,1.64,1.32-.04.02-.09.05-.13.07.32.49.63.98,1.04,1.61-1.56,0-3.07.02-4.58-.02-.17,0-.5-.35-.47-.48.23-1.04.45-2.09.83-3.09.27-.73.8-.55,1.24-.05.18-.1.4-.31.53-.27.9.3,1.78.65,2.65,1.22h0ZM253.25,103.07c1.15-1.34,1.61-1.08,2.89.91-.95-.3-1.9-.6-2.89-.91h0ZM253.54,92.11c.23.4.39.68.54.95-1.21,1.13-13.71,3.97-16.97,3.83.18-1.04.28-2.09,1.59-2.33.45-.08.5-.51.68-.67.61-.51,1.42-.91,2.2-1.03.46-.07.88.24,1.05-.47.06-.23.37-.5.62-.58,2.22-.68,4.44-1.34,6.68-1.96.44-.12.94-.02,1.46-.02q.21-.55,2.94-.32c-.13.06-.18.08-.23.11.82.76-.2,1.72.29,2.6-.24-.03-.46-.06-.86-.11h0ZM242.29,88.53c-.22-.44-.42-.82-.62-1.21.06-.06.12-.12.18-.18.31.14.62.29.97.44-.18.67-.34,1.27-.57,2.11-.32-.43-.48-.63-.68-.9.3-.11.51-.2.71-.27h0ZM236.91,88.1c-.54.26-1.29-.78-1.44-1.91,1.55-.42,2.13-.27,2.27.79.05.34-.44.94-.83,1.12h0ZM240.4,99.68c.08-.3.14-.86.24-.87,1.24-.06,2.49-.04,3.74.12-1.16.6-2.09,1.78-3.57,1.18-.11.16-.19.44-.32.47-1.91.37-3.82.71-5.83,1.07.43-1.95,3.51-3.25,5.03-2.84.29.08.47.57.71.87h0ZM225.43,90.27c.75-.73.82-1.64.98-2.69.38.52.76,1.04,1.33,1.81-.94.69-1.89,1.38-2.83,2.08-.28-.39-.51-.71-.75-1.03-.07.04-.14.08-.2.12.1.24.2.49.36.91-.44-.11-.73-.2-1.03-.26-.58-.14-1.13-.61-1.69.22-.36.54-1.62.19-2.2-.34-.6-.55-.57-1.6-1.51-1.9-.04-.01.15-.71.24-1.12,0,0-.01,0-.02,0,0,0,0-.02,0-.03-.36.11-.72.23-1.09.34.07-.38.1-.78.22-1.14.11-.33.32-.64.49-.96.89.42.46,1.13.38,1.76,0,0,.01,0,.02,0,0,.01,0,.03,0,.04.32.08.64.16.96.24,0,.11,0,.23,0,.35.26-.35.48-.73.78-1.03.17-.17.46-.23.7-.33-.02.28.03.61-.09.84-.12.24-.41.41-.72.7,1.24-.22,2.02-1.1,2.25-2.61,1.23.6,2.49,1.04,3.51,1.8.31.24-.04,1.36-.1,2.25h0ZM217.29,92.85c-.5.6-.87,1.04-1.24,1.48.25-.16.52-.28.75-.47.83-.64,1.47-.42,2.21.26,1.1,1.02,2.34,1.88,3.49,2.85.32.27.55.66.72,1.1.23.28,1.06-.6.94.57,0,.01.13.06.19.06,1.48-.05,1.68,1.18,2.22,2.14.32.56,1.03.92,1.27,1.49.37.9,1.45,1.67.76,2.86-2.03.16-3.92-.29-5.73-1.1-.27-.12-.39-.56-.59-.85.07-.06.14-.12.21-.18-.5-.04-1.01-.08-1.56-.13v-1.3c-.2.6-.37,1.09-.53,1.59-.13,0-.26,0-.38.01-.24-.57-.49-1.15-.73-1.72-.08,0-.16-.01-.24-.02-.14,1.35-.28,2.71-.43,4.17-.67-.11-1.37-.22-2.08-.34v-.92c-.62-.14-1.16-.27-1.7-.38-.52-.11-1.03.32-1.08.86-.01.11-.19.22-.32.3-.62.38-1.24.76-2.02,1.23v-3.33c.28.06.64.13,1.03.2-.34-.61-.66-1.17-.98-1.74,1.22-.56.95-.84.61-1.91.6-.95,1.09-1.73,1.58-2.51-1.51.6-1.82.45-1.83-.88-.24.08-.47.16-.5.17-.88-1.74-1.73-3.41-2.65-5.22.5.17.88.31,1.45.5-.13-.33-.19-.49-.25-.66.06-.06.11-.12.17-.18.34.32.68.64,1.01.96h0s-.02-.03-.04-.04c.01,0,.03,0,.04.01v-.86c.42.22.77.46,1.15.59.39.13.82.16,1.48.27-1.06.66-1.84.22-2.63,0v.02c.76.84,1.7.68,2.66.49.35-.07.7-.21,1.06-.21.6,0,.66.31.35.76h2.17ZM215.62,89.96c-.41-.44-.82-.87-1.25-1.32.73-.56,1.13-.17,1.44.31.16.25.16.61.23.92-.14.03-.28.07-.42.1h0ZM206.94,85.22c.19.07.29.36.45.53.53.57,1.07,1.13,1.61,1.7l.03.07c.04.39.22.86.08,1.16-.28.58-.81.7-1.38.25-.35-.27-.72-.51-1.08-.77-.07.1-.14.2-.2.29.48.37.97.74,1.7,1.28-1.16.69-2.28,1.38-3.42,2.02-.17.1-.47-.02-.7-.04.05-.23.04-.5.17-.66.42-.51.89-.97,1.2-1.64-.53.43-1.07.86-1.64,1.31-.46-2-.91-3.94-1.4-6.05.42.09.61.14.93.21-.19-.27-.34-.49-.48-.69.96-1.59,2.23-2.49,4.31-1.74.29.49.1,1.15-.39,1.77-.33.43-.4.77.23,1.01h0ZM206.38,79.03c-.32.4-.65.79-.96,1.2-.33.42-2.1.74-2.47.38-.1-.1-.05-.57.03-.61,1.09-.45,2.2-.86,3.31-1.28.03.1.06.2.09.3h0ZM205.34,77.78c.37-.84,2.9-2.13,3.93-2.06-.53,1.28-2.17,2.16-3.93,2.06h0ZM202.48,78.86c.03-.63,0-1.11.08-1.56.17-.99.7-1.19,1.57-.67.32.19.69.3,1.05.45q-.13.42-2.7,1.78h0ZM195.23,69.18c-.79.28-1.55.5-1.85-.84.84-.09,1.62-.18,2.39-.23.07,0,.16.3.24.46.26.3.52.6.78.89-.51.27-1.03.54-1.54.81-.07-.1-.15-.2-.22-.29.07-.27.13-.53.2-.8h0ZM195.87,76.58c.04.2-.06.49-.19.68-.78,1.14-1.54,2.31-2.43,3.36-.19.22-1.09.18-1.32-.06-.4-.42-.52-1.09-.74-1.58.1-.34.11-.57.22-.75.71-1.2,1.42-2.4,2.18-3.56.17-.26.65-.59.85-.51.36.14.71.5.9.86.26.48.4,1.04.52,1.58h0ZM188.41,71.69c.05-.63-.57-1.53.57-1.79.57-.13,1.51,1.15,1.31,1.94-.12.47-.65,1.15-1.04,1.18-.72.06-1.06-.54-.84-1.33h0ZM189.29,78.06c-.93-.45-1.32-1.06-1.08-2.18.18-.88.04-1.83.04-2.88,1.93.77,2.27,2.69,1.05,5.06h0ZM186.18,86.5c1.04,1.22,3.04,1.32,2.65,3.24-.44.03-.87.06-1.3.08-.05.09-.1.19-.15.28,2.52.13,2.15,2.18,2.49,3.6.69,2.88.55,2.84-2.25,2.19-2.42-.57-4.02-2.05-5.39-3.93-.21-.29-.36-.91-.2-1.15,1.55-2.29,1.66-4.83,1.44-7.44-.03-.33,0-.65,0-1.01,2.62.85,3.9,1.48,4.61,4.81-.63-.22-1.12-.4-1.9-.68h0ZM169.86,82.14c.87-1.3,1.61-.64,2.64-.11,1.15.6,2.55.72,3.95,1.08-.26.14-.55.3-.78.42-.01.32.07.71-.07,1-.37.8-.81,1.57-1.26,2.33-.96,1.64-.96,1.61-2.72,1.25-1.1-.23-2.23-.27-3.33-.52-.63-.14-1.27-.44-1.81-.8-1.19-.8-2.46-1.55-3.46-2.57-1.48-1.51-1.22-2.06.62-3.01.62-.32,1.46-.44,2.16-.35.78.11,1.42-.02,2.11-.31.47-.19,1.03-.15,1.55-.21.01.1.03.19.05.29-.22.09-.44.17-.66.26.02.08.03.16.05.24.6-.12,1.21-.23,1.75-.34-.26.44-.53.89-.79,1.34h0ZM171.56,80.18c.31-.02.61-.08.91-.07,1.95.11,3.89.24,5.83.37.21.01.42.07.63.11,0,.03,0,.07-.01.11h-1.83c-.02.24-.04.51-.05.67.32-.14.65-.28.98-.42.06.12.12.23.17.35-.5.26-.98.68-1.5.75-1.55.2-3.12.1-4.51-.69-.33-.18-.42-.77-.63-1.17h0ZM181.33,81.04v9.53c-2.72-.65-5.17-1.23-7.76-1.84.94-1.49,1.8-2.87,2.71-4.31.18.15.36.31.41.35,0-3.04,2.31-3.21,4.64-3.72h0ZM172.69,96.6c1.36-.58,2.71-1.21,4.11-1.71.44-.16,1.01,0,1.51.07,1.24.15,2.48.31,3.72.5.17.03.32.24.75.58-3.85.28-7.48-.01-10.82,1.67-.08-.14-.16-.28-.24-.42.33-.24.66-.48.99-.72,0,0,0,0,0,0-.43.24-.89.46-1.3.74-.9.62-1.87.75-2.99.31.41-1.05,3.13-2.08,4.98-1.84-.26.29-.48.54-.7.79,0,0,0,0,0,0,0,0,0,0,0,0,0,0-.02.02-.03.03h0ZM171.05,95.73c-.03-.12-.06-.24-.08-.36,1.43-.34,2.86-.68,4.28-1.02.04.21.08.42.11.62-1.44.25-2.88.51-4.31.76h0ZM180.93,75.99c1.21,1.08,2.39,2.11,3.69,3.27-1.07.33-1.89.58-2.85.88-.11-1.51-1.39-2.66-.84-4.15h0ZM186.2,82.73c-1.44-.7-2.66-1.3-4.06-1.98,2.48-1.62,3.19-1.03,4.06,1.98h0ZM184.58,72.63c.22-1.07.96-1.71,2.3-1.85v4.48c-.16.04-.31.07-.47.11-.57-.95-2.14-1.22-1.83-2.74h0ZM181.98,90.14c.16-2.78.31-5.5.48-8.41,1.34.88.9,6.34-.48,8.41h0ZM181.52,63.97c1.48-.07,2.09.88,2.79,1.63.69.73,1.33,1.5,1.96,2.28.31.38.52.84.83,1.22.18.23.47.36.71.54,0,.1-.02.21-.03.31-.51-.15-1.02-.3-1.58-.46-.6.48-1.32,1.05-2.11,1.69-.17-.28-.34-.5-.45-.75-.62-1.4-1.3-2.78-1.82-4.21-.24-.67-.2-1.45-.3-2.26h0ZM191.35,101.6c-1.8-1.65-3.42-3.14-5.26-4.83,4.76.96,5.18,1.52,5.26,4.83h0ZM190.99,75.46c.28.15.83.42.82.45-.35.82-.73,1.64-1.19,2.41-.1.16-.5.14-.98.26.48-1.12.87-2.01,1.35-3.12h0ZM195.9,91.59c-.67-.24-.83-.07-.75.56.09.74.02,1.5-.07,2.25-.85-1.42-1.46-4.92-1.15-5.97.95.27,1.72,1.46,1.97,3.16h0ZM201.51,111.04c-.52-.25-.94-.31-1.08-.54-.66-1.06-1.25-2.15-1.83-3.25-.08-.16-.04-.47.07-.63.48-.68.2-.84-.49-.97-.3-.05-.69-.42-.77-.71-.76-2.98-1.6-5.94-2.11-8.97-.21-1.22.32-2.57.53-3.99,4.61,5.54,5.54,12.05,5.69,19.06h0ZM196.7,87c1.63-1.3,3.22-2.57,5.14-4.1-.06.59.07,1.23-.18,1.46-1.3,1.24-2.7,2.37-4.15,3.61-.41-.5-.66-.79-.81-.98h0ZM202.03,85.05c.23.89.43,1.97.79,2.99.62,1.71.76,3.26-.66,4.69-.61.62-1.02,1.44-1.58,2.27-1.41-1.46-.97-3.18-1.1-4.74-.98.67-.09,1.68-.28,2.54-.11.04-.21.07-.32.11-.42-1.3-.91-2.59-1.22-3.92-.07-.3.38-.83.71-1.11,1.2-.98,2.45-1.9,3.66-2.83h0ZM205.82,107.54c-.47.28-.92.55-1.33.8-.72-3.38-1.43-6.57-2.07-9.78-.1-.47-.05-1.28.22-1.44.37-.22,1.02.03,1.7.09-.24.53-.39.86-.5,1.09.45.43.86.82,1.17,1.12.96-.13,1.9-.26,2.73-.37v4.06c.79-.14,1.25-.23,1.63-.29-.1.74-.02,1.45-.31,1.95-.29.52-.89.95-1.45,1.17-.21.08-.69-.55-1.06-.86-1.39,1.21-1.49,1.5-.72,2.46h0ZM215.07,130.33c.18.23.02.73.01,1.11-.3-.02-.65.05-.9-.08-1.43-.73-2.83-1.5-4.45-2.38.54-.47.9-.79,1.27-1.11-.16-.07-.46-.15-.46-.21.01-.28.11-.55.16-.77-.53-.65-1.93-.24-1.66-1.51.76-.24,1.46-.46,2.15-.68.03.09.05.17.08.26-.19.03-.38.07-.57.1.03.09.06.17.08.25.39-.13.78-.26,1.35-.46q-1.21-.67-.81-1.89c.59.38,1.14.74,1.86,1.2.26-.62.52-1.23.86-2.03.5.04,1.15.08,1.8.13-.01.08-.03.16-.04.23-.55.34-1.11.67-1.75,1.06.45.54.86,1.03,1.27,1.52.13-.09.25-.18.38-.27-.14-.26-.28-.51-.41-.77.05-.05.11-.09.16-.14.21.28.4.57.63.83.15.17.34.29.51.43h0s0,0,.01.01c0,0,0,0,.01.01v-1.54h-1.02q.79-.6,2.82,1.02c-.37.45-.74.9-1.11,1.35-.24-.28-.47-.57-.71-.85,0,0,0,0-.01-.01-.48.21-.96.45-1.46.64-.71.27-1.43.5-2.16.75,1.07-.01,2.15-.04,3.22-.03.19,0,.38.2.72.39-.61.81-1.14,1.6-1.76,2.31-.35.4-.44.63-.07,1.09h0ZM221.39,138.59c-.7-.48-1.39-.91-2-1.43-.16-.14-.19-.64-.07-.88,1.11-2.27,2.27-4.52,3.4-6.75.62.14,1.04.23,1.62.36-.5-.25-.84-.42-1.4-.71,1.42-2.14,2.75-4.2,4.14-6.21.54-.79,1.34-.95,2.24-.44.17-.34.31-.63.56-1.15.19,1.01.34,1.79.52,2.76,0,0,.19.06.4.13,0-.01,0-.02.01-.03.01.01.03.03.04.04.39-.51.78-1.03,1.18-1.54.06,0,.12.01.17.02-.11.39-.23.78-.34,1.17.05,0,.1-.01.15-.02v1.69c-.08.04-.17.08-.25.13-.15-.31-.27-.64-.45-.93-.12-.19-.3-.35-.46-.51,0,0,0,0,0,0-.02,0-.03-.01-.05-.02-.36.96-.73,1.91-1.04,2.73.26.49.48.89.82,1.53-.16.77-.5,1.8-.5,2.82,0,.47.65.95,1.09,1.53-.07.08-.27.3-.52.58h1.06c-.12.15-.23.28-.2.24.85.64,1.7,1.27,2.48,1.85.44-.32.98-.7,1.53-1.09.31,1.29-.11,1.99-1.39,2.65-1.04.54-2.03,1.2-3.02,1.83-2.02,1.27-4.02,2.56-6.05,3.82-.34.21-.78.57-1.08-.12-.03-.07-.3-.05-.46-.06-.44-.04-.88-.07-1.42-.11.35-.86.6-1.47.84-2.07-.5-.64-1.93-.53-1.54-1.79h0ZM233.8,155.76c1.13-.55,2.02-.06,2.48,1.34-1.42.49-1.6-.95-2.48-1.34h0ZM237.47,161.83c-.7.8-1.19,1.38-1.85,2.13-.17-1.22.43-1.89,1.85-2.13h0ZM221.08,118.56c.39-1.05,1-.25,1.28-.21.68-.44,1.18-1,1.73-1.07.59-.07.83.57.55,1.13-.27.55-.95,1.01-1.15,1.39-.7,1.32-1.21.58-1.85.13-.42.32-.8.74-1.28.92-.48.19-.81-.46-.75-1.12-.34-.48-.57-.82-.81-1.15.55-.13,1.09-.26,1.64-.39-.06-.2-.12-.4-.18-.6-.4.08-.78.16-1.27.26.3-.84.57-1.58.84-2.32,1.42.55,1.62,1.06,1.25,3.03h0ZM218.29,121.9c.76.37,1.32.65,2.09,1.03-.51.51-.97.96-1.56,1.55-.19-.93-.33-1.59-.54-2.58h0ZM217.08,130.96c-.39-1.05.29-2.94,1.59-4.44.43.89-.06,2.27-1.59,4.44h0ZM221.03,123.86c-.53.96-.96,1.72-1.45,2.62-.76-1.04-.13-2.21,1.45-2.62h0ZM218.37,120.97c.7.33,1.4.66,2.1.99-.97.36-1.6-.17-2.1-.99h0ZM219.49,159.83c-.09.18-.13.44-.27.52-.44.25-.92.42-1.43.65.06-.3.1-.52.14-.74,0,0-.06-.04-.1-.04-.03,0-.07.02-.1.03-.23.25-.45.51-.75.84-.93-1.45.58-1.56,1.11-2.2-.12.45-.25.9-.37,1.35.38-.21.74-.46,1.15-.61.16-.06.41.12.61.19h0ZM217.87,168.5h-1.58c.06-.42.1-.72.13-.94.4-.47.9,1.11,1.18-.19.08.34.17.69.28,1.13h0ZM216.22,117.24c.31-.11.52-.18.58-.2.14-.69.25-1.2.35-1.71.07.01.13.03.2.04v2.34c-.4-.17-.71-.29-1.14-.47h0ZM210.56,97.55c-.03-.18.3-.43.47-.64.18.17.41.31.54.51.13.19.16.44.3.87-.17.06-.6.34-.77.23-.28-.18-.48-.61-.54-.96h0ZM210.98,106.91c-.4-.18-.7-.34-1.01-.43-.34-.1-.7-.14-1.39-.27.67-.48,1.2-1.13,1.52-1.04.67.19,1.15.81.88,1.74h0ZM209.93,131.48c.11-.08.23-.16.34-.24.57.52,1.14,1.03,1.72,1.55-.06.11-.13.21-.19.32-.58-.09-1.16-.18-2.17-.34,1.19-.5.77-.9.31-1.29h0ZM214.53,133.79c-1.19-.23-1.85-.93-2.22-2.36,2.17.17,2.77.81,2.22,2.36h0ZM206.03,122.14c.03-.25.09-.49.17-.88.44.38.94.82,1.5,1.31h1.37c-.92-.25-1.69-.57-.71-1.59.27.1.59.16.87.33.18.11.29.34.43.52-.43.05.23,1.03-.62.72.01,0,.02.01.03.02h0,0c.11.07.23.13.31.22.16.19.28.4.41.6-.28.03-.59.14-.83.07-.26-.08-.45-.34-.74-.58-.08.28-.15.5-.21.73-.16-.15-.31-.29-.47-.43-.06.04-.13.08-.19.12.22.41.45.82.69,1.27-.27.34-.59.73-.98,1.21-.4-.89-.81-1.67-1.09-2.5-.11-.33.02-.75.06-1.13h0ZM206.88,95.12c-.57.11-.91.13-.94-.61-.01-.31-.33-.61-.66-1.17,1.37.3,2.54.53,3.68.83.17.04.25.43.37.65-.89.1-1.68.15-2.45.3h0ZM234.01,114.29c-.24.14-.48.27-.45.25-.82-.49-1.44-.87-2.29-1.38.53-.82,1.05-1.62,1.58-2.45.32.3.51.48.71.65.22.18.45.34.71.54-1.1.5-1.03,1.2-.25,2.39h0ZM230.64,100.39c-.26.15-.85.17-.98,0-.37-.47-.57-1.06-.86-1.63.26-.04.43-.06.65-.1-.53-.43-1.03-.82-1.5-1.24-.19-.17-.48-.52-.43-.64.48-1.02,1.04-2.01,1.62-3.1.86,1.04,1.77,1.31,2.98.71.41-.2,1.09,0,1.58.19.17.07.33.74.19.96-.83,1.35-1.74,2.64-2.62,3.96-.21.3-.35.71-.64.88h0ZM223.01,92.92c.63-.17,1.26-.33,2.27-.6-.23.75-.41,1.35-.63,2.07-.62-.43-1.11-.78-1.61-1.12-.01-.12-.02-.23-.03-.35h0ZM224.01,96.12c-.53-.58-.92-1.01-1.36-1.49-.25.23-.45.41-.72.66-.87-.72-1.73-1.44-2.61-2.17,1.18-.98,2.01.28,3,.38,1.39.14,1.59,1.25,1.69,2.62h0ZM216.14,90.42c1.13-.05,2-.32,2.52.86.18.42.97.58,1.5.87-.82.61-1.46.74-2.14-.19-.42-.57-1.11-.92-1.89-1.54h0ZM229.2,89.76c.21.01.41-.5.68-.62.35-.16,1.01-.33,1.1-.2.45.63.74,1.37,1.09,2.07.11.2.24.4.39.58.44.5.89.98.11,1.61.22-.05.44-.1.72-.17.05.37.08.69.13,1.08-1.73-.06-3.43-.06-5.02-1.1-.1.61-.15.96-.22,1.38-.48-.09-.89-.18-1.34-.27-.12-.87,1.11-2.02-.43-2.55.36-1.45,1.37-1.9,2.77-1.8h0ZM232.18,81.5c.55-.34,1.09-.67,1.64-1.01.08.12.16.24.24.36-.53.36-1.06.71-1.59,1.07-.1-.14-.2-.28-.29-.42h0ZM234.78,90.27c.14.6.28,1.19.42,1.79-.2.1-.39.19-.59.28-.36-.46-.72-.91-1.07-1.37.41-.24.82-.47,1.24-.71h0ZM245.26,99.83c.14.06.3.1.4.2,1.45,1.45,3.36,1.98,5.19,2.69.2.08.38.78.36.8-1.12.6-1.21,1.7-1.3,2.75-.06.68-.4.78-.94.77-2.51-.07-5.02-.23-7.53-.2-2.02.03-4.04.31-6.06.45-.33.02-.67-.13-1.02-.2-.36.15-.83.35-1.33.56-.83-1.8-.27-3.38.56-4.88.21-.38.72-.72,1.15-.81,2.05-.43,4.12-.77,6.19-1.11.42-.07.86-.01,1.32-.01.55-.83,2.14-1.37,3.03-.99h0ZM237.55,115.27c-.8.37-1.21.57-1.7.79v-1.28c.51.15.97.28,1.7.49h0ZM239.95,138.84c-.16.74-.26,1.18-.39,1.79-.36-.21-.67-.39-1.15-.67.53-.39.92-.67,1.54-1.12h0ZM240.66,167.36c.39.14.78.27,1.34.47-.62,1.1-1.17,2.08-1.8,3.21-.17-.46-.36-.96-.6-1.58-.28.39-.52.71-.79,1.09-.62-.36-1.26-.73-1.89-1.1.32-.59.6-1.1.91-1.66.7.5,1.46.72,2.45-.42-.37-.18-.91-.43-1.44-.69.06-.08.13-.17.19-.26.59.17,1.18.34,1.8.52-.05.13-.11.29-.16.42h0ZM234.74,180.3c.78.2,1.41.37,2.01.52-.15.3-.29.59-.43.87,0,0,.02-.01.02-.02v.02c.85-.69,1.79-.45,2.73-.28-.9.3-1.81.6-2.73.9v-.62s-.02,0-.03.02c0,0,0-.01,0-.02-.13.11-.26.22-.49.41-.34-.57-.67-1.12-1.09-1.8h0ZM234.37,174.85c.12-.06.24-.11.35-.17.52.46,1.22.82,1.52,1.39.6,1.14,1.68,1.12,2.65,1.42-.06-.51.42-1.11.72-.88.56.42.98,1.02,1.46,1.55-.19.1-.38.2-.56.3.22.33.44.67.69,1.04-.18.27-.36.54-.54.81.3-.09.59-.19.97-.31-.21.68-.37,1.23-.62,2.08-.55-.39-1.03-.73-1.51-1.07-1.48-.36-2.95-.76-4.44-1.07-.96-.2-1.34-.87-1.28-1.65.08-1.16.39-2.3.6-3.44h0ZM228.09,170.99c.96.41,1.8.78,2.64,1.14-2.17.43-2.52.27-2.64-1.14h0ZM227.74,155.33c.29-.43.43-.63.55-.84.11-.18.21-.36.43-.49-.07.29-.14.58-.2.88.06.03.11.07.17.1.25-.37.49-.74.71-1.08.73.34,1.56.72,2.39,1.1-.02.1-.03.2-.05.3-.37.07-.75.14-1.07.2.59.41,1.22.84,1.84,1.27.04-.04.08-.08.13-.13-.13-.19-.26-.37-.4-.56.04-.07.09-.18.11-.18.28.06.69.03.82.21.56.79,1.07,1.62,1.53,2.47.12.23.1.64-.03.86-.12.19-.5.34-.74.31-1.55-.2-2.96-.67-3.64-2.27-.35.17-.6.31-.86.4-.45.16-.91.27-1.43.43-.28-1.49,1.8-1.3,1.78-2.26-.73-.25-1.32-.45-2.05-.7h0ZM226.74,146.85c1.06-1.41,1.89-1.73,2.57-1.12-.5.74-.98,1.47-1.5,2.25-.35-.36-.71-.75-1.07-1.13h0ZM225.19,170.72c.57.04,1.02,0,1.4.13.32.12.59.43.81.71.06.07-.16.51-.23.5-.41-.03-.87-.06-1.22-.26-.27-.15-.4-.55-.76-1.08h0ZM223.71,158.09c.04-.18.08-.35.12-.53.47,0,1.03-.15,1.39.05.3.17.36.75.52,1.15-.15.1-.29.19-.44.28-.53-.32-1.07-.64-1.6-.95h0ZM221.56,168.56c.6-.18,1.2-.35,2.02-.59-.29,1.78-1.36.6-1.89,1-.04-.13-.09-.27-.13-.4h0ZM221.33,166.86s-.01.02-.02.03c0,0,0,0,0,0-.08.14-.16.3-.26.43-.22.28-.47.54-.7.81-.09-.24-.33-.58-.25-.71.18-.27.51-.45.8-.62.09-.05.27.06.41.09,0-.01.01-.02.02-.03h0c.09-.15.2-.3.24-.46.25-1.22,1.02-1.56,2.22-1.26-.05.21-.11.47-.13.54-.47.12-.83.21-1.08.28.39.74.66,1.26.93,1.77-.86.13-1.55.23-2.36.35.07-.45.13-.84.18-1.22h0ZM216.01,170.99v-2.16h4.4c.06.09.13.18.19.28-1.49.61-2.98,1.22-4.59,1.88h0ZM204.26,108.51c1.1.42,1.93.74,2.72,1.04-.77.39-1.57.8-2.54,1.3-.06-.75-.11-1.46-.17-2.34h0ZM200.1,171.37c-.28-.14-.51-.26-.74-.37.3-.57,1.42.1,2.02,1.12.04.06.08.12.14.21.36-.2.75-.36,1.08-.61.87-.65.3-.17.81.41.34.39.31,1.1.43,1.66.08.37.09.76.19,1.13l-2.45.05c-.3-.18-.67-.27-.81-.6-.34-.83-.61-1.69-.96-2.66-.03.03.1-.12.28-.33h0ZM193.93,120.47c-3.29-.37-6.58-.8-9.87-1.2-2.87-.35-5.75-.64-8.61-1.04-3.14-.43-6.25-1.04-9.4-1.38-1.63-.18-3.31.11-4.96.06-3.21-.08-6.42-.24-9.63-.4-.38-.02-.74-.29-1.19-.47-.74,1.18-1.3-.06-2.03-.19.15.17.29.35.46.55-.1.05-.19.13-.28.14-.72.1-1.44.26-2.16.24-.43-.01-1.04-.19-1.24-.51-.51-.82-1.39-.87-2.1-1.36-.08.62-.15,1.14-.25,1.87-.32-.13-1.08-.28-1.09-.47-.03-.54.14-1.16.43-1.62.36-.58.92-1.05,1.44-1.62-.14-.18-.33-.42-.51-.66.03-.1.06-.2.09-.31,1.11.15,2.21.31,3.42.47-.03.1-.05.21-.09.3-.04.08-.12.15-.31.37,1.11-.18,2.06-.06,2.58-1.28.24-.57,1.08-.89,1.65-1.32-.03-.1-.06-.19-.09-.29-.41.11-.82.23-1.57.44.52-.64.84-1.03,1.21-1.49-.39-.27-1.29-.31-.63-1.44-1.35.99-1.92-.02-2.78-.61,1.51-.09,1.9-2.07,3.76-1.9-.39.36-.61.57-.73.68.51.79.99,1.55,1.47,2.3.08-.05.15-.1.23-.15-.04-.37-.07-.75-.11-1.08.6.3,1.15.59,1.57.81.37-.54.62-.91.92-1.35-.66-.1-1.15-.17-1.93-.29.43-.47.62-.89.92-.99,1.2-.39,1.04-1.14.62-1.98-.09-.18-.27-.33-.44-.53.57-.89,1.65-.89,2.19-.53,1.05.7,1.76.26,2.58-.21-.69.11-1.38.22-2.07.33-.04-.14-.07-.28-.11-.43.93-.29,1.86-.57,2.78-.86.04.18.09.35.13.53,3.28-1.86,9.63-3.52,12.09-3.02-.11.32-.22.62-.33.93.61-1.49,2.06-1.18,3.18-1.57,2.94-1.02,5.95-1.49,9.05-1.16.57.06,1.23.29,1.65.67,2.35,2.15,4.73,4.28,6.92,6.58,1.52,1.61,2.55,3.59,2.72,5.89.01.2.1.41.21.59,1.16,2,2.33,4.01,3.51,6,.4.66.92,1.26,1.26,1.94.34.67.52,1.42.86,2.42-2.07-.16-3.73-.23-5.39-.41h0ZM166.04,96.15c.58-.11.88-.16,1.17-.22-.03.28.01.6-.1.85-.65,1.39-2.03.96-3.08,1.38-.06-.16-.12-.31-.18-.47.95-.46,1.9-.93,2.71-1.33.07.03-.06-.02-.52-.21h0ZM153.64,97.74c2.45,0,4.9.06,7.34.12.42.01.84.14,1.26.21-1.83,1.32-3.5,2.45-5.8,2.69-1.78.19-3.48-.48-5.2-.03-.39.1-.78.2-1.18.28-.74.16-1.48.3-2.44.5.2-.68.3-1.05.42-1.45-.3-.21-.59-.41-.95-.67.24-.05.38-.08.83-.17-.82-.23-1.37-.38-2.25-.63.43-.36.67-.74.93-.75,2.35-.07,4.7-.11,7.04-.1h0ZM152.56,97.21h-4.83c.1-1.09-.4-1.49-1.42-1.32-.02-.12-.04-.25-.07-.37.6-.26,1.32-.87,1.78-.71,1.59.54,3.1,1.34,4.63,2.04-.04.12-.07.24-.11.36h0ZM143.37,99.65c-.17.05-.35.1-.72.21.14-.45.16-.9.4-1.13.16-.16.62-.03.94-.03.11.16.22.33.33.49-.33.17-.65.33-.98.49.18.11.52.31.51.33-.32.67-.68,1.32-1.03,1.98-.13.25-.24.53-.39.76-.16.24-.38.45-.77.91q.49-3,1.72-4h0ZM145.26,103.55c-.2.49-.39.95-.5,1.21h-2.4c-.08-.81.99-1.37,2.89-1.21h0ZM145.72,109.49c.66.26.74.77.22,1.28q-.99.96-1.82.92c-.08-.68-.17-1.35-.25-2.02h0c.02.21.05.42.03.63-.03.24-.11.47-.17.71-.17-.14-.31-.33-.51-.4-.18-.07-.41-.01-.65-.01.04-.83.61-.96,1.3-.92,0,0,0-.02,0-.03,0,.01,0,.02,0,.03,0,0,.02,0,.03,0,.02-.69.26-.96.94-.56.27.16.59.26.88.37h0ZM148.84,103.67c.15.34.29.66.44.98-.08.09-.15.17-.23.25-.31-.28-.84-.54-.87-.85-.03-.32.36-.8.7-.99.23-.13.67.13,1.02.21-.03.12-.05.24-.08.35-.31.01-.61.03-.97.04h0ZM145.33,125.17c-1.81.51-2.45.33-3.12-.99.28.1.47.16.65.22.02-.04.03-.09.05-.14-1.28-.28-2.56-.57-3.97-.89,1.41-.98,4.63.01,6.4,1.79h0ZM139.33,120.38c-.39-.46-.78-.92-1.17-1.37.15-.12.29-.24.44-.36.37.46.74.92,1.11,1.39-.12.12-.25.23-.37.35h0ZM153.17,125.34c-.48.49-.96.46-1.82-.1.15-.54.3-.97.39-1.41.08-.38.11-.78.16-1.17.12.01.24.03.37.04-.01.27-.03.54-.05.81.08.03.17.05.25.08.11-.37.22-.74.31-1.05.95,1.27,1.08,2.1.39,2.81h0ZM153.52,122.83c-.39-.58-.68-1.01-1.01-1.5-.5.02-1.16.06-1.83.09-.03-.1-.07-.21-.1-.31.74-.61,1.47-1.22,2.2-1.82,1.27.92,1.1,2.1.75,3.54h0ZM150.5,125c-.38-.21-.81-.4-1.2-.67-.7-.48-.65-1.94.12-2.28.19-.09.69.27.91.54.22.28.26.69.38,1.05.06-.02.12-.04.19-.07.07-.43.14-.86.23-1.35.61.81.4,1.69-.63,2.78h0ZM148.52,120.93c-.05.29-.05.59-.06.88-.02.81-.6.99-1.21.97-.92-.03-1.93-1.24-1.93-2.28h1.39c-.32-1.47-.29-1.62,1.24-1.76,1.52-.13,3.06-.03,4.59-.03.04.09.07.18.11.27-.61.43-1.2.9-1.84,1.28-.2.12-.59.12-.79,0-.83-.5-1.32-.32-1.5.66h0ZM144.54,121.05c-.42-.35-.86-.72-1.42-1.19.71-.24,1.18-1.06,1.67-.53-.1.73-.16,1.16-.24,1.72h0ZM192.75,123.68c-2.86.05-5.72.2-8.58.07-1.86-.08-3.16,1.15-4.78,1.63-3.23.96-6.32,2.42-9.51,3.53-1.11.39-2.36.44-3.56.51-1.78.1-3.49.37-4.85,1.63-.79.73-1.63.37-2.26.01-1.51-.84-2.9-1.87-4.33-2.84-.16-.11-.31-.31-.37-.5-.3-.99-.28-.99-1.17-.79,0-1.73.55-2.57,1.66-2.56,0-.01,0-.03,0-.04-.77-.4-.41-.81.04-1.22-.2.08-.41.16-.73.28.28-.65.5-1.13.71-1.61-.1.03-.19.06-.29.08-.43-.91-.85-1.81-1.35-2.86,1.58,0,2.91-.06,4.23.04.31.02.78.52.82.84.09.64.27,1.49-.76,1.65-.2.03-.6-.09-.64-.21-.24-.86-.74-1.07-1.56-.84-.18.05-.44-.19-.84-.11.4.34.88.63,1.19,1.04.2.26.27.72.21,1.05-.03.17-.48.27-.74.4.7.44.87,1.05.58,1.9-.34-.17-.6-.3-.87-.44.02.01.02.02.04.03-.01,0-.02,0-.04,0,.04.57.09,1.14.13,1.73.64-.11,1.42-.21,2.18-.41.2-.06.27-.64.45-.67.56-.09,1.14-.03,1.77-.03.05-.11.19-.42.24-.55-.43-.6-.81-1.13-1.35-1.89.86.07,1.38.11,2.02.16-.27-.23-.46-.38-.74-.62.4-.04.7-.07,1-.1,0-.07.01-.13.02-.2-.4-.07-.79-.15-1.03-.2-.18-.82-.34-1.57-.54-2.52.71-.03,1.46-.11,2.2-.1,4.82.08,9.61.41,14.36,1.37,1.73.35,3.53.34,5.29.54,3.66.4,7.32.8,10.97,1.28.75.1,1.46.54,2.18.82-.01.16-.03.31-.04.47-.45.07-.91.2-1.36.21h0ZM156.77,124.93c.12-1.12.44-1.65,1.45-1.42.34,1.3-.68,1.07-1.45,1.42h0ZM154.53,162.11c-.43-.32-.99-.72-1.57-1.16.58-.28,1.5-.3,1.78-1.19.49.21,1.07.33,1.45.67.28.26.3.81.36.99.53,0,1.01-.15,1.2.03.81.76.2,1.33-.72,2.01.59-.07.83-.11,1.06-.14-.16,1.26-3.05,2.52-4.6,1.82.51-.47.96-.89,1.38-1.27-.23-.34-.51-.7-.69-1.1-.05-.12.2-.37.37-.67h0ZM156.1,154.78c.28.22.57.45,1.02.81-.82.08-.89,1.3-1.83.8.3-.59.55-1.1.8-1.61,0,0,0,0-.01,0,0,0,0,0,0,0-.43.39-.86.78-1.47,1.32-.06-.38-.11-.65-.15-.92,0,0,0,0,0,0-.01.01-.02.03-.04.04,0-.02,0-.04,0-.06-.3-.19-.82-.43-.8-.55.09-.41.38-.78.6-1.17.14.05.28.1.41.14-.07.52-.14,1.05-.22,1.57,0,0,.02.01.03.01.33-.42.66-.83.98-1.23.17.21.4.52.64.83.01-.01.03-.02.04-.03,0,.01-.01.03-.02.04h0ZM153.88,141.31h-.91c.61-1.06,1.21-2.08,1.77-3.05.85.57,1.52,1.03,2.31,1.56v-3.11s0,0,0,0c-.08.38-.16.77-.3,1.48-.35-.68-.62-1.12-.8-1.59-.03-.09.33-.45.38-.43.26.14.48.35.72.54,0,0,0-.01,0-.02v.02s0,0,0,0c.08-.31.15-.62.23-.94.32.25.65.5.87.67.58-.07,1.14-.14,1.73-.21-.34-.36-.71-.75-1.12-1.18.89-.26,3.36.86,4.15,1.9-.43-.18-.69-.3-1.16-.5.39.89.78,1.59.96,2.34.06.22-.48.58-.79.93.15.06.43.18.71.3-.21,1.28-.83,1.54-2.84,1.53-.6.36-1.19.71-1.76,1.05.04.15.22.48.15.54-.37.33-.79.59-1.19.88,0-.26-.02-.52-.02-.77,0-.57,0-1.14-.11-1.72-.14.75-.27,1.49-.41,2.24-.07-.01-.14-.03-.21-.04.09-.55.17-1.09.26-1.64-.09-.02-.17-.04-.26-.06-.11.47-.22.93-.34,1.42-.43-.11-.86-.23-1.04-.28-.46-.49-.78-.84-1.23-1.32-.02.04.1-.22.25-.55h0ZM168.45,158.93c.28-.04.56-.08.84-.12.03.06.06.11.08.17-.25.18-.5.35-.78.55-.87-.67-.85-1.43-.29-2.35.25.15.5.3,1.02.62-.41-.48-.6-.71-.79-.94.06-.1.11-.21.17-.31.38.19,1.04.31,1.1.57.25,1.03-.42,1.49-1.36,1.8h0ZM162.76,132.62c2.19-.72,4.34-1.63,6.57-2.13,2.05-.45,4.72,2.37,4.35,4.38-.15.81-.91.74-1.5.57-1.2-.35-2.37-.79-3.64-1.23.58,1.27,2.06.81,3.09,1.74-3.37-.37-6.15-1.52-8.88-3.34h0ZM170.37,157.09c-.06-.56.16-.89.75-.74.76.19,1.51.44,2.41.71-.55.8-.91,1.45-1.4,1.98-.23.26-.74.43-1.07.37-.22-.04-.41-.55-.5-.89-.12-.46-.14-.95-.19-1.43h0ZM170.85,160.2c.47.31.95.62,1.42.93-.13.18-.26.37-.38.56-.44-.4-.87-.8-1.34-1.23.26-.21.3-.26.31-.25h0ZM177.38,135.77c-.21-.19-.57-.5-1.07-.95,1.91-.76,3.67-1.64,5.66-1.85.76-.08,1.63.98,1.79,1.95-.51.56-.96,1.06-1.51,1.66-.25-.54-.46-.99-.78-1.67.04.47.04.68.07.89.2,1.38-.17,1.82-1.59,1.98-.38.04-.75.24-1.11.41-.9.42-2.08-.28-2.01-1.26.03-.35.31-.68.54-1.16h0ZM177.91,150.86c.52.56.97,1.05,1.53,1.67-.55.26-.81.38-1,.47-.65-.1-.96-1.2-.54-2.14h0ZM181.7,160.36c.53-.15,1.05-.3,1.58-.45.05.06.1.13.16.19-.25.32-.51.64-.76.96-.16-.14-.33-.27-.55-.46-.21.25-.44.51-.66.77-.08-.04-.16-.08-.23-.11.16-.3.31-.59.47-.89-.03,0-.06.02-.09.03,0,0,.01-.02.01-.03-.79.14-.65-.4-.41-.78.18-.29.62-.43.94-.63.08.08.16.17.23.25-.25.39-.51.78-.76,1.16.03,0,.04,0,.07,0t0,0h0ZM182.32,166.07c-.54.26-1.1.73-1.62.71-.41-.02-.79-.67-1.19-1.03.36-.21.72-.42,1.24-.72.57.38,1.07.72,1.57,1.05h0ZM176.09,133.1c-.06,0-.13,0-.19-.01-.09.37-.18.75-.38,1.55-1.29-2.25-2.52-4.2-4.94-4.99,3.99-.81,7.35-3.26,11.19-3.9-.15.82-.34,1.49-.39,2.17-.04.67.05,1.33-.99,1.65.52.43.94.78,1.25,1.04-.07.51-.15,1.05-.24,1.68-1.52.54-3.25,1.16-5.05,1.79-.1-.38-.18-.68-.26-.98h0ZM161.14,132.24c-.05-.16-.09-.31-.14-.47,1.12-.34,2.24-.68,3.36-1.01.04.15.09.3.13.46-1.23-.03-2.08,1.21-3.35,1.02h0ZM152.79,134.12c1.56-.85,2.26-.82,3.44.34-1.06-.11-2.13-.21-3.44-.34h0ZM153.66,136.5c-.94.57-1.7,1.02-2.46,1.48-.06-.1-.11-.2-.17-.31.82-.34,1.28-1.42,2.63-1.18h0ZM187.6,155.96c-.1.01-.44.04-.78.07-.03-.15-.05-.3-.08-.46.46-.09.93-.18,1.51-.29q.2-.77,1.44.18c-.31.44-.54.97-.95,1.28-.31.23-.84.18-1.28.25.04-.35.09-.7.13-1.04h0ZM186.88,152.38c.73.26,1.3.45,2.14.75-1.61.68-1.76.63-2.14-.75h0ZM187.33,167.74c-.58-.35-1.05-.62-1.51-.89.95-.5,1.74-.71,1.51.89h0ZM185.26,154.55c.35-.54.6-.94.85-1.33.41.31.82.62,1.23.93-.06.09-.11.18-.17.27-.52.03-1.05.07-1.92.12h0ZM185.7,167.38c-.14.09-.29.18-.43.28-.31-.33-.62-.67-.94-1,.25-.11.65-.38.71-.32.27.3.45.68.66,1.04h0ZM180.09,170.86c2.14-.48,3.86.2,4.61,1.62-.06.13-.11.26-.17.39-1.39-.63-2.79-1.26-4.44-2h0ZM179.01,169.74c.54-.78.93-1.36,1.21-1.77.43.58.81,1.08,1.21,1.62.52-.89.89-1.52,1.26-2.15.11.02.22.05.33.07.08.37.16.74.25,1.11.21.89.59,1.56,1.69,1.31.11-.03.26-.07.33-.03,1.04.77,1.89.47,2.82-.31.47-.39.99.37.84,1.67.52-.58.88-.97,1.39-1.53.7,1.25,1.32,2.34,1.93,3.43-.08.12-.16.24-.23.36-1.96-.19-3.93-.34-5.88-.59-.33-.04-.71-.44-.88-.77-.83-1.68-2.44-1.77-3.97-2.07-.67-.13-1.35-.21-2.29-.35h0ZM177.24,160.11c-.47.14-.92.28-1.36.42-.03-.4-.06-.8-.09-1.21.13-.06.26-.12.4-.17.09.24.17.47.31.87.14-.47.2-.65.28-.91.54.31,1,.58,1.48.86.03-.21.07-.45.16-1.05.47.57.84.92,1.07,1.35.11.19-.06.53-.13.95-.57-.08-1.22-.17-1.78-.24-.17-.43-.29-.74-.33-.85h0ZM171.71,168.28c.02-.19.18-.37.28-.55.13.16.26.31.39.47.75-1.5,2.03-1.4,3.1.2-.47.28-.95.56-1.42.84,1.04-.02,2.17-.32,2.87.85-.61,1.16-1.49,1.5-2.75,1.03-.4-.15-.95.12-1.4.05-.24-.04-.44-.4-.66-.61-.17-.21-.45-.41-.48-.64-.05-.54,0-1.1.07-1.65h0ZM166.03,173.06c.03-.19.54-.31.68-.39,0-.33-.1-.98.02-1.03.86-.31,1.7-.28,2.31.66-.65.32-1.28.64-1.98.99.1.19.2.37.44.82-.69-.42-1.6-.03-1.47-1.06h0ZM165.28,168.81c.27-.17.57-.35.95-.58.24.27.48.55.77.89.01-.22.02-.43.03-.64.11-.03.22-.06.33-.09.08.32.28.67.21.96-.1.47-.36.9-.56,1.35,0,0,0,0,0,0,0,0,0,0,0,0,.57-.69,1.14-1.38,1.72-2.08-.03-.01-.2-.08-.45-.19.25-.19.47-.36.68-.52,1.39-.74,2.88-1.07,3.3-.69-.82.26-1.63.52-2.44.78.07.23.14.46.23.77.3-.26.6-.52.91-.79.68.94.67.99-.07,1.22.15.35.31.72.47,1.08-.28.04-.56.08-.93.14.03-.05-.03.01-.04.07-.05.48.09,1.16-.18,1.42-.61.58-.99-.18-1.46-.47-.28-.17-.72-.06-1.05-.19-.27-.1-.47-.36-.7-.55,0,.01-.02.02-.03.03,0-.01.01-.02.02-.04-.17.14-.47.43-.49.4-.38-.35-.81-.7-1.06-1.14-.18-.31-.12-.75-.17-1.14h0ZM165.26,158.87c-.64.11-1.28.27-1.92.33-.6.06-1.29.2-1.81-.01-.93-.37-1.77-.97-2.64-1.47.34-.96,1.03-1.08,1.75-.3.15.16.33.3.52.43.02.01.15-.12.23-.19-.15-.15-.29-.32-.47-.44-.44-.28-.89-.54-1.35-.81.75-1.35,1.22-1.54,2.78-1.31.53.08,1.1-.16,1.89-.29-.55.43-.94.74-1.25.97.39.45.68.78,1,1.15.03-.04.16-.21.43-.57v1.74c.67-.3,1.22-.55,1.76-.79.11.12.21.24.32.37-.35.52-.7,1.04-1.05,1.56-.06-.12-.11-.25-.17-.37h0ZM162.13,163.5c-.16.08-.32.16-.48.24-.32-.64-.62-1.29-.96-1.92-.26-.49-.56-.96-.93-1.59.05,0-.15,0-.54,0,.29-.25.49-.52.58-.48,1.08.42,2.18.83,3.19,1.4.16.09-.03.97-.19,1.43-.12.35-.44.62-.67.93,0,0,.01,0,.02,0,0,.01,0,.03,0,.04.15.03.31.05.46.08.42-.71.83-1.42,1.3-2.21.23.2.52.38.5.46-.26.91-.7,1.66-1.77,1.77.07.27.14.54.2.79.37-.02.75-.03,1.13-.05.01.13.03.26.04.38-.51.04-1.13.27-1.51.07-.27-.14-.25-.82-.35-1.29-.02,0-.03,0-.05,0,0,0,.01-.02.02-.03h0ZM164.89,166.24c-.65.11-1.28.21-2.23.37.5-.45.86-.78,1.25-1.13.33.26.64.5.97.75h0ZM157.29,176.48c.06-.17-.39-.53-.67-.9.24-.35.56-.83.72-1.07.91-.45,1.6-.83,2.32-1.15.16-.07.4.01.6.03,0,0,0-.01,0-.02,0,0,.02.01.02.02.03-.21.05-.43.08-.67-.29-.05-.58-.11-.87-.16,0-.08.01-.16.02-.25.89.07,1.78.14,2.49.2.04.64.06,1.12.09,1.59,0,0,0,0,.01,0,.26-.66.07-1.71,1.32-1.49,0-.01,0-.02,0-.03,0,0,.02.01.03.02-.64-.91-.14-1.88,1.23-2.2-.1.95-.19,1.86-.28,2.78-.44-.27-.69-.43-.95-.58,0,0,0,0,0,.01-.01,0-.01,0-.03,0,.34.97.19,1.14-1.32,1.49,0,.01,0,.03-.01.04,0-.01,0-.02,0-.03-.01,0-.02,0-.03,0-.04.19-.08.39-.15.71-.61-.53-1.13-.98-1.64-1.43h0s-.01,0-.02,0c.01.35.04.71.06,1.12-.52-.06-.99-.12-1.45-.17-.07.11-.13.22-.2.33.89.09,1.35.27.57,1.04-.24.23-.11.8-.31,1.11-.18.28-.69.65-.87.57-.31-.14-1.08-.09-.76-.91h0ZM153.11,174.44c.05-.14.1-.29.15-.43.36.06.71.12,1.07.18.06-.84.19-1.67.16-2.5-.03-.72.25-.99.91-1.09,1.69-.25,3.4-.46,5.06-.85,1.06-.25,1.7.32,2.28.91.22.22-.03.92-.07,1.46-1.09,0-2.09-.03-3.08.02-.23.01-.52.3-.65.53-.45.75-.92.81-1.56.16-.16.53-.31,1.1-.55,1.62-.02.05-.63-.16-.92-.06-.46.06-.92.11-1.38.17.15.26.3.52.44.78-.05.08-.1.15-.15.23-.57-.37-1.13-.75-1.7-1.12h0ZM152.82,171.32c.03.24.06.49.12.91.34-.45.57-.75.83-1.1.31,1.85.03,2.53-1.33,3.14-.22.1-.72-.14-.93-.36-.98-1.09-.43-2.15,1.31-2.58h0ZM151.61,144.73c-.22-.27-.55-.55-.51-.62.25-.42.58-.78.88-1.16.18.14.52.38.5.42-.24.45-.54.87-.88,1.37h0ZM150.82,138.8c.36-.16.68-.3.99-.44.33-.14.65-.29.98-.44.08.07.16.15.23.23-.52.55-1.04,1.1-1.67,1.78-.23-.48-.35-.75-.54-1.13h0ZM146.09,139.49c.57-.87.99-1.56,1.46-2.21,1.35-1.87,2.71-3.74,4.09-5.58.66-.88,1.35-.92,2.25-.26.52.38,1.11.67,1.66.99,0,.11,0,.22,0,.33-1.12.3-2.23.61-3.4.92.42.64,1.33,1.14.68,2.16-.06-.15-.11-.31-.15-.41-.95.86-1.82,1.89-2.91,2.57-1.03.65-1.98,1.72-3.69,1.49h0ZM142.31,144.59c.03-1.72.85-2.82,2.51-3.42.86-.31,1.71-.67,2.59-.94.31-.1.69.03.77.03.13.37.23.6.29.84.07.26.1.52.14.79-.27.04-.54.09-.81.12-.35.04-.7.07-1,.1-.48,2.06-2.53.69-3.46,1.7.18.16.39.33.81.68-.79.04-1.31.07-1.85.1h0ZM140.29,142.24c1.06-1.08,2.02-2.36,3.9-2.03-.67,1.98-2.54,1.51-3.9,2.03h0ZM134.07,171.26c.12-.71.22-1.3.34-1.98.38.31.74.59,1.15.92-.12.18-.26.39-.4.61,0,0,.01,0,.02,0-.01.01-.02.03-.04.04.65-.24.98.09,1.17.64,0,0,0,0,0,0-.32-.96.18-1.81.82-2.23.66-.44,1.65-.49,2.5-.49.17,0,.33,1.03.6,1.95.03-.35.06-.6.09-.99.51.57.77.86,1.23,1.37-1.87.34-3.49.91-5.24.4,0,0,0,.02,0,.03,0-.01,0-.02-.01-.03,0,0,0,0,0,0-.61.19-1.23.38-1.84.58-.06-.1-.11-.2-.17-.3.28-.31.56-.61.85-.92h0s.01-.02.02-.03c-.32.13-.64.27-1.09.45h0ZM136.67,154.1c-.7-.06-1.4-.11-2.35-.19.96-1.2,1.66-.37,2.38-.21,0,.14-.02.27-.03.41h0ZM132.17,154.05c-.1.03-.43-.25-.42-.36.02-.23.17-.59.33-.62.75-.17,1.52-.24,2.28-.35.04.16.07.32.11.48-.76.29-1.52.6-2.3.85h0ZM128.38,172.01c-.05-.51.16-1.24.54-1.55.81-.67,1.79-1.15,2.72-1.67.12-.07.47.02.5.11.23.72,1.14,1.15.8,2.15-.28.83-.61,1.38-1.59,1.33-.55-.03-1.1.07-1.95.13-.2-.09-1.01-.26-1.03-.5h0ZM128.03,168.48c.27-.43.55-.87.82-1.3.31.44,1.15-.53,1.25.46,0,0,.02-.02.03-.03,0,0-.01.02-.02.03.33-.16.66-.32.99-.48,0,0,0,0,0,0,0,0,0,0,0,0-.55-.2-1.11-.39-1.66-.58.03-.1.05-.2.08-.31.57-.16,1.14-.32,1.74-.49.54.54.28.97-.16,1.38,0,0,0,0,.01,0,0,0-.01,0-.02.01-.16,1-.76,1.6-1.86,1.91.33-.55.6-.99.86-1.43,0,0,0,0-.01,0,0,0,0,0,0,0-.39.37-.74.79-1.19,1.07-.18.11-.59-.14-.89-.23h0ZM127.15,157.64c.65-.23,1.24-.44,2.01-.71-.41,1.29-.56,1.34-2.01.71h0ZM127.89,171.13q.14,1-1.96.75c.64-.25,1.29-.5,1.96-.75h0ZM135.84,150.4c-.09.94-.16,1.69-.27,2.82-.97-.67-1.67-1.14-2.43-1.66-.52.47-1.25,1.12-1.98,1.77-1.01.18-2.09.37-3.25.58v-1.7c-.24.04-.5.09-.82.15,1.56-2.59,4.44-2.97,6.71-4.57.09,1.03.15,1.81.23,2.75.38-.03,1.04-.08,1.8-.14h0ZM123.83,135.82c1.32-.79,2.64-1.58,3.96-2.37.07.03.14.06.21.09-.6.89-1.09,1.87-1.81,2.66-1.07,1.18-1.65,1.03-2.36-.38h0ZM120.81,121.19c-.14,1.05-.28,2.08-.42,3.11-.23,0-.46-.01-.68-.02v-1.71c-.23-.31-.45-.6-.67-.88.17.01.33.03.57.05.01-.19.03-.46.05-.76.37.07.7.13,1.16.21h0ZM122.73,122.35c-.18.3-1.07.18-1.63.26-.04-.13-.08-.25-.12-.38.29-.39.58-.79.87-1.19.57.26,1.3.6.87,1.31h0ZM126.64,121.91c-.6.38-1.2.76-1.92,1.22-.25-.34-.52-.72-.79-1.1,1.7-1.24,2.01-1.24,2.71-.13h0ZM129.79,91.62c.13.35-.42.95-.67,1.43-.18-.04-.37-.07-.55-.11-.08-.8-.17-1.59-.3-2.82.65.6,1.32.96,1.51,1.49h0ZM131.71,92.9c-.59-.23-1.01-.39-1.67-.65.48-.35.74-.55,1.14-.84.21.58.34.95.54,1.48h0ZM135.42,100.67c0,.13-.63.3-.96.45-.04-.47-.12-.94-.09-1.4.02-.3.19-.6.38-1.14-.08.01.25-.06.26-.04.18.71.38,1.42.43,2.14h0ZM135.14,103.28c-.16-.46-.32-.88-.49-1.36.39-.19.71-.35,1.12-.56.02.74.52,1.51-.64,1.91h0ZM138.57,121.91c-.11.63-.1,1.25-.35,1.73-.18.34-.7.64-1.1.68-.95.1-1.92.03-2.88.18h3.08c-.54,1.38-1.65,2.02-2.37,2.94.31-.16.67-.27.91-.5.77-.72,1.38-1.72,2.27-2.18.84-.44,2.33-.8,2.87-.37.78.62,1.83.84,2.56,1.68-.92.25-1.76.47-2.6.7,0,.06,0,.11.01.16h1.34c-.23.69-.44,1.3-.68,2,.69-.62,1.4-1.25,2.26-2.02.05.46.07.67.09.81.4-.07.8-.14,1.34-.23.2-.11.57-.49.94-.49.71,0,1.42.19,2.11.36.17.04.42.32.4.46-.11.89-.28,1.77-.43,2.66.48.02.95.04,1.43.06-.08-.12-.22-.24-.23-.36-.02-.28,0-.56.07-.83.02-.06.36-.12.37-.11.11.27.19.55.27.79.59-.06,1.26-.12,2.17-.2-.87,1.04-1.69,1.11-2.6.71.2.25.4.5.72.91-.69-.14-1.23-.26-1.77-.37.09.3.18.61.3.98h1.25c-.44.68-.78,1.22-1.15,1.75-.77,1.11-1.56,2.21-2.35,3.31-.55.77-1.1,1.55-1.72,2.26-.18.21-.58.24-.9.3-.83.15-1.67.26-2.5.41-.66.13-1.37.49-1.77-.38-.34-.73-.72-.45-1.21-.19-.24.13-.6.07-.9.05-.09,0-.16-.19-.25-.2-1.57-.07-1.69-.13-2.31-1.21-.39.31-.74.73-1.18.86-.42.13-.92-.04-1.52-.09.15.3.28.55.5.98-1.14-.55-2.47-.21-3.07-1.5-.02-.05-.45.08-.74.14.03-.24.07-.44.08-.57-.62-.07-1.24-.16-1.85-.21-.63-.06-1.14-.78-.84-1.31.97-1.75,1.95-3.5,3-5.2.33-.54.89-.95,1.34-1.42-.61.21-1.24.36-1.82.64-.35.17-.48.51-.63.95-.26.79-.9,1.59-1.59,2.06-.71.48-1.16,1.67-2.43,1.14-.24-.1-.7.32-1.07.48-.36.16-.73.29-1.09.44-.06-.33-.11-.65-.18-1.05-1.07-.11-1.71-.79-2.02-1.89-.02.25-.07.5-.05.75.02.25.11.5.16.75-.11.05-.21.11-.32.16-.2-.37-.4-.75-.64-1.18,0,0-.22.04-.44.07-.06-.4-.11-.81-.22-1.55.53.41.77.6,1.01.78.06-.04.12-.08.18-.12-.24-.38-.48-.77-.68-1.08.15-1.18,1.07-.41,1.58-.7.53-.3,1.02-.66,1.61-1.05-.3-.19-.55-.35-.8-.52.02-.07.04-.13.06-.2.62.11,1.28.13,1.84.38.25.11.31.67.51,1.17-.06,0,.13-.02.32-.04-.1-.38-.2-.77-.28-1.08.5.33,1.1.73,1.95,1.3.04-.6.07-.99.09-1.4h1.51c-.14-1.16-.24-2.37-.47-3.55-.1-.5-.48-.95-.74-1.44.18-.01.52-.04.88-.07.4.89.79,1.74,1.18,2.59-.11-1.25.88-1.52,1.61-1.85.77-.35,1.63-.48,2.49-.51-.84-.12-1.67-.24-2.51-.35-.79-.11-1.57-.2-2.52-.32,2.09-1.6,3.98-3.17,6.75-2.84,0,.11-.02.32-.03.62,1.69-1.21,2.97.24,4.39.54h0ZM136,119.44c.91-.93,1.4-.83,2.14.56-.85-.22-1.47-.38-2.14-.56h0ZM140.96,99.52c.56,1.18.25,2.12-1.36,2.64.84.36,1.97-.06,1.76,1.19-3.97.07-4.49-.24-5.06-3.43,1.62-.09,3.07-1,4.66-.4h0ZM142.24,86.53c-.96,1.18-2.21,1.31-2.98.3.4.12.8.25,1.46.45-.35-.31-.51-.45-.85-.75h2.38ZM151.4,87.31c.09,0,.21.13.27.1,1.72-.66,3.42-1.39,5.17-1.98.55-.19,1.24-.12,1.84-.02.89.15,1.77.43,2.65.68.44.13.87.31,1.26.67-.55-.04-1.1-.05-1.65-.14-1.78-.29-2.94,1.2-4.49,1.54-.31.07-.65.12-.93.26-.25.13-.45.35-.6.73,1.01-.94,2.06-.79,3.03-.14.04-.44-.03-.78.11-.95,1.1-1.39,2.57-1.06,3.96-.67,1.96.55,3.89,1.22,5.83,1.84-.03.18-.06.36-.09.54-2.28-.15-4.56-.31-6.58-.44.96.62,2.33.58,3.7.56,2.21-.03,4.41-.04,6.62.6-.06.36-.1.64-.14.92.58-.76,1.33-.8,2.18-.56,1.52.43,3.03.87,4.57,1.22,1.18.27,2.05.89,2.7,2.06-4.28-.99-8.45-.87-12.49.86.55-.71,1.09-1.42,1.64-2.13-.46.42-.98.8-1.37,1.28-.8.96-1.59.81-2.61.32-1.03-.49-2.2-.7-3.32-.96,1.36.59,2.71,1.18,4.32,1.88-1.26.84-2.19,1.52-3.18,2.09-.21.12-.63-.12-.78-.15-.21.16-.41.39-.47.35-1.85-.92-3.74-.09-5.6-.17-1.92-.09-3.7-.55-5.37-1.55-1.15-.68-2.41-1.18-3.87-1.89,3.23-1.06,6.4-1.05,9.53-1.49-.61,0-1.22-.03-1.83,0-1.36.08-2.71.19-4.07.3-.43.03-.89.02-1.28.17-1.79.7-3.49.39-5.57-.44.41-.26.63-.4,1.14-.72-1.46.45-2.76.91-3.22-.46-1.1-.28-2-.51-2.9-.75-.04-.11-.08-.23-.13-.34,1.04-.71,2-1.86,3.13-2.06,2.93-.54,5.94-.66,8.92-.95h0ZM159.37,83.22c-.88-.3-1.71-.77-2.59-1.19.56-.47,2.93-.95,3.22-.59.34.41.43,1.02.62,1.55-.42.09-.9.35-1.25.23h0ZM150.46,86.11c-.46-1.18-.27-1.52.86-1.77.93-.21,1.86-.43,2.79-.65.11-.02.23-.1.32-.07.94.32,1.87.65,3,1.06-4.08,2.46-8.5,2.39-12.89,2.45,1.97-.34,3.93-.68,5.92-1.03h0ZM147.86,22.02c-.15.45-.25.74-.42,1.23-.44-.54-.81-.99-1.37-1.67.71.18,1.24.31,1.79.45h0ZM149.48,66.9c-.07.61-.13,1.21-.2,1.81-.14.03-.27.06-.41.09-.34-.41-.68-.82-1.11-1.33.52-.27.95-.49,1.39-.71.11.05.23.09.34.14h0ZM151.63,68.45c-.81.26-1.41.45-2.05.65.14-1.26.46-1.38,2.05-.65h0ZM155.82,74.66c-.78-.19-1.3-.31-1.82-.44.02-.17.04-.34.06-.51.46-.09.92-.25,1.37-.23.11,0,.2.58.39,1.18h0ZM156.56,73.59h0v.03c.32-.07.68-.07.94-.23.26-.17.41-.5.62-.78-.02,1.66-.17,1.9-1.56,2.34v-1.32s-.02,0-.03,0c0-.01.01-.02.02-.03-.17,0-.42.08-.47.01-.19-.3-.31-.64-.54-1.14.67-.32,1.4-.67,2.12-1.01.07.06.14.12.2.17-.44.66-.88,1.32-1.32,1.97h0ZM159.67,80.9c-1.24.11-2.36.23-3.48.3-.83.05-1.53-1.04-1.21-1.82-.55.13-1.11.26-1.66.39-.01.01-.03.03-.04.05,0-.01,0-.03.01-.04-.41.11-.82.22-1.22.32-.25-.6-.48-1.12-.82-1.94.79-1.36,2.25.04,3.43-.35-1.24.17-1.14,1.19-1.39,1.97,0,0,.01,0,.02,0,0,0,0,0,.01,0,.43-.5.86-1.01,1.29-1.51.11.05.22.1.34.16v.88c.21-.42.35-.89.65-1.23.27-.32.68-.61,1.07-.7.18-.04.48.44.71.7.1.11.14.34.23.36,1.32.27,1.55,1.39,2.05,2.48h0ZM162.4,72.78c-.44.31-.87.61-1.38.97-.67-1.08-.37-1.76.98-2.36-.27.48-.51.91-.86,1.54.54-.2.82-.3,1.1-.4.05.08.11.17.16.25h0ZM166.31,69.92c-.15.14-.47.24-.64.17-.18-.06-.38-.34-.39-.53-.02-.45.07-.91.12-1.38,1.25.46,1.58,1.11.91,1.74h0ZM167.82,71.94c.26.12.3.7.5,1.25-1.02-.27-1.7-.46-2.38-.64,0,0,0,.02,0,.02,0,0,0,0-.01,0,.19.23.38.45.51.6-.25.27-.81.73-.75.84.31.55.62,1.21,1.55.81.35-.15.88.16,1.33.21.19.02.4-.1.77-.2.08.17.16.55.39.8.23.24.61.35.92.52-.4-.84-.81-1.67-1.2-2.51-.03-.06,0-.16-.04-.21-.22-.34-.45-.68-.67-1.02.51-.11,1.05-.36,1.54-.3,1.3.17,2.57.48,3.86.73.35.04.71.07,1.07.11,1.21.43,2.42.85,3.63,1.29.01,0-.05.2-.08.3,1.44-.18.91,1.02,1.32,1.75h-1.54c1.12,1.03,2.39,1.96,2.65,3.61-1.37.86-5.67-.48-6.04-1.86-1.51.68-2.32-.92-3.57-1.1.71.45,1.43.88,2.12,1.35.23.16.36.44.57.69.47.07,1.13.16,1.79.25,0,.14-.01.28-.02.42-.47,0-.95.02-1.42,0-.95-.05-1.9-.17-2.85-.18-1.5-.01-1.98-.55-1.89-2.14-.1.21-.27.41-.3.63-.17,1.31-.64,1.79-1.93,2-1.46.25-2.91.6-4.38.8-.89.12-1.99.8-2.27-1.04-.17-1.12-1.24-2.08-1.69-3.19-.44-1.11-.07-1.42,1.08-1.87.84-.33,1.59-.89,2.35-1.4.5-.34.91-.8,1.42-1.13.19-.12.54-.04.8.03.34.1.66.27.99.42-.01-.01-.02-.02-.03-.03.01,0,.03,0,.04.01.08-.3.15-.82.24-.82.55-.01,1.16-.01,1.64.21h0ZM173.59,66.04c-3.42-.21-4.22-.64-3.82-1.59-.41-.1-.83-.21-1.25-.31.04-.1.07-.21.11-.31,1.35-.26,1.82,1.1,2.89,1.6.27-.15.65-.36,1.19-.65.29.42.59.84.89,1.26h0ZM176.49,68.99c1,1.36,2.16,2.6,3.34,4-1.89-.94-4.06-1.01-5.57-2.68-.51-.57-1.38-.81-2.07-1.21-.49-.28-.88-.13-1.22.24,0,.02-.01.03-.01.06.31.23.63.45,1,.73-.32.03-.62.06-1.22.11.6.38.96.62,1.33.86-.01.07-.03.14-.04.22-.58-.09-1.16-.18-1.75-.27-.01.02-.02.03-.03.05,0-.02,0-.03,0-.05-.85-.11-1.69-.23-2.6-.35.22-.83.41-1.55,1.3-1.49.82.05,1.36.91,1.29,1.85.01,0,.02,0,.03,0h0c.5-.59.75-1.19-.05-1.81.24.06.48.11.72.17,0,0,0,0,0,0-.01,0-.02-.02-.03-.02.01-.02.03-.02.04-.03-.04-.92,1.03-.87,1.33-1.49h0s.01-.01.01-.02c-.89.14-1.77.3-2.67.39-.2.02-.6-.21-.61-.33-.01-.24.15-.54.33-.72,1.09-1.14,2.28-.49,3.5-.2-.2.32-.37.59-.55.87h0s-.02.01-.02.02c1.67-.8,3.1-.34,4.19,1.14h0ZM178.35,63.06c-1.65.1-2.22-.52-2.62-2.74.97,1.01,1.73,1.8,2.62,2.74h0ZM179.63,67.34c.1-.02.28-.08.3-.05.38.72.75,1.44,1.12,2.17-.1.06-.21.11-.31.16-.42-.69-.84-1.38-1.25-2.07-.31-.12-.72-.16-.9-.38-.35-.43-.57-.97-.85-1.48.16-.05.32-.1.23-.07-.79-.72-1.68-1.53-2.57-2.34.08-.12.17-.24.25-.36.28.16.63.27.83.5.24.27.35.65.52.98.08-.04.17-.08.26-.12-.1-.26-.21-.52-.33-.81,1.18-.06,1.78.47,2.03,1.55.11.48.51.89.68,1.37.1.28,0,.64-.02.96h0ZM181.01,64.42c-.37-.82-.69-1.56-1.02-2.3q1.37.77,1.02,2.3h0ZM179.9,56.99c.7.33,1.21.57,1.89.89-.61.23-.99.37-1.38.52-.13-.34-.25-.69-.51-1.4h0ZM182.49,57.18c-.85-.24-1.68-.47-2.62-.74q-.18-.49.4-.65c-.15-.14-.39-.27-.43-.44-.05-.25,0-.55.09-.79.03-.09.4-.17.47-.1.18.18.37.44.4.68.03.2-.16.43-.25.65.31-.05.62-.1.92-.14-.02.17-.04.35-.07.59.58-.03,1.21.06,1.08.93h0ZM187.12,63.02c.65.33,1.31.51,1.77.93.49.45.79,1.1,1.24,1.76-.3.38-.6.84-.96,1.24-.52.57-1.13.71-1.74.14-.79-.73-1.55-1.47-2.32-2.22-.85-.82-1.71-1.63-2.52-2.49-.27-.28-.39-.71-.57-1.05q-.42.31-1.79-2.56c.86-.18,1.64-.35,2.43-.52.03.11.06.21.09.31.19-.29.38-.58.65-.99.68.96,1.3,1.84,1.93,2.72.04-.49.08-.97.13-1.46.09-.03.18-.06.27-.09.47.69.93,1.39,1.47,2.19h-.7c.58.57,1.16,1.14,1.94,1.9-.66.1-.94.14-1.31.2h0ZM190.95,62.61c-.09.07-.4.31-.89.7-.39-1.14-.77-2.16-1.06-3.21-.04-.15.33-.48.57-.62.26-.15.59-.17.87-.24.16,1.08.32,2.13.51,3.37h0ZM191.57,71.11c-.65.44.26,2.01-1.34,1.72.94-.17.16-1.74,1.34-1.72h0ZM192.78,72.38c-.19.88-.37,1.73-.6,2.76-.28.02-.67.06-1.06.09-.23-1.16.21-1.9,1.65-2.85h0ZM193.77,61.55c-.04.48-.07.95-.11,1.43-.11.04-.22.08-.33.12-.19-.22-.57-.48-.53-.64.08-.37.37-.68.57-1.02.13.04.26.07.38.11h0ZM193.32,65.9c-.52-1.01-.2-1.82.99-2.47.71.92.44,1.59-.99,2.47h0ZM196.07,67.01c-1.12.12-1.95.21-2.79.31-.05-.08-.09-.17-.14-.25.6-.69,1.2-1.39,1.98-2.29.34.81.62,1.46.95,2.24h0ZM199.24,62c-.24.38-.41.92-.75,1.09-.28.14-.79-.16-1.19-.26.03-.07.06-.13.09-.2-.31.1-.62.2-.92.29-.08-.28-.28-.6-.21-.82.08-.24.4-.47.65-.55.42-.13.89-.22,1.31-.14.37.07.69.39,1.03.6h0ZM202.81,75.01c0,.05-.02.1-.02.16h-1.41c.02-.06-.06.15-.14.37,0,0,0,0,0,.01h-.01s0,0,0,0c.08.45.29.92.21,1.34-.13.67-.46,1.31-.69,1.97-.01.03.11.08.13.14.58,1.24.35,2.13-.78,2.75-.26.14-.67.02-1.15.02-.15.33-.41.89-.87,1.89-.29-.62-.48-1.04-.68-1.46-.1.09-.21.18-.31.27.25.42.5.83.81,1.36-.31.17-.64.37-.98.55-.36.19-.72.36-1.07.54-1.4-1.48-1.39-1.47-.12-3,.58-.71,1.11-1.46,1.7-2.16.25-.29.62-.47.95-.71-.02-.08-.19-.38-.1-.51.69-1,1.41-1.99,2.17-2.94.11-.14.51-.05.78-.06,0,0,0,0,0-.01-.86-.81-.61-2.17.49-2.64.22.61.44,1.2.74,2.01-.07-.02.14.04.35.1h0ZM207.33,69.28c-1.03.29-1.54,1.77-3.27,1.2,1.22-.56,2.19-1,3.15-1.45.04.08.07.16.11.25h0ZM208.91,71.36c-.87.95-1.28.92-3.53-.28,1.41-.58,2.65-.47,3.53.28h0ZM209.41,72.74c-.62.25-.61,1.48-1.65,1.08-.9-.34-1.53-.2-1.84.86-.18.64-2.46,1.3-3.09.9.53-.26,1.01-.49,1.49-.73-1.4-.3-1.58-1.08-.75-3.51.74.4,1.89,0,2.27,1.24,1-.93,1.66,0,2.28.49.36-.45.67-.83.97-1.22.09.03.18.05.27.08.02.28.12.77.04.8h0ZM210.07,76.89c.11.08.08.33.17.47.08.12.23.2.56.45-.17-.61-.28-.97-.38-1.33-.12-.06-.24-.11-.35-.17.25-.37.43-.91.78-1.05.26-.11,1.09-.78,1.15.34.48.03,1.02-.05,1.43.14.27.12.59.72.5.95-.17.41-.63,1.01-.95,1-1.43-.04-2.78.69-4.22.36,0,0,0,.01,0,.02,1.09.59-.3,1.12,0,1.69-.08.06-.16.12-.23.18-.4-.35-.79-.69-1.46-1.28.76-.26,1.23-.42,1.7-.58,0,0,0,0,0,0-.02,0-.02-.02-.04-.03.01,0,.03,0,.04,0-.16-.71.78-1.55,1.32-1.15h0ZM212.78,74.01c-1.04-.22-1.69,1.8-2.72.21-.38-.59.24-1.36,1.33-1.67,1.06-.3,1.13.54,1.39,1.46h0ZM219.22,77.07c-1.66,1.51-4.28.67-4.88-1.6-.14-.52-.55-.98-.96-1.69,2.7,0,4.25,1.71,5.84,3.29h0ZM216.39,69.23c.08-.09.17-.18.25-.27.79.54,1.58,1.07,2.38,1.61-.62.58-.59.55-1.14-.03-.25-.27-.68-.35-.97-.6-.22-.18-.34-.48-.51-.72h0ZM218.21,73.69c-.11.14-.21.28-.32.43-.58-.48-1.15-.96-1.72-1.44.07-.11.14-.21.21-.32.61.44,1.22.89,1.83,1.33h0ZM216.97,66.74v-.9c-.08-.01-.16-.02-.25-.03-.08.47-.14.95-.25,1.42-.06.25-.21.48-.32.72-.21-.28-.65-.67-.59-.83.26-.58.68-1.09,1.05-1.62.17-.23.37-.43.62-.71.85,1.36.84,1.47-.27,1.96h0ZM220.21,67.84c-.08.11-.15.22-.23.33-.43-.24-.86-.47-1.3-.71.19-.32.34-.88.57-.91,1.13-.16.44.97.96,1.29h0ZM222.15,82.01c.51.07,1.03.15,1.6.23.02,1.37-1.18,1.15-2.01,1.43-.85-.84.39-1.08.41-1.65-.01,0-.03,0-.04,0,0,0,.01,0,.02,0-.4-.1-.79-.23-1.18-.28-.36-.05-.73-.01-1.17-.01-.01.14-.05.51-.1.99-.48-.67-.88-1.21-1.25-1.73,1.09-2.24,3.03-1.85,5.26-1.61-1,.76.1,2.35-1.56,2.64,0,0,.01,0,.02,0,0,0,0,0,0,0h0ZM226.29,85.12c.32-.19,1.06.31,1.6.5-.79.55-1.4,1.36-2.47.86-.46-.21-1.11.01-1.63-.13-.38-.1-.72-.45-1.01-.75-.07-.08.1-.58.24-.62.48-.15,1.13-.41,1.47-.2.6.37.95.85,1.79.35h0ZM227.33,79.07c-.54-.24-1.08-.48-1.72-.76,1.02-.8,1.38-.68,1.72.76h0ZM229.85,77.1c.27-.56,1.95-.53,3.37.11-.18.32-.37.65-.67,1.19.59-.11.92-.17,1.32-.24-.65.97-1.23.67-1.83.06-.33.18-.66.36-1.08.58.33.21.59.38.85.55q-1.09,1.35-2.18.1c-.78-.9-1.56-1.8-2.36-2.72,1.26-.88,1.99-.56,2.57.38h0ZM233.64,76.7c-1.18-.2-2.3-.4-3.65-.63,1.9-1.22,2.5-1.09,3.65.63h0ZM234,70.27c-.83.46-1.66.91-2.48,1.37-.05-.07-.1-.15-.14-.22.22-.33.45-.66.7-1.04.23.11.46.22.55.27.22-.39.33-.76.58-.97.13-.1.5.11.77.18,0,.14.02.28.03.42h0ZM236.63,72.6c-.53.1-1.06.2-1.59.31.25.15.49.3.74.46-.02.11-.03.22-.05.33-.61-.07-1.22-.13-1.82-.23-.24-.04-.46-.27-.7-.28-.97-.04-.97-.02-.46-1.07.65.23,1.32.45,2,.68-.16-.3-.32-.6-.48-.9.1-.08.2-.16.3-.23-.3-.02-.61-.04-1.21-.07.43-.45.72-.76,1.11-1.18.12.41.17.56.16.54.6-.05,1.13-.1,1.67-.15-.24.48-.49.96-.77,1.51h1.08c.01.1.03.19.04.28h0ZM238.34,74.82c-.2.27-.39.58-.66.77-.44.31-.94.54-1.42.8-1.01.55-1.05-.23-1.25-.63-.43-.07-.79-.14-1.3-.22,1.4-1.49,3.13-1.67,3.59-.54.26-.16.52-.34.79-.47.03-.01.26.26.24.29h0ZM238.97,79.64c-.61.57-.9,1.15-.42,1.95.04.07-.25.49-.33.48-.62-.14-1.23-.34-2.09-.6.39.44.71.8,1.24,1.4-.64-.16-.99-.24-1.53-.38.45.39.76.66,1.07.92-.05.07-.1.14-.15.22-.81-.5-1.61-1-2.51-1.56,1.32-1.54,2.32-3.35,4.78-3.14,0,.17.09.57-.06.71h0ZM241.76,74.38c.12.02.24.04.35.07-.21.69-.41,1.37-.62,2.06.01.02.01.04.02.06l-.03-.06s0,.02,0,.03c.4,1.06-.1,1.42-.76,1.4-.48.47-.77.76-.99.98-.12-.69-.13-1.23-.31-1.7-.22-.55-.26-.96.29-1.32.42-.27.81-.57,1.13-.79.24.51.45.96.65,1.42,0,0,0,0,0,0-.4-.79-.28-1.49.27-2.12h0ZM243.95,34.01h-1.5c-.04.14-.1.37-.22.81-1.07-1.28.64-1.16.53-1.87.42.37.72.65,1.18,1.06h0ZM246.78,75.55c-.58-.03-.93-.06-1.28-.08.03.09.05.18.08.27-.55.35-1.1.71-1.66,1.06-.09-.05-.17-.1-.26-.15.21-.88.42-1.76.67-2.81.36.45.65.82.86,1.09.46-.21.84-.37,1.21-.54.11.34.22.67.37,1.15h0ZM247.33,76.25c-.05.61-.09,1.04-.13,1.56-.98.06-2.13.14-3.29.22-.03-.18-.07-.36-.1-.54,1.21-.42,2.41-.85,3.52-1.24h0ZM248.06,79.77c-.19.27-.28.53-.47.64-1.09.65-2.24,1.2-3.29,1.9-.95.63-1.09-.5-1.09-.65,0-1.12.17-2.24.3-3.55,1.57.57,2.99,1.09,4.54,1.66h0ZM251.22,83.33c.15.06.3.13.4.18-.53.4-1.06.8-1.6,1.2.69-.26,1.38-.52,2.29-.86-.31,1.05-.47,1.8-.77,2.5-.14.33-.64.82-.83.76-.55-.18-1.03-.58-1.52-.93-.1-.07-.12-.26-.18-.38-.51.86-.04,1.28.83,1.52-.01.09-.03.18-.04.27-1.43.47-2.84,1.22-4.28,1.27-.64.02-1.46-1.3-1.94-2.16-.3-.54.86-1.62,1.74-1.78,1.35-.25,2.46-.89,3.25-2.04.12-.17.38-.35.58-.35,1.1-.04,2.19-.02,3.36-.02.37,1.33-1.11.22-1.3.84h0ZM256.81,85.67c-.66-.14-.98-.21-1.25-.27-.11.37-.11.79-.26.84-.65.24-1.33.38-2.03.41-.36.14-.72.27-1.08.41-.03-.38-.14-.77-.09-1.15.16-1.28.72-2.26,2.06-2.69-.35.01-.7.03-1.06.05-.47-.77.23-.87.66-1.06.52-.23.86-.16,1.17.47.47.96,1.14,1.82,1.89,2.98h0ZM258.23,72.49c-.47.16-.95.32-1.42.48-.1-.37-.2-.74-.31-1.12.55.03,1.09.06,1.64.09.03.18.06.36.08.54h0ZM259.73,77.42c-.03.06-.06.12-.08.18-.38-.1-.76-.19-1.07-.27.25.72.48,1.36.7,2-.75.16-1.49.32-2.24.48-.1-.12-.21-.23-.31-.35.35-1,.71-2,1.1-3.1.82.45,1.36.76,1.9,1.06h0ZM257.4,80.96c-.07-.02-.29-.1-.51-.17.13-.19.25-.38.38-.57.59.2,1.18.4,1.76.6-.03.16-.06.32-.09.48h-1.81c0-.09-.01-.18-.02-.27.16-.04.31-.08.29-.07h0ZM258.99,94.9c-.1.22-.23.62-.3.61-.62-.06-1.23-.2-1.85-.32.04-.1.08-.2.12-.3h2.03ZM261.2,97.8c-.64.23-1.25.46-1.67.61-.4-.43-.8-.85-1.33-1.42-.06.47-.11.78-.16,1.18-.26-.08-.51-.15-.82-.24-.17.28-.34.57-.52.86-.7-.86-1.35-1.67-2-2.47,1.03,1.97.31,4.11-1.44,5.4-2.07,1.52-3.69.05-5.41-.56-.79-.28-1.41-1.02-2.19-1.62.7-.81,1.31-1.53,1.93-2.25-.03.01-.07.04-.1.04-1.14.16-1.66,1.76-3.28,1.12-1.08-.43-2.47-.08-3.73-.08-.02-.09-.03-.18-.05-.27.43-.11.85-.27,1.28-.31,2.1-.21,4.15-.6,6.2-1.12.15-.04.37.19.55.29.44-.1.87-.27,1.32-.29.61-.03,1.24.08,1.85.05.34-.02.79-.09.99-.31.72-.81.89-.87,1.89-.27.35-.39.68-.44,1.39-.03.91.52,1.79.88,2.78.13.12,1.76,2.31.1,2.53,1.58h0ZM261.34,105.45c-1.32-.38-2.33-.67-3.34-.96.01-.08.03-.16.04-.24.45.04.9.08,1.15.11.56-.27.98-.48,1.4-.69.2.48.41.97.74,1.78h0ZM266.12,140.53c-.93-.07-1.66-.13-2.75-.21.72-.71,1.2-1.18,1.7-1.67.34.61.7,1.26,1.06,1.89h0ZM273.8,126.42c.5.46,1.21,1.12,1.78,1.65-.43.38-.73.63-1.01.89-.45.43-1.4.22-1.65-.45-.42-1.13-1.26-.89-2.09-.79.11-.62.22-1.25.33-1.94.71.03,1.42-.11,1.76.74.02.05.4-.04.87-.1h0ZM274.42,124.78c.25.41.46.74.69,1.11-.88.81-1.18,0-1.72-.53.4-.22.69-.39,1.03-.58h0ZM277.2,120.2c-.77-.39-1.41-.72-2.32-1.18.48-.48,1.01-1.02,1.56-1.52.03-.03.45.22.48.38.12.67.17,1.36.27,2.33h0ZM278.25,122.86c-.22.83-.41,1.56-.7,2.61-.32-1.04-.74-1.05-1.12-.59-.53-.33-.99-.61-1.62-.99-.25-.89.59-1.04,1.22-1.14.65-.11,1.34.05,2.21.11h0ZM278.26,130.34c-1.26.66-1.3.62-1.4-.34-.03-.24-.32-.45-.58-.78,1.34-.43,1.04,1.04,1.98,1.12h0ZM297.74,120.67c1.04.21,1.93.38,2.96.59-1.5.6-2.45.42-2.96-.59h0ZM300.85,119.92c-1.39,1.09-2.56.3-3.62.13.26-.41.51-.82.77-1.23.25-.39.5-.79,1.02-.29.11.11.31.13.47.17.26.07.73.1.73.18.03.31-.09.63-.16.95.12.01.35.04.79.09h0ZM301.67,123.13c-.14.44-1.17.61-.02,1.41-.22.01-.44.03-.66.04-.4-.68-.8-1.35-1.21-2.03.09-.08.19-.16.28-.23.52.26,1.03.52,1.6.81h0ZM304.38,122.3c-.05.11-.1.21-.15.32-.58-.12-1.17-.21-1.74-.38-.15-.04-.33-.35-.3-.5.03-.14.37-.37.47-.33.59.26,1.15.59,1.72.89h0ZM307.36,119.28c-.75-.07-1.37-.14-2.17-.22-.07.14-.25.55-.57,1.25-.18-.45-.37-.83-.34-.85.9-.54-1.53-1.47.31-1.86-.27-.39-1.33-.73-.06-1.19.27-.1.3-.9.43-1.38.15-.03.29-.06.44-.09.29.56.57,1.14.89,1.69.23.4.51.77.87,1.3.04.24.11.72.2,1.34h0ZM308.08,122.42c-.02.1-.05.19-.07.29-1.13-.18-2.26-.37-3.39-.55.02-.12.04-.24.06-.36.22.05.45.09.7.15.04-.22.08-.48.13-.78.91.45,1.74.85,2.57,1.26h0ZM198.04,175.25c-.02.17-.03.35-.05.52l.68-.06c-.19-.14-.38-.28-.57-.42,0,0-.01,0-.02,0,0-.01-.02-.03-.03-.04,0,0,0,0,0,0h0ZM199.56,175.63l-.9.09c.3.22.59.44.89.65.09-.03.18-.06.27-.09-.1-.2-.17-.44-.25-.65h0ZM197.99,175.78l-1.05.1c.27.22.66.3.99.45.02-.18.04-.36.05-.55h0ZM117.27,183.39s-.04-.03-.06-.04c-.05.04-.1.09-.14.14.07-.03.13-.06.2-.09h0ZM116.27,184.22c.26-.25.52-.5.79-.74-.36.16-.69.31-.99.45.07.1.14.2.2.29h0ZM121.59,147.91s.04.03.06.05c-.01-.02-.02-.05-.03-.07l-.03.03h0ZM111.64,145.68s-.01-.03-.02-.03c0,0,0,0,0,0l.03.03h0Z"></path><path class="st0" d="M204.43,179.38s.16,1.45.07,3.62c.9,18.49,1.42,37.02,3.24,55.45,2.11,21.33,4.67,42.63,7.92,63.82,1.81,11.84,3.54,23.7,5.66,35.49.99,5.5,1.83,11.13,3.17,16.56,1.3,5.26,3.39,10.48,3.03,16-.07,1.07-.23,2.17.05,3.21,1.21,4.43,16.91-.81,16.64-6.24-.19-3.89-2.24-7.38-3.09-11.12-.45-2-.93-4-1.38-6-1.24-6.26-3.4-17.98-4.43-23.61,0,0,.01-.01,0-.02-.4-2.21-.59-3.34-.98-5.55-.49-2.79-.98-5.59-1.44-8.38-.75-4.54-1.51-9.07-2.2-13.61-.32-2.13-.48-4.28-.72-6.41-.06-.48-.11-.97-.18-1.46-.34-2.21-.74-4.42-1.03-6.65-.3-2.28-.39-4.59-.79-6.85-.33-1.87-.3-3.76-.86-5.66-.71-2.4-.56-5.04-.86-7.57-.52-4.28-1.12-8.55-1.67-12.82-.28-2.24-.54-4.48-.79-6.72-.32-2.87-.6-5.74-.95-8.6-.07-.6-2.44-23.8-3.04-29.51-.99-9.42-2.15-18.8-3.14-28.22l-.61-4.49c-6.16.97-11.62,5.32-11.62,5.32h0Z"></path><path class="st0" d="M322.31,307.87c2.67-.34,5.06-.8,7.2-1.37,2.13-.57,3.98-1.16,5.54-1.77,1.56-.61,2.8-1.22,3.71-1.83l-3.88-11.77c-1.75.91-4.23,1.89-7.43,2.91-3.2,1.03-7.35,1.54-12.45,1.54-4.27,0-7.92-.7-10.97-2.11-3.05-1.41-5.56-3.39-7.54-5.94-1.98-2.55-3.45-5.58-4.4-9.08-.95-3.5-1.43-7.35-1.43-11.54,0-4.72.61-8.87,1.83-12.45,1.22-3.58,2.91-6.55,5.08-8.91,2.17-2.36,4.74-4.13,7.71-5.31,2.97-1.18,6.17-1.77,9.59-1.77,3.96,0,7.63.51,11.02,1.54,3.39,1.03,6,2.11,7.83,3.26l4.23-11.77c-.53-.3-1.45-.8-2.74-1.48-1.29-.69-2.93-1.33-4.91-1.94-1.98-.61-4.3-1.16-6.97-1.66-2.67-.5-5.64-.74-8.91-.74-5.41,0-10.47.91-15.19,2.74-4.72,1.83-8.83,4.51-12.34,8.05-3.5,3.54-6.26,7.86-8.28,12.96-2.02,5.1-3.03,10.97-3.03,17.59s.87,12.49,2.63,17.59c1.75,5.1,4.26,9.42,7.54,12.97,3.27,3.54,7.27,6.22,11.99,8.05,4.72,1.83,10.05,2.74,15.99,2.74,3.05,0,5.9-.17,8.57-.51h0ZM396.62,263.9c-1.41-3.84-3.37-7.14-5.88-9.88-2.51-2.74-5.54-4.85-9.08-6.34-3.54-1.48-7.41-2.23-11.59-2.23s-8.04.74-11.54,2.23c-3.5,1.49-6.53,3.6-9.08,6.34-2.55,2.74-4.53,6.04-5.94,9.88-1.41,3.85-2.11,8.13-2.11,12.85s.7,9.02,2.11,12.91c1.41,3.89,3.37,7.2,5.88,9.94,2.51,2.74,5.52,4.88,9.02,6.4,3.5,1.52,7.39,2.28,11.65,2.28s8.17-.76,11.71-2.28c3.54-1.52,6.57-3.66,9.08-6.4,2.51-2.74,4.45-6.05,5.83-9.94,1.37-3.88,2.06-8.18,2.06-12.91s-.7-9-2.11-12.85h0ZM380.74,291.02c-2.55,3.5-6.11,5.26-10.68,5.26s-8.13-1.75-10.68-5.26c-2.55-3.5-3.83-8.26-3.83-14.28s1.28-10.64,3.83-14.11c2.55-3.46,6.11-5.2,10.68-5.2s8.13,1.73,10.68,5.2c2.55,3.47,3.83,8.17,3.83,14.11s-1.28,10.78-3.83,14.28h0ZM431.17,296.39c-1.83-.23-3.33-.55-4.51-.97-1.18-.42-2.11-1.03-2.8-1.83-.68-.8-1.16-1.77-1.43-2.91-.27-1.14-.4-2.55-.4-4.23v-68.42l-13.82,2.28v68.77c0,2.97.32,5.62.97,7.94.65,2.32,1.77,4.27,3.37,5.83,1.6,1.56,3.75,2.76,6.45,3.6,2.7.84,6.11,1.29,10.22,1.37l1.94-11.42h0ZM460.53,296.39c-1.83-.23-3.33-.55-4.51-.97-1.18-.42-2.11-1.03-2.8-1.83-.69-.8-1.16-1.77-1.43-2.91-.27-1.14-.4-2.55-.4-4.23v-68.42l-13.82,2.28v68.77c0,2.97.32,5.62.97,7.94.65,2.32,1.77,4.27,3.37,5.83,1.6,1.56,3.75,2.76,6.45,3.6,2.7.84,6.11,1.29,10.22,1.37l1.94-11.42h0ZM481.09,246.93h-13.82v59.74h13.82v-59.74h0ZM480.06,223.17c-1.67-1.52-3.66-2.28-5.94-2.28s-4.38.76-6.05,2.28c-1.68,1.52-2.51,3.62-2.51,6.28s.84,4.65,2.51,6.17c1.67,1.52,3.69,2.28,6.05,2.28s4.27-.76,5.94-2.28c1.67-1.52,2.51-3.58,2.51-6.17s-.84-4.76-2.51-6.28h0ZM492.62,289.48c1.22,3.77,3.09,7.04,5.6,9.82,2.51,2.78,5.71,4.95,9.6,6.51,3.88,1.56,8.45,2.34,13.71,2.34,2.06,0,4.07-.11,6.05-.34,1.98-.23,3.83-.51,5.54-.86,1.71-.34,3.23-.72,4.57-1.14,1.33-.42,2.38-.82,3.14-1.2l-1.83-11.31c-1.6.69-3.79,1.33-6.57,1.94-2.78.61-5.84.91-9.19.91-5.71,0-10.07-1.31-13.08-3.94-3.01-2.63-4.7-6.34-5.08-11.14h39.41c.08-.76.13-1.62.17-2.57.04-.95.06-1.81.06-2.57,0-10.13-2.3-17.74-6.91-22.85-4.61-5.1-11.02-7.65-19.25-7.65-3.5,0-6.93.67-10.28,2-3.35,1.33-6.32,3.31-8.91,5.94-2.59,2.63-4.67,5.92-6.23,9.88-1.56,3.96-2.34,8.57-2.34,13.82,0,4.49.61,8.62,1.83,12.39h0ZM505.19,270.92c.23-1.75.65-3.46,1.26-5.14.61-1.67,1.46-3.16,2.57-4.45,1.1-1.29,2.46-2.34,4.05-3.14,1.6-.8,3.46-1.2,5.6-1.2s3.83.36,5.31,1.08c1.49.72,2.74,1.72,3.77,2.97,1.03,1.26,1.81,2.74,2.34,4.45.53,1.71.8,3.52.8,5.43h-25.7ZM591.2,247.73c-.69-.23-1.6-.47-2.74-.74-1.14-.27-2.33-.5-3.54-.69-1.22-.19-2.44-.34-3.66-.46-1.22-.11-2.28-.17-3.2-.17-4.88,0-9.31.44-13.31,1.31-4,.88-7.33,1.81-9.99,2.8v56.88h13.82v-47.86c.68-.23,1.89-.5,3.6-.8,1.71-.3,3.33-.46,4.85-.46,2.67,0,5.01.21,7.03.63,2.02.42,3.6.82,4.74,1.2l2.4-11.65h0ZM630.09,227.12c-4.08.27-7.79.78-11.14,1.54v78.01h14.39v-27.87h7.2c5.79,0,10.93-.49,15.42-1.48,4.49-.99,8.3-2.53,11.42-4.63,3.12-2.09,5.5-4.8,7.14-8.11,1.64-3.31,2.46-7.29,2.46-11.94,0-8.91-3.07-15.46-9.2-19.65-6.13-4.19-14.94-6.28-26.44-6.28-3.43,0-7.18.13-11.25.4h0ZM650.08,239.79c2.4.42,4.47,1.12,6.23,2.11,1.75.99,3.12,2.36,4.11,4.11.99,1.75,1.49,3.92,1.49,6.51,0,5.41-1.87,9.08-5.6,11.02-3.73,1.94-9.06,2.91-15.99,2.91h-6.97v-26.96c2.36-.23,5.37-.34,9.02-.34,2.74,0,5.31.21,7.71.63h0ZM695.6,295.08c-2.06-1.26-3.08-3.52-3.08-6.8,0-1.67.38-3.06,1.14-4.17.76-1.1,1.77-1.96,3.03-2.57,1.26-.61,2.67-1.03,4.23-1.26,1.56-.23,3.1-.34,4.63-.34,1.75,0,3.35.11,4.8.34,1.45.23,2.55.46,3.31.69v15.31c-2.21.46-5.45.68-9.71.68-3.5,0-6.28-.63-8.34-1.89h0ZM692.06,246.36c-3.35.61-5.9,1.22-7.65,1.83l1.71,11.19c1.67-.61,3.84-1.14,6.51-1.6,2.67-.46,5.6-.69,8.8-.69,2.36,0,4.32.31,5.88.91,1.56.61,2.82,1.47,3.77,2.57.95,1.11,1.62,2.38,2,3.83.38,1.45.57,2.97.57,4.57v2.28c-1.9-.46-3.7-.78-5.37-.97-1.68-.19-3.28-.28-4.8-.28-3.28,0-6.42.33-9.42.97-3.01.65-5.65,1.71-7.94,3.2-2.28,1.48-4.1,3.41-5.43,5.77-1.33,2.36-2,5.25-2,8.68s.59,6.59,1.77,9.02c1.18,2.44,2.82,4.42,4.91,5.94,2.09,1.53,4.63,2.63,7.6,3.31,2.97.68,6.24,1.03,9.82,1.03,5.4,0,10.26-.33,14.56-.97,4.3-.65,7.52-1.2,9.65-1.66v-36.21c0-3.5-.4-6.72-1.2-9.65-.8-2.93-2.13-5.43-4-7.48-1.87-2.06-4.36-3.66-7.48-4.8-3.12-1.14-6.97-1.72-11.54-1.72-3.81,0-7.39.31-10.74.91h0ZM775.79,247.73c-.69-.23-1.6-.47-2.74-.74-1.14-.27-2.33-.5-3.54-.69-1.22-.19-2.44-.34-3.65-.46-1.22-.11-2.28-.17-3.2-.17-4.88,0-9.31.44-13.31,1.31-4,.88-7.33,1.81-10,2.8v56.88h13.82v-47.86c.68-.23,1.89-.5,3.6-.8,1.71-.3,3.33-.46,4.85-.46,2.67,0,5.01.21,7.02.63,2.02.42,3.6.82,4.74,1.2l2.4-11.65h0ZM794.63,218.03l-13.82,2.28v86.35h13.82v-27.41c2.06,1.53,4.15,3.37,6.28,5.54,2.13,2.17,4.23,4.47,6.28,6.91,2.06,2.44,3.98,4.95,5.77,7.54,1.79,2.59,3.37,5.06,4.74,7.42h15.99c-1.37-2.59-3.08-5.4-5.13-8.45-2.05-3.04-4.26-6.09-6.61-9.14-2.36-3.05-4.79-5.92-7.29-8.62-2.51-2.7-4.9-5.01-7.18-6.91,4.25-4.34,8.49-8.79,12.71-13.36,4.21-4.57,8.22-8.99,12.02-13.25h-16.33c-1.22,1.45-2.68,3.14-4.4,5.08-1.71,1.94-3.52,3.96-5.43,6.05-1.9,2.1-3.84,4.19-5.83,6.28-1.98,2.1-3.84,4.06-5.6,5.88v-52.2h0ZM909.6,239.79c3.39.95,6.22,2.11,8.51,3.48l4.34-11.77c-.53-.3-1.47-.8-2.8-1.48-1.33-.69-3.03-1.33-5.08-1.94-2.06-.61-4.51-1.16-7.37-1.66-2.86-.5-6.11-.74-9.77-.74-5.33,0-10.36.91-15.08,2.74-4.72,1.83-8.83,4.51-12.34,8.05-3.5,3.54-6.26,7.86-8.28,12.96-2.02,5.1-3.03,10.97-3.03,17.59s.91,12.49,2.74,17.59c1.83,5.1,4.4,9.41,7.71,12.91,3.31,3.5,7.33,6.17,12.05,8,4.72,1.83,9.94,2.74,15.65,2.74,6.17,0,11.61-.46,16.33-1.37,4.72-.91,8.07-1.75,10.05-2.51v-38.04h-14.39v28.44c-1.07.3-2.51.55-4.34.74-1.83.19-4,.29-6.51.29-4.04,0-7.56-.7-10.56-2.11-3.01-1.41-5.52-3.37-7.54-5.88-2.02-2.51-3.54-5.54-4.57-9.08-1.03-3.54-1.54-7.44-1.54-11.71,0-8.98,2.15-16.01,6.45-21.07,4.3-5.06,10.53-7.6,18.67-7.6,3.73,0,7.29.48,10.68,1.43h0ZM986.59,263.9c-1.41-3.84-3.37-7.14-5.88-9.88-2.51-2.74-5.54-4.85-9.08-6.34-3.54-1.48-7.41-2.23-11.59-2.23s-8.04.74-11.54,2.23c-3.5,1.49-6.53,3.6-9.08,6.34-2.55,2.74-4.53,6.04-5.94,9.88-1.41,3.85-2.11,8.13-2.11,12.85s.7,9.02,2.11,12.91c1.41,3.89,3.37,7.2,5.88,9.94,2.51,2.74,5.52,4.88,9.02,6.4,3.5,1.52,7.39,2.28,11.65,2.28s8.17-.76,11.71-2.28c3.54-1.52,6.57-3.66,9.08-6.4,2.51-2.74,4.45-6.05,5.83-9.94,1.37-3.88,2.06-8.18,2.06-12.91s-.71-9-2.11-12.85h0ZM970.71,291.02c-2.55,3.5-6.11,5.26-10.68,5.26s-8.13-1.75-10.68-5.26c-2.55-3.5-3.83-8.26-3.83-14.28s1.28-10.64,3.83-14.11c2.55-3.46,6.11-5.2,10.68-5.2s8.13,1.73,10.68,5.2c2.55,3.47,3.83,8.17,3.83,14.11s-1.28,10.78-3.83,14.28h0ZM1021.14,296.39c-1.83-.23-3.33-.55-4.51-.97-1.18-.42-2.11-1.03-2.8-1.83-.69-.8-1.16-1.77-1.43-2.91-.27-1.14-.4-2.55-.4-4.23v-68.42l-13.82,2.28v68.77c0,2.97.32,5.62.97,7.94.65,2.32,1.77,4.27,3.37,5.83,1.6,1.56,3.75,2.76,6.45,3.6,2.7.84,6.11,1.29,10.22,1.37l1.94-11.42h0ZM1033.82,224.6c-4.04,4.38-6.05,10.41-6.05,18.1v63.97h13.82v-48.2h21.7v-11.54h-21.7v-4c0-1.9.19-3.67.57-5.31.38-1.64,1.03-3.03,1.94-4.17.91-1.14,2.13-2.04,3.65-2.68,1.52-.65,3.39-.97,5.6-.97,1.98,0,3.83.19,5.54.57,1.71.38,3.22.88,4.51,1.48l2.63-11.42c-1.22-.46-3.05-.97-5.48-1.54-2.44-.57-5.25-.86-8.45-.86-8.15,0-14.24,2.19-18.28,6.57h0Z"></path></g><g><path class="st0" d="M378.47,358.11c3.17,0,4.75-1.08,4.75-3.25,0-.67-.14-1.23-.42-1.7s-.66-.88-1.14-1.22c-.48-.34-1.03-.64-1.64-.89-.61-.25-1.26-.5-1.95-.75-.79-.27-1.54-.58-2.25-.92-.71-.34-1.32-.75-1.84-1.22-.52-.47-.93-1.03-1.23-1.67-.3-.65-.45-1.43-.45-2.34,0-1.89.65-3.37,1.94-4.44s3.07-1.59,5.34-1.59c1.31,0,2.5.14,3.58.42,1.07.28,1.86.59,2.36.92l-.97,2.47c-.44-.27-1.09-.54-1.95-.8-.86-.26-1.87-.39-3.01-.39-.58,0-1.12.06-1.63.19-.5.13-.94.31-1.31.56-.37.25-.67.57-.89.95-.22.38-.33.84-.33,1.36,0,.59.11,1.08.34,1.47.23.4.55.75.97,1.05.42.3.9.58,1.45.83.55.25,1.16.5,1.83.75.94.37,1.8.75,2.58,1.12.78.37,1.46.82,2.03,1.34.57.52,1.01,1.14,1.33,1.86.31.72.47,1.59.47,2.61,0,1.9-.69,3.35-2.08,4.38-1.39,1.02-3.34,1.53-5.86,1.53-.86,0-1.64-.06-2.36-.17-.72-.11-1.36-.25-1.92-.41-.56-.16-1.05-.32-1.45-.5-.41-.18-.72-.33-.95-.45l.91-2.5c.48.27,1.21.57,2.19.9.98.33,2.18.5,3.59.5Z"></path><path class="st0" d="M405.44,349.42c0-1.86.27-3.49.83-4.91.55-1.42,1.3-2.6,2.25-3.55.95-.95,2.05-1.66,3.31-2.14,1.26-.48,2.6-.72,4.02-.72s2.71.24,3.95.72c1.24.48,2.33,1.19,3.27,2.14.94.95,1.68,2.13,2.23,3.55.55,1.42.83,3.05.83,4.91s-.28,3.49-.83,4.9c-.55,1.42-1.3,2.6-2.23,3.55-.94.95-2.03,1.66-3.27,2.14-1.24.48-2.56.72-3.95.72s-2.76-.24-4.02-.72c-1.26-.48-2.36-1.19-3.31-2.14-.95-.95-1.7-2.13-2.25-3.55-.55-1.42-.83-3.05-.83-4.9ZM408.63,349.42c0,1.31.17,2.51.5,3.58.33,1.08.81,1.99,1.42,2.74.61.75,1.36,1.33,2.25,1.73.89.41,1.88.61,2.98.61s2.09-.2,2.97-.61c.87-.4,1.62-.98,2.23-1.73s1.09-1.66,1.42-2.74c.33-1.07.5-2.26.5-3.58s-.17-2.51-.5-3.58-.81-1.98-1.42-2.74c-.61-.75-1.36-1.33-2.23-1.73-.87-.41-1.86-.61-2.97-.61s-2.1.2-2.98.61c-.89.4-1.64.98-2.25,1.73-.62.75-1.09,1.66-1.42,2.74-.33,1.07-.5,2.26-.5,3.58Z"></path><path class="st0" d="M454.94,360.73c-1.42,0-2.65-.22-3.69-.66-1.04-.44-1.9-1.04-2.56-1.8-.67-.76-1.16-1.66-1.48-2.7-.32-1.04-.48-2.17-.48-3.37v-13.59h3.03v13.25c0,2.17.48,3.74,1.44,4.72.96.98,2.21,1.47,3.75,1.47.77,0,1.47-.12,2.11-.36s1.18-.61,1.64-1.11c.46-.5.81-1.14,1.06-1.92.25-.78.37-1.71.37-2.8v-13.25h3.03v13.59c0,1.21-.16,2.33-.48,3.37s-.82,1.94-1.5,2.7c-.68.76-1.53,1.36-2.56,1.8-1.03.44-2.26.66-3.67.66Z"></path><path class="st0" d="M499.09,338.61v2.63h-6.81v19.03h-3.03v-19.03h-6.81v-2.63h16.66Z"></path><path class="st0" d="M532.15,338.61h3.03v21.66h-3.03v-10h-10.59v10h-3.03v-21.66h3.03v9.03h10.59v-9.03Z"></path><path class="st0" d="M586.02,338.39c3.04,0,5.38.58,7.02,1.73s2.45,2.88,2.45,5.17c0,1.25-.22,2.32-.67,3.2-.45.89-1.09,1.6-1.94,2.16-.84.55-1.87.95-3.08,1.2-1.21.25-2.57.38-4.09.38h-2.41v8.03h-3.03v-21.34c.85-.21,1.81-.35,2.86-.42,1.05-.07,2.02-.11,2.89-.11ZM586.28,341.05c-1.29,0-2.28.03-2.97.09v8.5h2.28c1.04,0,1.98-.07,2.81-.2.83-.13,1.54-.36,2.11-.69.57-.32,1.01-.77,1.33-1.33.31-.56.47-1.28.47-2.16s-.16-1.52-.48-2.06c-.32-.54-.76-.97-1.31-1.3-.55-.32-1.19-.55-1.92-.67-.73-.12-1.5-.19-2.31-.19Z"></path><path class="st0" d="M615.52,360.26v-21.66h13.22v2.59h-10.19v6.44h9.06v2.53h-9.06v7.5h10.97v2.59h-14Z"></path><path class="st0" d="M660.21,351.2c.33.42.76.96,1.27,1.64.51.68,1.04,1.43,1.58,2.25.54.82,1.08,1.68,1.61,2.58.53.9.99,1.76,1.36,2.59h-3.31c-.42-.79-.87-1.59-1.36-2.41-.49-.81-.98-1.59-1.48-2.33s-.99-1.43-1.48-2.08-.93-1.21-1.33-1.69c-.27.02-.55.03-.83.03h-3.58v8.47h-3.03v-21.34c.85-.21,1.81-.35,2.86-.42,1.05-.07,2.02-.11,2.89-.11,3.04,0,5.36.57,6.95,1.72s2.39,2.85,2.39,5.12c0,1.44-.38,2.67-1.14,3.69-.76,1.02-1.88,1.78-3.36,2.28ZM655.61,341.05c-1.29,0-2.28.03-2.97.09v8.15h2.16c1.04,0,1.98-.05,2.81-.16.83-.1,1.54-.3,2.11-.59.57-.29,1.02-.7,1.33-1.23.31-.53.47-1.23.47-2.11,0-.81-.16-1.49-.47-2.03-.31-.54-.73-.97-1.26-1.28s-1.16-.53-1.88-.66-1.48-.19-2.3-.19Z"></path><path class="st0" d="M699.99,338.61v2.63h-6.81v19.03h-3.03v-19.03h-6.81v-2.63h16.66Z"></path><path class="st0" d="M733.05,338.61h3.03v21.66h-3.03v-10h-10.59v10h-3.03v-21.66h3.03v9.03h10.59v-9.03Z"></path></g></svg>