<svg xmlns="http://www.w3.org/2000/svg" id="Layer_2" viewBox="0 0 333.47 92.15"><defs><style>.cls-1{fill:#fff;}</style></defs><g id="Layer_1-2"><path class="cls-1" d="m91.88,53.46c.03-.29.05-.59.05-.89,0-4.36-3.54-7.9-7.9-7.9-3.71,0-6.83,2.58-7.67,6.04-3.41-.38-6.98-.66-10.62-.8-9.35-.37-19.6.08-29.16,1.38v-20.36l32.85-12.5c.79-.3,1.31-1.05,1.31-1.9,0-.85-.51-1.6-1.3-1.91L35.79,1.53c-.71-.93-1.82-1.53-3.07-1.53h-.07c-2.13,0-3.86,1.73-3.86,3.86v48.71c-10.87,2.13-20.12,5.5-24.98,10.17-2.52,2.43-3.8,5.12-3.8,8,0,5.48,4.1,10.38,11.87,14.18,9.42,4.61,23.68,7.23,37.19,7.23,12.78,0,24.9-2.34,31.62-7.57,7.55-5.87,13.94-5.94,19.08-5.99,1.12-.01,2.17-.02,3.15-.1h.09c5.23-.4,13.13-.99,13.12-8.73,0-6.6-9.65-12.64-24.24-16.31ZM36.58,4.42l31.1,12.1-31.1,11.84V4.42Zm47.45,42.65c3.03,0,5.5,2.47,5.5,5.5s-2.47,5.5-5.5,5.5-5.5-2.47-5.5-5.5,2.47-5.5,5.5-5.5Zm-47.45,18.43c.38-.01.77-.02,1.17-.02,7.46,0,12.04,2.5,12.04,4.29s-4.58,4.29-12.04,4.29c-.4,0-.79-.01-1.17-.02v-8.54Zm-5.39-10.98V3.86c0-.8.65-1.46,1.46-1.46h.07c.8,0,1.46.65,1.46,1.46v59.41c-1.02.12-2.03.28-2.99.5v-9.26Zm0,11.71c.9-.23,1.9-.41,2.99-.54v8.17c-1.09-.13-2.09-.32-2.99-.54v-7.08Zm71.63,9.86h-.09c-.9.07-1.92.08-2.99.1-5.21.05-12.34.12-20.53,6.5-12.97,10.09-48.91,8.57-66.28.08-4.8-2.35-10.52-6.34-10.52-12.02,0-2.2,1.03-4.31,3.07-6.27,4.5-4.33,13.1-7.48,23.31-9.51v9.48c-3.21,1.12-5.47,2.91-5.47,5.31s2.27,4.19,5.47,5.31c.76.26,1.56.49,2.41.68.96.22,1.96.38,2.99.5.79.09,1.6.15,2.41.18.39.01.78.02,1.17.02,7,0,14.44-2.35,14.44-6.7s-7.44-6.7-14.44-6.7c-.39,0-.78,0-1.17.02v-9.42c7.34-1,15.14-1.5,22.62-1.5,2.18,0,4.33.04,6.44.12,3.65.14,7.18.41,10.51.79.27,4.11,3.7,7.37,7.87,7.37,3.22,0,5.99-1.93,7.22-4.7,13.98,3.51,22.46,9.04,22.46,14.01,0,5.09-4.72,5.85-10.89,6.32Zm-74.03-9.07v5.5c-1.97-.84-3.07-1.88-3.07-2.75s1.09-1.91,3.07-2.75Z"></path><path class="cls-1" d="m279.99,75.65c-.8,0-1.46.64-1.46,1.44v3.25c0,.79.66,1.44,1.46,1.44s1.46-.64,1.46-1.44v-3.25c0-.79-.66-1.44-1.46-1.44Z"></path><path class="cls-1" d="m119.02,71.39c-1.05,8.97-10.91,9.72-15.79,10.09-1.15.09-2.24.1-3.39.11-4.97.05-10.56.11-17.31,5.36-2.95,2.29-6.58,3.96-10.43,5.16h261.37v-20.72H119.02Zm17.48,7.59l-1.45.17v-2.06c0-.79-.65-1.44-1.46-1.44s-1.46.64-1.46,1.44v.93c0,.52.33.92.34.92l3.34,3.91s.69.83.69,1.89v1.34c0,1.58-1.31,2.87-2.91,2.87s-2.91-1.29-2.91-2.87v-2.21l1.45-.17v2.37c0,.79.65,1.44,1.46,1.44s1.46-.64,1.46-1.44v-1.34c0-.53-.36-.96-.36-.96l-3.34-3.91s-.67-.81-.67-1.85v-.93c0-1.58,1.31-2.87,2.91-2.87s2.91,1.29,2.91,2.87v1.9Zm18.41,9.76h-1.45v-14.32h1.45v14.32Zm23.46,0h-1.41l-3.3-10.32v10.32h-1.45v-14.32h1.64l.04.13,3.03,9.61v-9.73h1.45v14.32Zm23.02-9.43l-1.45.16v-2.39c0-.79-.65-1.44-1.46-1.44s-1.46.64-1.46,1.44v9c0,.79.65,1.44,1.46,1.44s1.46-.64,1.46-1.44v-2.08h1.45v2.08c0,1.58-1.31,2.87-2.91,2.87s-2.91-1.29-2.91-2.87v-9c0-1.58,1.31-2.87,2.91-2.87s2.91,1.29,2.91,2.87v2.23Zm22.03,9.43h-5.07v-14.32h4.9v1.43h-3.45v5h2.54v1.45h-2.54v5h3.62v1.43Zm36.55,0h-1.45v-14.2l1.45-.14v14.34Zm22.93-2.66c0,1.58-1.31,2.87-2.91,2.87s-2.91-1.29-2.91-2.87v-1.32l1.45-.17v1.48c0,.79.66,1.44,1.46,1.44s1.46-.64,1.46-1.44v-3.25c-.44.24-.94.37-1.46.37-1.61,0-2.91-1.29-2.91-2.87v-3.25c0-1.58,1.31-2.87,2.91-2.87s2.91,1.29,2.91,2.87v9Zm22.72-7.7c0,.55-.53,1.54-.59,1.66l-3.43,6.27s-.28.53-.34,1h4.25v1.43h-5.72v-1.25c0-.86.5-1.8.53-1.84l3.43-6.29c.2-.37.42-.85.42-.97v-1.3c0-.79-.65-1.44-1.46-1.44s-1.46.64-1.46,1.44v1.85l-1.45.17v-2.02c0-1.58,1.31-2.87,2.91-2.87s2.91,1.29,2.91,2.87v1.3Zm22.41,1.03c0,.81-.5,1.73-1.12,2.16.62.44,1.12,1.36,1.12,2.15v2.36c0,1.58-1.31,2.87-2.91,2.87s-2.91-1.29-2.91-2.87v-1.5l1.45-.16v1.67c0,.79.66,1.44,1.46,1.44s1.46-.64,1.46-1.44v-2.36c0-.79-.65-1.44-1.46-1.44h-.5v-1.43h.5c.8,0,1.46-.64,1.46-1.44v-2.34c0-.79-.65-1.44-1.46-1.44s-1.46.64-1.46,1.44v1.5l-1.45.17v-1.67c0-1.58,1.31-2.87,2.91-2.87s2.91,1.29,2.91,2.87v2.34Z"></path><path class="cls-1" d="m131.34,10.64h37.47v10.15h-26.66v10.52h23.47v10.15h-23.47v10.89h27.02v10.15h-37.83V10.64Z"></path><path class="cls-1" d="m201.53,63.37c-3.89,0-7.43-.67-10.63-2-3.2-1.33-5.95-3.18-8.25-5.55-2.3-2.37-4.09-5.18-5.37-8.44-1.28-3.26-1.92-6.81-1.92-10.66v-.15c0-3.7.65-7.17,1.96-10.41,1.3-3.23,3.12-6.07,5.44-8.52,2.32-2.44,5.07-4.37,8.25-5.78,3.18-1.41,6.66-2.11,10.45-2.11,2.23,0,4.25.16,6.08.48,1.82.32,3.52.78,5.08,1.37,1.56.59,3.03,1.33,4.41,2.22,1.37.89,2.7,1.9,3.98,3.04l-6.9,8.66c-.95-.84-1.9-1.58-2.84-2.22-.95-.64-1.93-1.18-2.95-1.63-1.02-.44-2.12-.79-3.31-1.04-1.19-.25-2.49-.37-3.91-.37-1.99,0-3.85.43-5.58,1.3-1.73.87-3.25,2.03-4.55,3.49-1.3,1.46-2.32,3.17-3.06,5.12-.74,1.95-1.1,4.05-1.1,6.27v.15c0,2.38.37,4.56,1.1,6.57.73,2,1.78,3.75,3.13,5.23,1.35,1.48,2.94,2.63,4.76,3.45,1.82.82,3.85,1.22,6.08,1.22,4.08,0,7.51-1.04,10.31-3.13v-7.46h-11.02v-9.85h21.62v22.51c-2.56,2.27-5.61,4.21-9.14,5.81-3.53,1.6-7.57,2.41-12.12,2.41Z"></path><path class="cls-1" d="m255.85,63.37c-3.89,0-7.43-.67-10.63-2-3.2-1.33-5.95-3.18-8.25-5.55-2.3-2.37-4.09-5.18-5.37-8.44-1.28-3.26-1.92-6.81-1.92-10.66v-.15c0-3.7.65-7.17,1.96-10.41,1.3-3.23,3.12-6.07,5.44-8.52,2.32-2.44,5.07-4.37,8.25-5.78,3.18-1.41,6.66-2.11,10.45-2.11,2.23,0,4.25.16,6.08.48,1.82.32,3.52.78,5.08,1.37,1.56.59,3.03,1.33,4.41,2.22,1.37.89,2.7,1.9,3.98,3.04l-6.9,8.66c-.95-.84-1.9-1.58-2.84-2.22-.95-.64-1.93-1.18-2.95-1.63-1.02-.44-2.12-.79-3.31-1.04-1.19-.25-2.49-.37-3.91-.37-1.99,0-3.85.43-5.58,1.3-1.73.87-3.25,2.03-4.55,3.49-1.3,1.46-2.32,3.17-3.06,5.12-.74,1.95-1.1,4.05-1.1,6.27v.15c0,2.38.37,4.56,1.1,6.57.73,2,1.78,3.75,3.13,5.23,1.35,1.48,2.94,2.63,4.76,3.45,1.82.82,3.85,1.22,6.08,1.22,4.08,0,7.51-1.04,10.31-3.13v-7.46h-11.02v-9.85h21.62v22.51c-2.56,2.27-5.61,4.21-9.14,5.81-3.53,1.6-7.57,2.41-12.12,2.41Z"></path><path class="cls-1" d="m309.54,63.37c-3.65,0-7.04-.69-10.17-2.07-3.13-1.38-5.83-3.27-8.11-5.67-2.28-2.39-4.05-5.22-5.33-8.48-1.28-3.26-1.92-6.74-1.92-10.44v-.15c0-3.7.64-7.17,1.92-10.41,1.28-3.23,3.06-6.07,5.33-8.52,2.28-2.44,5-4.37,8.18-5.78,3.18-1.41,6.68-2.11,10.52-2.11,2.32,0,4.44.2,6.36.59,1.92.4,3.66.94,5.23,1.63,1.56.69,3.01,1.53,4.34,2.52,1.33.99,2.56,2.07,3.7,3.26l-6.97,8.37c-1.94-1.83-3.92-3.26-5.94-4.3-2.02-1.04-4.28-1.56-6.79-1.56-2.09,0-4.02.42-5.8,1.26-1.78.84-3.31,2-4.59,3.48-1.28,1.48-2.28,3.2-2.99,5.15-.71,1.95-1.07,4.04-1.07,6.26v.15c0,2.22.36,4.32,1.07,6.29.71,1.98,1.69,3.7,2.95,5.18,1.26,1.48,2.77,2.65,4.55,3.52,1.78.86,3.73,1.3,5.87,1.3,2.84,0,5.25-.54,7.22-1.63,1.97-1.09,3.92-2.57,5.87-4.44l6.97,7.33c-1.28,1.43-2.61,2.72-3.98,3.85-1.38,1.14-2.88,2.11-4.52,2.93-1.64.81-3.43,1.43-5.37,1.85-1.94.42-4.12.63-6.54.63Z"></path></g></svg>