<svg viewBox="168.1581920903955 205.42116 297.64 133.01862" version="1.1" xmlns:xlink="http://www.w3.org/1999/xlink" xmlns="http://www.w3.org/2000/svg" style="max-height: 500px" width="297.64" height="133.01862">
<defs>
<clipPath id="clip_0">
<path d="M0 841.89H595.28V0H0Z" transform="matrix(1,0,0,-1,0,841.89)"/>
</clipPath>
</defs>
<g>
<g clip-path="url(#clip_0)">
<path fill="#fcde00" d="M0 0C0-11.096-3.835-21.285-10.236-29.287-10.236-29.287-17.613-29.188-24.071-28.503-31.617-27.702-40.788-28.569-49.662-28.37-64.811-28.031-78.037-33.685-80.231-31.229-87.613-22.965-92.108-12.013-92.108 0-92.108 25.73-71.489 46.589-46.054 46.589-20.619 46.589 0 25.73 0 0" transform="matrix(1,0,0,-1,352.6094,265.6073)"/>
<path fill="#0c1f60" d="M0 0C-3.242-.28-3.563-.48-3.563-3.842V-19.851C-3.563-23.213-3.242-23.413 0-23.693V-24.853H-11.006V-23.693C-7.645-23.413-7.324-23.213-7.324-19.851V-11.967H-20.451V-19.851C-20.451-23.213-20.132-23.413-16.93-23.693V-24.853H-27.695V-23.693C-24.533-23.413-24.213-23.213-24.213-19.851V-3.842C-24.213-.48-24.533-.28-27.815 0V1.16H-17.13V0C-20.132-.28-20.451-.48-20.451-3.842V-10.205H-7.324V-3.842C-7.324-.521-7.645-.28-10.727 0V1.16H0Z" transform="matrix(1,0,0,-1,234.5508,259.39735)"/>
<path fill="#0c1f60" d="M0 0C0-7.363 3.922-12.926 9.485-12.926 13.807-12.926 17.609-9.204 17.609-1.56 17.609 6.805 13.447 11.326 8.284 11.326 3.922 11.326 0 7.404 0 0M22.092-.48C22.092-9.125 16.008-14.407 8.645-14.407 1.28-14.407-4.482-8.724-4.482-1.04-4.482 6.084 .561 12.808 9.084 12.808 16.008 12.808 22.092 7.524 22.092-.48" transform="matrix(1,0,0,-1,243.7969,270.4442)"/>
<path fill="#0c1f60" d="M0 0C1.961 0 3.282 .32 4.282 1.12 5.764 2.321 6.404 3.923 6.404 6.043 6.404 10.366 3.643 11.967 .762 11.967-.4 11.967-1.039 11.806-1.361 11.565-1.641 11.325-1.76 10.886-1.76 9.845V0ZM14.769-13.007C14.328-13.007 13.887-13.007 13.408-12.967 10.005-12.807 8.404-11.886 6.604-9.285 5.283-7.403 3.882-4.962 2.721-3.001 2.002-1.841 1.32-1.36-.6-1.36H-1.76V-7.644C-1.76-11.006-1.4-11.285 1.762-11.526V-12.686H-9.044V-11.526C-5.803-11.285-5.443-11.006-5.443-7.644V8.325C-5.443 11.687-5.803 11.887-8.885 12.167V13.327H1.281C4.322 13.327 6.284 12.967 7.804 11.927 9.445 10.886 10.485 9.124 10.485 6.684 10.485 3.242 8.324 1.161 5.404-.12 6.083-1.4 7.725-4.081 8.926-5.883 10.367-8.005 11.207-9.084 12.125-10.085 13.166-11.205 14.047-11.686 14.928-11.926Z" transform="matrix(1,0,0,-1,279.7363,271.56434)"/>
<path fill="#0c1f60" d="M0 0V-51.515C0-52.735 .097-53.599 .294-54.103 .49-54.606 .841-55.006 1.343-55.297 1.847-55.59 2.583-55.823 3.555-56 3.75-56.036 3.851-56.275 3.851-56.718 3.851-57.212 3.758-57.46 3.573-57.46 2.797-57.46 1.878-57.407 .815-57.301-.202-57.194-1.064-57.142-1.77-57.142-2.475-57.142-3.337-57.194-4.354-57.301-5.431-57.407-6.36-57.46-7.147-57.46-7.331-57.46-7.423-57.212-7.423-56.718-7.423-56.275-7.331-56.036-7.147-56-5.748-55.753-4.796-55.354-4.294-54.806-3.792-54.257-3.54-53.16-3.54-51.515V0" transform="matrix(1,0,0,-1,304.2861,235.4549)"/>
<path fill="#e12219" d="M0 0V13.98C0 13.98 1.348 13.576 2.056 13.98 2.056 13.98 6.975 14.755 10.007 11.993 10.007 11.993 12.937 9.602 16.104 7.311 19.271 5.02 23.853 5.087 23.853 5.087 23.853 5.087 20.652 1.785 16.139 1.92 11.623 2.055 7.548 2.156 5.256 1.516 5.256 1.516 2.358 .471 1.819 0 1.819 0 1.01-.708 0 0" transform="matrix(1,0,0,-1,300.6719,249.078)"/>
<path fill="#00bd71" d="M0 0C0 0-148.488 26.682-214.269-12.674-214.269-12.674-106.925 13.341 0 0" transform="matrix(1,0,0,-1,415.9141,298.89833)"/>
<path fill="#0c1f60" d="M0 0C-.32-1.521-1.04-5.282-1.479-6.884H-22.252L-22.612-6.282C-17.088 1.641-11.526 9.564-6.083 17.609H-12.646C-16.97 17.609-17.609 17.25-18.29 16.209-18.769 15.449-19.251 14.407-19.689 12.646L-20.892 12.687C-20.73 15.328-20.491 18.29-20.411 20.131H-19.45C-18.93 19.17-18.489 19.13-17.289 19.13H-1.281L-1.001 18.57C-6.442 10.686-11.806 2.962-17.209-5.162-15.929-5.323-13.728-5.403-11.006-5.403-6.324-5.403-4.602-5.122-3.482-3.922-2.642-3.041-2.001-1.761-1.24 .28Z" transform="matrix(1,0,0,-1,333.6387,277.72743)"/>
<path fill="#0c1f60" d="M0 0C0-7.364 3.921-12.927 9.483-12.927 13.807-12.927 17.608-9.205 17.608-1.561 17.608 6.803 13.445 11.326 8.283 11.326 3.921 11.326 0 7.404 0 0M22.091-.48C22.091-9.125 16.008-14.407 8.644-14.407 1.28-14.407-4.482-8.725-4.482-1.041-4.482 6.084 .559 12.807 9.083 12.807 16.008 12.807 22.091 7.523 22.091-.48" transform="matrix(1,0,0,-1,342.3242,270.8036)"/>
<path fill="#0c1f60" d="M0 0C-2.241-.119-3.161-.64-3.36-2.4-3.481-3.641-3.602-5.441-3.602-9.125V-25.212H-4.963L-21.93-4.441H-22.01V-14.286C-22.01-17.929-21.89-19.85-21.771-21.01-21.57-22.971-20.689-23.531-17.928-23.691V-24.853H-27.453V-23.691C-25.172-23.531-24.171-23.011-23.972-21.091-23.852-19.85-23.69-17.929-23.69-14.286V-5.562C-23.69-2.721-23.771-2.441-24.531-1.48-25.333-.48-26.173-.159-28.055 0V1.161H-21.852L-5.402-18.449H-5.282V-9.125C-5.282-5.482-5.441-3.641-5.562-2.48-5.763-.719-6.683-.159-9.523 0V1.161H0Z" transform="matrix(1,0,0,-1,396.5518,259.75874)"/>
<path fill="#0c1f60" d="M0 0C-.72 2.521-1.879 5.363-5.28 5.363-8.203 5.363-9.645 3.242-9.645 1.041-9.645-1.761-7.803-3.121-4.561-4.763-1.24-6.443 2.362-8.365 2.362-12.767 2.362-17.049-1.24-20.45-6.682-20.45-8.283-20.45-9.604-20.17-10.604-19.851-11.645-19.53-12.245-19.21-12.686-19.01-13.005-18.129-13.525-14.728-13.765-12.687L-12.524-12.365C-11.886-14.848-10.004-18.97-5.922-18.97-3.001-18.97-1.24-17.129-1.24-14.287-1.24-11.446-3.36-10.005-6.361-8.404-9.204-6.924-13.045-4.883-13.045-.48-13.045 3.441-9.884 6.764-4.641 6.764-2.639 6.764-.878 6.244 .482 5.803 .642 4.362 .883 2.762 1.202 .24Z" transform="matrix(1,0,0,-1,414.8818,264.76063)"/>
<path fill="#0c1f60" d="M0 0H-.898L-1.111 .942C-1.485 .517-1.859 .221-2.233 .056-2.607-.108-3.038-.19-3.524-.19-4.123-.19-4.659-.08-5.134 .141-5.61 .361-6.012 .662-6.341 1.044-6.67 1.425-6.923 1.87-7.099 2.379-7.274 2.888-7.362 3.431-7.362 4.007-7.362 4.575-7.274 5.113-7.099 5.623-6.923 6.131-6.67 6.576-6.341 6.958-6.012 7.34-5.61 7.643-5.134 7.867-4.659 8.092-4.123 8.204-3.524 8.204-3.09 8.204-2.677 8.146-2.284 8.03-1.891 7.914-1.542 7.742-1.234 7.514-.928 7.285-.673 6.999-.471 6.655-.27 6.311-.142 5.914-.09 5.466H-1.459C-1.497 5.728-1.577 5.957-1.7 6.155-1.824 6.354-1.979 6.521-2.166 6.655-2.353 6.79-2.563 6.891-2.794 6.958-3.026 7.025-3.27 7.059-3.524 7.059-3.951 7.059-4.319 6.973-4.629 6.801-4.94 6.629-5.192 6.398-5.387 6.11-5.582 5.822-5.726 5.495-5.819 5.129-5.913 4.762-5.959 4.388-5.959 4.007-5.959 3.625-5.913 3.251-5.819 2.884-5.726 2.518-5.582 2.19-5.387 1.902-5.192 1.614-4.94 1.384-4.629 1.212-4.319 1.04-3.951 .954-3.524 .954-3.165 .946-2.847 .993-2.57 1.094-2.293 1.195-2.06 1.341-1.869 1.532-1.678 1.723-1.534 1.956-1.437 2.233-1.339 2.51-1.287 2.817-1.279 3.153H-3.412V4.22H0Z" transform="matrix(1,0,0,-1,260.6221,315.26264)"/>
<path fill="#0c1f60" d="M0 0C-.426 0-.795-.086-1.105-.258-1.416-.43-1.668-.66-1.863-.948-2.058-1.236-2.202-1.563-2.295-1.93-2.389-2.297-2.436-2.671-2.436-3.052-2.436-3.434-2.389-3.808-2.295-4.175-2.202-4.541-2.058-4.868-1.863-5.156-1.668-5.444-1.416-5.675-1.105-5.847-.795-6.019-.426-6.104 0-6.104 .426-6.104 .795-6.019 1.105-5.847 1.416-5.675 1.668-5.444 1.863-5.156 2.058-4.868 2.201-4.541 2.295-4.175 2.389-3.808 2.435-3.434 2.435-3.052 2.435-2.671 2.389-2.297 2.295-1.93 2.201-1.563 2.058-1.236 1.863-.948 1.668-.66 1.416-.43 1.105-.258 .795-.086 .426 0 0 0M0 1.146C.599 1.146 1.135 1.033 1.61 .809 2.085 .584 2.488 .281 2.817-.101 3.146-.482 3.398-.928 3.574-1.436 3.75-1.945 3.838-2.483 3.838-3.052 3.838-3.628 3.75-4.171 3.574-4.68 3.398-5.188 3.146-5.634 2.817-6.015 2.488-6.396 2.085-6.697 1.61-6.918 1.135-7.139 .599-7.249 0-7.249-.599-7.249-1.135-7.139-1.61-6.918-2.085-6.697-2.488-6.396-2.817-6.015-3.146-5.634-3.399-5.188-3.574-4.68-3.75-4.171-3.838-3.628-3.838-3.052-3.838-2.483-3.75-1.945-3.574-1.436-3.399-.928-3.146-.482-2.817-.101-2.488 .281-2.085 .584-1.61 .809-1.135 1.033-.599 1.146 0 1.146" transform="matrix(1,0,0,-1,268.6597,308.20405)"/>
<path fill="#0c1f60" d="M0 0H1.403V-6.801H5.477V-8.013H0Z" transform="matrix(1,0,0,-1,276.877,307.24995)"/>
<path fill="#0c1f60" d="M0 0H5.533V-1.212H1.403V-3.311H5.028V-4.455H1.403V-8.013H0Z" transform="matrix(1,0,0,-1,286.3677,307.24995)"/>
<path fill="#0c1f60" d="M0 0H2.301C2.749 0 3.09 .107 3.322 .32 3.554 .533 3.67 .854 3.67 1.279 3.67 1.534 3.632 1.741 3.558 1.902 3.482 2.063 3.38 2.188 3.249 2.278 3.118 2.368 2.969 2.428 2.8 2.458 2.632 2.488 2.458 2.503 2.278 2.503H0ZM-1.402 3.647H2.424C3.307 3.647 3.969 3.457 4.41 3.075 4.852 2.693 5.072 2.162 5.072 1.481 5.072 1.101 5.017 .784 4.904 .533 4.792 .282 4.661 .081 4.512-.072 4.361-.226 4.214-.336 4.068-.403 3.922-.471 3.815-.516 3.748-.538V-.561C3.868-.576 3.997-.613 4.136-.673 4.273-.733 4.403-.828 4.522-.959 4.643-1.09 4.741-1.261 4.82-1.47 4.898-1.68 4.937-1.941 4.937-2.255 4.937-2.727 4.974-3.155 5.045-3.54 5.115-3.926 5.226-4.201 5.376-4.365H3.872C3.767-4.193 3.705-4.002 3.687-3.793 3.668-3.584 3.658-3.382 3.658-3.187 3.658-2.82 3.636-2.504 3.591-2.238 3.546-1.973 3.464-1.752 3.345-1.576 3.225-1.4 3.062-1.271 2.856-1.189 2.65-1.107 2.387-1.065 2.064-1.065H0V-4.365H-1.402Z" transform="matrix(1,0,0,-1,303.6953,310.89735)"/>
<path fill="#0c1f60" d="M0 0H5.769V-1.212H1.403V-3.311H5.443V-4.455H1.403V-6.801H5.848V-8.013H0Z" transform="matrix(1,0,0,-1,313.3467,307.24995)"/>
<path fill="#0c1f60" d="M0 0C0-.307 .052-.568 .157-.785 .262-1.003 .407-1.181 .595-1.318 .781-1.457 .997-1.558 1.24-1.621 1.482-1.686 1.747-1.717 2.031-1.717 2.338-1.717 2.6-1.682 2.816-1.61 3.033-1.539 3.209-1.447 3.344-1.335 3.479-1.224 3.576-1.094 3.636-.948 3.695-.803 3.726-.654 3.726-.505 3.726-.198 3.656 .028 3.518 .174 3.38 .32 3.228 .423 3.063 .482 2.779 .587 2.448 .687 2.07 .78 1.692 .874 1.227 .995 .673 1.145 .329 1.234 .043 1.353-.186 1.498-.414 1.645-.595 1.807-.729 1.986-.864 2.166-.96 2.356-1.016 2.559-1.072 2.761-1.1 2.967-1.1 3.176-1.1 3.58-1.016 3.93-.848 4.226-.68 4.521-.457 4.766-.18 4.961 .097 5.155 .411 5.299 .763 5.393 1.114 5.486 1.47 5.533 1.829 5.533 2.248 5.533 2.643 5.479 3.013 5.37 3.384 5.262 3.709 5.099 3.989 4.882 4.27 4.665 4.492 4.397 4.657 4.079 4.821 3.762 4.904 3.393 4.904 2.974H3.501C3.464 3.49 3.288 3.855 2.974 4.068 2.659 4.281 2.259 4.388 1.772 4.388 1.608 4.388 1.439 4.371 1.268 4.338 1.096 4.304 .938 4.248 .797 4.169 .654 4.091 .536 3.984 .443 3.85 .35 3.715 .303 3.547 .303 3.345 .303 3.06 .391 2.838 .566 2.677 .742 2.516 .973 2.395 1.257 2.312 1.286 2.305 1.404 2.272 1.61 2.217 1.815 2.16 2.046 2.099 2.301 2.031 2.555 1.964 2.804 1.898 3.047 1.835 3.29 1.771 3.464 1.725 3.568 1.694 3.83 1.612 4.059 1.5 4.253 1.358 4.447 1.216 4.61 1.053 4.741 .87 4.872 .687 4.97 .49 5.033 .28 5.097 .071 5.129-.139 5.129-.348 5.129-.797 5.037-1.181 4.854-1.498 4.67-1.816 4.429-2.076 4.13-2.278 3.83-2.48 3.49-2.628 3.108-2.722 2.727-2.814 2.338-2.861 1.941-2.861 1.484-2.861 1.055-2.806 .65-2.693 .247-2.581-.105-2.409-.404-2.177-.703-1.945-.943-1.647-1.122-1.285-1.302-.922-1.396-.494-1.403 0Z" transform="matrix(1,0,0,-1,324.3545,312.59175)"/>
<path fill="#0c1f60" d="M0 0C-.427 0-.795-.086-1.105-.258-1.416-.43-1.669-.66-1.863-.948-2.058-1.236-2.201-1.563-2.295-1.93-2.389-2.297-2.436-2.671-2.436-3.052-2.436-3.434-2.389-3.808-2.295-4.175-2.201-4.541-2.058-4.868-1.863-5.156-1.669-5.444-1.416-5.675-1.105-5.847-.795-6.019-.427-6.104 0-6.104 .427-6.104 .795-6.019 1.105-5.847 1.416-5.675 1.668-5.444 1.863-5.156 2.058-4.868 2.201-4.541 2.295-4.175 2.389-3.808 2.436-3.434 2.436-3.052 2.436-2.671 2.389-2.297 2.295-1.93 2.201-1.563 2.058-1.236 1.863-.948 1.668-.66 1.416-.43 1.105-.258 .795-.086 .427 0 0 0M0 1.146C.599 1.146 1.135 1.033 1.61 .809 2.086 .584 2.487 .281 2.816-.101 3.146-.482 3.398-.928 3.574-1.436 3.75-1.945 3.838-2.483 3.838-3.052 3.838-3.628 3.75-4.171 3.574-4.68 3.398-5.188 3.146-5.634 2.816-6.015 2.487-6.396 2.086-6.697 1.61-6.918 1.135-7.139 .599-7.249 0-7.249-.599-7.249-1.136-7.139-1.61-6.918-2.086-6.697-2.487-6.396-2.817-6.015-3.146-5.634-3.398-5.188-3.574-4.68-3.75-4.171-3.838-3.628-3.838-3.052-3.838-2.483-3.75-1.945-3.574-1.436-3.398-.928-3.146-.482-2.817-.101-2.487 .281-2.086 .584-1.61 .809-1.136 1.033-.599 1.146 0 1.146" transform="matrix(1,0,0,-1,337.2187,308.20405)"/>
<path fill="#0c1f60" d="M0 0H2.301C2.749 0 3.09 .107 3.322 .32 3.554 .533 3.67 .854 3.67 1.279 3.67 1.534 3.632 1.741 3.558 1.902 3.482 2.063 3.38 2.188 3.249 2.278 3.118 2.368 2.969 2.428 2.8 2.458 2.632 2.488 2.458 2.503 2.278 2.503H0ZM-1.403 3.647H2.424C3.307 3.647 3.969 3.457 4.41 3.075 4.852 2.693 5.072 2.162 5.072 1.481 5.072 1.101 5.017 .784 4.904 .533 4.792 .282 4.661 .081 4.512-.072 4.361-.226 4.214-.336 4.068-.403 3.922-.471 3.815-.516 3.748-.538V-.561C3.868-.576 3.997-.613 4.136-.673 4.273-.733 4.403-.828 4.522-.959 4.643-1.09 4.741-1.261 4.82-1.47 4.898-1.68 4.937-1.941 4.937-2.255 4.937-2.727 4.974-3.155 5.045-3.54 5.115-3.926 5.226-4.201 5.376-4.365H3.872C3.767-4.193 3.705-4.002 3.687-3.793 3.668-3.584 3.658-3.382 3.658-3.187 3.658-2.82 3.636-2.504 3.591-2.238 3.546-1.973 3.464-1.752 3.345-1.576 3.225-1.4 3.062-1.271 2.856-1.189 2.65-1.107 2.387-1.065 2.064-1.065H0V-4.365H-1.403Z" transform="matrix(1,0,0,-1,346.8398,310.89735)"/>
<path fill="#0c1f60" d="M0 0H6.486V-1.212H3.939V-8.013H2.536V-1.212H0Z" transform="matrix(1,0,0,-1,355.7178,307.24995)"/>
</g>
</g>
</svg>