<?xml version="1.0" encoding="UTF-8"?> <svg xmlns="http://www.w3.org/2000/svg" width="466" height="194" viewBox="0 0 466 194" fill="none"><path d="M64.4217 155.051C77.1599 139.585 92.4339 126.17 108.854 116.148C125.274 106.127 142.835 99.5056 161.886 94.5663C180.936 89.627 230.09 87.4397 250.733 86.346C232.347 86.1499 185.355 84.5569 168.768 83.4811C152.182 82.4053 137.389 80.7826 118.35 80.6221C99.3108 80.4617 76.0256 81.7634 55.1337 87.4219C34.2418 93.0804 15.7372 103.102 0 116.428L64.4217 155.045V155.051Z" fill="#5FAD4E"></path><path fill-rule="evenodd" clip-rule="evenodd" d="M76.465 153.844C89.2092 138.384 104.489 124.969 120.909 114.959C137.329 104.944 154.896 98.3285 173.947 93.3951C192.998 88.4618 230.09 87.4335 250.727 86.3458C232.341 86.1437 197.416 83.3976 180.83 82.3159C164.243 81.2341 149.45 79.6055 130.411 79.4391C111.372 79.2726 88.0868 80.5624 67.1949 86.215C46.303 91.8676 27.7925 101.877 12.0493 115.203L76.4591 153.844H76.465Z" fill="#FFF200"></path><path fill-rule="evenodd" clip-rule="evenodd" d="M91.9588 153.618C104.941 138.354 120.422 125.183 136.997 115.423C153.572 105.663 171.233 99.321 190.361 94.6789C209.489 90.0427 230.078 87.1125 250.733 86.3398C232.353 85.8583 213.985 85.0381 197.416 83.7067C180.847 82.3752 166.084 80.5148 147.051 80.0512C128.018 79.5876 104.715 80.5208 83.7398 85.8524C62.7589 91.184 44.1058 100.908 28.1548 113.984L91.9588 153.618Z" fill="#FCAF17"></path><path fill-rule="evenodd" clip-rule="evenodd" d="M380.924 0.00594395C368.987 19.4125 353.88 36.9051 336.949 50.7482C320.024 64.5914 301.276 74.7969 280.592 83.3322C259.908 91.8675 237.282 99.6777 214.204 104.13C234.936 101.479 255.721 98.2631 274.564 96.8841C293.413 95.5051 310.326 95.0237 331.788 92.236C353.256 89.4484 379.273 84.3486 401.917 74.7137C424.561 65.0788 443.837 50.9087 459.485 33.4399L380.918 0L380.924 0.00594395Z" fill="#8CC63F"></path><path fill-rule="evenodd" clip-rule="evenodd" d="M387.064 11.4893C373.946 30.1112 357.775 46.6291 340.019 59.3964C322.263 72.1637 302.921 81.1745 281.744 88.4021C260.567 95.6358 237.555 101.122 214.252 104.129C235.108 102.774 255.994 101.758 274.891 101.556C293.787 101.354 310.694 101.93 332.293 100.48C353.891 99.0356 380.176 95.5644 403.378 87.362C426.58 79.1595 446.7 66.2139 463.399 49.7555L387.064 11.4893Z" fill="#FFF200"></path><path fill-rule="evenodd" clip-rule="evenodd" d="M391.827 21.921C377.729 39.8118 360.697 55.4381 342.282 67.2306C323.866 79.0232 304.067 86.9879 282.534 93.0684C261 99.1548 237.733 102.382 214.299 104.13C235.197 103.898 256.107 105.021 274.986 105.83C293.864 106.644 310.718 108.124 332.364 107.839C354.01 107.553 380.443 105.503 404.049 98.5545C427.655 91.6062 448.44 79.7602 466 64.2231L391.827 21.915V21.921Z" fill="#FCAF17"></path><path d="M21.6282 71.4922C19.3953 64.0802 17.5781 61.988 13.9437 60.5853C12.1265 59.8839 8.63464 59.7472 7.66071 59.7472C6.95996 59.7472 6.40173 59.6105 6.40173 58.7665C6.40173 58.0651 7.23907 57.7857 8.63464 57.7857C15.8975 57.7857 23.582 58.2077 25.1142 58.2077C26.3732 58.2077 32.5196 57.7857 39.5033 57.7857C41.4571 57.7857 42.0154 58.2077 42.0154 58.7665C42.0154 59.6045 41.3146 59.7472 40.6198 59.7472C39.5033 59.7472 36.8488 59.7472 35.1741 60.5853C34.3368 61.0073 33.3569 62.1247 33.3569 63.9376C33.3569 65.7504 34.6159 70.6481 36.0115 76.8C38.1078 85.7454 52.6335 137.052 54.8664 144.88L84.6187 64.7757C86.715 59.0458 87.2732 58.3444 88.1106 58.3444C89.0904 58.3444 89.9278 60.1633 91.6025 64.9124L119.674 145.017C123.724 131.317 136.575 90.7739 141.463 72.883C142.858 67.7119 143.001 65.7564 143.001 63.9376C143.001 61.4233 141.463 59.7412 135.037 59.7412C134.336 59.7412 133.778 59.3192 133.778 58.7605C133.778 58.0591 134.479 57.7798 136.154 57.7798C143.274 57.7798 149.141 58.2018 150.4 58.2018C151.38 58.2018 157.384 57.7798 161.713 57.7798C162.972 57.7798 163.667 58.0591 163.667 58.6179C163.667 59.3192 163.245 59.7353 162.408 59.7353C161.85 59.7353 159.195 59.878 157.657 60.4367C153.465 61.9761 151.232 67.8486 148.577 75.5339C142.431 93.2881 128.327 137.742 122.875 153.404C119.241 163.746 118.546 165.428 117.008 165.428C115.612 165.428 114.775 163.609 112.815 158.159L85.3016 80.0096C80.1351 93.8468 61.001 145.017 55.971 158.016C53.7381 163.889 52.7582 165.428 51.3627 165.428C49.9671 165.428 49.2664 163.889 46.4752 154.385L21.6104 71.4862L21.6282 71.4922Z" fill="#E5E5E5"></path><path d="M141.629 133.778C141.629 124.172 148.619 110.597 164.968 110.597C178.294 110.597 188.247 119.013 188.247 132.832C188.247 146.652 178.888 157.083 164.611 157.083C148.381 157.083 141.629 144.453 141.629 133.783V133.778ZM182.564 134.485C182.564 120.255 173.917 112.606 164.558 112.606C154.664 112.606 147.259 119.126 147.259 132.113C147.259 145.927 155.555 154.825 166.215 154.825C171.548 154.825 182.564 151.74 182.564 134.485Z" fill="#E5E5E5"></path><path d="M201.698 128.618C201.698 119.37 201.698 117.711 201.579 115.809C201.46 113.795 200.985 112.844 199.031 112.427C198.556 112.309 197.553 112.249 197.018 112.249C196.781 112.249 196.543 112.13 196.543 111.892C196.543 111.536 196.84 111.417 197.493 111.417C200.16 111.417 203.889 111.595 204.186 111.595C204.839 111.595 209.341 111.417 211.176 111.417C214.911 111.417 218.878 111.774 222.02 114.026C223.498 115.096 226.105 117.997 226.105 122.092C226.105 126.479 224.27 130.865 218.937 135.787C223.795 142.01 227.822 147.288 231.26 150.967C234.461 154.349 243.992 161.987 245.471 162.225C246.593 162.403 247.425 162.403 247.781 162.403C248.078 162.403 248.316 162.581 248.316 162.76C248.316 163.116 247.959 163.235 246.896 163.235H242.692C239.372 163.235 238.594 162.938 237.05 162.106C234.502 160.745 224.745 150.848 221.372 146.402C218.884 143.139 216.099 139.169 214.917 137.629C214.679 137.391 214.501 137.273 214.145 137.273L206.858 137.154C206.561 137.154 206.443 137.332 206.443 137.629V139.05C206.443 144.744 206.443 149.428 206.74 151.918C206.918 153.636 207.274 154.944 209.05 155.181C209.881 155.3 211.182 155.419 211.716 155.419C212.072 155.419 212.191 155.597 212.191 155.776C212.191 156.073 211.894 156.251 211.241 156.251C207.981 156.251 204.251 156.073 203.954 156.073C203.895 156.073 200.166 156.251 198.384 156.251C197.731 156.251 197.434 156.132 197.434 155.776C197.434 155.597 197.553 155.419 197.909 155.419C198.443 155.419 199.15 155.3 199.685 155.181C200.866 154.944 201.163 153.642 201.401 151.918C201.698 149.428 201.698 144.744 201.698 139.05V128.612V128.618ZM206.437 133.778C206.437 134.075 206.556 134.313 206.852 134.491C207.743 135.026 210.463 135.442 213.07 135.442C214.489 135.442 216.152 135.264 217.512 134.313C219.585 132.892 221.129 129.688 221.129 125.183C221.129 117.771 217.221 113.325 210.879 113.325C209.103 113.325 207.5 113.503 206.912 113.682C206.615 113.8 206.437 114.038 206.437 114.395V133.784V133.778Z" fill="#E5E5E5"></path><path d="M251.101 132.41C252.936 130.633 260.994 122.151 264.605 118.418C268.156 114.745 268.394 114.151 268.394 113.437C268.394 112.962 268.097 112.486 267.622 112.314C267.206 112.136 267.087 112.017 267.087 111.779C267.087 111.541 267.444 111.423 267.978 111.423C269.694 111.423 269.516 111.601 271.529 111.601C273.364 111.601 276.862 111.423 277.807 111.423C278.638 111.423 278.816 111.601 278.816 111.839C278.816 112.076 278.697 112.195 278.163 112.255C277.04 112.374 275.972 112.611 275.14 112.968C273.661 113.562 272.533 114.27 268.976 117.711C263.762 122.751 257.01 129.45 255.472 131.168C259.201 135.257 269.985 146.229 272.771 148.839C277.628 153.404 286.685 161.701 289.529 162.23C290.064 162.349 290.652 162.409 291.246 162.409C291.721 162.409 292.077 162.527 292.077 162.825C292.077 163.122 291.839 163.241 291.186 163.241H286.803C281.649 163.241 280.984 162.587 278.199 160.394C274.641 157.606 256.297 139.174 251.083 132.945V139.049C251.083 144.744 251.083 149.427 251.38 151.918C251.558 153.635 251.914 154.943 253.69 155.181C254.521 155.3 255.703 155.419 256.059 155.419C256.594 155.419 256.772 155.656 256.772 155.835C256.772 156.132 256.535 156.251 255.881 156.251C252.621 156.251 248.892 156.072 248.595 156.072C248.298 156.072 244.806 156.251 243.024 156.251C242.371 156.251 242.074 156.191 242.074 155.835C242.074 155.656 242.193 155.419 242.727 155.419C243.084 155.419 243.737 155.359 244.265 155.24C245.447 155.003 245.804 153.641 246.041 151.918C246.338 149.427 246.338 144.744 246.338 139.049V128.612C246.338 119.363 246.338 117.705 246.219 115.803C246.101 113.788 245.507 112.778 244.206 112.481C243.553 112.302 242.49 112.243 242.074 112.243C241.599 112.243 241.421 112.124 241.421 111.886C241.421 111.53 241.718 111.411 242.371 111.411C244.325 111.411 248.298 111.589 248.595 111.589C248.892 111.589 252.621 111.411 254.403 111.411C255.056 111.411 255.353 111.53 255.353 111.827C255.353 112.064 255.234 112.183 254.7 112.243C254.046 112.302 253.987 112.302 253.399 112.362C251.802 112.54 251.326 113.723 251.208 115.803C251.089 117.699 251.089 119.363 251.089 128.612V132.404L251.101 132.41Z" fill="#E5E5E5"></path><path d="M292.154 128.618C292.154 119.37 292.154 117.711 292.035 115.809C291.917 113.794 291.442 112.843 289.488 112.427C289.072 112.308 288.306 112.308 287.772 112.249C287.356 112.19 287 112.13 287 111.892C287 111.536 287.296 111.417 287.95 111.417C289.31 111.417 290.913 111.417 294.642 111.595C295.058 111.595 306.846 111.595 308.206 111.536C309.507 111.476 310.576 111.357 310.932 111.179C311.288 111.001 311.407 110.941 311.585 110.941C311.763 110.941 311.823 111.179 311.823 111.476C311.823 111.892 311.466 112.6 311.348 114.264C311.288 115.156 311.229 116.279 311.11 117.824C311.051 118.419 310.873 118.835 310.635 118.835C310.279 118.835 310.16 118.538 310.16 118.062C310.16 117.289 310.041 116.582 309.863 116.107C309.447 114.745 308.206 114.151 305.599 113.913C304.59 113.794 298.134 113.735 297.481 113.735C297.244 113.735 297.125 113.913 297.125 114.329V130.693C297.125 131.109 297.184 131.287 297.481 131.287C298.253 131.287 305.54 131.287 306.9 131.168C308.497 131.049 309.269 130.871 309.863 130.158C310.16 129.801 310.338 129.563 310.576 129.563C310.754 129.563 310.873 129.682 310.873 130.039C310.873 130.395 310.576 131.4 310.397 133.361C310.219 135.198 310.219 136.565 310.16 137.391C310.101 137.986 309.982 138.283 309.744 138.283C309.388 138.283 309.329 137.807 309.329 137.332C309.329 136.797 309.269 136.203 309.091 135.674C308.853 134.782 308.141 133.956 306.009 133.718C304.411 133.54 298.544 133.421 297.54 133.421C297.244 133.421 297.125 133.599 297.125 133.837V139.056C297.125 141.071 297.065 147.948 297.125 149.196C297.244 151.627 297.6 152.928 299.079 153.523C300.088 153.939 301.686 154.058 303.996 154.058C305.771 154.058 307.725 153.998 309.329 153.523C311.223 152.928 311.876 151.686 312.351 149.136C312.47 148.483 312.589 148.245 312.886 148.245C313.242 148.245 313.242 148.72 313.242 149.136C313.242 149.612 312.767 153.642 312.47 154.89C312.054 156.429 311.579 156.429 309.269 156.429C304.886 156.429 302.933 156.311 300.623 156.251C298.253 156.192 295.527 156.073 293.217 156.073C291.798 156.073 290.373 156.311 288.835 156.251C288.181 156.251 287.884 156.132 287.884 155.776C287.884 155.597 288.181 155.478 288.538 155.419C289.131 155.36 289.488 155.359 289.898 155.241C291.139 154.943 291.911 154.111 292.029 149.665C292.089 147.353 292.148 144.328 292.148 139.05V128.612L292.154 128.618Z" fill="#E5E5E5"></path><path d="M326.99 128.618C326.99 119.37 326.99 117.711 326.871 115.809C326.752 113.795 326.277 112.844 324.323 112.427C323.848 112.309 322.845 112.249 322.31 112.249C322.073 112.249 321.835 112.13 321.835 111.892C321.835 111.536 322.132 111.417 322.785 111.417C325.452 111.417 329.181 111.595 329.478 111.595C330.131 111.595 334.633 111.417 336.468 111.417C340.203 111.417 344.17 111.774 347.312 114.026C348.79 115.096 351.397 117.997 351.397 122.092C351.397 126.479 349.562 130.865 344.229 135.787C349.087 142.01 353.114 147.288 356.552 150.967C359.753 154.349 369.284 161.987 370.763 162.225C371.885 162.403 372.717 162.403 373.073 162.403C373.37 162.403 373.608 162.581 373.608 162.76C373.608 163.116 373.251 163.235 372.188 163.235H367.984C364.664 163.235 363.886 162.938 362.342 162.106C359.794 160.745 350.037 150.848 346.664 146.402C344.176 143.139 341.391 139.169 340.209 137.629C339.971 137.391 339.793 137.273 339.437 137.273L332.15 137.154C331.853 137.154 331.735 137.332 331.735 137.629V139.05C331.735 144.744 331.735 149.428 332.032 151.918C332.21 153.636 332.566 154.944 334.342 155.181C335.173 155.3 336.474 155.419 337.008 155.419C337.364 155.419 337.483 155.597 337.483 155.776C337.483 156.073 337.186 156.251 336.533 156.251C333.273 156.251 329.543 156.073 329.246 156.073C329.187 156.073 325.458 156.251 323.676 156.251C323.023 156.251 322.726 156.132 322.726 155.776C322.726 155.597 322.845 155.419 323.201 155.419C323.735 155.419 324.442 155.3 324.977 155.181C326.158 154.944 326.455 153.642 326.693 151.918C326.99 149.428 326.99 144.744 326.99 139.05V128.612V128.618ZM331.729 133.778C331.729 134.075 331.848 134.313 332.144 134.491C333.035 135.026 335.755 135.442 338.362 135.442C339.781 135.442 341.444 135.264 342.804 134.313C344.877 132.892 346.421 129.688 346.421 125.183C346.421 117.771 342.513 113.325 336.171 113.325C334.395 113.325 332.792 113.503 332.204 113.682C331.907 113.8 331.729 114.038 331.729 114.395V133.784V133.778Z" fill="#E5E5E5"></path><path d="M369.166 155.478C368.334 155.062 368.275 154.825 368.275 153.226C368.275 150.26 368.512 147.888 368.572 146.943C368.631 146.289 368.75 145.992 369.047 145.992C369.403 145.992 369.462 146.17 369.462 146.646C369.462 147.181 369.462 148.007 369.641 148.839C370.531 153.226 374.439 154.89 378.406 154.89C384.095 154.89 386.874 150.801 386.874 147.003C386.874 142.913 385.158 140.542 380.063 136.328L377.396 134.134C371.119 128.975 369.694 125.302 369.694 121.266C369.694 114.924 374.433 110.591 381.957 110.591C384.267 110.591 385.984 110.829 387.468 111.185C388.591 111.423 389.066 111.482 389.541 111.482C390.016 111.482 390.135 111.601 390.135 111.898C390.135 112.196 389.897 114.151 389.897 118.181C389.897 119.132 389.778 119.542 389.481 119.542C389.125 119.542 389.066 119.245 389.006 118.77C388.947 118.056 388.591 116.457 388.234 115.804C387.878 115.15 386.281 112.659 380.829 112.659C376.743 112.659 373.542 115.209 373.542 119.536C373.542 122.918 375.08 125.052 380.77 129.498L382.426 130.8C389.416 136.316 391.073 139.989 391.073 144.732C391.073 147.163 390.123 151.668 386.037 154.575C383.489 156.352 380.289 157.065 377.094 157.065C374.308 157.065 371.583 156.649 369.154 155.467L369.166 155.478Z" fill="#E5E5E5"></path><path d="M115.482 178.386C118.415 178.386 120.333 179.788 121.551 181.524L119.383 182.743C118.593 181.613 117.174 180.734 115.482 180.734C112.5 180.734 110.291 183.016 110.291 186.178C110.291 189.34 112.5 191.646 115.482 191.646C117.014 191.646 118.368 190.921 119.045 190.291V187.943H114.555V185.619H121.687V191.266C120.197 192.912 118.1 194 115.482 194C111.129 194 107.583 190.903 107.583 186.184C107.583 181.465 111.129 178.392 115.482 178.392V178.386Z" fill="#E5E5E5"></path><path d="M133.535 188.074H130.916V193.697H128.273V178.635H134.883C137.864 178.635 139.8 180.579 139.8 183.355C139.8 186.13 138.042 187.486 136.237 187.783L139.913 193.697H136.866L133.529 188.074H133.535ZM134.527 180.959H130.916V185.744H134.527C136.017 185.744 137.098 184.793 137.098 183.349C137.098 181.904 136.017 180.953 134.527 180.953V180.959Z" fill="#E5E5E5"></path><path d="M153.298 178.386C157.812 178.386 160.995 181.685 160.995 186.178C160.995 190.672 157.812 193.97 153.298 193.97C148.785 193.97 145.602 190.672 145.602 186.178C145.602 181.685 148.785 178.386 153.298 178.386ZM153.298 180.734C150.252 180.734 148.31 183.058 148.31 186.178C148.31 189.299 150.252 191.623 153.298 191.623C156.345 191.623 158.287 189.275 158.287 186.178C158.287 183.081 156.321 180.734 153.298 180.734Z" fill="#E5E5E5"></path><path d="M167.385 178.635H170.045V187.67C170.045 190.065 171.375 191.622 173.905 191.622C176.435 191.622 177.742 190.065 177.742 187.67V178.635H180.402V187.735C180.402 191.486 178.258 193.97 173.905 193.97C169.552 193.97 167.385 191.462 167.385 187.759V178.635Z" fill="#E5E5E5"></path><path d="M187.445 178.635H194.055C197.214 178.635 198.972 180.805 198.972 183.355C198.972 185.905 197.19 188.074 194.055 188.074H190.082V193.697H187.439V178.635H187.445ZM193.693 180.959H190.082V185.744H193.693C195.183 185.744 196.264 184.793 196.264 183.349C196.264 181.904 195.183 180.953 193.693 180.953V180.959Z" fill="#E5E5E5"></path><path d="M221.651 178.386C226.165 178.386 229.348 181.685 229.348 186.178C229.348 190.672 226.165 193.97 221.651 193.97C217.138 193.97 213.955 190.672 213.955 186.178C213.955 181.685 217.138 178.386 221.651 178.386ZM221.651 180.734C218.605 180.734 216.663 183.058 216.663 186.178C216.663 189.299 218.605 191.623 221.651 191.623C224.698 191.623 226.64 189.275 226.64 186.178C226.64 183.081 224.674 180.734 221.651 180.734Z" fill="#E5E5E5"></path><path d="M235.738 178.635H246.047V180.959H238.374V184.864H245.887V187.188H238.374V193.691H235.732V178.629L235.738 178.635Z" fill="#E5E5E5"></path><path d="M261.214 186.178C261.214 181.548 264.664 178.386 269 178.386C272.159 178.386 274.03 179.967 275.158 181.774L272.901 182.927C272.177 181.685 270.734 180.734 269 180.734C266.131 180.734 263.922 183.016 263.922 186.178C263.922 189.34 266.131 191.623 269 191.623C270.74 191.623 272.183 190.695 272.901 189.429L275.158 190.582C274.006 192.389 272.159 193.97 269 193.97C264.67 193.97 261.214 190.808 261.214 186.178Z" fill="#E5E5E5"></path><path d="M281.114 178.635H283.757V191.373H290.39V193.697H281.114V178.635Z" fill="#E5E5E5"></path><path d="M296.056 178.635H298.716V187.67C298.716 190.065 300.046 191.622 302.576 191.622C305.106 191.622 306.413 190.065 306.413 187.67V178.635H309.073V187.735C309.073 191.486 306.929 193.97 302.576 193.97C298.223 193.97 296.056 191.462 296.056 187.759V178.635Z" fill="#E5E5E5"></path><path d="M316.116 178.635H323.516C326.265 178.635 327.803 180.353 327.803 182.475C327.803 184.371 326.586 185.637 325.184 185.928C326.788 186.178 328.094 187.783 328.094 189.631C328.094 191.955 326.538 193.697 323.718 193.697H316.116V178.635ZM322.975 184.87C324.329 184.87 325.095 184.056 325.095 182.927C325.095 181.797 324.329 180.959 322.975 180.959H318.753V184.864H322.975V184.87ZM323.088 191.373C324.531 191.373 325.392 190.582 325.392 189.275C325.392 188.145 324.602 187.194 323.088 187.194H318.759V191.373H323.088Z" fill="#E5E5E5"></path><path d="M335.072 189.542C336.111 190.647 337.733 191.622 339.835 191.622C341.937 191.622 342.858 190.558 342.858 189.566C342.858 188.211 341.254 187.806 339.425 187.331C336.967 186.719 334.08 185.999 334.08 182.814C334.08 180.329 336.272 178.409 339.562 178.409C341.907 178.409 343.802 179.152 345.203 180.507L343.689 182.475C342.513 181.298 340.916 180.757 339.336 180.757C337.756 180.757 336.788 181.5 336.788 182.629C336.788 183.759 338.321 184.187 340.102 184.638C342.584 185.268 345.542 186.041 345.542 189.31C345.542 191.818 343.784 193.964 339.722 193.964C336.949 193.964 334.942 192.995 333.605 191.569L335.072 189.536V189.542Z" fill="#E5E5E5"></path><path d="M169.505 59.3848H172.147V72.1223H178.781V74.4464H169.505V59.3848Z" fill="#E5E5E5"></path><path d="M185.004 59.3848H187.647V74.4464H185.004V59.3848Z" fill="#E5E5E5"></path><path d="M195.183 70.2914C196.222 71.397 197.844 72.3718 199.946 72.3718C202.048 72.3718 202.969 71.3078 202.969 70.3152C202.969 68.96 201.365 68.5559 199.536 68.0803C197.078 67.4681 194.191 66.7489 194.191 63.5631C194.191 61.0785 196.383 59.1587 199.673 59.1587C202.018 59.1587 203.913 59.9017 205.314 61.2569L203.8 63.2243C202.624 62.0474 201.027 61.5065 199.447 61.5065C197.867 61.5065 196.899 62.2495 196.899 63.3788C196.899 64.5081 198.432 64.9361 200.219 65.3878C202.701 66.0178 205.659 66.7905 205.659 70.0596C205.659 72.5679 203.901 74.7136 199.839 74.7136C197.066 74.7136 195.058 73.7448 193.722 72.3183L195.189 70.2855L195.183 70.2914Z" fill="#E5E5E5"></path><path d="M224.924 63.0461L220.297 74.4522H219.169L214.567 63.0461V74.4522H211.924V59.3906H215.648L219.733 69.5308L223.843 59.3906H227.566V74.4522H224.924V63.0461Z" fill="#E5E5E5"></path><path d="M241.623 59.1348C246.136 59.1348 249.319 62.4336 249.319 66.9271C249.319 71.4206 246.136 74.7194 241.623 74.7194C237.109 74.7194 233.926 71.4206 233.926 66.9271C233.926 62.4336 237.109 59.1348 241.623 59.1348ZM241.623 61.4826C238.576 61.4826 236.634 63.8066 236.634 66.9271C236.634 70.0476 238.576 72.3716 241.623 72.3716C244.669 72.3716 246.611 70.0238 246.611 66.9271C246.611 63.8304 244.646 61.4826 241.623 61.4826Z" fill="#E5E5E5"></path><path d="M260.965 68.8235H258.346V74.4464H255.703V59.3848H262.313C265.288 59.3848 267.23 61.3284 267.23 64.1041C267.23 66.8799 265.472 68.2351 263.667 68.5323L267.343 74.4464H264.296L260.959 68.8235H260.965ZM261.956 61.7088H258.346V66.4936H261.956C263.447 66.4936 264.528 65.5425 264.528 64.0982C264.528 62.6539 263.447 61.7028 261.956 61.7028V61.7088Z" fill="#E5E5E5"></path><path d="M273.715 59.3849H284.024V61.7089H276.352V65.614H283.864V67.938H276.352V72.1165H284.024V74.4405H273.715V59.3789V59.3849Z" fill="#E5E5E5"></path></svg> 