<?xml version="1.0" encoding="UTF-8"?>
<svg xmlns="http://www.w3.org/2000/svg" xmlns:xlink="http://www.w3.org/1999/xlink" viewBox="0 0 311 108">
  <defs>
    <style>.cls-1{fill:none;}.cls-2{isolation:isolate;}.cls-3{clip-path:url(#clippath-1);}.cls-4{fill:#fff;}.cls-5{clip-path:url(#clippath);}.cls-6{mix-blend-mode:screen;opacity:.85;}</style>
    <clipPath id="clippath">
      <rect class="cls-1" x="160.44" y="25.18" width="10.98" height="15.68"></rect>
    </clipPath>
    <clipPath id="clippath-1">
      <rect class="cls-1" x="160.44" y="25.18" width="10.98" height="15.68"></rect>
    </clipPath>
  </defs>
  <g class="cls-2">
    <g id="Layer_1">
      <path class="cls-4" d="M16.48,59.53c.09.05.19.16.29.33.11.17.22.28.32.35s.24.1.44.09h.58s-.02-1.07-.02-1.07l-.02-.89-.02-1.08h-.59c-.19.02-.34.05-.43.12-.1.07-.2.2-.3.38-.09.15-.19.26-.28.33-.09.07-.24.1-.46.11l-10.27.23,11.08-5.12c.31-.15.55-.3.71-.45.16-.15.27-.32.34-.5.06-.18.09-.4.08-.64l-.02-1.11-12.52.28c-.22,0-.37-.02-.47-.06-.09-.05-.19-.15-.29-.3-.11-.18-.22-.3-.32-.36-.1-.06-.24-.09-.44-.08h-.58s.02,1.03.02,1.03l.02.91.02,1.06h.58c.2-.02.34-.05.44-.12.1-.07.2-.2.3-.38.1-.15.19-.25.28-.32.09-.06.24-.1.46-.1l9.02-.2-11,5.06.06,2.54.02,1.06h.58c.2-.02.34-.05.44-.12.1-.07.2-.19.3-.36.09-.17.18-.29.27-.34.09-.06.24-.09.46-.09l10.44-.23c.22,0,.38.02.47.07"></path>
      <path class="cls-4" d="M7.01,46.78c.99.72,2.23,1.27,3.73,1.65,1.48.37,2.82.48,4.03.32,1.22-.16,2.22-.57,3.01-1.22.79-.65,1.32-1.48,1.58-2.51.27-1.05.2-2.04-.19-2.98-.39-.94-1.08-1.77-2.07-2.5-.99-.73-2.22-1.28-3.7-1.65-1.5-.38-2.86-.48-4.07-.32-1.22.17-2.22.57-3.01,1.22-.79.64-1.32,1.49-1.58,2.54-.26,1.03-.19,2.01.19,2.96.39.95,1.08,1.78,2.07,2.5M5.96,41.63c.16-.62.53-1.1,1.12-1.41.59-.32,1.37-.47,2.35-.48.98,0,2.11.16,3.4.48,1.26.32,2.32.71,3.18,1.18.86.47,1.47.98,1.83,1.54.36.56.46,1.15.3,1.77-.15.6-.52,1.06-1.11,1.38-.59.32-1.37.49-2.35.5-.97.01-2.09-.14-3.36-.46-1.29-.33-2.36-.73-3.22-1.2-.86-.47-1.47-.99-1.84-1.56-.37-.56-.47-1.15-.32-1.75"></path>
      <path class="cls-4" d="M8.61,33.28c.12,0,.27-.06.45-.16.17-.1.31-.15.41-.15.11,0,.25.05.44.16l9.08,5.16c.19.11.31.21.36.3.05.09.08.24.08.43.01.2.04.36.09.46.05.11.16.21.33.3l.51.29.52-.92.89-1.57.63-1.11-.51-.29c-.17-.1-.31-.14-.43-.12-.12.02-.29.1-.49.24-.17.11-.32.17-.44.19-.12.02-.27-.03-.45-.13l-3.67-2.08c-.24-.14-.39-.3-.45-.49-.05-.18-.02-.4.12-.63l.25-.44,5.71.33c.05,0,.1,0,.12,0,.16,0,.27.04.32.11.05.06.07.18.08.35,0,.21.04.37.09.47.06.1.17.2.34.3l.51.29.52-.92,1.04-1.83.53-.94-.51-.29c-.17-.1-.31-.14-.43-.13-.12.01-.27.07-.45.17-.19.11-.34.18-.46.21-.12.04-.27.06-.46.07l-4.06-.21c-.48-.01-.91,0-1.27.05-.23.03-.49.08-.75.14.12-.36.21-.72.26-1.06.1-.77,0-1.45-.31-2.04s-.82-1.1-1.55-1.51c-.68-.38-1.34-.56-1.98-.52-.64.04-1.26.28-1.84.72-.58.44-1.11,1.08-1.58,1.92l-2.01,3.54-.52.92.51.29c.17.1.31.14.43.13M12.57,28.06c.58-.18,1.22-.07,1.92.32.69.39,1.11.89,1.27,1.49.15.6.02,1.27-.4,2.01l-.78,1.36-4.29-2.44.77-1.35c.43-.75.93-1.22,1.51-1.4"></path>
      <path class="cls-4" d="M16.98,23.96c.1-.11.15-.23.16-.37,0-.14-.03-.28-.11-.42-.08-.14-.18-.29-.3-.46-.14-.19-.24-.36-.31-.5-.07-.14-.1-.28-.1-.42s.05-.27.15-.37l1.34-1.42,8.19,7.76c.16.15.26.27.29.37.03.1.02.25-.03.45-.05.21-.06.37-.03.48.03.11.11.23.26.37l.42.4.73-.77,1.27-1.34.73-.77-.43-.4c-.14-.13-.27-.21-.39-.23-.12-.02-.27,0-.47.05-.18.05-.32.06-.43.04-.11-.02-.24-.1-.4-.25l-8.19-7.76,1.36-1.43c.1-.11.22-.16.36-.16.14,0,.28.02.42.08.14.06.31.15.52.28.19.12.36.21.5.27.14.07.27.09.41.09.13,0,.25-.07.35-.17l.39-.41-2.46-2.33c-.23.28-.49.57-.76.86l-5.46,5.77c-.28.29-.55.56-.82.81l2.47,2.33.39-.41Z"></path>
      <path class="cls-4" d="M24.23,13.41c.11.05.26.07.47.08.2,0,.34.01.44.06.09.05.2.17.31.35l5.48,8.89c.11.19.17.33.17.44,0,.11-.05.25-.14.42-.09.18-.14.33-.14.45,0,.12.04.26.14.43l.3.5.9-.55,1.57-.97.92-.57-.31-.5c-.1-.17-.21-.27-.32-.32-.11-.05-.27-.07-.48-.07-.2,0-.34-.02-.43-.06-.1-.05-.2-.17-.31-.35l-2.66-4.32,4.06-2.5,2.66,4.32c.12.19.17.33.17.44,0,.1-.04.24-.12.41-.1.19-.15.34-.15.46,0,.12.05.26.15.42l.31.5.89-.55,1.57-.97.92-.56-.31-.5c-.1-.17-.21-.27-.32-.32-.11-.05-.27-.07-.48-.07-.2,0-.34-.02-.44-.06-.09-.05-.2-.17-.31-.35l-5.48-8.89c-.11-.19-.17-.33-.17-.44,0-.11.05-.25.14-.42.1-.19.15-.34.16-.46,0-.12-.04-.26-.14-.43l-.31-.5-.92.56-1.57.97-.88.55.31.5c.1.17.2.27.31.33.1.05.26.07.47.07.18,0,.32.03.42.07.09.05.2.17.31.35l2.15,3.5-4.06,2.5-2.15-3.5c-.11-.19-.17-.33-.17-.44,0-.11.04-.24.14-.42.1-.19.15-.34.16-.46,0-.12-.04-.26-.14-.43l-.31-.5-.92.57-1.57.97-.9.55.31.5c.1.17.21.27.32.32"></path>
      <path class="cls-4" d="M43.81,18.03l1.05-.17,1.08-.18,1.05-.17-.1-.58c-.03-.19-.09-.33-.17-.42-.08-.08-.22-.17-.4-.25-.12-.04-.21-.09-.26-.14-.06-.05-.09-.12-.11-.2-.01-.08-.01-.19,0-.34l.39-3.38,3.63-.59,1.45,3.07c.07.14.11.24.12.32,0,.08,0,.15-.03.22-.03.07-.1.14-.21.22-.16.14-.27.26-.31.36-.04.11-.05.26-.02.45l.09.58,1.06-.17,1.96-.32,1.03-.17-.1-.58c-.03-.19-.08-.33-.16-.42-.08-.09-.21-.17-.41-.25-.18-.07-.32-.14-.42-.22-.09-.08-.19-.21-.29-.39l-5.87-11.77-2.1.42c.06.28.13.54.21.78.02.06.05.12.08.18l-1.55,11.9c-.04.2-.09.36-.15.46-.06.1-.17.21-.33.34-.16.14-.27.26-.31.37-.05.11-.05.26-.02.45l.1.58ZM49.42,10.47l-2.94.48.62-5.37,2.31,4.89Z"></path>
      <path class="cls-4" d="M60.49,16.67c1.37.12,2.55-.08,3.54-.6.99-.52,1.78-1.31,2.36-2.37s.93-2.34,1.07-3.83c.14-1.54,0-2.87-.39-3.99-.4-1.12-1.04-2-1.93-2.63-.89-.63-1.98-1-3.29-1.12l-3.35-.3-1.06-.09-.05.58c-.02.19,0,.34.06.45.06.1.17.22.33.34.16.11.26.22.31.31.05.1.06.25.04.47l-.93,10.4c-.02.22-.06.37-.12.46-.06.08-.18.17-.36.25-.18.09-.31.19-.38.28-.07.09-.12.23-.14.43l-.05.58,1.05.09,3.29.3ZM60.4,3.28c.46.02.89.04,1.28.06.87.08,1.58.39,2.12.95.54.55.91,1.3,1.13,2.24.21.94.27,2.02.16,3.23-.11,1.27-.37,2.34-.76,3.2-.39.86-.9,1.5-1.55,1.91-.64.41-1.42.58-2.33.5-.34-.03-.71-.08-1.12-.14l1.07-11.97Z"></path>
      <path class="cls-4" d="M67.51,16.17c-.08.2-.17.34-.25.4-.09.06-.23.11-.42.13-.2.04-.35.09-.45.15-.1.07-.19.19-.26.37l-.22.54.98.41,7.47,3.1,1.23-2.97-.56-.23c-.14-.06-.26-.06-.38-.02-.12.04-.23.12-.33.22-.1.1-.22.24-.36.41-.12.17-.24.31-.34.41-.1.1-.21.18-.33.22-.12.04-.25.03-.41-.03l-3.64-1.51,2.24-5.4,2.02.84c.14.06.23.12.29.2.06.08.1.16.12.25.02.09.04.19.04.29,0,.12,0,.22.01.3.02.09.06.17.12.25.06.08.15.14.28.19l.51.21,1.27-3.05-.51-.21c-.12-.05-.23-.07-.33-.06-.1.01-.18.04-.26.09-.07.05-.15.11-.22.19-.08.07-.16.13-.24.19-.08.05-.17.08-.27.1-.1.01-.21-.01-.35-.07l-2.02-.84,1.92-4.64,3.19,1.32c.15.06.25.15.31.27.06.12.09.24.09.38,0,.13-.02.29-.04.48-.02.19-.04.35-.04.48,0,.13.02.25.07.37.05.11.15.2.3.26l.52.22,1.17-2.83c-.35-.12-.71-.25-1.08-.41l-5.9-2.45-.98-.4-.22.54c-.08.18-.1.33-.08.44.02.11.1.26.21.42.12.16.19.29.2.39.02.11-.02.26-.1.46l-4,9.65Z"></path>
      <path class="cls-4" d="M76.95,20.57c-.13.17-.25.28-.35.32-.1.04-.24.05-.44.02-.2-.02-.36,0-.47.03-.11.04-.23.13-.35.29l-.35.46.84.64,6.26,4.76,2.08-2.73-.47-.35c-.13-.1-.26-.13-.39-.11-.13.02-.26.07-.4.15s-.29.19-.47.34c-.2.14-.36.26-.49.35-.13.09-.26.15-.39.17-.13.02-.27-.02-.4-.12l-2.95-2.24,6.8-8.95c.12-.17.25-.26.36-.3.12-.03.28-.03.48,0,.25.05.43.06.55.03.12-.03.24-.13.35-.28l.35-.47-1.02-.77-1.44-1.09-.84-.64-.35.47c-.12.15-.18.29-.19.41,0,.12.03.27.09.46.08.18.11.32.1.43-.01.11-.08.24-.22.42l-6.32,8.31Z"></path>
      <path class="cls-4" d="M84.81,26.97c-.2.06-.36.08-.47.08-.12,0-.27-.05-.46-.14-.2-.08-.35-.12-.47-.11-.11,0-.25.07-.41.18l-.47.35.63.85.65.88.63.85.47-.35c.16-.12.25-.23.29-.34.04-.11.05-.27.04-.47-.02-.12-.01-.23,0-.3.02-.08.06-.14.13-.18.07-.05.16-.1.3-.16l3.19-1.18,2.18,2.96-2.08,2.69c-.09.12-.17.21-.23.25-.07.04-.14.07-.21.07-.07,0-.17-.02-.29-.08-.2-.08-.35-.12-.47-.11-.11,0-.25.07-.41.19l-.47.35.64.87,1.18,1.6.62.84.47-.35c.16-.11.26-.23.3-.33.04-.11.05-.27.03-.48-.02-.2-.02-.35,0-.47.03-.12.1-.26.21-.44l7.81-10.57-1.32-1.68c-.22.18-.42.36-.6.54-.04.04-.08.1-.12.15l-11.31,4.04ZM90.06,26.49l5.07-1.89-3.3,4.28-1.77-2.4Z"></path>
      <path class="cls-4" d="M91.12,37.46c-.11-.01-.24-.08-.39-.2-.17-.12-.32-.2-.43-.22-.12-.02-.26,0-.44.08l-.53.23.43.99.74,1.69.42.97.54-.23c.18-.08.3-.16.36-.26.07-.1.11-.25.14-.46.02-.2.06-.34.12-.42.06-.09.19-.17.39-.26l9.57-4.18c.2-.09.35-.12.46-.11.11.01.24.08.4.2.17.12.32.19.43.21.11.02.26-.01.44-.09l.54-.23-.42-.97-.74-1.69-.43-.99-.54.23c-.18.08-.3.17-.36.27-.06.1-.11.26-.14.47-.02.2-.06.34-.12.42-.06.09-.19.17-.39.26l-9.57,4.18c-.2.09-.35.12-.46.11"></path>
      <path class="cls-4" d="M93.65,41.95c-.21.04-.37.05-.47.01-.1-.04-.22-.13-.34-.28-.14-.15-.27-.24-.38-.29-.11-.05-.26-.05-.45-.01l-.57.12.21,1.04.66,3.24c.27,1.35.8,2.42,1.58,3.23.78.8,1.77,1.33,2.95,1.58,1.18.25,2.5.23,3.97-.07,1.51-.31,2.75-.81,3.72-1.52.96-.7,1.62-1.57,1.97-2.6.35-1.03.4-2.18.14-3.47l-.67-3.29-.21-1.04-.57.12c-.19.04-.33.1-.41.18-.08.08-.16.22-.23.41-.06.19-.13.32-.21.39-.08.07-.23.13-.44.17l-10.23,2.07ZM105.11,41.89c.11.45.22.86.31,1.24.17.86.07,1.62-.31,2.3-.38.67-.99,1.25-1.83,1.72-.84.47-1.86.83-3.05,1.07-1.25.25-2.35.32-3.29.19-.94-.13-1.7-.44-2.28-.94-.58-.5-.96-1.19-1.14-2.09-.07-.33-.13-.71-.19-1.12l11.77-2.38Z"></path>
      <path class="cls-4" d="M107.42,52.44c-.2-.01-.34.02-.44.08-.1.06-.21.17-.33.34-.11.16-.21.27-.3.32-.09.05-.25.07-.47.06l-10.43-.53c-.22-.01-.37-.05-.46-.11-.09-.06-.18-.18-.27-.35-.1-.18-.2-.3-.29-.37-.09-.07-.24-.11-.43-.12l-.58-.03-.05,1.06-.41,8.08,3.21.16.03-.6c0-.15-.03-.27-.11-.36-.08-.1-.19-.18-.32-.24-.13-.06-.3-.13-.5-.2-.2-.06-.37-.12-.5-.18-.13-.06-.24-.14-.32-.24-.08-.1-.12-.23-.11-.4l.2-3.94,5.83.3-.11,2.19c0,.15-.04.26-.09.34-.05.08-.12.15-.19.2-.08.05-.16.1-.26.14-.11.03-.2.07-.28.11-.08.04-.14.11-.19.19-.05.08-.08.19-.09.32l-.03.55,3.3.17.03-.55c0-.13-.01-.24-.06-.33-.04-.09-.1-.16-.17-.21-.07-.05-.15-.1-.25-.14-.09-.05-.18-.11-.26-.17-.08-.06-.14-.13-.18-.22-.05-.09-.06-.2-.06-.35l.11-2.19,5.01.26-.18,3.45c0,.16-.06.28-.15.39-.09.1-.2.17-.32.21-.12.04-.28.08-.46.12-.18.04-.34.08-.46.12-.12.04-.23.11-.32.19-.09.09-.14.21-.15.37l-.03.57,3.06.16c0-.37,0-.75.02-1.15l.33-6.38.05-1.06-.58-.03Z"></path>
      <path class="cls-4" d="M14.04,73.32l-.57.24c-.17.07-.28.16-.35.26-.07.1-.11.22-.12.35-.01.13-.02.28-.02.46.01.16.02.3.01.42,0,.13-.04.24-.12.35-.07.11-.19.19-.35.26l-1.39.6c-.3.13-.6.16-.88.1-.29-.06-.55-.21-.79-.45-.24-.23-.44-.53-.59-.89-.3-.69-.32-1.38-.07-2.07.25-.68.76-1.34,1.54-1.98.77-.64,1.8-1.23,3.09-1.78,1.13-.49,2.15-.79,3.07-.92.92-.13,1.7-.07,2.33.19.64.26,1.09.69,1.36,1.3.2.46.26.92.19,1.39-.07.47-.35.94-.83,1.41-.16.17-.26.33-.31.47-.04.14-.03.28.03.42l.22.52,2.87-1.23-.75-1.74c.02-.16.02-.33.01-.5-.03-.52-.16-1.04-.38-1.55-.41-.96-1.06-1.69-1.95-2.17-.89-.49-1.94-.7-3.14-.65-1.2.05-2.49.37-3.85.96-1.44.62-2.6,1.36-3.47,2.23-.87.87-1.41,1.83-1.61,2.89-.2,1.05-.06,2.14.42,3.26.2.46.46.92.77,1.39.32.47.68.9,1.09,1.31.41.41.85.76,1.31,1.05l.55-.24c.12-.05.2-.11.25-.19.04-.07.08-.17.11-.29.03-.09.06-.18.09-.27s.11-.18.22-.28c.11-.1.27-.2.5-.29l2.85-1.22-1.34-3.12Z"></path>
      <path class="cls-4" d="M26.55,83.42c.6-1.07.89-2.11.86-3.13-.03-1.02-.39-1.95-1.06-2.8-.66-.83-1.48-1.37-2.47-1.64-.99-.26-2.07-.22-3.24.13-1.17.35-2.37,1.01-3.58,1.97-1.19.95-2.09,1.96-2.69,3.02-.61,1.07-.89,2.11-.85,3.13.04,1.02.38,1.95,1.04,2.78.67.85,1.5,1.4,2.49,1.66.98.26,2.07.21,3.24-.13,1.18-.35,2.36-.99,3.55-1.94,1.21-.96,2.11-1.98,2.72-3.05M22.34,84.59c-1.02.81-1.98,1.42-2.87,1.82-.89.4-1.67.58-2.33.53-.66-.05-1.19-.33-1.6-.83-.39-.48-.53-1.06-.43-1.72.1-.66.44-1.39,1.03-2.17.58-.78,1.38-1.58,2.4-2.39,1.04-.83,2.01-1.44,2.9-1.83.9-.4,1.68-.57,2.35-.52.67.05,1.2.32,1.58.8.4.51.55,1.09.45,1.75-.11.66-.45,1.38-1.04,2.16-.59.78-1.4,1.59-2.44,2.41"></path>
      <path class="cls-4" d="M28.95,95.44c-.13.02-.26.07-.4.14-.13.07-.29.19-.47.34-.2.14-.36.26-.49.35-.13.09-.26.15-.39.17-.13.02-.27-.02-.4-.12l-2.95-2.24,6.82-8.95c.12-.16.25-.26.36-.3.12-.03.28-.03.48,0,.25.05.43.06.55.03.12-.03.24-.13.35-.28l.35-.47-1.02-.77-1.44-1.1-.84-.64-.35.46c-.12.16-.18.29-.18.41,0,.12.03.27.1.46.08.18.11.32.1.43-.01.1-.09.24-.22.42l-6.33,8.31c-.13.17-.25.28-.35.32-.1.04-.25.05-.44.02-.2-.02-.36,0-.47.03-.11.04-.23.13-.35.29l-.35.46.84.64,6.26,4.77,2.08-2.73-.47-.35c-.13-.1-.25-.13-.39-.11"></path>
      <path class="cls-4" d="M37.25,87.21l-.96-.44-.24.53c-.08.18-.11.32-.09.44.02.12.08.26.19.43.11.16.18.29.19.4.01.11-.03.26-.12.46l-4.36,9.49c-.09.2-.18.33-.27.39-.09.06-.23.1-.42.11-.2.03-.35.07-.45.13-.1.06-.19.18-.28.36l-.24.53.96.44,1.64.76,1.16.53.24-.53c.08-.18.11-.32.09-.44-.03-.12-.12-.28-.29-.47-.12-.16-.2-.31-.23-.42-.03-.12,0-.27.09-.46l2.1-4.56,1.81.83c.13.06.23.13.3.21.07.08.1.16.12.25.01.09.01.19,0,.3,0,.12,0,.23.03.31.02.09.06.17.12.25.06.08.15.15.28.21l.48.22,1.38-3-.48-.22c-.13-.06-.25-.09-.35-.08-.1,0-.19.04-.27.08-.08.04-.16.1-.25.17-.07.07-.15.14-.23.19-.08.05-.17.08-.27.08-.1,0-.22-.03-.35-.09l-1.81-.83,2.1-4.56,3.02,1.39c.17.08.27.17.32.29.05.11.07.24.06.37,0,.13-.03.29-.06.48-.03.19-.05.35-.06.48,0,.13.01.25.06.37.05.11.15.21.3.28l.5.23,1.28-2.79c-.34-.13-.69-.28-1.04-.44l-5.7-2.62Z"></path>
      <path class="cls-4" d="M53.01,91.88c-.43-.25-.94-.41-1.53-.49-1.06-.13-2.02.06-2.88.58-.86.52-1.57,1.31-2.13,2.38-.56,1.07-.94,2.36-1.13,3.87-.19,1.53-.15,2.89.13,4.07.28,1.18.79,2.12,1.52,2.82.73.71,1.65,1.13,2.75,1.27.59.07,1.15.04,1.68-.09.53-.14,1.02-.37,1.48-.69.46-.32.92-.75,1.38-1.28-.2-.26-.37-.45-.52-.56-.15-.12-.29-.17-.43-.16-.14,0-.3.08-.46.22-.43.39-.85.66-1.27.82-.42.15-.86.2-1.32.15-.69-.09-1.25-.4-1.69-.93-.44-.53-.73-1.27-.88-2.21-.15-.94-.15-2.04.01-3.31.15-1.23.41-2.28.77-3.15.36-.87.81-1.51,1.35-1.94.54-.42,1.14-.59,1.8-.51.33.04.62.13.88.28s.48.35.68.62c.19.27.35.63.48,1.07.06.23.14.39.23.5.1.11.22.17.38.19l.56.07.39-3.1-1.89-.24c-.11-.08-.22-.16-.34-.23"></path>
      <path class="cls-4" d="M65.48,94.24c-.6-1.07-1.34-1.86-2.23-2.36-.88-.5-1.86-.68-2.94-.55-1.05.13-1.95.55-2.68,1.26-.74.71-1.26,1.65-1.58,2.84-.31,1.19-.37,2.55-.18,4.08.19,1.51.58,2.8,1.18,3.87.59,1.07,1.34,1.86,2.23,2.36.89.5,1.86.69,2.91.56,1.07-.14,1.98-.56,2.71-1.26.73-.71,1.26-1.65,1.58-2.84.32-1.19.38-2.54.19-4.04-.19-1.53-.59-2.84-1.19-3.91M64.34,101.84c-.12.97-.38,1.73-.77,2.27-.39.54-.9.85-1.54.93-.62.08-1.18-.1-1.7-.53-.51-.43-.95-1.1-1.32-2.01-.37-.9-.63-2-.79-3.29-.17-1.32-.18-2.46-.05-3.43.13-.97.39-1.73.78-2.28.39-.54.89-.86,1.51-.93.64-.08,1.21.1,1.72.53.51.43.94,1.11,1.3,2.02.36.91.62,2.02.79,3.34.16,1.29.18,2.42.06,3.4"></path>
      <path class="cls-4" d="M75.18,88.98c-.09-.2-.12-.35-.11-.46.02-.11.07-.24.17-.38.12-.17.19-.32.21-.44.02-.12,0-.26-.09-.44l-.24-.53-.97.43-.95.42-.98.44.24.53c.08.18.17.3.27.36.1.06.26.11.47.13.18.02.32.07.41.12.09.06.18.19.27.39l3.5,7.83c.24.53.35,1.04.33,1.52-.02.48-.16.91-.43,1.27-.27.37-.65.66-1.15.88-.51.23-1,.32-1.46.26-.46-.05-.88-.24-1.26-.56-.38-.32-.69-.77-.95-1.35l-3.44-7.7c-.09-.2-.13-.35-.12-.46.01-.11.07-.24.18-.39.12-.18.19-.32.22-.44.02-.12,0-.26-.09-.44l-.24-.53-.97.43-1.68.75-.95.42.24.53c.08.18.17.3.26.36.1.06.25.11.46.13.17.03.3.07.4.13.09.06.18.19.27.39l3.34,7.49c.4.9.91,1.58,1.52,2.05.61.47,1.29.73,2.04.77.76.05,1.57-.12,2.43-.51.86-.38,1.51-.86,1.97-1.45.46-.58.72-1.24.77-1.97.05-.73-.1-1.51-.47-2.33l-3.44-7.7Z"></path>
      <path class="cls-4" d="M92.15,90.73c-.11-.04-.27-.04-.49-.02-.21.02-.38.03-.5.02-.12-.01-.27-.05-.45-.12l-3.65-1.78c-.44-.2-.84-.35-1.18-.45-.23-.07-.48-.12-.74-.16.26-.29.48-.58.65-.87.39-.67.57-1.33.52-2-.05-.67-.33-1.33-.84-2-.47-.62-1.01-1.04-1.62-1.25-.61-.22-1.27-.23-1.97-.06-.7.18-1.44.56-2.2,1.14l-3.24,2.47-.84.64.35.46c.12.16.23.25.35.29.11.04.27.05.47.03.19-.02.34-.02.44.02.1.04.21.15.35.32l6.33,8.3c.13.17.2.31.22.42.01.11-.02.25-.1.43-.07.19-.1.35-.1.46,0,.12.07.25.19.41l.35.47.84-.64,1.44-1.1,1.02-.77-.35-.46c-.12-.15-.24-.25-.35-.28-.12-.03-.3-.02-.55.03-.2.03-.36.03-.48,0-.12-.03-.24-.13-.36-.3l-2.56-3.35c-.17-.22-.24-.43-.22-.62.02-.19.14-.37.35-.53l.41-.31,5.13,2.54s.09.04.11.05c.15.07.23.15.25.22.02.08,0,.19-.07.35-.08.2-.11.35-.1.47.01.11.08.25.19.4l.35.46.84-.64,1.67-1.27.86-.65-.35-.46c-.12-.15-.23-.25-.35-.29M83.04,88.38l-1.25.95-2.99-3.92,1.23-.94c.69-.52,1.33-.76,1.94-.7.6.06,1.15.41,1.64,1.05.48.63.67,1.25.58,1.86-.09.61-.48,1.18-1.15,1.7"></path>
      <path class="cls-4" d="M97.44,79.51c-.51-.38-1.06-.62-1.64-.74s-1.24-.12-1.98,0c-.74.12-1.6.38-2.59.77-.8.29-1.46.49-1.98.6-.52.11-.96.14-1.34.09-.37-.05-.71-.18-1-.4-.29-.22-.5-.47-.61-.76-.11-.29-.14-.59-.07-.91.07-.32.23-.65.48-.99.32-.43.71-.73,1.17-.9.47-.17,1.02-.17,1.65-.01.24.06.43.07.57.02.14-.04.26-.13.36-.27l.32-.44-2.5-1.84-1.18,1.61c-.14.06-.27.13-.4.21-.43.26-.83.63-1.18,1.11-.46.62-.74,1.25-.86,1.89-.12.64-.06,1.25.18,1.82.24.57.63,1.05,1.18,1.46.45.33.93.55,1.45.67.51.11,1.1.11,1.77,0,.66-.11,1.46-.35,2.38-.72.86-.3,1.57-.52,2.14-.63s1.07-.14,1.48-.06c.42.08.81.25,1.18.51.53.39.82.84.87,1.36.05.51-.13,1.05-.54,1.61-.4.55-.89.93-1.47,1.13-.57.21-1.18.22-1.83.05-.24-.07-.43-.09-.57-.06-.14.03-.27.12-.38.27l-.34.46,2.99,2.2.33-.46c.08-.11.12-.21.14-.31.01-.1.01-.2,0-.3-.01-.13,0-.24,0-.33.01-.09.06-.19.14-.3.07-.1.17-.19.3-.28.13-.09.27-.18.43-.27.18-.11.37-.22.55-.35s.37-.28.57-.46c.2-.18.39-.4.57-.66.46-.63.74-1.27.84-1.94.09-.66,0-1.29-.27-1.89-.27-.59-.71-1.11-1.32-1.56"></path>
      <path class="cls-4" d="M102.28,69.81c-.06.13-.07.26-.02.38.04.12.11.23.22.33.1.1.23.22.4.36.17.13.31.24.41.34.1.1.17.21.21.33.04.12.03.26-.04.41l-1.56,3.62-5.37-2.3.86-2.01c.06-.13.13-.23.2-.29.08-.06.16-.1.25-.12.09-.02.19-.04.3-.04.11,0,.21,0,.3,0,.09-.02.17-.05.25-.11.08-.06.15-.15.2-.27l.22-.5-3.04-1.3-.22.5c-.05.12-.07.23-.06.33.01.1.04.18.09.26.05.07.11.15.18.22.07.08.13.17.18.25.05.08.08.17.09.27.01.1-.01.21-.07.35l-.86,2.01-4.61-1.98,1.36-3.17c.06-.14.15-.25.27-.31.12-.06.24-.09.38-.09s.29.02.48.05c.19.03.35.04.48.05.13,0,.25-.02.37-.07.12-.05.2-.15.27-.29l.22-.52-2.82-1.21c-.12.34-.26.7-.42,1.07l-2.52,5.87-.42.97.54.23c.18.08.33.1.44.08.11-.02.26-.09.43-.2.16-.12.29-.18.39-.2.1-.01.26.02.46.11l9.59,4.12c.2.09.33.17.4.26.06.09.1.23.13.42.03.2.08.35.15.45.06.1.18.19.36.27l.54.23.42-.97,3.19-7.43-2.95-1.27-.24.55Z"></path>
      <path class="cls-4" d="M101.2,64.05c0-.82-.66-1.48-1.48-1.48s-1.48.66-1.48,1.48.66,1.48,1.48,1.48,1.48-.66,1.48-1.48"></path>
      <path class="cls-4" d="M10.06,64.05c0,.82.66,1.48,1.48,1.48s1.48-.66,1.48-1.48-.66-1.48-1.48-1.48-1.48.66-1.48,1.48"></path>
      <path class="cls-4" d="M38.15,66.82h2.5c.25,0,.49-.13.61-.35l5.35-9.15c.64-1.09,1.98-1.54,3.15-1.05l23.04,9.72c.63.27,1.23-.42.89-1.01l-17.24-29.52c-.27-.47-.95-.47-1.23,0l-17.69,30.29c-.28.47.07,1.07.61,1.07"></path>
      <path class="cls-4" d="M218.76,49.28c2.5,0,4.39-1.89,4.59-4.6l.02-.23h-1.36l-.02.19c-.15,1.93-1.45,3.23-3.23,3.23-.96,0-1.77-.37-2.42-1.1-1.04-1.18-1.13-3.08-1.13-4.76s.09-3.58,1.11-4.74c.65-.74,1.45-1.1,2.43-1.1,1.78,0,3.09,1.3,3.23,3.23l.02.19h1.36l-.02-.23c-.21-2.71-2.1-4.6-4.59-4.6-1.26,0-2.53.58-3.41,1.54-1.38,1.54-1.5,3.75-1.5,5.69s.12,4.17,1.5,5.71c.88.97,2.15,1.54,3.41,1.54"></path>
      <rect class="cls-4" x="227.65" y="35.04" width="1.34" height="13.99"></rect>
      <polygon class="cls-4" points="241.35 35.04 232.17 35.04 232.17 36.42 236.09 36.42 236.09 49.03 237.41 49.03 237.41 36.42 241.35 36.42 241.35 35.04"></polygon>
      <polygon class="cls-4" points="252.31 35.04 248.68 42.01 245.04 35.04 243.59 35.04 247.99 43.5 247.99 49.03 249.3 49.03 249.3 43.5 253.7 35.04 252.31 35.04"></polygon>
      <path class="cls-4" d="M269.07,49.28c1.27,0,2.42-.5,3.32-1.44,1.41-1.49,1.61-3.68,1.61-5.81s-.2-4.3-1.61-5.79c-.9-.95-2.05-1.44-3.32-1.44s-2.42.5-3.32,1.45c-1.41,1.49-1.61,3.67-1.61,5.79s.2,4.32,1.61,5.81c.9.95,2.05,1.44,3.32,1.44M269.07,36.19c.92,0,1.76.35,2.35.99h0c1.12,1.18,1.21,3.12,1.21,4.85s-.09,3.69-1.21,4.87c-.59.64-1.43.99-2.35.99s-1.76-.35-2.35-.99c-1.12-1.18-1.21-3.13-1.21-4.87s.09-3.67,1.21-4.85c.59-.64,1.43-.99,2.35-.99"></path>
      <polygon class="cls-4" points="285.6 41.24 279.46 41.24 279.46 36.42 286.28 36.42 286.28 35.04 278.13 35.04 278.13 49.03 279.46 49.03 279.46 42.62 285.6 42.62 285.6 41.24"></polygon>
      <path class="cls-4" d="M217.73,53.6l-4.83,13.99h1.39l1.22-3.58h5.67l1.25,3.58h1.37l-4.88-13.99h-1.19ZM220.7,62.66h-4.72l2.34-6.82,2.38,6.82Z"></path>
      <path class="cls-4" d="M231.69,53.6h-4.3v13.99h4.3c1.26,0,2.42-.5,3.27-1.41,1.37-1.44,1.55-3.55,1.55-5.6s-.19-4.14-1.55-5.58c-.84-.91-2.01-1.41-3.27-1.41M231.69,66.2h-2.97v-11.2h2.97c.88,0,1.72.35,2.3.95,1.09,1.14,1.18,2.99,1.18,4.64s-.09,3.5-1.18,4.66c-.58.6-1.42.95-2.3.95"></path>
      <polygon class="cls-4" points="241.07 67.6 249.39 67.6 249.39 66.22 242.41 66.22 242.41 60.91 248.56 60.91 248.56 59.54 242.41 59.54 242.41 54.98 249.39 54.98 249.39 53.6 241.07 53.6 241.07 67.6"></polygon>
      <polygon class="cls-4" points="254.78 53.6 253.46 53.6 253.46 67.59 261.19 67.59 261.19 66.23 254.78 66.23 254.78 53.6"></polygon>
      <path class="cls-4" d="M268.47,53.6l-4.83,13.99h1.39l1.22-3.58h5.67l1.25,3.58h1.37l-4.88-13.99h-1.19ZM271.44,62.66h-4.72l2.34-6.82,2.38,6.82Z"></path>
      <rect class="cls-4" x="278.13" y="53.6" width="1.34" height="13.99"></rect>
      <path class="cls-4" d="M289.2,53.6h-4.3v13.99h4.3c1.26,0,2.42-.5,3.27-1.41,1.37-1.44,1.55-3.55,1.55-5.6s-.19-4.14-1.55-5.58c-.84-.91-2.01-1.41-3.27-1.41M289.2,66.2h-2.97v-11.2h2.97c.88,0,1.72.35,2.3.95,1.09,1.14,1.18,2.99,1.18,4.64s-.09,3.5-1.18,4.66c-.58.6-1.42.95-2.3.95"></path>
      <polygon class="cls-4" points="306.9 54.98 306.9 53.6 298.58 53.6 298.58 67.6 306.9 67.6 306.9 66.22 299.92 66.22 299.92 60.91 306.07 60.91 306.07 59.54 299.92 59.54 299.92 54.98 306.9 54.98"></polygon>
      <rect class="cls-4" x="201.03" y="25.19" width="1.27" height="51.99"></rect>
      <path class="cls-4" d="M152.46,35.52c.92,0,1.66-.74,1.66-1.66s-.74-1.66-1.66-1.66-1.66.74-1.66,1.66.74,1.66,1.66,1.66"></path>
      <path class="cls-4" d="M146.86,40c1.07,0,1.94-.87,1.94-1.94s-.87-1.94-1.94-1.94-1.94.87-1.94,1.94.87,1.94,1.94,1.94"></path>
      <path class="cls-4" d="M143.01,47.64c1.27,0,2.3-1.03,2.3-2.3s-1.03-2.31-2.3-2.31-2.31,1.03-2.31,2.31,1.03,2.3,2.31,2.3"></path>
      <path class="cls-4" d="M143.93,57.51c1.48,0,2.67-1.2,2.67-2.67s-1.2-2.67-2.67-2.67-2.67,1.2-2.67,2.67,1.2,2.67,2.67,2.67"></path>
      <path class="cls-4" d="M166.15,69.73c1.94,0,3.51-1.57,3.51-3.5s-1.57-3.51-3.51-3.51-3.51,1.57-3.51,3.51,1.57,3.5,3.51,3.5"></path>
      <path class="cls-4" d="M188.18,57.51c1.48,0,2.67-1.2,2.67-2.67s-1.2-2.67-2.67-2.67-2.68,1.2-2.68,2.67,1.2,2.67,2.68,2.67"></path>
      <path class="cls-4" d="M160.44,25.2l-18.44,51.99h11.3l12.66-36.31-5.51-15.68ZM152.53,66.19c-1.59,0-2.87-1.29-2.87-2.87s1.29-2.87,2.87-2.87,2.87,1.28,2.87,2.87-1.29,2.87-2.87,2.87Z"></path>
      <path class="cls-4" d="M171.42,25.2l-5.47,15.69,12.77,36.31h11.3l-18.6-51.99ZM179.43,66.19c-1.59,0-2.87-1.29-2.87-2.87s1.29-2.87,2.87-2.87,2.87,1.29,2.87,2.87-1.29,2.87-2.87,2.87Z"></path>
      <g class="cls-6">
        <g class="cls-5">
          <g class="cls-3">
            <polygon class="cls-4" points="160.44 25.18 165.95 40.87 171.42 25.18 160.44 25.18"></polygon>
          </g>
        </g>
      </g>
    </g>
  </g>
</svg>
