<svg id="Layer_1" xmlns="http://www.w3.org/2000/svg" version="1.1" viewBox="40 84.65 720 79.98">
  <!-- Generator: Adobe Illustrator 29.8.2, SVG Export Plug-In . SVG Version: 2.1.1 Build 3)  -->
  <path d="M250.1,100.41h26.6c2.27,0,3.08-1,4.04-3.01l5.19-11.8h-42.48c-5.49,0-9.37,3.45-9.37,9.37v65.91l-4.33-9.95c-.54-1.19-1.57-2.14-3.51-2.14h-27.83v-57.74c0-3.7-2.3-5.44-5.44-5.44h-10.58v12.4c2.49,4.79,3.97,10.58,4.38,16.13-4.62-15.6-18.38-29.47-38.41-29.47-18.08,0-36.37,12.28-39.66,34.22h-21.11c-2.37,0-2.84.55-4.07,3.33l-4.63,10.32h24.05c-3.04,10.73-12.83,17.45-22.82,17.45-14.24,0-24.03-12.28-24.03-25.22,0-16,12.24-25.29,24.14-25.29,7.04,0,13.1,3.08,16.49,5.68,2.18,1.72,4.45,1.19,5.55-.56l5.52-9.47s-9.97-10.42-27.09-10.42c-20.87,0-40.68,15.14-40.68,40.06,0,20.42,16.27,39.79,39.86,39.79,20.22,0,36.05-15.57,39.08-32,0,8.18-1.13,11.37-2.75,16.09,8.25,10.3,19.24,15.97,32.06,15.97,15.79,0,27.84-8.77,34.13-19.4v9.02c0,5.87,4.22,9.37,8.87,9.37h53.41c2.99,0,5.44-1.61,5.44-5.44v-25.39h21.77c2.8,0,3.69-.89,5-3.57l4.55-10.34h-31.32v-18.44ZM148.13,149.97c-13.36,0-23.79-12.29-23.79-25.32s9.74-25.21,23.86-25.21c12.74,0,23.85,11.04,23.85,25.14s-11.38,25.38-23.93,25.38Z" fill="#666666"/>
  <path id="path4422" d="M299.14,124.53c0,20.73,15.2,40.07,40.07,40.07,17.6,0,27.46-9.57,27.46-9.57l-5.66-9.6c-1.54-2.49-4.25-2.24-6.99-.08,0,0-5.82,4.59-14.51,4.59h0c-12.02,0-23.93-9.73-23.93-25.56,0-14.1,10.47-25.07,23.93-25.07,8.33,0,14.73,4.6,14.73,4.6,3.99,2.78,5.95,1.19,6.76,0l5.81-9.57s-9.49-9.68-27.27-9.68c-24.61,0-40.41,19.19-40.41,39.88" fill="#666666"/>
  <path id="path4426" d="M387.88,131.65v31.92h-6.38c-5.7,0-9.58-4.03-9.58-10.03v-67.94h10.49c3.25,0,5.47,1.82,5.47,5.02v26.45h29.18v-31.46h9.93c2.93,0,6.03,1.07,6.03,5.39v72.59h-6.84c-5.49,0-9.12-3.55-9.12-9.12v-22.8h-29.18Z" fill="#666666"/>
  <path id="path4428" d="M465.97,85.61l-26.3,70.25c-2.38,5.83-1.36,7.72,2.42,7.72h11.31l5.84-16.42h27.84l3.59,10.52c1.43,3.36,3.17,5.9,7.04,5.9h12.23l-25.85-69.54c-1.82-5.54-4.26-8.44-9.58-8.44h-8.55ZM473.15,108.21l9.38,26.19h-18.81l9.43-26.19Z" fill="#666666"/>
  <path id="path4432" d="M529.89,163.58h-10.49c-3.02,0-5.47-1.81-5.47-5.47v-72.5h10.64c5.6,0,7.37,4.17,10.03,8.06l24.93,42.56v-50.62h10.87c3.63,0,5.09,2.25,5.09,6.01v71.97h-10.49c-5.87,0-8.26-3.38-10.78-7.56l-24.33-42.29v49.86h0Z" fill="#666666"/>
  <path id="path4434" d="M599.41,163.58h-10.49c-3.02,0-5.47-1.81-5.47-5.47v-72.5h10.64c5.6,0,7.37,4.17,10.03,8.06l24.93,42.56v-50.62h10.87c3.64,0,5.09,2.25,5.09,6.01v71.97h-10.49c-5.87,0-8.26-3.38-10.78-7.56l-24.33-42.29v49.86h0Z" fill="#666666"/>
  <path id="path3077" d="M694.01,163.58h-32.83c-5.06,0-9.12-3.17-9.12-10.03v-67.94h52.36l-5.78,12.58c-.81,1.32-1.36,2.47-4.25,2.47h-25.91v17.33h31.92l-5.47,10.94c-.97,2.02-1.63,2.74-3.81,2.74h-22.64v17.33h35.57l-5.47,11.86c-.82,1.58-1.56,2.74-4.56,2.74h0Z" fill="#666666"/>
  <path id="path3081" d="M760,163.58h-41.31c-7.06,0-9.57-4.47-9.57-10.03v-67.94h10.49c3.38,0,5.47,1.17,5.47,5.28v58.1h24.62c3.16,0,3.69.36,5.31,3.43l4.99,11.16Z" fill="#666666"/>
</svg>