<?xml version="1.0" encoding="utf-8"?>
<!-- Generator: Adobe Illustrator 19.1.0, SVG Export Plug-In . SVG Version: 6.00 Build 0)  -->
<svg version="1.1" id="Layer_1" xmlns="http://www.w3.org/2000/svg" xmlns:xlink="http://www.w3.org/1999/xlink" x="0px" y="0px"
	 viewBox="0 0 195 120" style="enable-background:new 0 0 195 120;" xml:space="preserve">
<style type="text/css">
	.st0{fill:#FFFFFF;}
</style>
<path class="st0" d="M98.9,76c0-4.5-0.8-7.8-1.6-10.8c-0.4-1.5-0.8-2.9-1.1-4.3c-0.3-1.4-0.5-2.9-0.5-4.5l0-0.1
	c0.3,0.8,0.7,1.7,1.1,2.7c0.7,1.6,1.6,3.3,2.4,5c1.6,3.5,3,7.1,3,10.4c0,4.9-2,10.6-4.5,14.4C98.1,86.4,98.9,81.3,98.9,76
	 M94.3,56.5c-0.1-0.3-0.2-0.6-0.2-0.9c-0.2-1-0.5-2.1-0.6-3.3c-2,1.7-4,3.1-5.7,4c-0.2,0.9-0.4,1.6-0.5,2.2c-0.1,0.6,0,0.9,0.3,1.1
	c0,0,0.1,0.1,0.3,0.1C89.3,59.6,91.7,58.4,94.3,56.5 M106.6,29.6c-0.1,3.2-0.9,6-2.2,8.8c-2,4-4.9,8-8.1,11.2
	c-0.3,1.7-0.5,3.7-0.5,5.8c4.3-3.4,8.8-8.4,10.7-13.4c0.9-2.3,1.4-4.7,1.4-7.4C107.8,32.9,107.4,31.3,106.6,29.6 M100.8,32.5
	c0-0.3-0.1-0.5-0.1-0.6c-0.5-0.7-1.7-0.5-3.4,0.5c-0.6,1.7-1.5,3.3-2.2,5.5c-0.8,2.2-1.4,5.1-1.4,9.3c0,3.3,0.4,5.8,0.9,8.2
	c0.2,0.7,0.4,1.5,0.6,2.2c0-0.4,0-0.8,0-1.2c0-6.8,1.4-11.5,2.8-15.2c0.7-1.8,1.4-3.4,1.9-4.8C100.5,35,100.8,33.7,100.8,32.5
	 M95.1,33.4c1.7-1.5,3.7-2.7,5.1-2.5c-0.4-0.5-1.1-1.3-2.4-2.8c-0.3-0.4-1-0.4-2,0.1c-1,0.5-2.3,1.4-3.5,2.6
	c-2.5,2.4-5.1,5.6-6.1,8.1c-1,2.5-1.5,5.4-1.7,8c-0.3,2.6-0.3,4.9-0.4,6.1c-0.1,1.2-0.3,2-0.4,2.6c-0.1,0.6-0.1,1,0.2,1.4
	c0.4,0.7,1.8,1.7,3,2.2c-0.1-0.3,0-0.7,0.1-1.1c0.1-0.7,0.4-1.7,0.5-2.8c0.1-1.2,0-3,0.2-5.3c0.2-2.4,0.6-5.4,1.9-8.9
	C90.4,38.5,92.7,35.5,95.1,33.4 M101.1,7.7c0.3,0.6,0.5,1.2,0.5,1.6l2.9-1.9c0.2-0.1,0.3-0.4,0.1-1c-0.1-0.5-0.4-1.1-0.8-1.6
	c-0.9-1.1-1.8-2-3.8-2c-1.9,0-4.4,0.9-5.5,3.6c0.7-0.8,1.7-1.3,2.8-1.3C99,5.1,100.2,6.1,101.1,7.7 M118.5,22.8
	c-0.3-0.4-0.8-0.9-1.4-1.5c-1.2-1.2-2.8-2.9-4.6-4.6c-3.4-3.3-7.1-6.8-8.6-8.3l-2.7,1.8c-0.1,0.1-0.2,0.2-0.4,0.2l-0.1,0.1
	c0,0-0.1,0-0.1,0.1c-0.1,0.1-0.2,0.2-0.1,0.4c0,0,0.1,0.1,0.1,0.2c0.1,0.1,0.3,0.3,0.5,0.5c0.4,0.4,1,0.8,1.7,1.3c1.4,1,3,2.1,4.2,3
	c1.2,0.9,4.1,2.8,6.8,4.4c1.3,0.8,2.6,1.5,3.6,2c0.5,0.2,0.9,0.4,1.2,0.5L118.5,22.8z M97.9,7.2c0-0.7,0.1-1.1,0.1-1.4
	c-0.2,0-0.4-0.1-0.6-0.1c-1.3,0-2.4,0.8-3,1.9C94.2,8.2,94,8.9,94,9.5c0,1.3,0.8,2.9,2.2,4.7c1.3,1.9,3.1,4,4.9,6.2
	c3.6,4.4,7.3,9.4,7.3,14.2c0,0.6,0,1.1-0.1,1.7c0.3-1.3,0.4-2.6,0.4-3.9c0-6-2.7-10.7-5.4-14.7c-1.4-2-2.7-3.8-3.8-5.5
	C98.6,10.5,97.9,8.8,97.9,7.2 M53.5,104.4c1.2,0,2.4-0.7,2.4-2.3c0-0.8-0.5-1.7-1.8-2l-1.1-0.2c-0.5-0.1-1-0.5-1-1
	c0-0.8,0.6-1.2,1.3-1.2c1.2,0,1.7,0.9,1.7,1.5c0,0.1,0,0.2,0.2,0.2c0.1,0,0.2-0.1,0.2-0.2v-1.7c0-0.1,0-0.2-0.2-0.2
	c-0.1,0-0.2,0.1-0.2,0.2c0,0.1-0.1,0.3-0.3,0.3c-0.3-0.2-0.8-0.4-1.4-0.4c-0.9,0-2.1,0.6-2.1,2.1c0,0.9,0.5,1.9,1.8,2.1l0.8,0.1
	c0.6,0.2,1.1,0.5,1.1,1.1c0,0.8-0.8,1.2-1.4,1.2c-1,0-1.9-0.7-1.9-1.7c0-0.1,0-0.2-0.2-0.2c-0.1,0-0.2,0.1-0.2,0.2v2
	c0,0.1,0,0.2,0.2,0.2c0.1,0,0.1-0.1,0.1-0.2c0-0.2,0.1-0.4,0.3-0.4C52.3,104.1,52.9,104.4,53.5,104.4 M58.6,102h2.2l0.7,1.8
	c-0.5,0-0.6,0-0.7,0c-0.1,0-0.2,0.1-0.2,0.2c0,0.1,0.1,0.2,0.2,0.2c0.1,0,0.2-0.1,1.1-0.1h0.7c0.9,0,1,0.1,1.1,0.1
	c0.1,0,0.2-0.1,0.2-0.2c0-0.1-0.1-0.2-0.2-0.2c-0.1,0-0.2,0-0.7,0l-2.5-6.6c0-0.1-0.1-0.1-0.2-0.1c-0.1,0-0.1,0-0.2,0.1l-2.6,6.6
	h-0.1c-0.5,0-0.5,0-0.6,0c-0.1,0-0.2,0.1-0.2,0.2c0,0.1,0.1,0.2,0.2,0.2c0.1,0,0.1-0.1,0.9-0.1h0.1c0.7,0,0.8,0.1,0.9,0.1
	c0.1,0,0.2-0.1,0.2-0.2c0-0.1-0.1-0.2-0.2-0.2c-0.1,0-0.1,0-0.7,0h-0.1L58.6,102z M60.6,101.6h-1.9l0.9-2.4L60.6,101.6z M65.6,98.3
	l3.9,5.8c0.1,0.1,0.2,0.2,0.2,0.2c0.1,0,0.1-0.1,0.1-0.3v-6.4c0.5,0,0.6,0,0.7,0c0.1,0,0.2-0.1,0.2-0.2c0-0.1-0.1-0.2-0.2-0.2
	c-0.1,0-0.2,0-0.9,0.1c-0.7,0-0.8-0.1-0.9-0.1c-0.1,0-0.2,0.1-0.2,0.2c0,0.1,0.1,0.2,0.2,0.2c0.1,0,0.2,0,0.7,0v4l-2.6-3.9
	c-0.2-0.3-0.3-0.4-0.4-0.4c-0.1,0-0.4,0-1.1,0c-0.7,0-0.8-0.1-0.9-0.1c-0.1,0-0.2,0.1-0.2,0.2c0,0.1,0.1,0.2,0.2,0.2
	c0.1,0,0.2,0,0.7,0v6.2c-0.5,0-0.6,0-0.7,0c-0.1,0-0.2,0.1-0.2,0.2c0,0.1,0.1,0.2,0.2,0.2c0.1,0,0.2,0,0.9-0.1
	c0.7,0,0.8,0.1,0.9,0.1c0.1,0,0.2-0.1,0.2-0.2c0-0.1-0.1-0.2-0.2-0.2c-0.1,0-0.2,0-0.7,0V98.3z M72.3,100.8c0,2.2,1.5,3.6,3,3.6
	c0.8,0,1.2-0.3,1.6-0.6c0.2,0.1,0.3,0.2,0.3,0.4c0,0.1,0,0.2,0.1,0.2c0.2,0,0.2-0.1,0.2-0.2v-2.2c0-0.1,0-0.2-0.2-0.2
	c-0.1,0-0.2,0.1-0.2,0.2c0,1.2-0.8,2-1.8,2c-1.2,0-1.6-0.8-1.6-3.2c0-2.4,0.4-3.2,1.6-3.2c1,0,1.8,0.9,1.8,2c0,0.1,0,0.2,0.2,0.2
	c0.1,0,0.2-0.1,0.2-0.2v-2.2c0-0.1,0-0.2-0.2-0.2c-0.1,0-0.1,0.1-0.1,0.2c0,0.1-0.1,0.4-0.3,0.4c-0.4-0.4-0.8-0.6-1.6-0.6
	C73.8,97.2,72.3,98.6,72.3,100.8 M84.4,99.2c0.1,0,0.2-0.1,0.2-0.2c0-0.1-0.1-0.9-0.1-1.3v-0.3c0-0.1-0.1-0.2-0.2-0.2
	c-0.1,0-0.4,0-0.6,0l-1.6,0h-0.9l-1.6,0c-0.2,0-0.5,0-0.6,0c-0.1,0-0.2,0.1-0.2,0.2v0.3c0,0.4-0.1,1.2-0.1,1.3
	c0,0.1,0.1,0.2,0.2,0.2c0.1,0,0.2-0.1,0.2-0.2c0-0.9,0.3-1.4,1.1-1.4H81v6.1c-0.5,0-0.6,0-0.7,0c-0.1,0-0.2,0.1-0.2,0.2
	c0,0.1,0.1,0.2,0.2,0.2c0.1,0,0.2-0.1,1.1-0.1H82c0.9,0,1,0.1,1.1,0.1c0.1,0,0.2-0.1,0.2-0.2c0-0.1-0.1-0.2-0.2-0.2
	c-0.1,0-0.2,0-0.7,0v-6.1h0.8c0.8,0,1.1,0.5,1.1,1.4C84.2,99.2,84.3,99.2,84.4,99.2 M89,104.4c1.7,0,2.5-0.9,2.5-2.2v-4.5
	c0.5,0,0.6,0,0.7,0c0.1,0,0.2-0.1,0.2-0.2c0-0.1-0.1-0.2-0.2-0.2c-0.1,0-0.2,0-0.9,0.1c-0.7,0-0.8-0.1-0.9-0.1
	c-0.1,0-0.2,0.1-0.2,0.2c0,0.1,0.1,0.2,0.2,0.2c0.1,0,0.2,0,0.7,0v4.5c0,0.9-0.4,1.7-1.6,1.7c-1,0-1.6-0.6-1.6-1.5v-4.7
	c0.5,0,0.6,0,0.7,0c0.1,0,0.2-0.1,0.2-0.2c0-0.1-0.1-0.2-0.2-0.2c-0.1,0-0.2,0.1-1.1,0.1h-0.7c-0.9,0-1-0.1-1.1-0.1
	c-0.1,0-0.2,0.1-0.2,0.2c0,0.1,0.1,0.2,0.2,0.2c0.1,0,0.2,0,0.7,0v4.5C86.5,103.5,87.5,104.4,89,104.4 M94.6,102h2.2l0.7,1.8
	c-0.5,0-0.6,0-0.7,0c-0.1,0-0.2,0.1-0.2,0.2c0,0.1,0.1,0.2,0.2,0.2c0.1,0,0.2-0.1,1.1-0.1h0.7c0.9,0,1,0.1,1.1,0.1
	c0.1,0,0.2-0.1,0.2-0.2c0-0.1-0.1-0.2-0.2-0.2c-0.1,0-0.2,0-0.7,0l-2.5-6.6c0-0.1-0.1-0.1-0.2-0.1c-0.1,0-0.2,0-0.2,0.1l-2.6,6.6
	h-0.1c-0.5,0-0.5,0-0.6,0c-0.1,0-0.2,0.1-0.2,0.2c0,0.1,0.1,0.2,0.2,0.2c0.1,0,0.1-0.1,0.9-0.1h0.1c0.7,0,0.8,0.1,0.9,0.1
	c0.1,0,0.2-0.1,0.2-0.2c0-0.1-0.1-0.2-0.2-0.2c-0.1,0-0.2,0-0.7,0h-0.1L94.6,102z M96.7,101.6h-1.9l0.9-2.4L96.7,101.6z
	 M105.9,103.5c0-0.3,0.1-0.6,0.1-1.2c0-0.7-0.5-1.6-1.4-1.8c0.7-0.2,1.3-0.8,1.3-1.5c0-0.9-0.7-1.6-2.3-1.6c-0.4,0-0.7,0-1.1,0h-0.5
	c-0.9,0-1-0.1-1.1-0.1c-0.1,0-0.2,0.1-0.2,0.2c0,0.1,0.1,0.2,0.2,0.2c0.1,0,0.2,0,0.7,0v6.2c-0.5,0-0.6,0-0.7,0
	c-0.1,0-0.2,0.1-0.2,0.2c0,0.1,0.1,0.2,0.2,0.2c0.1,0,0.2-0.1,1.1-0.1h0.7c0.9,0,1,0.1,1.1,0.1c0.1,0,0.2-0.1,0.2-0.2
	c0-0.1-0.1-0.2-0.2-0.2c-0.1,0-0.2,0-0.7,0v-3h0.3c1,0,1.3,0.6,1.3,1.5c0,1.4,0.6,2,1.4,2c0.5,0,0.9-0.3,0.9-0.7
	c0-0.1-0.1-0.2-0.2-0.2c-0.1,0-0.2,0.1-0.2,0.2c0,0.2-0.1,0.3-0.3,0.3C106,104,105.9,103.8,105.9,103.5 M104.4,99
	c0,1.1-0.4,1.4-1.2,1.4h-0.3v-2.7h0.4C104.1,97.7,104.4,98.1,104.4,99 M109.4,101v2.8c-0.5,0-0.6,0-0.7,0c-0.1,0-0.2,0.1-0.2,0.2
	c0,0.1,0.1,0.2,0.2,0.2c0.1,0,0.2-0.1,1.1-0.1h0.7c0.9,0,1,0.1,1.1,0.1c0.1,0,0.2-0.1,0.2-0.2c0-0.1-0.1-0.2-0.2-0.2
	c-0.1,0-0.2,0-0.7,0v-3.1l1.4-2.6c0.2-0.3,0.4-0.5,0.6-0.5c0.2,0,0.2,0,0.3,0c0.1,0,0.2-0.1,0.2-0.2c0-0.1-0.1-0.2-0.2-0.2
	c-0.1,0-0.1,0.1-0.9,0.1h-0.1c-0.7,0-0.8-0.1-0.9-0.1c-0.1,0-0.2,0.1-0.2,0.2c0,0.1,0.1,0.2,0.2,0.2c0.1,0,0.2,0,0.4,0
	c0.1,0,0.2,0.1,0.1,0.4l-1.2,2.3l-1.4-2.7c0.5,0,0.6,0,0.7,0c0.1,0,0.2-0.1,0.2-0.2c0-0.1-0.1-0.2-0.2-0.2c-0.1,0-0.2,0.1-1.1,0.1
	H108c-0.9,0-1-0.1-1.1-0.1c-0.1,0-0.2,0.1-0.2,0.2c0,0.1,0.1,0.2,0.2,0.2c0.1,0,0.2,0,0.7,0L109.4,101z M116.7,100.8
	c0,2.2,1.5,3.6,3,3.6c0.8,0,1.2-0.3,1.6-0.6c0.2,0.1,0.3,0.2,0.3,0.4c0,0.1,0,0.2,0.1,0.2c0.2,0,0.2-0.1,0.2-0.2v-2.2
	c0-0.1,0-0.2-0.2-0.2c-0.1,0-0.2,0.1-0.2,0.2c0,1.2-0.8,2-1.8,2c-1.2,0-1.6-0.8-1.6-3.2c0-2.4,0.4-3.2,1.6-3.2c1,0,1.8,0.9,1.8,2
	c0,0.1,0,0.2,0.2,0.2c0.1,0,0.2-0.1,0.2-0.2v-2.2c0-0.1,0-0.2-0.2-0.2c-0.1,0-0.1,0.1-0.1,0.2c0,0.1-0.1,0.4-0.3,0.4
	c-0.4-0.4-0.8-0.6-1.6-0.6C118.2,97.2,116.7,98.6,116.7,100.8 M126.7,104.4c1.7,0,3.2-1.5,3.2-3.6c0-2.2-1.5-3.6-3.2-3.6
	c-1.7,0-3.2,1.4-3.2,3.6C123.6,102.9,125,104.4,126.7,104.4 M126.7,97.6c1.1,0,1.7,0.8,1.7,3.2c0,2.4-0.6,3.2-1.7,3.2
	c-1.1,0-1.7-0.8-1.7-3.2C125.1,98.3,125.6,97.6,126.7,97.6 M136.9,97.7L136.9,97.7c0.6,0,0.6,0,0.7,0c0.1,0,0.2-0.1,0.2-0.2
	c0-0.1-0.1-0.2-0.2-0.2c-0.1,0-0.1,0.1-0.9,0.1h-0.1c-0.7,0-0.8-0.1-0.9-0.1c-0.1,0-0.2,0.1-0.2,0.2c0,0.1,0.1,0.2,0.2,0.2
	c0.1,0,0.1,0,0.7,0h0.1l-1.8,4.6l-1.8-4.6c0.5,0,0.6,0,0.7,0c0.1,0,0.2-0.1,0.2-0.2c0-0.1-0.1-0.2-0.2-0.2c-0.1,0-0.2,0.1-1.1,0.1
	h-0.7c-0.9,0-1-0.1-1.1-0.1c-0.1,0-0.2,0.1-0.2,0.2c0,0.1,0.1,0.2,0.2,0.2c0.1,0,0.2,0,0.7,0l2.5,6.6c0,0.1,0.1,0.1,0.2,0.1
	c0.1,0,0.2,0,0.2-0.1L136.9,97.7z M143.9,103.7c0-0.4,0.1-1.2,0.1-1.3c0-0.1-0.1-0.2-0.2-0.2c-0.1,0-0.2,0.1-0.2,0.2
	c0,0.9-0.3,1.4-1.1,1.4h-1.7v-3h0.7c0.5,0,0.8,0.3,0.8,0.8c0,0.1,0,0.2,0.1,0.2c0.1,0,0.1-0.1,0.1-0.2c0-0.1,0-0.3,0-1
	c0-0.7,0-0.9,0-1c0-0.1,0-0.2-0.1-0.2c-0.1,0-0.1,0.1-0.1,0.2c0,0.5-0.3,0.8-0.8,0.8h-0.7v-2.7h1.5c0.8,0,1.1,0.5,1.1,1.4
	c0,0.1,0.1,0.2,0.2,0.2c0.1,0,0.2-0.1,0.2-0.2c0-0.1-0.1-0.9-0.1-1.3v-0.3c0-0.1-0.1-0.2-0.2-0.2c-0.1,0-0.4,0-0.6,0l-2.8,0h-0.3
	c-0.9,0-1-0.1-1.1-0.1c-0.1,0-0.2,0.1-0.2,0.2c0,0.1,0.1,0.2,0.2,0.2c0.1,0,0.2,0,0.7,0v6.2c-0.5,0-0.6,0-0.7,0
	c-0.1,0-0.2,0.1-0.2,0.2c0,0.1,0.1,0.2,0.2,0.2c0.1,0,0.2-0.1,1.1-0.1h0.3l3.1,0c0.2,0,0.5,0,0.6,0c0.1,0,0.2-0.1,0.2-0.2V103.7
	 M33,114.8c0,1.5-0.3,1.9-1.1,1.9c-1.2,0-1.6-0.8-1.6-3.2c0-2.4,0.4-3.2,1.6-3.2c1,0,2,0.9,2,2c0,0.1,0,0.2,0.2,0.2
	c0.1,0,0.2-0.1,0.2-0.2v-2.2c0-0.1,0-0.2-0.2-0.2c-0.1,0-0.1,0.1-0.1,0.2c0,0.2-0.2,0.4-0.3,0.5c-0.4-0.4-0.9-0.7-1.7-0.7
	c-1.5,0-3,1.4-3,3.6c0,2.2,1.5,3.6,3,3.6c1.4,0,2.5-0.9,2.5-2.4v-0.1c0.5,0,0.6,0,0.7,0c0.1,0,0.2-0.1,0.2-0.2
	c0-0.1-0.1-0.2-0.2-0.2c-0.1,0-0.2,0.1-1.1,0.1h-0.7c-0.9,0-1-0.1-1.1-0.1c-0.1,0-0.2,0.1-0.2,0.2c0,0.1,0.1,0.2,0.2,0.2
	c0.1,0,0.2,0,0.7,0V114.8z M39.5,117.2c1.7,0,3.2-1.5,3.2-3.6c0-2.2-1.5-3.6-3.2-3.6c-1.7,0-3.2,1.4-3.2,3.6
	C36.4,115.7,37.8,117.2,39.5,117.2 M39.5,110.4c1.1,0,1.7,0.8,1.7,3.2c0,2.4-0.6,3.2-1.7,3.2c-1.1,0-1.7-0.8-1.7-3.2
	C37.9,111.1,38.4,110.4,39.5,110.4 M46.7,116.6v-6.1c0.5,0,0.6,0,0.7,0c0.1,0,0.2-0.1,0.2-0.2c0-0.1-0.1-0.2-0.2-0.2
	c-0.1,0-0.2,0.1-1.1,0.1h-0.7c-0.9,0-1-0.1-1.1-0.1c-0.1,0-0.2,0.1-0.2,0.2c0,0.1,0.1,0.2,0.2,0.2c0.1,0,0.2,0,0.7,0v6.2
	c-0.5,0-0.6,0-0.7,0c-0.1,0-0.2,0.1-0.2,0.2c0,0.1,0.1,0.2,0.2,0.2c0.1,0,0.2-0.1,1.1-0.1h0.3l3,0c0.2,0,0.5,0,0.6,0
	c0.1,0,0.2-0.1,0.2-0.2v-0.3c0-0.4,0.1-1.2,0.1-1.3c0-0.1-0.1-0.2-0.2-0.2c-0.1,0-0.2,0.1-0.2,0.2c0,0.9-0.3,1.4-1.1,1.4H46.7z
	 M53.2,113.6H54c0.5,0,0.8,0.3,0.8,0.8c0,0.1,0.1,0.2,0.1,0.2s0.1-0.1,0.1-0.2c0-0.1,0-0.3,0-1c0-0.7,0-0.9,0-1c0-0.1,0-0.2-0.1-0.2
	s-0.1,0.1-0.1,0.2c0,0.5-0.3,0.8-0.8,0.8h-0.9v-2.7h1.7c0.8,0,1.1,0.5,1.1,1.4c0,0.1,0.1,0.2,0.2,0.2c0.1,0,0.2-0.1,0.2-0.2
	c0-0.1-0.1-0.9-0.1-1.3v-0.3c0-0.1-0.1-0.2-0.2-0.2c-0.1,0-0.4,0-0.6,0l-2.5,0h-0.8c-0.9,0-1-0.1-1.1-0.1c-0.1,0-0.2,0.1-0.2,0.2
	c0,0.1,0.1,0.2,0.2,0.2c0.1,0,0.2,0,0.7,0v6.2c-0.5,0-0.6,0-0.7,0c-0.1,0-0.2,0.1-0.2,0.2c0,0.1,0.1,0.2,0.2,0.2
	c0.1,0,0.2-0.1,1.1-0.1h0.7c0.9,0,1,0.1,1.1,0.1c0.1,0,0.2-0.1,0.2-0.2c0-0.1-0.1-0.2-0.2-0.2c-0.1,0-0.2,0-0.7,0V113.6z
	 M61.3,114.8h2.2l0.7,1.8c-0.5,0-0.6,0-0.7,0c-0.1,0-0.2,0.1-0.2,0.2c0,0.1,0.1,0.2,0.2,0.2c0.1,0,0.2-0.1,1.1-0.1h0.7
	c0.9,0,1,0.1,1.1,0.1c0.1,0,0.2-0.1,0.2-0.2c0-0.1-0.1-0.2-0.2-0.2c-0.1,0-0.2,0-0.7,0l-2.5-6.6c0-0.1-0.1-0.1-0.2-0.1
	c-0.1,0-0.1,0-0.2,0.1l-2.6,6.6h-0.1c-0.5,0-0.5,0-0.6,0c-0.1,0-0.2,0.1-0.2,0.2c0,0.1,0.1,0.2,0.2,0.2c0.1,0,0.1-0.1,0.9-0.1h0.1
	c0.7,0,0.8,0.1,0.9,0.1c0.1,0,0.2-0.1,0.2-0.2c0-0.1-0.1-0.2-0.2-0.2c-0.1,0-0.1,0-0.7,0h-0.1L61.3,114.8z M63.3,114.4h-1.9l0.9-2.4
	L63.3,114.4z M68.4,111.1l3.9,5.8c0.1,0.1,0.2,0.2,0.2,0.2c0.1,0,0.1-0.1,0.1-0.3v-6.4c0.5,0,0.6,0,0.7,0c0.1,0,0.2-0.1,0.2-0.2
	c0-0.1-0.1-0.2-0.2-0.2c-0.1,0-0.2,0-0.9,0.1c-0.7,0-0.8-0.1-0.9-0.1c-0.1,0-0.2,0.1-0.2,0.2c0,0.1,0.1,0.2,0.2,0.2
	c0.1,0,0.2,0,0.7,0v4l-2.6-3.9c-0.2-0.3-0.3-0.4-0.4-0.4c-0.1,0-0.4,0-1.1,0c-0.7,0-0.8-0.1-0.9-0.1c-0.1,0-0.2,0.1-0.2,0.2
	c0,0.1,0.1,0.2,0.2,0.2c0.1,0,0.2,0,0.7,0v6.2c-0.5,0-0.6,0-0.7,0c-0.1,0-0.2,0.1-0.2,0.2c0,0.1,0.1,0.2,0.2,0.2
	c0.1,0,0.2,0,0.9-0.1c0.7,0,0.8,0.1,0.9,0.1c0.1,0,0.2-0.1,0.2-0.2c0-0.1-0.1-0.2-0.2-0.2c-0.1,0-0.2,0-0.7,0V111.1z M75.2,117
	c0.1,0,0.2-0.1,1.1-0.1h0.5c0.9,0,1.4,0,1.9,0c1.5,0,2.9-1.4,2.9-3.4c0-2.1-1.3-3.4-2.9-3.4c-0.5,0-1,0-1.9,0h-0.5
	c-0.9,0-1-0.1-1.1-0.1c-0.1,0-0.2,0.1-0.2,0.2c0,0.1,0.1,0.2,0.2,0.2c0.1,0,0.2,0,0.7,0v6.2c-0.5,0-0.6,0-0.7,0
	c-0.1,0-0.2,0.1-0.2,0.2C75.1,116.9,75.2,117,75.2,117 M80.1,113.5c0,2.3-0.6,3-1.6,3c-0.7,0-1.1,0-1.1,0v-6c0,0,0.5,0,1.1,0
	C79.5,110.5,80.1,111.3,80.1,113.5 M86,113.5c0,2.2,1.5,3.6,3.1,3.6c0.8,0,1.2-0.3,1.6-0.6c0.2,0.1,0.3,0.2,0.3,0.4
	c0,0.1,0,0.2,0.1,0.2c0.2,0,0.2-0.1,0.2-0.2v-2.2c0-0.1,0-0.2-0.2-0.2c-0.1,0-0.2,0.1-0.2,0.2c0,1.2-0.8,2-1.8,2
	c-1.2,0-1.6-0.8-1.6-3.2c0-2.4,0.4-3.2,1.6-3.2c1,0,1.8,0.9,1.8,2c0,0.1,0,0.2,0.2,0.2c0.1,0,0.2-0.1,0.2-0.2v-2.2
	c0-0.1,0-0.2-0.2-0.2c-0.1,0-0.1,0.1-0.1,0.2c0,0.1-0.1,0.4-0.3,0.4c-0.4-0.4-0.8-0.6-1.6-0.6C87.5,110,86,111.4,86,113.5 M96,117.2
	c1.7,0,3.2-1.5,3.2-3.6c0-2.2-1.5-3.6-3.2-3.6c-1.7,0-3.2,1.4-3.2,3.6C92.8,115.7,94.3,117.2,96,117.2 M96,110.4
	c1.1,0,1.7,0.8,1.7,3.2c0,2.4-0.6,3.2-1.7,3.2c-1.1,0-1.7-0.8-1.7-3.2C94.4,111.1,94.9,110.4,96,110.4 M104,117.2
	c1.7,0,2.5-0.9,2.5-2.2v-4.5c0.5,0,0.6,0,0.7,0c0.1,0,0.2-0.1,0.2-0.2c0-0.1-0.1-0.2-0.2-0.2c-0.1,0-0.2,0-0.9,0.1
	c-0.7,0-0.8-0.1-0.9-0.1c-0.1,0-0.2,0.1-0.2,0.2c0,0.1,0.1,0.2,0.2,0.2c0.1,0,0.2,0,0.7,0v4.5c0,0.9-0.4,1.7-1.6,1.7
	c-1,0-1.6-0.6-1.6-1.5v-4.7c0.5,0,0.6,0,0.7,0c0.1,0,0.2-0.1,0.2-0.2c0-0.1-0.1-0.2-0.2-0.2c-0.1,0-0.2,0.1-1.1,0.1h-0.7
	c-0.9,0-1-0.1-1.1-0.1c-0.1,0-0.2,0.1-0.2,0.2c0,0.1,0.1,0.2,0.2,0.2c0.1,0,0.2,0,0.7,0v4.5C101.6,116.3,102.5,117.2,104,117.2
	 M109.8,111.1l3.9,5.8c0.1,0.1,0.2,0.2,0.2,0.2c0.1,0,0.1-0.1,0.1-0.3v-6.4c0.5,0,0.6,0,0.7,0c0.1,0,0.2-0.1,0.2-0.2
	c0-0.1-0.1-0.2-0.2-0.2c-0.1,0-0.2,0-0.9,0.1c-0.7,0-0.8-0.1-0.9-0.1c-0.1,0-0.2,0.1-0.2,0.2c0,0.1,0.1,0.2,0.2,0.2
	c0.1,0,0.2,0,0.7,0v4l-2.6-3.9c-0.2-0.3-0.3-0.4-0.4-0.4c-0.1,0-0.4,0-1.1,0c-0.7,0-0.8-0.1-0.9-0.1c-0.1,0-0.2,0.1-0.2,0.2
	c0,0.1,0.1,0.2,0.2,0.2c0.1,0,0.2,0,0.7,0v6.2c-0.5,0-0.6,0-0.7,0c-0.1,0-0.2,0.1-0.2,0.2c0,0.1,0.1,0.2,0.2,0.2
	c0.1,0,0.2,0,0.9-0.1c0.7,0,0.8,0.1,0.9,0.1c0.1,0,0.2-0.1,0.2-0.2c0-0.1-0.1-0.2-0.2-0.2c-0.1,0-0.2,0-0.7,0V111.1z M121.7,112
	c0.1,0,0.2-0.1,0.2-0.2c0-0.1-0.1-0.9-0.1-1.3v-0.3c0-0.1-0.1-0.2-0.2-0.2c-0.1,0-0.4,0-0.6,0l-1.6,0h-0.9l-1.6,0
	c-0.2,0-0.5,0-0.6,0c-0.1,0-0.2,0.1-0.2,0.2v0.3c0,0.4-0.1,1.2-0.1,1.3c0,0.1,0.1,0.2,0.2,0.2c0.1,0,0.2-0.1,0.2-0.2
	c0-0.9,0.3-1.4,1.1-1.4h0.8v6.1c-0.5,0-0.6,0-0.7,0c-0.1,0-0.2,0.1-0.2,0.2c0,0.1,0.1,0.2,0.2,0.2c0.1,0,0.2-0.1,1.1-0.1h0.7
	c0.9,0,1,0.1,1.1,0.1c0.1,0,0.2-0.1,0.2-0.2c0-0.1-0.1-0.2-0.2-0.2c-0.1,0-0.2,0-0.7,0v-6.1h0.8c0.8,0,1.1,0.5,1.1,1.4
	C121.5,112,121.6,112,121.7,112 M128.5,116.3c0-0.3,0.1-0.6,0.1-1.2c0-0.7-0.5-1.6-1.4-1.8c0.7-0.2,1.3-0.8,1.3-1.5
	c0-0.9-0.7-1.6-2.3-1.6c-0.4,0-0.7,0-1.1,0h-0.5c-0.9,0-1-0.1-1.1-0.1c-0.1,0-0.2,0.1-0.2,0.2c0,0.1,0.1,0.2,0.2,0.2
	c0.1,0,0.2,0,0.7,0v6.2c-0.5,0-0.6,0-0.7,0c-0.1,0-0.2,0.1-0.2,0.2c0,0.1,0.1,0.2,0.2,0.2c0.1,0,0.2-0.1,1.1-0.1h0.7
	c0.9,0,1,0.1,1.1,0.1c0.1,0,0.2-0.1,0.2-0.2c0-0.1-0.1-0.2-0.2-0.2c-0.1,0-0.2,0-0.7,0v-3h0.3c1,0,1.3,0.6,1.3,1.5
	c0,1.4,0.6,2,1.4,2c0.5,0,0.9-0.3,0.9-0.7c0-0.1-0.1-0.2-0.2-0.2c-0.1,0-0.2,0.1-0.2,0.2c0,0.2-0.1,0.3-0.3,0.3
	C128.6,116.8,128.5,116.6,128.5,116.3 M126.9,111.8c0,1.1-0.4,1.4-1.2,1.4h-0.3v-2.7h0.4C126.6,110.5,126.9,110.9,126.9,111.8
	 M132,113.8v2.8c-0.5,0-0.6,0-0.7,0c-0.1,0-0.2,0.1-0.2,0.2c0,0.1,0.1,0.2,0.2,0.2c0.1,0,0.2-0.1,1.1-0.1h0.7c0.9,0,1,0.1,1.1,0.1
	c0.1,0,0.2-0.1,0.2-0.2c0-0.1-0.1-0.2-0.2-0.2c-0.1,0-0.2,0-0.7,0v-3.1l1.4-2.6c0.2-0.3,0.4-0.5,0.6-0.5c0.2,0,0.2,0,0.3,0
	c0.1,0,0.2-0.1,0.2-0.2c0-0.1-0.1-0.2-0.2-0.2c-0.1,0-0.1,0.1-0.9,0.1h-0.1c-0.7,0-0.8-0.1-0.9-0.1c-0.1,0-0.2,0.1-0.2,0.2
	c0,0.1,0.1,0.2,0.2,0.2c0.1,0,0.2,0,0.4,0c0.1,0,0.2,0.1,0.1,0.4l-1.2,2.3l-1.4-2.7c0.5,0,0.6,0,0.7,0c0.1,0,0.2-0.1,0.2-0.2
	c0-0.1-0.1-0.2-0.2-0.2c-0.1,0-0.2,0.1-1.1,0.1h-0.7c-0.9,0-1-0.1-1.1-0.1c-0.1,0-0.2,0.1-0.2,0.2c0,0.1,0.1,0.2,0.2,0.2
	c0.1,0,0.2,0,0.7,0L132,113.8z M139.3,113.5c0,2.2,1.5,3.6,3.1,3.6c0.8,0,1.2-0.3,1.6-0.6c0.2,0.1,0.3,0.2,0.3,0.4
	c0,0.1,0,0.2,0.1,0.2c0.2,0,0.2-0.1,0.2-0.2v-2.2c0-0.1,0-0.2-0.2-0.2c-0.1,0-0.2,0.1-0.2,0.2c0,1.2-0.8,2-1.8,2
	c-1.2,0-1.6-0.8-1.6-3.2c0-2.4,0.4-3.2,1.6-3.2c1,0,1.8,0.9,1.8,2c0,0.1,0,0.2,0.2,0.2c0.1,0,0.2-0.1,0.2-0.2v-2.2
	c0-0.1,0-0.2-0.2-0.2c-0.1,0-0.1,0.1-0.1,0.2c0,0.1-0.1,0.4-0.3,0.4c-0.4-0.4-0.8-0.6-1.6-0.6C140.8,110,139.3,111.4,139.3,113.5
	 M148.4,116.6v-6.1c0.5,0,0.6,0,0.7,0c0.1,0,0.2-0.1,0.2-0.2c0-0.1-0.1-0.2-0.2-0.2c-0.1,0-0.2,0.1-1.1,0.1h-0.7
	c-0.9,0-1-0.1-1.1-0.1c-0.1,0-0.2,0.1-0.2,0.2c0,0.1,0.1,0.2,0.2,0.2c0.1,0,0.2,0,0.7,0v6.2c-0.5,0-0.6,0-0.7,0
	c-0.1,0-0.2,0.1-0.2,0.2c0,0.1,0.1,0.2,0.2,0.2c0.1,0,0.2-0.1,1.1-0.1h0.3l3,0c0.2,0,0.5,0,0.6,0c0.1,0,0.2-0.1,0.2-0.2v-0.3
	c0-0.4,0.1-1.2,0.1-1.3c0-0.1-0.1-0.2-0.2-0.2c-0.1,0-0.2,0.1-0.2,0.2c0,0.9-0.3,1.4-1.1,1.4H148.4z M155.8,117.2
	c1.7,0,2.5-0.9,2.5-2.2v-4.5c0.5,0,0.6,0,0.7,0c0.1,0,0.2-0.1,0.2-0.2c0-0.1-0.1-0.2-0.2-0.2c-0.1,0-0.2,0-0.9,0.1
	c-0.7,0-0.8-0.1-0.9-0.1c-0.1,0-0.2,0.1-0.2,0.2c0,0.1,0.1,0.2,0.2,0.2c0.1,0,0.2,0,0.7,0v4.5c0,0.9-0.4,1.7-1.6,1.7
	c-1,0-1.6-0.6-1.6-1.5v-4.7c0.5,0,0.6,0,0.7,0c0.1,0,0.2-0.1,0.2-0.2c0-0.1-0.1-0.2-0.2-0.2c-0.1,0-0.2,0.1-1.1,0.1h-0.7
	c-0.9,0-1-0.1-1.1-0.1c-0.1,0-0.2,0.1-0.2,0.2c0,0.1,0.1,0.2,0.2,0.2c0.1,0,0.2,0,0.7,0v4.5C153.3,116.3,154.3,117.2,155.8,117.2
	 M160.7,117c0.1,0,0.2-0.1,1.1-0.1h0.5c0.5,0,0.9,0,1.5,0c1.5,0,2.3-0.7,2.3-1.9c0-0.9-0.7-1.7-1.7-1.8c0.6-0.2,1.2-0.8,1.2-1.5
	c0-0.9-0.7-1.6-2.3-1.6c-0.4,0-0.7,0-1.1,0h-0.5c-0.9,0-1-0.1-1.1-0.1c-0.1,0-0.2,0.1-0.2,0.2c0,0.1,0.1,0.2,0.2,0.2
	c0.1,0,0.2,0,0.7,0v6.2c-0.5,0-0.6,0-0.7,0c-0.1,0-0.2,0.1-0.2,0.2C160.5,116.9,160.6,117,160.7,117 M164.2,111.8
	c0,1.1-0.4,1.4-1.2,1.4h-0.3v-2.7h0.4C163.9,110.5,164.2,110.9,164.2,111.8 M164.7,115.1c0,1.1-0.3,1.5-1.1,1.5h-0.8v-3h0.7
	C164.3,113.6,164.7,114.2,164.7,115.1"/>
</svg>
