<?xml version="1.0" encoding="UTF-8"?><svg id="Layer_1" xmlns="http://www.w3.org/2000/svg" viewBox="0 0 992.73 124.72"><defs><style>.cls-1{fill:none;stroke:#fff;stroke-miterlimit:10;stroke-width:1.5px;}.cls-2{fill:#fff;stroke-width:0px;}</style></defs><polygon class="cls-2" points="667.54 72.95 665.96 83.01 665.21 83.01 663.09 72.95 655.49 46.95 640.23 46.95 632.57 72.95 630.45 83.01 629.69 83.01 628.12 72.95 622.58 46.95 611.08 46.95 621.89 92.8 637.15 92.8 644.13 69.87 647.35 56.67 648.1 56.67 651.32 69.87 658.16 92.8 673.42 92.8 684.3 46.95 673.08 46.95 667.54 72.95"/><path class="cls-2" d="m720.23,59.68c-2.05-1.23-4.61-1.85-7.66-1.85s-5.35.53-7.29,1.57c-1.94,1.05-3.43,2.42-4.48,4.11-1.05,1.69-1.76,3.51-2.12,5.47h-.55v-22.04h-10.27v45.85h10.27v-17.18c0-1.92.27-3.5.82-4.76.55-1.25,1.48-2.2,2.81-2.84,1.32-.64,3.12-.96,5.41-.96,3.24,0,5.53.58,6.88,1.74,1.35,1.16,2.02,3.18,2.02,6.06v17.93h10.27v-21.01c0-2.65-.5-5.02-1.51-7.12-1-2.1-2.53-3.76-4.59-5Z"/><path class="cls-2" d="m758.79,59.68c-2.49-1.23-5.65-1.85-9.48-1.85s-6.99.61-9.75,1.81c-2.76,1.21-4.89,2.9-6.4,5.06-1.51,2.17-2.26,4.67-2.26,7.49v.21h10.33v-.27c0-1.96.57-3.33,1.71-4.11,1.14-.78,3.01-1.16,5.61-1.16,2.74,0,4.66.39,5.78,1.16,1.12.78,1.68,2.28,1.68,4.52v1.3l-14.71,1.5c-2.46.27-4.52.79-6.16,1.54-1.64.75-2.87,1.75-3.7,2.98-.82,1.23-1.23,2.72-1.23,4.45,0,2.83,1.05,5.06,3.15,6.71,2.1,1.64,5,2.46,8.69,2.46s6.92-.76,9.27-2.29c2.35-1.53,3.91-3.62,4.69-6.26h.55v7.87h9.58v-20.12c0-3.01-.61-5.62-1.81-7.84-1.21-2.21-3.06-3.93-5.54-5.17Zm-7.7,25.87c-1.6.46-3.63.68-6.09.68-1.51,0-2.62-.21-3.35-.62-.73-.41-1.1-1.07-1.1-1.98,0-.82.28-1.43.86-1.81.57-.39,1.47-.63,2.7-.72l11.89-1.36c-.08,1.47-.5,2.67-1.25,3.58-.84,1.03-2.06,1.77-3.66,2.22Z"/><rect class="cls-2" x="771.35" y="46.95" width="10.27" height="45.85"/><path class="cls-2" d="m814.84,59.75c-2.81-1.28-6.08-1.92-9.82-1.92s-7.11.73-9.96,2.19c-2.85,1.46-5.08,3.52-6.67,6.19-1.6,2.67-2.4,5.83-2.4,9.48,0,4.02.8,7.35,2.4,9.99,1.6,2.65,3.85,4.61,6.77,5.89,2.92,1.28,6.27,1.92,10.06,1.92s6.83-.54,9.55-1.61c2.71-1.07,4.82-2.57,6.33-4.48,1.51-1.92,2.26-4.11,2.26-6.57v-.75h-10.26v.68c0,1.46-.62,2.58-1.85,3.35-1.23.78-3.35,1.16-6.36,1.16-3.51,0-5.95-.67-7.32-2.02-1.23-1.2-1.9-3.04-2.03-5.51h27.89c.09-.59.16-1.14.21-1.64.05-.5.07-1.05.07-1.64,0-3.56-.78-6.58-2.33-9.07-1.55-2.49-3.73-4.37-6.54-5.65Zm-10.03,6.09c3.19,0,5.5.57,6.91,1.71,1.26,1.02,1.95,2.62,2.09,4.79h-18.2c.25-1.95.89-3.45,1.94-4.48,1.37-1.35,3.79-2.02,7.25-2.02Z"/><path class="cls-2" d="m861.07,60.02c-2.37-1.46-5.27-2.19-8.69-2.19-4.06,0-7.17.91-9.34,2.74-2.17,1.83-3.55,4.17-4.14,7.05h-.55v-20.67h-10.27v45.85h9.51v-9.51h.62c.64,3.38,2.09,5.92,4.35,7.63,2.26,1.71,5.37,2.57,9.34,2.57,3.56,0,6.57-.73,9.03-2.19,2.46-1.46,4.32-3.52,5.58-6.19,1.25-2.67,1.88-5.8,1.88-9.41s-.63-6.81-1.88-9.48c-1.26-2.67-3.07-4.73-5.44-6.19Zm-4.11,20.6c-.68,1.23-1.73,2.12-3.15,2.67s-3.24.82-5.47.82-4.03-.27-5.51-.82c-1.48-.55-2.6-1.43-3.35-2.63-.75-1.21-1.13-2.79-1.13-4.76v-.55c0-2.97.84-5.06,2.53-6.3,1.69-1.23,4.2-1.85,7.53-1.85,2.19,0,3.99.27,5.41.82,1.41.55,2.46,1.43,3.15,2.63.68,1.21,1.03,2.89,1.03,5.03s-.34,3.7-1.03,4.93Z"/><path class="cls-2" d="m899.9,59.68c-2.49-1.23-5.65-1.85-9.48-1.85s-6.99.61-9.75,1.81c-2.76,1.21-4.89,2.9-6.4,5.06-1.51,2.17-2.26,4.67-2.26,7.49v.21h10.33v-.27c0-1.96.57-3.33,1.71-4.11,1.14-.78,3.01-1.16,5.61-1.16,2.74,0,4.66.39,5.78,1.16,1.12.78,1.68,2.28,1.68,4.52v1.3l-14.71,1.5c-2.46.27-4.52.79-6.16,1.54-1.64.75-2.87,1.75-3.7,2.98-.82,1.23-1.23,2.72-1.23,4.45,0,2.83,1.05,5.06,3.15,6.71,2.1,1.64,5,2.46,8.69,2.46s6.92-.76,9.27-2.29c2.35-1.53,3.91-3.62,4.69-6.26h.55v7.87h9.58v-20.12c0-3.01-.61-5.62-1.81-7.84-1.21-2.21-3.06-3.93-5.54-5.17Zm-7.7,25.87c-1.6.46-3.63.68-6.09.68-1.51,0-2.62-.21-3.35-.62-.73-.41-1.1-1.07-1.1-1.98,0-.82.28-1.43.86-1.81.57-.39,1.47-.63,2.7-.72l11.89-1.36c-.08,1.47-.5,2.67-1.25,3.58-.84,1.03-2.06,1.77-3.66,2.22Z"/><path class="cls-2" d="m940.45,59.68c-2.78-1.23-6.02-1.85-9.72-1.85-3.88,0-7.28.73-10.2,2.19-2.92,1.46-5.17,3.52-6.74,6.19-1.57,2.67-2.36,5.83-2.36,9.48s.79,6.74,2.36,9.41c1.57,2.67,3.82,4.73,6.74,6.19,2.92,1.46,6.32,2.19,10.2,2.19s6.93-.62,9.72-1.85c2.78-1.23,4.95-2.95,6.5-5.17,1.55-2.21,2.33-4.8,2.33-7.77v-.96h-10.2v.55c0,2.19-.75,3.73-2.26,4.62-1.51.89-3.6,1.33-6.3,1.33-3.06,0-5.3-.65-6.74-1.95-1.44-1.3-2.16-3.5-2.16-6.6s.72-5.43,2.16-6.71c1.44-1.28,3.68-1.92,6.74-1.92,2.69,0,4.79.44,6.3,1.33s2.26,2.43,2.26,4.62v.55h10.2v-.96c0-2.97-.78-5.55-2.33-7.77-1.55-2.21-3.72-3.93-6.5-5.17Z"/><polygon class="cls-2" points="992.73 58.51 980.55 58.51 971.79 71.24 963.99 71.24 963.99 46.95 953.72 46.95 953.72 92.8 963.99 92.8 963.99 80.41 971.86 80.41 980.41 92.8 992.53 92.8 980.21 75.08 992.73 58.51"/><path class="cls-2" d="m631.04,117.91v-2.9h13.05v9.37h-4.04l.8-4.06h-.41c-1.04,2.15-3.52,4.4-8.49,4.4-6.84,0-10.95-4.12-10.95-9.4s4.12-9.4,11.73-9.4,10.98,3.42,11.88,7.59h-4.61c-.78-2.15-3-3.88-7.28-3.88-4.71,0-7.2,2.49-7.2,5.7s2.49,5.83,7.25,5.83c3.91,0,6.03-1.53,6.89-3.24h-8.62Z"/><path class="cls-2" d="m659.99,115.33c0-5.28,4.12-9.4,12.04-9.4s12.04,4.12,12.04,9.4-4.12,9.4-12.04,9.4-12.04-4.12-12.04-9.4Zm19.47,0c0-3.16-2.49-5.64-7.43-5.64s-7.43,2.49-7.43,5.64,2.49,5.64,7.43,5.64,7.43-2.49,7.43-5.64Z"/><path class="cls-2" d="m700.39,124.39v-18.12h4.61v14.29h12.35v3.83h-16.96Z"/><path class="cls-2" d="m750.75,109.97h-12.87v4.74h11.06v3.5h-11.06v6.19h-4.61v-18.12h17.48v3.7Z"/><path class="cls-2" d="m784.85,115.33c0-5.31,4.09-9.4,11.86-9.4,7.35,0,11.16,3.39,11.88,7.59h-4.61c-.47-1.89-2.59-3.83-7.28-3.83s-7.25,2.49-7.25,5.64,2.49,5.64,7.25,5.64,6.81-1.94,7.28-3.83h4.61c-.7,4.27-4.48,7.59-11.88,7.59-7.77,0-11.86-4.09-11.86-9.4Z"/><path class="cls-2" d="m823.88,115.33c0-5.28,4.12-9.4,12.04-9.4s12.04,4.12,12.04,9.4-4.12,9.4-12.04,9.4-12.04-4.12-12.04-9.4Zm19.47,0c0-3.16-2.49-5.64-7.43-5.64s-7.43,2.49-7.43,5.64,2.49,5.64,7.43,5.64,7.43-2.49,7.43-5.64Z"/><path class="cls-2" d="m864.01,115.82v-9.55h4.61v9.22c0,3.31,1.89,5.23,5.72,5.23s5.72-1.92,5.72-5.23v-9.22h4.61v9.55c0,5.49-3.42,8.91-10.33,8.91s-10.33-3.42-10.33-8.91Z"/><path class="cls-2" d="m921.78,124.39h-5.49l-1.97-4.66c-.54-1.24-1.29-1.63-3.06-1.63h-5.18v6.29h-4.61v-18.12h11.99c4.97,0,7.38,2.41,7.38,5.7,0,2.95-2.05,5.15-4.66,5.36v.44c1.86.08,2.85.72,3.86,2.9l1.74,3.73Zm-8.75-9.19c2.15,0,3.21-1.09,3.21-2.67s-1.06-2.64-3.21-2.64h-7.17v5.31h7.17Z"/><path class="cls-2" d="m936.85,117.86v-.34h4.69v.23c0,1.99,1.48,3.47,6.09,3.47,5,0,6.06-1.06,6.06-2.3,0-4.69-16.7.7-16.7-7.51,0-3,2.49-5.49,10.62-5.49s10.64,2.93,10.64,6.6v.21h-4.69v-.21c0-1.63-1.48-3.11-5.96-3.11-4.87,0-5.93,1.06-5.93,2.2,0,4.17,16.7-1.09,16.7,7.3,0,3.21-2.61,5.8-10.74,5.8s-10.77-2.93-10.77-6.86Z"/><path class="cls-2" d="m992.73,109.89h-13.39v3.68h11.57v3.24h-11.57v3.96h13.39v3.62h-17.99v-18.12h17.99v3.62Z"/><path class="cls-2" d="m587.77,83.58c-3.5-4.41-9.19-8.38-16.93-11.79-9.73-4.29-21.91-7.27-35.23-8.61-.03,0-.07,0-.1,0-.27,0-.52.11-.71.3-.21.22-.32.52-.28.82.36,2.94,1.1,6.35,2.2,10.13.11.36.42.64.81.7,11.8,1.82,20.95,5.3,25.77,9.78.19.18.43.28.68.28h22.99c.39,0,.73-.21.9-.57.17-.35.13-.73-.11-1.03Z"/><path class="cls-2" d="m446.71,93.39c0,8.03,7.36,15.7,20.71,21.6,13.79,6.08,32.15,9.43,51.71,9.43s37.93-3.35,51.71-9.43c10.27-4.53,17.04-10.13,19.59-16.2.13-.31.1-.65-.09-.93-.19-.28-.49-.45-.83-.45h-24.07c-.3,0-.58.14-.78.38-6.21,7.51-24.5,12.56-45.53,12.56-26.81,0-47.82-8.04-47.82-18.29,0-7.64,11.78-14.32,30-17.03.38-.06.69-.32.8-.67,1.06-3.3,1.83-6.59,2.36-10.05v-.07c.06-.3-.04-.61-.25-.83-.19-.2-.45-.31-.72-.31-.03,0-.06,0-.1,0-13.62,1.3-26.07,4.31-35.99,8.69-13.36,5.89-20.71,13.56-20.71,21.6Z"/><path class="cls-2" d="m577.57,9.89c-.05-1.07-.56-2-1.29-2.38-.46-.24-.95-.21-1.43.1-.11.07-.23.15-.35.23-2.28,1.49-6.51,4.26-23.58,2.64-14.87-1.41-24.37,2.77-27.98,6.77-.37.41-.89.62-1.43.58-.54-.04-1.02-.32-1.33-.78-3.33-4.98-13.34-11.56-24.23-9.89-12.41,1.91-18.54-2.29-22.9-6.65-.33-.33-.73-.5-1.14-.5-.15,0-.31.02-.46.07-.6.19-1.03.73-1.15,1.44-1.44,8.64,2.16,29.36,22.23,34.61,18.55,4.86,16.84,15.99,15.03,27.77l-.13.87c-1.46,9.53-4.46,16.34-7.16,21.98-.58,1.21-.64,2.57-.17,3.84.46,1.25,1.36,2.24,2.55,2.77l.13.07c7.99,4.71,20.9,5.5,31.41,1.93l1.29-.4c2.8-1.12,4.04-3.75,3.02-6.42-2.74-7.15-7.84-20.47-7.14-30.22,1.07-14.97,2.59-15.35,21.2-19.99,19.28-4.81,25.54-18.32,25.04-28.43Z"/><path class="cls-2" d="m474.37,92.06c0,7.23,17.88,14.98,44.51,14.98s44.51-7.75,44.51-14.98c0-5.26-9.52-10.57-23.69-13.19-.35-.06-.7.06-.94.33-.23.27-.3.63-.19.97.99,2.85,1.97,5.42,2.69,7.3,1.62,4.24-.38,8.57-4.76,10.28l-.1.04-1.31.41c-4.52,1.54-9.63,2.36-14.77,2.36-7.28,0-14.03-1.6-19.01-4.52-1.86-.86-3.3-2.43-4.03-4.42-.74-2.03-.64-4.22.28-6.16.68-1.41,1.57-3.3,2.43-5.37.14-.34.09-.71-.14-1-.19-.24-.48-.38-.77-.38-.06,0-.12,0-.18.02-14.67,2.58-24.53,7.94-24.53,13.34Z"/><line class="cls-1" x1="372.97" y1="124.72" x2="372.97" y2="0"/><path class="cls-2" d="m164,63.83v2.4c0,1.2-.23,2.34-.68,3.41-.45,1.07-1.08,2.03-1.88,2.86-.8.84-1.74,1.5-2.81,1.99-1.07.49-2.23.74-3.46.74-1.05,0-2.13-.14-3.22-.44-1.09-.29-2.07-.8-2.94-1.53s-1.59-1.66-2.15-2.81c-.56-1.14-.84-2.61-.84-4.39v-21.36c0-1.27.22-2.45.65-3.54.44-1.09,1.05-2.03,1.85-2.83s1.75-1.43,2.86-1.88c1.11-.45,2.33-.68,3.68-.68,2.62,0,4.74.85,6.38,2.56.8.84,1.43,1.83,1.88,2.97.45,1.14.68,2.39.68,3.73v2.18h-5.56v-1.85c0-1.09-.31-2.03-.93-2.83-.62-.8-1.45-1.2-2.51-1.2-1.38,0-2.3.43-2.75,1.28-.45.85-.68,1.93-.68,3.24v19.84c0,1.13.25,2.07.74,2.83.49.76,1.37,1.14,2.64,1.14.36,0,.75-.06,1.17-.19.42-.13.81-.34,1.17-.63.33-.29.6-.69.82-1.2.22-.51.33-1.14.33-1.91v-1.91h5.56Z"/><path class="cls-2" d="m168.68,74.89v-38.8h5.56v38.8h-5.56Z"/><path class="cls-2" d="m184.38,74.89v-33.57h-6.43v-5.23h18.42v5.23h-6.43v33.57h-5.56Z"/><path class="cls-2" d="m205.57,74.89v-16.4l-7.63-22.4h5.89l4.47,15.42h.11l4.47-15.42h5.89l-7.63,22.4v16.4h-5.56Z"/><path class="cls-2" d="m233.04,45.24c0-1.56.27-2.94.82-4.14.55-1.2,1.27-2.2,2.18-3,.87-.76,1.86-1.34,2.97-1.74,1.11-.4,2.23-.6,3.35-.6s2.24.2,3.35.6c1.11.4,2.12.98,3.02,1.74.87.8,1.58,1.8,2.13,3,.55,1.2.82,2.58.82,4.14v20.49c0,1.63-.27,3.03-.82,4.2-.55,1.16-1.25,2.13-2.13,2.89-.91.8-1.92,1.4-3.02,1.8-1.11.4-2.23.6-3.35.6s-2.24-.2-3.35-.6c-1.11-.4-2.1-1-2.97-1.8-.91-.76-1.64-1.72-2.18-2.89-.54-1.16-.82-2.56-.82-4.2v-20.49Zm5.56,20.49c0,1.34.37,2.33,1.12,2.97.74.64,1.63.95,2.64.95s1.9-.32,2.64-.95c.74-.63,1.12-1.62,1.12-2.97v-20.49c0-1.34-.37-2.33-1.12-2.97-.75-.64-1.63-.95-2.64-.95s-1.9.32-2.64.95c-.75.64-1.12,1.63-1.12,2.97v20.49Z"/><path class="cls-2" d="m257.68,74.89v-38.8h16.57v5.23h-11.01v11.77h9.59v5.23h-9.59v16.57h-5.56Z"/><path class="cls-2" d="m164,113.25v2.4c0,1.2-.23,2.34-.68,3.41-.46,1.07-1.08,2.03-1.88,2.86-.8.84-1.74,1.5-2.81,1.99-1.07.49-2.23.74-3.46.74-1.05,0-2.13-.14-3.22-.44-1.09-.29-2.07-.8-2.94-1.53s-1.59-1.66-2.15-2.81c-.56-1.14-.85-2.61-.85-4.39v-21.36c0-1.27.22-2.45.65-3.54.44-1.09,1.05-2.03,1.85-2.83s1.75-1.43,2.86-1.88c1.11-.45,2.33-.68,3.68-.68,2.62,0,4.74.85,6.38,2.56.8.84,1.42,1.83,1.88,2.97.45,1.14.68,2.39.68,3.73v2.18h-5.56v-1.85c0-1.09-.31-2.03-.93-2.83-.62-.8-1.45-1.2-2.51-1.2-1.38,0-2.3.43-2.75,1.28-.45.85-.68,1.93-.68,3.24v19.84c0,1.13.25,2.07.74,2.83.49.76,1.37,1.14,2.64,1.14.36,0,.75-.06,1.17-.19.42-.13.81-.34,1.17-.63.33-.29.6-.69.82-1.2.22-.51.33-1.14.33-1.91v-1.91h5.56Z"/><path class="cls-2" d="m167.1,124.32l8.67-38.8h4.63l8.67,38.8h-5.56l-1.64-8.34h-7.58l-1.64,8.34h-5.56Zm13.73-13.57l-2.73-14.06h-.11l-2.73,14.06h5.56Z"/><path class="cls-2" d="m192.66,124.32v-38.8h5.34l8.39,23.38h.11v-23.38h5.56v38.8h-5.23l-8.5-23.33h-.11v23.33h-5.56Z"/><path class="cls-2" d="m217.95,124.32v-38.8h5.34l8.39,23.38h.11v-23.38h5.56v38.8h-5.23l-8.5-23.33h-.11v23.33h-5.56Z"/><path class="cls-2" d="m243.62,124.32v-38.8h5.56v38.8h-5.56Z"/><path class="cls-2" d="m255.45,124.32v-38.8h5.34l8.39,23.38h.11v-23.38h5.56v38.8h-5.23l-8.5-23.33h-.11v23.33h-5.56Z"/><path class="cls-2" d="m280.62,94.67c0-1.56.27-2.94.82-4.14.55-1.2,1.27-2.2,2.18-3,.87-.76,1.86-1.34,2.97-1.74,1.11-.4,2.23-.6,3.35-.6s2.24.2,3.35.6c1.11.4,2.12.98,3.02,1.74.87.8,1.58,1.8,2.13,3,.55,1.2.82,2.58.82,4.14v1.96h-5.56v-1.96c0-1.34-.37-2.33-1.12-2.97-.75-.64-1.63-.95-2.64-.95s-1.9.32-2.64.95c-.75.64-1.12,1.63-1.12,2.97v20.49c0,1.34.37,2.33,1.12,2.97.74.64,1.63.95,2.64.95s1.9-.32,2.64-.95c.74-.63,1.12-1.62,1.12-2.97v-7.3h-4.41v-4.91h9.97v12.21c0,1.63-.27,3.03-.82,4.2-.55,1.16-1.25,2.13-2.13,2.89-.91.8-1.92,1.4-3.02,1.8s-2.23.6-3.35.6-2.24-.2-3.35-.6-2.1-1-2.97-1.8c-.91-.76-1.64-1.72-2.18-2.89-.55-1.16-.82-2.56-.82-4.2v-20.49Z"/><path class="cls-2" d="m55.21.4C26.28,3.62,3.34,26.68.34,55.68L55.21.4Z"/><path class="cls-2" d="m87.46,39.36c2.64,2.93,4.79,6.31,6.3,10.03h29.25c-3.08-14.72-11.37-27.53-22.85-36.41l-12.7,26.38Z"/><path class="cls-2" d="m76.92,92.88v29.66c23.13-5.63,41.2-24.2,46.09-47.61h-29.25c-3.19,7.87-9.23,14.28-16.84,17.95Z"/><path class="cls-2" d="m.29,68.07c2.98,31.56,29.54,56.25,61.87,56.25,1.51,0,3.01-.07,4.5-.17L.29,68.07Z"/><path class="cls-2" d="m62.75,2.52c10.86.11,21.38,3.14,30.6,8.81l-11.44,23.76-3.64,7.57c-2.95-1.91-6.4-3.41-9.84-4.24-2.37-.57-4.75-.86-7.1-.86-5.73,0-11.06,1.7-15.86,5.05-2.87,2-5.37,2.9-8.13,2.9-3.64,0-7.77-1.67-12.32-4.96L62.75,2.52M62.16,0c-.16,0-.31.01-.47.01L21.21,40.79c6.61,5.4,11.86,7.24,16.12,7.24,3.94,0,7.03-1.57,9.58-3.35,5.01-3.5,10.06-4.6,14.42-4.6,2.42,0,4.63.34,6.51.79,4.22,1.02,8.35,3.09,11.4,5.6l4.95-10.29,12.4-25.77C86.73,3.84,74.9,0,62.16,0h0Z"/><path class="cls-2" d="m61.37,46.79c5.2,0,9.86,2.13,12.83,4.33l-3.89,8.08-.25.52v58.35L3.71,62l14.67-14.78c3.62,2.87,10.52,7.55,18.71,7.55,4.74,0,9.34-1.53,13.67-4.56,3.24-2.26,6.81-3.41,10.6-3.41m-43.15-2.98L0,62.16l72.54,61.29s.03,0,.05,0v-63.16l4.74-9.86c-3.16-2.91-9.17-6.16-15.96-6.16-3.89,0-8.03,1.06-12.05,3.87-4.26,2.98-8.4,4.11-12.23,4.11-8.23,0-15.07-5.19-18.88-8.43h0Z"/></svg>