<?xml version="1.0" encoding="UTF-8"?>
<svg width="208px" height="103px" viewBox="0 0 208 103" version="1.1" xmlns="http://www.w3.org/2000/svg" xmlns:xlink="http://www.w3.org/1999/xlink">
    <title>YMGCR Main - Colour</title>
    <g id="Symbols" stroke="none" stroke-width="1" fill="none" fill-rule="evenodd">
        <g id="Header-nav" transform="translate(-25.000000, 0.000000)">
            <g id="YMGCR-Main---Colour" transform="translate(25.000000, 0.000000)">
                <path d="M207.342239,0.169075472 L0.603100629,0.169075472 L0.603100629,97.8487044 L2.30551572,98.2315535 C14.7108616,101.021623 27.8300818,102.376818 42.4126792,102.378113 L42.4159182,102.378113 C63.0172138,102.378113 83.8899371,99.6301509 104.077937,96.9722327 C124.123421,94.3324528 144.854277,91.6032767 165.170541,91.6032767 C179.562038,91.6032767 192.487566,92.9513459 204.677843,95.7239245 L207.342239,96.3315597 L207.342239,0.169075472" id="Fill-1" fill="#002344"></path>
                <path d="M205.162396,91.3797862 L205.162396,68.1477799 L2.7829434,68.1477799 L2.7829434,93.8841761 C70.2414654,109.05627 137.703874,76.0340818 205.162396,91.3797862" id="Fill-2" fill="#AD8F60"></path>
                <path d="M205.162396,93.5984969 L205.162396,92.4693836 C137.703874,77.1230314 70.2414654,110.14522 2.7829434,94.9750692 L2.7829434,96.1041824 C70.2414654,111.275629 137.703874,78.2534403 205.162396,93.5984969" id="Fill-3" fill="#FFFFFE"></path>
                <path d="M191.752962,37.8068302 C191.861145,37.8068302 191.861145,37.7407547 191.838472,37.6539497 L189.768107,31.7764717 C189.659277,31.4486855 189.553038,31.4486855 189.444208,31.7764717 L187.528667,37.6539497 C187.483321,37.7621321 187.528667,37.8068302 187.594742,37.8068302 L191.752962,37.8068302 Z M189.488258,29.0965283 C189.748025,28.3800629 189.837421,28.2485597 189.966981,28.2485597 C190.097189,28.2485597 190.184642,28.3573899 190.445057,29.0311006 C190.771547,29.8596352 194.190629,38.850434 195.518616,42.1606855 C196.300509,44.0976038 196.935352,44.4467673 197.390107,44.5769748 C197.718541,44.6883962 198.046327,44.708478 198.262044,44.708478 C198.392899,44.708478 198.479057,44.7298553 198.479057,44.8386855 C198.479057,44.9688931 198.284069,45.0135912 198.046327,45.0135912 C197.718541,45.0135912 196.128843,45.0135912 194.629189,44.9688931 C194.212654,44.9468679 193.972969,44.9468679 193.972969,44.8166604 C193.972969,44.7298553 194.037101,44.6883962 194.125849,44.6650755 C194.253465,44.621673 194.386264,44.4260377 194.253465,44.0768742 L192.231686,38.7202264 C192.185692,38.6334214 192.142937,38.5900189 192.035403,38.5900189 L187.353761,38.5900189 C187.247522,38.5900189 187.179503,38.6560943 187.136101,38.7649245 L185.829491,42.6167358 C185.633208,43.1621824 185.525673,43.6843082 185.525673,44.0768742 C185.525673,44.5134906 185.982371,44.708478 186.349673,44.708478 L186.569277,44.708478 C186.722805,44.708478 186.788233,44.7499371 186.788233,44.8386855 C186.788233,44.9688931 186.655434,45.0135912 186.461094,45.0135912 C185.940912,45.0135912 185.002899,44.9468679 184.763862,44.9468679 C184.526767,44.9468679 183.324453,45.0135912 182.303522,45.0135912 C182.018491,45.0135912 181.888283,44.9688931 181.888283,44.8386855 C181.888283,44.7499371 181.975736,44.708478 182.084566,44.708478 C182.236151,44.708478 182.541264,44.6883962 182.717465,44.6650755 C183.718314,44.5342201 184.151692,43.7063333 184.545553,42.6167358 L189.488258,29.0965283 Z M178.794396,39.4613082 C178.794396,37.6973522 178.686214,37.4583145 177.814277,37.2186289 C177.641962,37.1745786 177.271421,37.1538491 177.075786,37.1538491 C176.987686,37.1538491 176.902176,37.1097987 176.902176,37.0223459 C176.902176,36.8927862 177.008415,36.8480881 177.250044,36.8480881 C178.230811,36.8480881 179.600906,36.9148113 179.70844,36.9148113 C179.819862,36.9148113 181.18866,36.8480881 181.841642,36.8480881 C182.084566,36.8480881 182.192101,36.8927862 182.192101,37.0223459 C182.192101,37.1097987 182.104648,37.1538491 182.017195,37.1538491 C181.864314,37.1538491 181.731516,37.1745786 181.474987,37.2186289 C180.884195,37.3281069 180.711881,37.6973522 180.667182,38.4598113 C180.623132,39.1574906 180.623132,39.8091761 180.623132,40.7245157 L180.623132,43.1621824 C180.623132,44.1423019 180.601755,44.1876478 180.340044,44.3392327 C178.947925,45.0777233 176.987686,45.3174088 175.725126,45.3174088 C174.069352,45.3174088 170.978057,45.1003962 168.561767,42.9885723 C167.231836,41.834195 165.971868,39.5066541 165.971868,36.7826604 C165.971868,33.2994465 167.671044,30.8384591 169.606667,29.6186541 C171.568201,28.4001447 173.721484,28.2485597 175.399283,28.2485597 C176.771969,28.2485597 178.315025,28.531 178.728969,28.6184528 C179.185667,28.7279308 179.950069,28.8121447 180.492925,28.8374088 C180.711881,28.8574906 180.75334,28.9455912 180.75334,29.0311006 C180.75334,29.3362138 180.601755,29.9464403 180.601755,32.1236918 C180.601755,32.4715597 180.557704,32.5810377 180.406767,32.5810377 C180.300528,32.5810377 180.273969,32.4508302 180.253887,32.2545472 C180.231862,31.9500818 180.123031,31.3392075 179.797189,30.816434 C179.251742,29.9917862 177.490377,29.0537736 174.680226,29.0537736 C173.308836,29.0537736 171.67444,29.1839811 170.022553,30.4905912 C168.757403,31.4927358 167.864088,33.4737044 167.864088,36.0208491 C167.864088,39.0907673 169.411031,41.3120692 170.174786,42.0518553 C171.893396,43.7290063 173.87566,44.3813396 175.879302,44.3813396 C176.660547,44.3813396 177.792899,44.2511321 178.358428,43.9239937 C178.643459,43.7724088 178.794396,43.5320755 178.794396,43.1621824 L178.794396,39.4613082 Z M150.054805,42.0518553 C150.095616,43.8391321 150.314572,44.4020692 150.902774,44.5769748 C151.316717,44.6883962 151.796088,44.708478 151.991723,44.708478 C152.101201,44.708478 152.164686,44.7499371 152.164686,44.8386855 C152.164686,44.9688931 152.03383,45.0135912 151.773415,45.0135912 C150.530937,45.0135912 149.660296,44.9468679 149.465956,44.9468679 C149.269025,44.9468679 148.355629,45.0135912 147.374214,45.0135912 C147.156553,45.0135912 147.026994,44.9909182 147.026994,44.8386855 C147.026994,44.7499371 147.091126,44.708478 147.201899,44.708478 C147.374214,44.708478 147.766132,44.6883962 148.092623,44.5769748 C148.638069,44.4260377 148.745604,43.794434 148.745604,41.8141132 L148.768277,29.3362138 C148.768277,28.4882453 148.836296,28.2485597 149.007314,28.2485597 C149.18222,28.2485597 149.551465,28.7279308 149.769126,28.9455912 C150.095616,29.3148365 153.343679,32.8194277 156.694094,36.4114717 C158.850616,38.7202264 161.223503,41.3768491 161.919239,42.0939623 L161.680201,31.0353899 C161.658824,29.6186541 161.507887,29.142522 160.832233,28.9669686 C160.439019,28.8788679 159.93827,28.8574906 159.763365,28.8574906 C159.611132,28.8574906 159.589755,28.7927107 159.589755,28.7052579 C159.589755,28.5750503 159.763365,28.5530252 160.026371,28.5530252 C161.005843,28.5530252 162.050742,28.6184528 162.28978,28.6184528 C162.52817,28.6184528 163.249818,28.5530252 164.140541,28.5530252 C164.378931,28.5530252 164.531811,28.5750503 164.531811,28.7052579 C164.531811,28.7927107 164.445006,28.8574906 164.292774,28.8574906 C164.186535,28.8574906 164.031063,28.8574906 163.771296,28.9216226 C163.051591,29.0757987 162.965434,29.554522 162.965434,30.8604843 L162.921384,43.6201761 C162.921384,45.0576415 162.877333,45.1671195 162.726396,45.1671195 C162.551491,45.1671195 162.28978,44.9254906 161.134755,43.7724088 C160.897013,43.5553962 157.761667,40.353327 155.454208,37.8709623 C152.925849,35.1495597 150.467453,32.4074277 149.769126,31.6216478 L150.054805,42.0518553 Z M138.054333,44.4908176 C140.01522,44.4908176 144.063314,43.3578176 144.063314,37.0223459 C144.063314,31.7959057 140.885862,28.9883459 137.44605,28.9883459 C133.809956,28.9883459 131.089201,31.3839057 131.089201,36.1510566 C131.089201,41.2233208 134.135799,44.4908176 138.054333,44.4908176 L138.054333,44.4908176 Z M137.597635,28.2485597 C142.496937,28.2485597 146.155704,31.3392075 146.155704,36.4114717 C146.155704,41.2906918 142.713302,45.3174088 137.467428,45.3174088 C131.501849,45.3174088 129.021428,40.6811132 129.021428,36.7619308 C129.021428,33.2340189 131.587358,28.2485597 137.597635,28.2485597 L137.597635,28.2485597 Z M121.918962,42.0084528 L122.004472,42.0084528 C122.593321,40.0061069 124.59761,33.6913648 125.360069,30.9051824 C125.575138,30.0999686 125.599107,29.7942075 125.599107,29.5104717 C125.599107,29.1198491 125.360069,28.8574906 124.356629,28.8574906 C124.248447,28.8574906 124.163585,28.7927107 124.163585,28.7052579 C124.163585,28.5964277 124.269824,28.5530252 124.531535,28.5530252 C125.641214,28.5530252 126.555906,28.6184528 126.753484,28.6184528 C126.903774,28.6184528 127.841786,28.5530252 128.516145,28.5530252 C128.71178,28.5530252 128.819314,28.5964277 128.819314,28.6845283 C128.819314,28.7927107 128.754535,28.8574906 128.625623,28.8574906 C128.538818,28.8574906 128.123579,28.8788679 127.884541,28.9669686 C127.234151,29.2053585 126.883692,30.1200503 126.469101,31.318478 C125.511006,34.0839308 123.31173,41.006956 122.465057,43.4472138 C121.898881,45.0576415 121.79005,45.3174088 121.550365,45.3174088 C121.331409,45.3174088 121.199906,45.0349686 120.894145,44.1876478 L116.629038,32.0802893 L116.586283,32.0802893 C115.802447,34.1700881 112.816742,42.1393082 112.036145,44.164327 C111.686981,45.0777233 111.578151,45.3174088 111.315792,45.3174088 C111.099428,45.3174088 110.98995,45.0777233 110.553333,43.5968553 L106.680145,30.6868742 C106.330981,29.5337925 106.047893,29.2053585 105.481069,28.9883459 C105.198629,28.8788679 104.654478,28.8574906 104.502245,28.8574906 C104.392767,28.8574906 104.305962,28.8374088 104.305962,28.7052579 C104.305962,28.5964277 104.436818,28.5530252 104.654478,28.5530252 C105.786182,28.5530252 106.982019,28.6184528 107.222352,28.6184528 C107.420579,28.6184528 108.37673,28.5530252 109.464384,28.5530252 C109.770145,28.5530252 109.856302,28.6184528 109.856302,28.7052579 C109.856302,28.8374088 109.748767,28.8574906 109.638642,28.8574906 C109.464384,28.8574906 109.052384,28.8574906 108.790025,28.9883459 C108.660465,29.0537736 108.508233,29.2280314 108.508233,29.5104717 C108.508233,29.7942075 108.70322,30.5560189 108.922176,31.5134654 C109.246075,32.9049371 111.512075,40.8981258 111.837918,42.0518553 L111.882616,42.0518553 L116.497535,29.6426226 C116.824673,28.7473648 116.911478,28.6417736 117.042981,28.6417736 C117.19327,28.6417736 117.323478,28.9216226 117.586484,29.6627044 L121.918962,42.0084528 Z M99.993566,37.8068302 C100.103044,37.8068302 100.103044,37.7407547 100.080371,37.6539497 L98.0125975,31.7764717 C97.9031195,31.4486855 97.7949371,31.4486855 97.6854591,31.7764717 L95.7699182,37.6539497 C95.7252201,37.7621321 95.7699182,37.8068302 95.8346981,37.8068302 L99.993566,37.8068302 Z M97.7288616,29.0965283 C97.9886289,28.3800629 98.0773774,28.2485597 98.2075849,28.2485597 C98.3390881,28.2485597 98.4258931,28.3573899 98.686956,29.0311006 C99.0127987,29.8596352 102.430585,38.850434 103.75922,42.1606855 C104.543057,44.0976038 105.175956,44.4467673 105.632006,44.5769748 C105.959145,44.6883962 106.285635,44.708478 106.503296,44.708478 C106.634799,44.708478 106.720956,44.7298553 106.720956,44.8386855 C106.720956,44.9688931 106.525969,45.0135912 106.285635,45.0135912 C105.959145,45.0135912 104.370094,45.0135912 102.867849,44.9688931 C102.454553,44.9468679 102.213572,44.9468679 102.213572,44.8166604 C102.213572,44.7298553 102.279,44.6883962 102.365805,44.6650755 C102.497308,44.621673 102.627516,44.4260377 102.497308,44.0768742 L100.472937,38.7202264 C100.428239,38.6334214 100.385484,38.5900189 100.277302,38.5900189 L95.5956604,38.5900189 C95.487478,38.5900189 95.4220503,38.6560943 95.3767044,38.7649245 L94.0713899,42.6167358 C93.8751069,43.1621824 93.7669245,43.6843082 93.7669245,44.0768742 C93.7669245,44.5134906 94.2229748,44.708478 94.5941635,44.708478 L94.8111761,44.708478 C94.9634088,44.708478 95.0288365,44.7499371 95.0288365,44.8386855 C95.0288365,44.9688931 94.8999245,45.0135912 94.7023459,45.0135912 C94.1795723,45.0135912 93.2447987,44.9468679 93.0038176,44.9468679 C92.7654277,44.9468679 91.567,45.0135912 90.543478,45.0135912 C90.2603899,45.0135912 90.1308302,44.9688931 90.1308302,44.8386855 C90.1308302,44.7499371 90.218283,44.708478 90.327761,44.708478 C90.4774025,44.708478 90.7838113,44.6883962 90.9580692,44.6650755 C91.959566,44.5342201 92.394239,43.7063333 92.7861572,42.6167358 L97.7288616,29.0965283 Z M76.7596164,36.7619308 C76.7596164,36.8701132 76.8030189,36.957566 76.9118491,37.0223459 C77.2389874,37.2186289 78.2404843,37.3715094 79.1979308,37.3715094 C79.7200566,37.3715094 80.3309308,37.3067296 80.8303836,36.957566 C81.5941384,36.4334969 82.1590189,35.2596855 82.1590189,33.6039119 C82.1590189,30.8825094 80.7215535,29.2507044 78.392717,29.2507044 C77.7410314,29.2507044 77.1521824,29.3148365 76.934522,29.3802642 C76.825044,29.4243145 76.7596164,29.5104717 76.7596164,29.6426226 L76.7596164,36.7619308 Z M75.0189811,34.8664717 C75.0189811,31.4687673 75.0189811,30.8604843 74.9755786,30.1641006 C74.9302327,29.4243145 74.7566226,29.0757987 74.0395094,28.9216226 C73.8646038,28.8788679 73.4934151,28.8574906 73.2964843,28.8574906 C73.2122704,28.8574906 73.1241698,28.8121447 73.1241698,28.7279308 C73.1241698,28.5964277 73.233,28.5530252 73.4726855,28.5530252 C74.4521572,28.5530252 75.8235472,28.6184528 75.9330252,28.6184528 C76.1727107,28.6184528 77.8258931,28.5530252 78.502195,28.5530252 C79.8735849,28.5530252 81.3317799,28.6845283 82.4855094,29.5104717 C83.0303082,29.9023899 83.9890503,30.9706101 83.9890503,32.4715597 C83.9890503,34.0839308 83.314044,35.6937107 81.3525094,37.5010692 C83.1384906,39.7871509 84.6206541,41.724717 85.882566,43.0753774 C87.0583208,44.3165597 87.9950377,44.5555975 88.5391887,44.6430503 C88.9511887,44.708478 89.2563019,44.708478 89.387805,44.708478 C89.497283,44.708478 89.5834403,44.7739057 89.5834403,44.8386855 C89.5834403,44.9688931 89.4545283,45.0135912 89.0626101,45.0135912 L87.5156667,45.0135912 C86.2965094,45.0135912 85.7523585,44.9041132 85.1861824,44.6002956 C84.2494654,44.0976038 83.4870063,43.0332704 82.2477673,41.3988742 C81.3317799,40.2010943 80.3082579,38.7422516 79.8735849,38.1760755 C79.7861321,38.0892704 79.7200566,38.0478113 79.5911447,38.0478113 L76.9118491,38.0031132 C76.8030189,38.0031132 76.7596164,38.0678931 76.7596164,38.1760755 L76.7596164,38.6994969 C76.7596164,40.7892956 76.7596164,42.5104969 76.8697421,43.4238931 C76.934522,44.0554969 77.0647296,44.5342201 77.7183585,44.621673 C78.0234717,44.6650755 78.502195,44.708478 78.6971824,44.708478 C78.8280377,44.708478 78.8720881,44.7739057 78.8720881,44.8386855 C78.8720881,44.9468679 78.7639057,45.0135912 78.5242201,45.0135912 C77.3264403,45.0135912 75.9544025,44.9468679 75.8455723,44.9468679 C75.8235472,44.9468679 74.4521572,45.0135912 73.7978805,45.0135912 C73.5588428,45.0135912 73.4506604,44.9688931 73.4506604,44.8386855 C73.4506604,44.7739057 73.4934151,44.708478 73.6249182,44.708478 C73.8205535,44.708478 74.0822642,44.6650755 74.279195,44.621673 C74.7132201,44.5342201 74.8214025,44.0554969 74.9095031,43.4238931 C75.0189811,42.5104969 75.0189811,40.7892956 75.0189811,38.6994969 L75.0189811,34.8664717 Z M59.4718113,36.7619308 C59.4718113,36.8701132 59.5139182,36.957566 59.6221006,37.0223459 C59.9511824,37.2186289 60.9507358,37.3715094 61.9107736,37.3715094 C62.4322516,37.3715094 63.0398868,37.3067296 63.5419308,36.957566 C64.3043899,36.4334969 64.870566,35.2596855 64.870566,33.6039119 C64.870566,30.8825094 63.4331006,29.2507044 61.1042642,29.2507044 C60.4519308,29.2507044 59.8637296,29.3148365 59.6473648,29.3802642 C59.5365912,29.4243145 59.4718113,29.5104717 59.4718113,29.6426226 L59.4718113,36.7619308 Z M57.7292327,34.8664717 C57.7292327,31.4687673 57.7292327,30.8604843 57.6858302,30.1641006 C57.6411321,29.4243145 57.4668742,29.0757987 56.749761,28.9216226 C56.5742075,28.8788679 56.2049623,28.8574906 56.0099748,28.8574906 C55.9212264,28.8574906 55.835717,28.8121447 55.835717,28.7279308 C55.835717,28.5964277 55.945195,28.5530252 56.1829371,28.5530252 C57.1637044,28.5530252 58.5350943,28.6184528 58.6426289,28.6184528 C58.8823145,28.6184528 60.5367925,28.5530252 61.2137421,28.5530252 C62.5838365,28.5530252 64.0426792,28.6845283 65.1977044,29.5104717 C65.7405597,29.9023899 66.6993019,30.9706101 66.6993019,32.4715597 C66.6993019,34.0839308 66.023,35.6937107 64.0640566,37.5010692 C65.8500377,39.7871509 67.3309057,41.724717 68.5928176,43.0753774 C69.7698679,44.3165597 70.7046415,44.5555975 71.2494403,44.6430503 C71.6646792,44.708478 71.9678491,44.708478 72.0987044,44.708478 C72.2075346,44.708478 72.2949874,44.7739057 72.2949874,44.8386855 C72.2949874,44.9688931 72.1647799,45.0135912 71.7728616,45.0135912 L70.2272138,45.0135912 C69.0080566,45.0135912 68.4639057,44.9041132 67.8970818,44.6002956 C66.9610126,44.0976038 66.1972579,43.0332704 64.9580189,41.3988742 C64.0426792,40.2010943 63.019805,38.7422516 62.5838365,38.1760755 C62.4963836,38.0892704 62.4322516,38.0478113 62.3026918,38.0478113 L59.6221006,38.0031132 C59.5139182,38.0031132 59.4718113,38.0678931 59.4718113,38.1760755 L59.4718113,38.6994969 C59.4718113,40.7892956 59.4718113,42.5104969 59.5793459,43.4238931 C59.6473648,44.0554969 59.7762767,44.5342201 60.4279623,44.621673 C60.7337233,44.6650755 61.2137421,44.708478 61.4080818,44.708478 C61.5395849,44.708478 61.5816918,44.7739057 61.5816918,44.8386855 C61.5816918,44.9468679 61.4728616,45.0135912 61.2344717,45.0135912 C60.0366918,45.0135912 58.6665975,44.9468679 58.5571195,44.9468679 C58.5350943,44.9468679 57.1637044,45.0135912 56.5094277,45.0135912 C56.2703899,45.0135912 56.1609119,44.9688931 56.1609119,44.8386855 C56.1609119,44.7739057 56.2049623,44.708478 56.3358176,44.708478 C56.5321006,44.708478 56.7905723,44.6650755 56.9894465,44.621673 C57.4241195,44.5342201 57.5329497,44.0554969 57.6197547,43.4238931 C57.7292327,42.5104969 57.7292327,40.7892956 57.7292327,38.6994969 L57.7292327,34.8664717 Z M48.3218994,37.8068302 C48.4313774,37.8068302 48.4313774,37.7407547 48.4093522,37.6539497 L46.3409308,31.7764717 C46.2321006,31.4486855 46.1239182,31.4486855 46.0144403,31.7764717 L44.0976038,37.6539497 C44.0542013,37.7621321 44.0976038,37.8068302 44.1636792,37.8068302 L48.3218994,37.8068302 Z M46.057195,29.0965283 C46.3182579,28.3800629 46.4050629,28.2485597 46.536566,28.2485597 C46.6667736,28.2485597 46.7542264,28.3573899 47.0146415,29.0311006 C47.3424277,29.8596352 50.7602138,38.850434 52.0882013,42.1606855 C52.8726855,44.0976038 53.5023459,44.4467673 53.9596918,44.5769748 C54.287478,44.6883962 54.6146164,44.708478 54.8335723,44.708478 C54.9611887,44.708478 55.0492893,44.7298553 55.0492893,44.8386855 C55.0492893,44.9688931 54.8543019,45.0135912 54.6146164,45.0135912 C54.287478,45.0135912 52.6977799,45.0135912 51.1961824,44.9688931 C50.7815912,44.9468679 50.5419057,44.9468679 50.5419057,44.8166604 C50.5419057,44.7298553 50.6073333,44.6883962 50.6947862,44.6650755 C50.8249937,44.621673 50.9552013,44.4260377 50.8249937,44.0768742 L48.7999748,38.7202264 C48.7572201,38.6334214 48.7144654,38.5900189 48.6049874,38.5900189 L43.9239937,38.5900189 C43.8151635,38.5900189 43.7484403,38.6560943 43.7056855,38.7649245 L42.4003711,42.6167358 C42.2034403,43.1621824 42.0939623,43.6843082 42.0939623,44.0768742 C42.0939623,44.5134906 42.5513082,44.708478 42.9212013,44.708478 L43.1388616,44.708478 C43.2923899,44.708478 43.3578176,44.7499371 43.3578176,44.8386855 C43.3578176,44.9688931 43.2269623,45.0135912 43.0293836,45.0135912 C42.5072579,45.0135912 41.5718365,44.9468679 41.3327987,44.9468679 C41.0944088,44.9468679 39.8966289,45.0135912 38.8724591,45.0135912 C38.5906667,45.0135912 38.4578679,44.9688931 38.4578679,44.8386855 C38.4578679,44.7499371 38.544673,44.708478 38.6547987,44.708478 C38.8076792,44.708478 39.1108491,44.6883962 39.2864025,44.6650755 C40.2878994,44.5342201 40.7225723,43.7063333 41.1151384,42.6167358 L46.057195,29.0965283 Z M50.1927421,16.3407233 C48.5564025,19.4002767 45.5778239,21.4693459 40.9266289,22.9132893 C39.2747421,23.4276415 37.5580755,23.8480629 35.1819497,24.2892138 C37.5924088,15.7453962 40.9642013,10.8907925 45.4800063,9.49219497 C47.9746792,8.71613208 50.177195,9.62045912 50.8256415,11.7102579 C51.2752138,13.1587358 51.0990126,14.7309434 50.1927421,16.3407233 L50.1927421,16.3407233 Z M33.1906164,29.3064151 C33.1906164,29.3064151 33.0332013,29.9833648 32.7993459,31.0172516 C32.5331006,32.0608553 32.6037107,31.8166352 32.4709119,32.3368176 C32.1638553,30.9926352 31.7285346,29.355 31.3009874,27.9725975 C31.2161258,27.7024654 31.1539371,27.5003522 30.993283,27.1064906 C31.3210692,26.966566 31.4907925,26.9160377 31.7252956,26.8415409 C32.1625597,26.7048553 32.5441132,26.6238805 33.9355849,26.3394969 C33.8241635,26.8195157 33.9420629,26.0058805 33.1906164,29.3064151 L33.1906164,29.3064151 Z M51.8310252,10.0674403 C51.1197421,7.7774717 48.9619245,6.89452201 46.2314528,7.74184277 C42.928327,8.76730818 40.3701698,11.0035094 38.2492767,14.7659245 C36.9174025,17.1355723 35.8316918,19.8394843 34.4538239,24.4427421 C33.3331321,24.6422642 32.6820943,24.8074528 32.0420692,25.0069748 C31.537434,25.1624465 31.1429245,25.3237484 30.4445975,25.5763899 C27.501,18.4706855 22.7811384,15.649522 16.882283,17.4814969 C10.9516855,19.3244843 7.86945912,25.2304654 9.74289308,31.2647107 C11.4161572,36.6556918 16.2053333,39.346 21.3721761,37.7802704 L21.2795409,37.475805 C16.6749874,37.7601887 12.044522,34.3929308 10.5908616,29.7080503 C9.08278616,24.8540943 11.4530818,20.3486541 16.2403145,18.8645472 C19.4086981,17.8785975 22.9035723,18.9001761 25.3613208,21.4622201 C26.574,22.750044 27.4154906,24.1525283 28.5109182,26.7301195 C24.9888365,29.7838428 23.5889434,33.7289371 24.7627547,37.5043082 C25.3794591,39.4911069 26.8395975,40.6266981 28.2207044,40.1978553 C28.3237044,40.1674088 28.5135094,40.0689434 28.7162704,40.0074025 C26.9063208,39.0544906 26.0453962,38.0646541 25.4682075,36.2132453 C24.4744843,33.0092327 25.8141321,29.8233585 29.0103711,27.9784277 L29.1256792,28.3515597 L29.5033459,29.5648868 C29.9412579,30.980327 30.301434,32.0155094 30.301434,32.0155094 C30.4873522,32.6140755 30.7438805,33.6103899 30.9518239,34.5367421 L30.9518239,45.1742453 C30.9518239,45.6082704 30.9518239,46.7451572 30.8708491,47.882044 C30.816434,48.6665283 30.5722138,49.2644465 30.0306541,49.3700377 C29.7857862,49.4257484 29.4605912,49.4814591 29.2183145,49.4814591 C29.0550692,49.4814591 29.0019497,49.5617862 29.0019497,49.642761 C29.0019497,49.8060063 29.1366918,49.8591258 29.4346792,49.8591258 C30.2476667,49.8591258 31.952673,49.7787987 32.0887107,49.7787987 C32.2241006,49.7787987 33.9304025,49.8591258 35.4196918,49.8591258 C35.7176792,49.8591258 35.8530692,49.7787987 35.8530692,49.642761 C35.8530692,49.5617862 35.7980063,49.4814591 35.6354088,49.4814591 C35.3918365,49.4814591 34.797805,49.4257484 34.4168994,49.3700377 C33.6065031,49.2644465 33.3603396,48.6665283 33.3059245,47.882044 C33.2262453,46.7451572 33.2262453,45.6082704 33.2262453,45.1742453 L33.2262453,32.0887107 C33.2489182,31.9980189 33.2715912,31.8989057 33.2968553,31.7861887 C33.6032642,30.5080818 33.874044,29.2429308 34.2866918,27.5981698 C34.495283,26.7204025 34.5069434,26.7547358 34.6617673,26.1879119 C34.9092264,26.1483962 35.0776541,26.0972201 35.1223522,26.1205409 C38.2492767,25.4805157 38.0478113,25.544 39.8001069,24.9998491 C43.6765346,23.7968868 46.6512264,21.9500126 48.9755283,19.1955723 C51.5142516,16.1884906 52.6271698,12.6294843 51.8310252,10.0674403 L51.8310252,10.0674403 Z" id="Fill-4" fill="#FFFFFE"></path>
                <path d="M33.9712138,81.279956 C33.9712138,81.8059686 32.4890503,82.2594277 31.4596981,82.2594277 C29.2481132,82.2594277 28.0924403,80.8284403 28.0924403,77.787673 C28.0924403,74.8110377 29.2364528,73.2278176 31.4849623,73.2278176 C32.6153711,73.2278176 33.8202767,73.7810377 33.8202767,73.9935157 C33.8202767,74.0317358 33.8086164,74.0822642 33.7574403,74.1820252 L33.3434969,75.0125031 C33.3072201,75.0876478 33.2553962,75.1375283 33.2061635,75.1375283 C33.1290755,75.1375283 32.4275094,74.5843082 31.5724151,74.5843082 C30.2910692,74.5843082 29.876478,75.7788491 29.876478,77.6995723 C29.876478,79.6591635 30.2036164,80.9029371 31.5594591,80.9029371 C32.0258742,80.9029371 32.3504214,80.7513522 32.464434,80.7014717 L32.464434,78.8798616 L31.5218868,78.8798616 C31.308761,78.8798616 31.2582327,78.8435849 31.2582327,78.6168553 L31.2582327,77.787673 C31.2582327,77.5615912 31.308761,77.5240189 31.5218868,77.5240189 L33.7088553,77.5240189 C33.9219811,77.5240189 33.9712138,77.5615912 33.9712138,77.787673 L33.9712138,81.279956" id="Fill-5" fill="#FFFFFE"></path>
                <path d="M43.0157799,77.7507484 C43.0157799,75.7782013 42.6147925,74.5460881 41.6715975,74.5460881 C40.7290503,74.5460881 40.3280629,75.7911572 40.3280629,77.7507484 C40.3280629,79.7096918 40.7290503,80.9398616 41.6715975,80.9398616 C42.6147925,80.9398616 43.0157799,79.7096918 43.0157799,77.7507484 M41.6715975,82.2594277 C39.7243145,82.2594277 38.5440252,80.7889245 38.5440252,77.7507484 C38.5440252,74.6970252 39.7372704,73.2278176 41.6715975,73.2278176 C43.6059245,73.2278176 44.7991698,74.7093333 44.7991698,77.7507484 C44.7991698,80.7889245 43.6182327,82.2594277 41.6715975,82.2594277" id="Fill-6" fill="#FFFFFE"></path>
                <path d="M54.4332327,81.8189245 C54.3820566,82.0210377 54.3457799,82.0469497 54.1572704,82.0469497 L50.0113585,82.0469497 C49.7988805,82.0469497 49.7477044,82.0087296 49.7477044,81.7813522 L49.7477044,73.7052453 C49.7477044,73.4791635 49.7988805,73.442239 50.0113585,73.442239 L51.1786918,73.442239 C51.3931132,73.442239 51.4429937,73.4791635 51.4429937,73.7052453 L51.4429937,80.5382264 L54.4721006,80.5382264 C54.6470063,80.5382264 54.6968868,80.6017107 54.6968868,80.7014717 C54.6968868,80.7403396 54.6845786,80.8141887 54.6716226,80.8653648 L54.4332327,81.8189245" id="Fill-7" fill="#FFFFFE"></path>
                <path d="M60.9772956,81.782 C60.9772956,82.0080818 60.9397233,82.0456541 60.7259497,82.0456541 L59.5450126,82.0456541 C59.3318868,82.0456541 59.2813585,82.0080818 59.2813585,81.782 L59.2813585,73.7052453 C59.2813585,73.4798113 59.3318868,73.4415912 59.5450126,73.4415912 L63.6663082,73.4415912 C63.9163585,73.4415912 63.9785472,73.4668553 63.9785472,73.5795723 C63.9785472,73.6424088 63.9675346,73.667673 63.9409748,73.7564214 L63.7025849,74.5972642 C63.6527044,74.7857736 63.5147233,74.7980818 63.4136667,74.7980818 L60.9772956,74.7980818 L60.9772956,76.8703899 L63.1124403,76.8703899 C63.3391698,76.8703899 63.3754465,76.9086101 63.3754465,77.1346918 L63.3754465,77.9625786 C63.3754465,78.1886604 63.325566,78.2268805 63.1124403,78.2268805 L60.9772956,78.2268805 L60.9772956,81.782" id="Fill-8" fill="#FFFFFE"></path>
                <path d="M82.1797484,81.267 C82.2173208,81.3427925 82.2432327,81.392673 82.2432327,81.4548616 C82.2432327,81.6699308 81.3887862,82.2600755 80.1579686,82.2600755 C77.9586918,82.2600755 76.9034277,80.8277925 76.9034277,77.8122893 C76.9034277,74.9231069 77.9852516,73.2278176 80.1579686,73.2278176 C81.0992201,73.2278176 82.2173208,73.9190189 82.2173208,74.1580566 C82.2173208,74.2072893 82.2173208,74.2578176 82.1544843,74.346566 L81.6900126,75.0487799 C81.6401321,75.1245723 81.5896038,75.1751006 81.5390755,75.1751006 C81.3259497,75.1751006 80.9113585,74.5843082 80.2460692,74.5843082 C79.1648931,74.5843082 78.6874654,75.3260377 78.6874654,77.4864465 C78.6874654,79.6202956 78.9504717,80.9029371 80.2460692,80.9029371 C80.948283,80.9029371 81.4010943,80.4371698 81.6524403,80.4371698 C81.7023208,80.4371698 81.7411887,80.4753899 81.7897736,80.5628428 L82.1797484,81.267" id="Fill-9" fill="#FFFFFE"></path>
                <path d="M91.6000377,81.8189245 C91.5488616,82.0210377 91.5132327,82.0469497 91.3247233,82.0469497 L87.1788113,82.0469497 C86.9650377,82.0469497 86.9145094,82.0087296 86.9145094,81.7813522 L86.9145094,73.7052453 C86.9145094,73.4791635 86.9650377,73.442239 87.1788113,73.442239 L88.3461447,73.442239 C88.5599182,73.442239 88.6104465,73.4791635 88.6104465,73.7052453 L88.6104465,80.5382264 L91.6376101,80.5382264 C91.8144591,80.5382264 91.8643396,80.6017107 91.8643396,80.7014717 C91.8643396,80.7403396 91.8520314,80.8141887 91.8390755,80.8653648 L91.6000377,81.8189245" id="Fill-10" fill="#FFFFFE"></path>
                <path d="M102.365157,79.1325031 C102.365157,81.0026981 101.711528,82.2587799 99.3373459,82.2587799 C96.9625157,82.2587799 96.3101824,81.0026981 96.3101824,79.1325031 L96.3101824,73.7045975 C96.3101824,73.4798113 96.3600629,73.4415912 96.5738365,73.4415912 L97.7418176,73.4415912 C97.9568868,73.4415912 98.0054717,73.4798113 98.0054717,73.7045975 L98.0054717,79.1325031 C98.0054717,80.0361824 98.0683082,80.9029371 99.3373459,80.9029371 C100.605736,80.9029371 100.66922,80.0361824 100.66922,79.1325031 L100.66922,73.7045975 C100.66922,73.4798113 100.718453,73.4415912 100.932226,73.4415912 L102.101503,73.4415912 C102.315277,73.4415912 102.365157,73.4798113 102.365157,73.7045975 L102.365157,79.1325031" id="Fill-11" fill="#FFFFFE"></path>
                <path d="M109.813547,80.7260881 C110.679654,80.7260881 111.408428,80.5764465 111.408428,79.509522 C111.408428,78.4536101 110.679654,78.3143333 109.838164,78.3143333 L109.360088,78.3143333 L109.360088,80.7260881 L109.813547,80.7260881 Z M109.750063,76.9967107 C110.491145,76.9967107 111.118862,76.8082013 111.118862,75.8151258 C111.118862,75.0241635 110.578597,74.7605094 109.888692,74.7605094 L109.360088,74.7605094 L109.360088,76.9967107 L109.750063,76.9967107 Z M109.888692,73.4415912 C111.106553,73.4415912 112.815447,73.6164969 112.815447,75.6395723 C112.815447,76.8950063 112.010881,77.2979371 111.533453,77.5369748 C112.124245,77.7002201 113.104365,78.1646918 113.104365,79.6086352 C113.104365,81.7075031 111.609893,82.0463019 109.989101,82.0463019 L107.927805,82.0463019 C107.715327,82.0463019 107.666094,81.9957736 107.666094,81.782 L107.666094,73.7058931 C107.666094,73.4785157 107.715327,73.4415912 107.927805,73.4415912 L109.888692,73.4415912 L109.888692,73.4415912 Z" id="Fill-12" fill="#FFFFFE"></path>
                <path d="M127.033333,77.1716164 C127.850208,77.1716164 128.540113,77.0465912 128.540113,75.8909182 C128.540113,74.7980818 127.824943,74.7605094 127.171962,74.7605094 L126.706843,74.7605094 L126.706843,77.1716164 L127.033333,77.1716164 Z M126.706843,81.782 C126.706843,82.007434 126.656962,82.0456541 126.444484,82.0456541 L125.275208,82.0456541 C125.060786,82.0456541 125.011553,82.007434 125.011553,81.782 L125.011553,73.7052453 C125.011553,73.4804591 125.060786,73.4415912 125.275208,73.4415912 L127.309943,73.4415912 C128.276459,73.4415912 130.237994,73.5037799 130.237994,75.8656541 C130.237994,77.4864465 129.269535,77.9509182 128.803767,78.189956 L130.676553,81.5429623 C130.713478,81.6057987 130.776962,81.7075031 130.776962,81.782 C130.776962,81.8571447 130.650642,81.8960126 130.524969,81.9322893 L129.469704,82.2348113 C129.419176,82.2464717 129.345975,82.2594277 129.292855,82.2594277 C129.231962,82.2594277 129.130258,82.1084906 129.005881,81.8707484 L127.309943,78.4911824 L126.706843,78.4911824 L126.706843,81.782 L126.706843,81.782 Z" id="Fill-13" fill="#FFFFFE"></path>
                <path d="M139.871409,81.782 C139.871409,82.0080818 139.831893,82.0456541 139.619415,82.0456541 L135.487107,82.0456541 C135.273981,82.0456541 135.221509,82.0080818 135.221509,81.782 L135.221509,73.7052453 C135.221509,73.4798113 135.273981,73.4415912 135.487107,73.4415912 L139.607107,73.4415912 C139.858453,73.4415912 139.920642,73.4668553 139.920642,73.5795723 C139.920642,73.6424088 139.907686,73.667673 139.883717,73.7564214 L139.644679,74.5972642 C139.594799,74.7857736 139.454874,74.7980818 139.356409,74.7980818 L136.918094,74.7980818 L136.918094,76.8703899 L139.053887,76.8703899 C139.280616,76.8703899 139.316893,76.9086101 139.316893,77.1346918 L139.316893,77.9632264 C139.316893,78.1886604 139.267013,78.2268805 139.053887,78.2268805 L136.918094,78.2268805 L136.918094,80.6885157 L139.607107,80.6885157 C139.831893,80.6885157 139.871409,80.7267358 139.871409,80.9534654 L139.871409,81.782" id="Fill-14" fill="#FFFFFE"></path>
                <path d="M148.650377,75.0118553 C148.614101,75.0876478 148.560981,75.1375283 148.510453,75.1375283 C148.436604,75.1375283 147.65795,74.5843082 146.754918,74.5843082 C146.175786,74.5843082 145.572038,74.8116855 145.572038,75.5650755 C145.572038,76.5186352 147.041245,76.6954843 148.147038,77.5104151 C148.789006,77.9891384 149.227566,78.6544277 149.227566,79.609283 C149.227566,81.2041635 148.096509,82.2600755 146.515881,82.2600755 C145.233239,82.2600755 143.891,81.7075031 143.891,81.5060377 C143.891,81.4678176 143.928572,81.379717 143.951893,81.3052201 L144.240164,80.4753899 C144.266723,80.4002453 144.32956,80.349717 144.378145,80.349717 C144.455233,80.349717 145.384176,80.9029371 146.464057,80.9029371 C147.168214,80.9029371 147.595761,80.5252704 147.595761,79.7472642 C147.595761,78.6291635 146.313767,78.5164465 145.033069,77.7371447 C144.36778,77.3361572 143.938937,76.8341132 143.938937,75.7911572 C143.938937,73.9818553 145.245547,73.2278176 146.70439,73.2278176 C147.897635,73.2278176 149.127805,73.7803899 149.127805,73.9941635 C149.127805,74.0323836 149.115497,74.0816164 149.064321,74.182673 L148.650377,75.0118553" id="Fill-15" fill="#FFFFFE"></path>
                <path d="M157.944994,77.7507484 C157.944994,75.7782013 157.542711,74.5460881 156.601459,74.5460881 C155.660208,74.5460881 155.25922,75.7911572 155.25922,77.7507484 C155.25922,79.7096918 155.660208,80.9398616 156.601459,80.9398616 C157.542711,80.9398616 157.944994,79.7096918 157.944994,77.7507484 M156.601459,82.2600755 C154.653528,82.2600755 153.473887,80.7889245 153.473887,77.7507484 C153.473887,74.6970252 154.667132,73.2278176 156.601459,73.2278176 C158.535786,73.2278176 159.728384,74.7093333 159.728384,77.7507484 C159.728384,80.7889245 158.548742,82.2600755 156.601459,82.2600755" id="Fill-16" fill="#FFFFFE"></path>
                <path d="M166.613189,77.1716164 C167.426824,77.1716164 168.119321,77.0465912 168.119321,75.8909182 C168.119321,74.7980818 167.402855,74.7605094 166.749874,74.7605094 L166.28605,74.7605094 L166.28605,77.1716164 L166.613189,77.1716164 Z M166.28605,81.782 C166.28605,82.007434 166.234874,82.0456541 166.022396,82.0456541 L164.853767,82.0456541 C164.640642,82.0456541 164.58817,82.007434 164.58817,81.782 L164.58817,73.7052453 C164.58817,73.4804591 164.640642,73.4415912 164.853767,73.4415912 L166.889151,73.4415912 C167.855667,73.4415912 169.815906,73.5037799 169.815906,75.8656541 C169.815906,77.4864465 168.848742,77.9509182 168.383623,78.189956 L170.254465,81.5429623 C170.29139,81.6057987 170.354874,81.7075031 170.354874,81.782 C170.354874,81.8571447 170.230497,81.8960126 170.104176,81.9322893 L169.047616,82.2348113 C168.998384,82.2464717 168.923887,82.2594277 168.873358,82.2594277 C168.809874,82.2594277 168.710761,82.1084906 168.583792,81.8707484 L166.889151,78.4911824 L166.28605,78.4911824 L166.28605,81.782 L166.28605,81.782 Z" id="Fill-17" fill="#FFFFFE"></path>
                <path d="M177.427541,81.782 C177.427541,82.0080818 177.376365,82.0456541 177.161296,82.0456541 L175.992667,82.0456541 C175.780189,82.0456541 175.730308,82.0080818 175.730308,81.782 L175.730308,74.9483711 L174.086843,74.9483711 C173.909346,74.9483711 173.874365,74.9107987 173.874365,74.7358931 L173.874365,73.6553648 C173.874365,73.4798113 173.909346,73.4415912 174.086843,73.4415912 L179.259516,73.4415912 C179.512157,73.4415912 179.574994,73.4668553 179.574994,73.5795723 C179.574994,73.6424088 179.562038,73.667673 179.537421,73.7564214 L179.272472,74.7482013 C179.222591,74.9483711 179.085258,74.9483711 178.982906,74.9483711 L177.427541,74.9483711 L177.427541,81.782" id="Fill-18" fill="#FFFFFE"></path>
                <path d="M60.0172579,30.4607925 C60.0172579,30.3286415 60.0826855,30.2431321 60.1915157,30.1990818 C60.4078805,30.1336541 60.9973774,30.0688742 61.6490629,30.0688742 C62.1731321,30.0688742 62.6408428,30.1615094 63.0657987,30.3202201 C62.6227044,29.9937296 62.0655975,29.8149371 61.4197421,29.7585786 C60.7738868,29.760522 60.1992893,29.8253019 59.9842201,29.8907296 C59.9699686,29.8946164 59.9641384,29.9095157 59.9505346,29.9159937 L59.9505346,36.6479182 C59.9647862,36.6543962 59.9978239,36.6595786 60.0172579,36.6660566 L60.0172579,30.4607925" id="Fill-19" fill="#AD8F60"></path>
                <path d="M56.6312138,29.3873899 L56.6240881,29.3873899 C56.4725031,29.4022893 56.3811635,29.4405094 56.3811635,29.5461006 C56.3811635,29.6322579 56.466673,29.676956 56.5554214,29.676956 C56.7011761,29.676956 56.9415094,29.6899119 57.1306667,29.7138805 C57.0853208,29.5195409 57.0062893,29.5143585 56.6312138,29.3873899" id="Fill-20" fill="#AD8F60"></path>
                <path d="M84.1050063,34.4862138 C83.8102579,35.4974277 83.1767107,36.5332579 82.0709182,37.6390503 C82.1480063,37.7388113 82.2186164,37.8295031 82.2944088,37.9286164 C83.9404654,36.2799686 84.5344969,34.7842013 84.5344969,33.2897296 C84.5344969,33.053283 84.5034025,32.8304403 84.4612956,32.6147233 C84.4476918,33.2359623 84.3349748,33.8578491 84.1050063,34.4862138" id="Fill-21" fill="#AD8F60"></path>
                <path d="M109.738403,29.3737862 C109.545358,29.3835031 109.305025,29.4113585 109.131415,29.4981635 C109.085421,29.5208365 109.043962,29.5726604 109.001208,29.6193019 C109.014164,29.7307233 109.045258,29.8978553 109.102264,30.1504969 C109.151497,29.982717 109.23895,29.8563962 109.336119,29.8065157 C109.598478,29.6776038 110.010478,29.6776038 110.185384,29.6776038 C110.295509,29.6776038 110.403044,29.654283 110.403044,29.5240755 C110.403044,29.4392138 110.315591,29.3718428 110.010478,29.3718428 C109.918491,29.3718428 109.828447,29.3737862 109.738403,29.3737862" id="Fill-22" fill="#AD8F60"></path>
                <path d="M105.306164,29.4359748 C105.267296,29.4171887 105.187616,29.3996981 105.093686,29.3867421 C104.949874,29.3996981 104.850113,29.4379182 104.850113,29.5234277 C104.850113,29.6529874 104.937566,29.676956 105.047044,29.676956 C105.158465,29.676956 105.477182,29.6892642 105.750553,29.7372013 C105.631358,29.5869119 105.501151,29.5227799 105.306164,29.4359748" id="Fill-23" fill="#AD8F60"></path>
                <path d="M33.771044,32.9094717 C33.7930692,32.8168365 33.8170377,32.7177233 33.8429497,32.6050063 C34.1474151,31.3275472 34.4201384,30.0591572 34.8353774,28.4169874 C35.0413774,27.5392201 35.0530377,27.5735535 35.2091572,27.0067296 C35.4553208,26.9672138 35.6237484,26.9166855 35.6677987,26.9400063 C38.7953711,26.3012767 38.5932579,26.3634654 40.3462013,25.8173711 C44.2206855,24.6150566 47.1953774,22.7701258 49.520327,20.0137421 C51.7889182,17.3292642 52.9063711,14.2088176 52.5552642,11.7471824 C52.5572075,11.7776289 52.5610943,11.8054843 52.5610943,11.8359308 C52.5604465,12.8050377 52.3693459,13.8272642 52.0208302,14.8624465 C51.5336855,16.4819434 50.6157547,18.1649245 49.3136792,19.7053899 C46.9900252,22.4585346 44.0166289,24.3060566 40.1395535,25.5090189 C38.3866101,26.0531698 38.5900189,25.9903333 35.4611509,26.6290629 C35.4196918,26.6076855 35.2538553,26.6562704 35.0174088,26.6957862 C34.9455031,26.9387107 34.9014528,27.092239 34.7518113,27.7141258 C34.3424025,29.348522 34.070327,30.6117296 33.764566,31.8943711 C33.7431887,31.9831195 33.7244025,32.0666855 33.7056164,32.145717 L33.771044,32.9094717" id="Fill-24" fill="#AD8F60"></path>
                <path d="M59.958956,38.8206352 L62.4976792,38.8595031 C62.4102264,38.7383648 62.331195,38.6301824 62.2683585,38.5485597 L59.962195,38.512283 C59.9570126,38.512283 59.9550692,38.5161698 59.9505346,38.5161698 L59.958956,38.8206352" id="Fill-25" fill="#AD8F60"></path>
                <polyline id="Fill-26" fill="#AD8F60" points="98.0190755 33.2437358 97.8584214 32.7909245 96.3827358 37.3261635 96.6884969 37.3261635 98.0190755 33.2437358"></polyline>
                <path d="M32.0647421,27.3507107 C31.9209308,27.394761 31.7913711,27.4381635 31.6488553,27.491283 C31.6851321,27.6059434 31.7220566,27.7173648 31.7570377,27.8281384 C31.7570377,27.8320252 31.7602767,27.8365597 31.7602767,27.8372075 C31.946195,27.7665975 32.0990755,27.7147736 32.2707421,27.6610063 C32.5130189,27.5852138 32.744283,27.5256164 33.1329623,27.4414025 C33.1685912,27.2975912 33.1983899,27.1712704 33.2255975,27.0669748 C32.6419308,27.1900566 32.3627296,27.2593711 32.0647421,27.3507107" id="Fill-27" fill="#AD8F60"></path>
                <polyline id="Fill-28" fill="#AD8F60" points="46.3474088 33.2437358 46.1867547 32.7909245 44.7110692 37.3261635 45.0181258 37.3261635 46.3474088 33.2437358"></polyline>
                <path d="M66.8172013,34.4810314 C66.5211572,35.4928931 65.8895535,36.5313145 64.7798742,37.6390503 C64.8589057,37.7388113 64.9295157,37.8295031 65.0078994,37.9286164 C66.650717,36.2799686 67.2453962,34.7842013 67.2453962,33.2897296 C67.2453962,33.053283 67.2130063,32.8304403 67.1702516,32.6134277 C67.159239,33.2333711 67.0478176,33.8539623 66.8172013,34.4810314" id="Fill-29" fill="#AD8F60"></path>
                <path d="M180.800629,33.0772516 C180.822006,33.2702956 180.844679,33.3992075 180.949623,33.3992075 C181.105094,33.3992075 181.271579,33.2864906 181.271579,32.937327 C181.271579,30.7620189 181.366157,30.1971384 181.366157,29.8913774 C181.366157,29.8317799 181.257327,29.7404403 181.176352,29.7028679 C181.134245,30.1446667 181.083069,30.8365157 181.083069,32.1236918 C181.083069,32.1236918 181.072704,33.2171761 180.800629,33.0772516" id="Fill-30" fill="#AD8F60"></path>
                <path d="M170.362,31.0004088 C169.635818,31.5769497 169.036604,32.4858113 168.653755,33.6311195 C168.458119,34.3398113 168.341516,35.1398428 168.344107,36.0214969 C168.341516,36.4438616 168.37844,36.8409623 168.432855,37.2276981 C168.428969,37.0968428 168.41083,36.9731132 168.41083,36.8396667 C168.41083,34.292522 169.304792,32.3115535 170.568648,31.308761 C172.222478,30.0021509 173.854283,29.8719434 175.224377,29.8719434 C176.688403,29.8719434 177.858327,30.1291195 178.728969,30.4886478 C178.123277,30.1051509 177.156761,29.7372013 175.855333,29.5979245 C175.58261,29.5797862 175.309239,29.564239 175.019673,29.564239 C173.648931,29.564239 172.014535,29.6937987 170.362,31.0004088" id="Fill-31" fill="#AD8F60"></path>
                <polyline id="Fill-32" fill="#AD8F60" points="189.775881 33.2489182 189.617818 32.7941635 188.142132 37.3261635 188.448541 37.3261635 189.775881 33.2489182"></polyline>
                <path d="M177.699616,37.6837484 L177.687956,37.6837484 C177.538314,37.6973522 177.448918,37.7381635 177.448918,37.8398679 C177.448918,37.9286164 177.53378,37.9726667 177.620585,37.9726667 C177.770226,37.9726667 178.018333,37.9849748 178.206843,38.010239 C178.199717,37.997283 178.196478,37.9700755 178.192591,37.9597107 C178.127164,37.8372767 178.115503,37.810717 177.699616,37.6837484" id="Fill-33" fill="#AD8F60"></path>
                <path d="M160.309459,29.676956 C160.438371,29.676956 160.748019,29.6886164 161.05961,29.7300755 C161.057667,29.7261887 161.056371,29.7164717 161.054428,29.7125849 C160.959201,29.5201887 160.95661,29.5143585 160.724698,29.4366226 C160.635302,29.4145975 160.529063,29.3984025 160.420233,29.3835031 C160.256987,29.3971069 160.135201,29.4243145 160.135201,29.5240755 C160.135201,29.6102327 160.157874,29.676956 160.309459,29.676956" id="Fill-34" fill="#AD8F60"></path>
                <path d="M25.7985849,32.737805 C25.6904025,33.1932075 25.627566,33.6589748 25.6269182,34.1351069 C25.6269182,34.4816792 25.6618994,34.8314906 25.7214969,35.1877799 C25.6418176,32.8816164 26.760566,30.7335157 28.8983019,29.2435786 L28.7836415,28.8730377 C27.2768616,29.8946164 26.2624088,31.2381509 25.7985849,32.737805" id="Fill-35" fill="#AD8F60"></path>
                <path d="M77.2221447,38.8206352 L79.7867799,38.8595031 C79.7006226,38.7383648 79.6202956,38.6301824 79.5606981,38.5485597 L77.2512956,38.512283 C77.2474088,38.512283 77.2448176,38.5161698 77.2409308,38.5161698 L77.2221447,38.8206352" id="Fill-36" fill="#AD8F60"></path>
                <path d="M77.3063585,30.4607925 C77.3063585,30.3286415 77.3698428,30.2431321 77.4806164,30.1990818 C77.6969811,30.1336541 78.2858302,30.0688742 78.9375157,30.0688742 C79.4602893,30.0688742 79.9292956,30.1615094 80.3548994,30.3202201 C79.9131006,29.9937296 79.3559937,29.8149371 78.708195,29.7585786 C78.0649308,29.760522 77.4877421,29.8253019 77.2739686,29.8907296 C77.2603648,29.8946164 77.253239,29.9082201 77.2409308,29.9153459 L77.2409308,36.6479182 C77.2545346,36.6543962 77.2875723,36.6595786 77.3063585,36.6660566 L77.3063585,30.4607925" id="Fill-37" fill="#AD8F60"></path>
                <path d="M137.785497,29.4981635 C135.111384,29.4981635 132.943201,30.8041258 131.976686,33.3856038 C131.727283,34.183044 131.578289,35.0938491 131.566629,36.1536478 C131.569868,36.6006289 131.602258,37.0288239 131.651491,37.4434151 C131.645013,37.2853522 131.634648,37.1331195 131.634648,36.9692264 C131.634648,32.2027233 134.354755,29.8065157 137.991497,29.8065157 C138.821327,29.8065157 139.631075,29.9742956 140.389,30.2943082 C139.695855,29.8745346 138.932748,29.6141195 138.141138,29.5156541 C138.023887,29.5098239 137.904044,29.4981635 137.785497,29.4981635" id="Fill-38" fill="#AD8F60"></path>
                <path d="M125.100302,29.445044 C125.083459,29.4301447 125.021918,29.4107107 124.935761,29.3899811 C124.795836,29.4074717 124.707736,29.4431006 124.707736,29.5240755 C124.707736,29.6108805 124.795836,29.6776038 124.904019,29.6776038 C124.979811,29.6776038 125.042648,29.6808428 125.11261,29.6840818 C125.117792,29.6231887 125.119736,29.5681258 125.119736,29.5117673 C125.122327,29.445044 125.131396,29.4813208 125.100302,29.445044" id="Fill-39" fill="#AD8F60"></path>
                <path d="M73.9196667,29.3873899 L73.9138365,29.3873899 C73.7628994,29.4022893 73.6702642,29.4411572 73.6702642,29.5461006 C73.6702642,29.6322579 73.7557736,29.676956 73.8432264,29.676956 C73.9896289,29.676956 74.2351447,29.6899119 74.4191195,29.7138805 C74.375717,29.5195409 74.2947421,29.5143585 73.9196667,29.3873899" id="Fill-40" fill="#AD8F60"></path>
                <path d="M79.2445723,45.5266478 C79.1713711,45.5266478 79.0567107,45.519522 78.9310377,45.509805 C78.9051258,45.513044 78.8941132,45.5214654 78.8630189,45.5214654 C77.6665346,45.5214654 76.2932013,45.4566855 76.1837233,45.4566855 C76.1629937,45.4566855 74.9218113,45.5149874 74.2390314,45.5214654 C74.2163585,45.5214654 74.1891509,45.5266478 74.1703648,45.5266478 C74.0382138,45.5266478 73.9961069,45.5920755 73.9961069,45.6568553 C73.9961069,45.7890063 74.1042893,45.831761 74.3439748,45.831761 C74.996956,45.831761 76.3689937,45.7650377 76.3910189,45.7650377 C76.5004969,45.7650377 77.8725346,45.831761 79.0683711,45.831761 C79.3093522,45.831761 79.4175346,45.7650377 79.4175346,45.6568553 C79.4175346,45.5920755 79.3747799,45.5266478 79.2445723,45.5266478" id="Fill-41" fill="#AD8F60"></path>
                <path d="M129.366704,29.5033459 C129.366704,29.4145975 129.258522,29.3718428 129.061591,29.3718428 C128.984503,29.3718428 128.902881,29.3731384 128.817371,29.374434 C128.650239,29.3854465 128.395654,29.4145975 128.224635,29.4754906 C127.569711,29.7151761 127.223138,30.6298679 126.809195,31.8276478 C125.851101,34.5924528 123.652472,41.5174214 122.801912,43.9544403 C122.236384,45.5661635 122.128849,45.8291698 121.889164,45.8291698 C121.837987,45.8291698 121.792642,45.8084403 121.748591,45.7747547 C121.865843,46.021566 121.967547,46.137522 122.092572,46.137522 C122.334201,46.137522 122.444327,45.8758113 123.005969,44.2647358 C123.857824,41.8251258 126.056453,34.9021006 127.015843,32.136 C127.428491,30.9395157 127.778302,30.0241761 128.429987,29.7857862 C128.669673,29.6983333 129.084264,29.6776038 129.171069,29.6776038 C129.301925,29.6776038 129.366704,29.6108805 129.366704,29.5033459" id="Fill-42" fill="#AD8F60"></path>
                <path d="M146.617585,36.0065975 C146.621472,36.1413396 146.635075,36.2734906 146.635075,36.4101761 C146.632484,37.4699748 146.466,38.4883145 146.166069,39.445761 C145.198258,43.1129497 142.11344,45.8278742 137.806226,45.8278742 C137.381918,45.8278742 136.977692,45.7980755 136.58966,45.7520818 C135.413906,45.6568553 134.374189,45.3893145 133.472453,44.9734277 C134.677358,45.6957233 136.179604,46.137522 138.012874,46.137522 C143.258101,46.137522 146.702447,42.1082138 146.702447,37.2309371 C146.702447,36.8079245 146.665522,36.4024025 146.617585,36.0065975" id="Fill-43" fill="#AD8F60"></path>
                <path d="M116.601182,33.452327 C115.526484,36.3181887 113.073918,42.8628994 112.373,44.6747925 C112.026428,45.5875409 111.916302,45.8278742 111.655887,45.8278742 C111.617667,45.8278742 111.580742,45.8136226 111.547704,45.7941887 C111.662365,46.0669119 111.747874,46.1368742 111.861887,46.1368742 C112.124245,46.1368742 112.232428,45.8971887 112.580296,44.9818491 C113.270201,43.2010503 115.659283,36.8293019 116.757302,33.8941258 L116.601182,33.452327" id="Fill-44" fill="#AD8F60"></path>
                <path d="M152.53717,45.5266478 C152.462025,45.5266478 152.337648,45.5214654 152.197075,45.5111006 C152.165333,45.513044 152.150434,45.5214654 152.113509,45.5214654 C150.872975,45.5214654 150.00039,45.4566855 149.804755,45.4566855 C149.624019,45.4566855 148.822044,45.513044 147.928082,45.5201698 C147.854881,45.5253522 147.792692,45.5266478 147.747346,45.5266478 C147.638516,45.5266478 147.575679,45.5706981 147.575679,45.6568553 C147.575679,45.8090881 147.704591,45.831761 147.920308,45.831761 C148.900428,45.831761 149.815119,45.7650377 150.01205,45.7650377 C150.208333,45.7650377 151.078975,45.831761 152.321453,45.831761 C152.577981,45.831761 152.712075,45.7890063 152.712075,45.6568553 C152.712075,45.5706981 152.646648,45.5266478 152.53717,45.5266478" id="Fill-45" fill="#AD8F60"></path>
                <path d="M100.105635,39.0998365 L95.9338113,39.0998365 C95.8256289,39.0998365 95.7608491,39.1646164 95.7180943,39.2740943 L94.4976415,42.8687296 C94.335044,43.340327 94.2443522,43.7892516 94.246265,44.0749308 C94.251478,44.1150943 94.2372264,44.1008428 94.3020063,44.1513711 C94.3246792,44.167566 94.3622516,44.180522 94.3985283,44.1915346 C94.451,43.9531447 94.5229057,43.6992075 94.6161887,43.4355535 L95.9221509,39.5837421 C95.9662013,39.4742642 96.0316289,39.4081887 96.1411069,39.4081887 L100.222239,39.4081887 L100.105635,39.0998365" id="Fill-46" fill="#AD8F60"></path>
                <path d="M107.048742,45.5266478 C106.980723,45.5266478 106.889384,45.5175786 106.802579,45.513044 C106.747516,45.519522 106.689214,45.5214654 106.62573,45.5214654 C106.298591,45.5214654 104.708245,45.5214654 103.205352,45.4787107 C103.108182,45.4722327 103.019434,45.4683459 102.940403,45.4651069 C102.930038,45.4702893 102.921616,45.4800063 102.912547,45.4825975 C102.825742,45.5046226 102.759019,45.5493208 102.759019,45.6348302 C102.759019,45.7650377 103,45.7650377 103.413296,45.7890063 C104.916189,45.831761 106.504591,45.831761 106.83173,45.831761 C107.071415,45.831761 107.265755,45.7890063 107.265755,45.6568553 C107.265755,45.5493208 107.17895,45.5266478 107.048742,45.5266478" id="Fill-47" fill="#AD8F60"></path>
                <path d="M191.861792,39.0998365 L187.693208,39.0998365 C187.584377,39.0998365 187.51895,39.1646164 187.475547,39.2740943 L186.247321,42.9004717 C186.093145,43.3578176 186.005044,43.7950818 186.005044,44.0749308 C186.010874,44.1150943 185.996623,44.1008428 186.060107,44.1513711 C186.080836,44.167566 186.118409,44.180522 186.155981,44.193478 C186.210396,43.9544403 186.281006,43.6992075 186.373642,43.4355535 L187.680252,39.5837421 C187.725597,39.4742642 187.792321,39.4081887 187.89856,39.4081887 L191.978396,39.4081887 L191.861792,39.0998365" id="Fill-48" fill="#AD8F60"></path>
                <path d="M163.064547,45.6749937 C163.019849,45.6749937 162.965434,45.6555597 162.895472,45.612805 C162.846887,45.6264088 162.794415,45.6438994 162.762025,45.6438994 C163.045113,45.9049623 163.174025,45.9833459 163.271843,45.9833459 C163.423428,45.9833459 163.607403,45.8764591 163.607403,44.4383459 L163.653396,31.6799497 C163.653396,30.3739874 163.597038,29.8939686 164.315447,29.7423836 C164.576509,29.676956 164.730686,29.676956 164.840164,29.676956 C164.992396,29.676956 165.079849,29.6102327 165.079849,29.5227799 C165.079849,29.3938679 164.92373,29.371195 164.687283,29.371195 C164.591409,29.371195 164.51173,29.3750818 164.422981,29.3750818 C164.339415,29.3835031 164.238358,29.3996981 164.108799,29.4320881 C163.801742,29.4975157 163.613233,29.6303145 163.494686,29.857044 C163.460352,30.0805346 163.442862,30.4128553 163.444805,30.8598365 L163.398164,43.6201761 C163.398164,43.6201761 163.451283,45.8362956 163.064547,45.6749937" id="Fill-49" fill="#AD8F60"></path>
                <path d="M187.116667,45.5266478 L186.897711,45.5266478 C186.876981,45.5266478 186.849774,45.519522 186.829044,45.516283 C186.819327,45.5175786 186.814145,45.5214654 186.799893,45.5214654 C186.277767,45.5214654 185.34105,45.4566855 185.101365,45.4566855 C184.872044,45.4566855 183.751352,45.516283 182.75439,45.5214654 C182.714874,45.5234088 182.661755,45.5266478 182.630013,45.5266478 C182.523774,45.5266478 182.435025,45.5706981 182.435025,45.6568553 C182.435025,45.7890063 182.565233,45.831761 182.847673,45.831761 C183.871195,45.831761 185.067679,45.7650377 185.309956,45.7650377 C185.548994,45.7650377 186.483119,45.831761 187.009132,45.831761 C187.202824,45.831761 187.334327,45.7890063 187.334327,45.6568553 C187.334327,45.5706981 187.269547,45.5266478 187.116667,45.5266478" id="Fill-50" fill="#AD8F60"></path>
                <path d="M180.679491,44.8490503 C179.288667,45.5881887 177.327132,45.828522 176.064572,45.828522 C175.629252,45.828522 175.090283,45.8090881 174.494308,45.7494906 C173.352887,45.6652767 171.941333,45.4204088 170.527836,44.788805 C172.635126,45.9749245 174.92639,46.137522 176.27122,46.137522 C177.532484,46.137522 179.493371,45.8971887 180.886786,45.1567547 C181.148497,45.0032264 181.366157,44.9604717 181.366157,43.981 L181.366157,41.5420377 C181.366157,40.6286415 181.366157,39.9750126 181.410208,39.2786289 C181.451667,38.5168176 181.431585,38.1449811 182.018491,38.0361509 C182.278258,37.9946918 182.409761,37.9726667 182.563937,37.9726667 C182.650094,37.9726667 182.737547,37.9292642 182.737547,37.8405157 C182.737547,37.710956 182.626126,37.6662579 182.388384,37.6662579 C182.35405,37.6662579 182.311296,37.6662579 182.275667,37.6682013 C182.152585,37.6733836 182.028208,37.6928176 181.811195,37.7277987 C181.508025,37.7841572 181.317572,37.9156604 181.195138,38.1313774 C181.181535,38.2253082 181.165987,38.3367296 181.14461,38.4889623 C181.10056,39.1672075 181.10056,39.8065849 181.10056,40.7238679 L181.10056,43.1628302 C181.099264,43.6596918 181.107038,43.9155723 181.046145,44.177283 C181.046145,44.177283 181.051327,44.6650755 180.679491,44.8490503" id="Fill-51" fill="#AD8F60"></path>
                <path d="M55.3783711,45.5266478 C55.3097044,45.5266478 55.2170692,45.5175786 55.1302642,45.513044 C55.0758491,45.519522 55.0168994,45.5214654 54.9534151,45.5214654 C54.6269245,45.5214654 53.0378742,45.5214654 51.5356289,45.4787107 C51.4358679,45.4722327 51.3464717,45.4683459 51.2680881,45.4651069 C51.2596667,45.4702893 51.2505975,45.4800063 51.2395849,45.4825975 C51.1547233,45.5046226 51.0886478,45.5493208 51.0886478,45.6348302 C51.0886478,45.7650377 51.3276855,45.7650377 51.7422767,45.7890063 C53.2438742,45.831761 54.8335723,45.831761 55.1607107,45.831761 C55.4003962,45.831761 55.5953836,45.7890063 55.5953836,45.6568553 C55.5953836,45.5493208 55.507283,45.5266478 55.3783711,45.5266478" id="Fill-52" fill="#AD8F60"></path>
                <path d="M36.1821509,50.2996289 C36.159478,50.2996289 36.1244969,50.2957421 36.0985849,50.2950943 C36.0286226,50.3404403 35.9230314,50.370239 35.7584906,50.370239 C34.2698491,50.370239 32.5635472,50.2892642 32.4301006,50.2892642 C32.2921195,50.2892642 30.5864654,50.370239 29.7747736,50.370239 C29.6996289,50.370239 29.6646478,50.3527484 29.6089371,50.3449748 C29.5681258,50.3760692 29.5467484,50.4168805 29.5467484,50.4622264 C29.5467484,50.6235283 29.6821384,50.6779434 29.9820692,50.6779434 C30.793761,50.6779434 32.4981195,50.5976164 32.634805,50.5976164 C32.770195,50.5976164 34.4764969,50.6779434 35.9651384,50.6779434 C36.2631258,50.6779434 36.3991635,50.5976164 36.3991635,50.4622264 C36.3991635,50.3806038 36.3434528,50.2996289 36.1821509,50.2996289" id="Fill-53" fill="#AD8F60"></path>
                <path d="M29.261717,40.8268679 C29.1146667,40.7504277 28.9844591,40.6713962 28.8510126,40.5943082 C28.7331132,40.6403019 28.6249308,40.688239 28.5620943,40.7089686 C28.2654025,40.800956 27.9674151,40.8048428 27.6733145,40.7620881 C27.6597107,40.7620881 27.6461069,40.768566 27.6318553,40.768566 C27.3461761,40.7646792 27.0721572,40.7018428 26.8052642,40.6111509 C27.4090126,41.0600755 28.096327,41.2272075 28.7667987,41.0173208 C28.8697987,40.9855786 29.0596038,40.8897044 29.261717,40.8268679" id="Fill-54" fill="#AD8F60"></path>
                <path d="M21.6798805,38.2952704 C20.2262201,38.7318868 18.8068931,38.8225786 17.4756667,38.618522 C16.4417799,38.509044 15.4610126,38.2304906 14.5463208,37.7951698 C16.6438931,39.0667987 19.2286101,39.4133711 21.919566,38.5964969 L21.8236918,38.2946226 C21.7770503,38.2972138 21.7278176,38.2946226 21.6798805,38.2952704" id="Fill-55" fill="#AD8F60"></path>
                <path d="M19.7701698,19.0569434 C18.7025975,18.9610692 17.6233648,19.0478742 16.5784654,19.3717736 C13.7883962,20.2378805 11.8268616,22.1365786 10.9691761,24.5243648 C10.7463333,25.2537862 10.6206604,26.0240189 10.6180692,26.8292327 C10.6180692,27.1298113 10.6569371,27.4381635 10.6899748,27.7458679 C10.6504591,24.0300943 12.9339497,20.8779057 16.785761,19.6814214 C18.8198491,19.0498176 20.9860881,19.2538742 22.9301321,20.1530189 C21.9331698,19.5751824 20.8597673,19.2059371 19.7701698,19.0569434" id="Fill-56" fill="#AD8F60"></path>
                <path d="M43.6843082,45.5266478 L43.4672956,45.5266478 C43.4446226,45.5266478 43.4193585,45.519522 43.3986289,45.516283 C43.3882642,45.5175786 43.3817862,45.5214654 43.3707736,45.5214654 C42.8486478,45.5214654 41.9106352,45.4566855 41.6715975,45.4566855 C41.4422767,45.4566855 40.3209371,45.516283 39.3246226,45.5214654 C39.2844591,45.5234088 39.2313396,45.5266478 39.2008931,45.5266478 C39.0914151,45.5266478 39.0039623,45.5706981 39.0039623,45.6568553 C39.0039623,45.7890063 39.1341698,45.831761 39.4166101,45.831761 C40.4407799,45.831761 41.6405031,45.7650377 41.8782453,45.7650377 C42.1179308,45.7650377 43.0546478,45.831761 43.5761258,45.831761 C43.771761,45.831761 43.9039119,45.7890063 43.9039119,45.6568553 C43.9039119,45.5706981 43.8371887,45.5266478 43.6843082,45.5266478" id="Fill-57" fill="#AD8F60"></path>
                <path d="M36.172434,23.6077296 C38.5485597,15.9928553 41.7810755,11.626044 46.024805,10.309717 C47.2219371,9.9385283 48.3439245,9.96184906 49.2670377,10.3077736 C48.8666981,10.0207987 48.3827925,9.83099371 47.8334591,9.74807547 C47.2018553,9.70920755 46.5255535,9.78046541 45.8181572,9.99812579 C41.6897358,11.2801195 38.5213522,15.4545346 36.1666038,22.6885031 C36.0642516,23.0124025 35.9586604,23.3350063 35.8595472,23.6725094 C35.9722642,23.6517799 36.066195,23.6278113 36.172434,23.6077296" id="Fill-58" fill="#AD8F60"></path>
                <path d="M72.6447987,45.5266478 C72.5761321,45.5266478 72.4530503,45.5253522 72.2975786,45.5149874 C72.2425157,45.519522 72.1855094,45.5214654 72.1110126,45.5214654 L70.5653648,45.5214654 C70.1404088,45.5214654 69.8139182,45.5026792 69.5243522,45.4722327 C68.9983396,45.445673 68.5792138,45.3789497 68.2157987,45.2578113 C68.2928868,45.307044 68.3647925,45.3744151 68.4425283,45.4171698 C69.0074088,45.7235786 69.5528553,45.831761 70.7733082,45.831761 L72.3183082,45.831761 C72.7095786,45.831761 72.840434,45.7890063 72.840434,45.6568553 C72.840434,45.5920755 72.7529811,45.5266478 72.6447987,45.5266478" id="Fill-59" fill="#AD8F60"></path>
                <path d="M89.9338994,45.5266478 C89.8652327,45.5266478 89.7421509,45.5253522 89.5860314,45.5149874 C89.5309686,45.519522 89.4752579,45.5214654 89.4001132,45.5214654 L87.8544654,45.5214654 C87.4295094,45.5214654 87.1062579,45.5026792 86.8153962,45.4722327 C86.2874403,45.445673 85.8683145,45.3789497 85.5048994,45.2578113 C85.5819874,45.307044 85.6538931,45.3744151 85.7316289,45.4171698 C86.2984528,45.7235786 86.841956,45.831761 88.0604654,45.831761 L89.6074088,45.831761 C89.999327,45.831761 90.1295346,45.7890063 90.1295346,45.6568553 C90.1295346,45.5920755 90.0420818,45.5266478 89.9338994,45.5266478" id="Fill-60" fill="#AD8F60"></path>
                <path d="M95.3566226,45.5266478 L95.1396101,45.5266478 C95.1182327,45.5266478 95.091673,45.519522 95.0709434,45.516283 C95.059283,45.5175786 95.0534528,45.5214654 95.0437358,45.5214654 C94.5209623,45.5214654 93.5829497,45.4566855 93.3439119,45.4566855 C93.1139434,45.4566855 91.9945472,45.516283 90.9969371,45.5214654 C90.9567736,45.5234088 90.9036541,45.5266478 90.8732075,45.5266478 C90.7630818,45.5266478 90.6749811,45.5706981 90.6749811,45.6568553 C90.6749811,45.7890063 90.8064843,45.831761 91.0902201,45.831761 C92.1117987,45.831761 93.3102264,45.7650377 93.5492642,45.7650377 C93.7902453,45.7650377 94.7263145,45.831761 95.2490881,45.831761 C95.4434277,45.831761 95.574283,45.7890063 95.574283,45.6568553 C95.574283,45.5706981 95.5095031,45.5266478 95.3566226,45.5266478" id="Fill-61" fill="#AD8F60"></path>
                <path d="M61.9541761,45.5266478 C61.8816226,45.5266478 61.7676101,45.519522 61.6419371,45.509805 C61.6140818,45.513044 61.6063082,45.5214654 61.5719748,45.5214654 C60.3754906,45.5214654 59.0034528,45.4566855 58.8952704,45.4566855 C58.8738931,45.4566855 57.6307673,45.5149874 56.9505786,45.5214654 C56.9272579,45.5214654 56.9000503,45.5266478 56.8799686,45.5266478 C56.749761,45.5266478 56.7076541,45.5920755 56.7076541,45.6568553 C56.7076541,45.7890063 56.8151887,45.831761 57.0548742,45.831761 C57.7078553,45.831761 59.0798931,45.7650377 59.1019182,45.7650377 C59.2113962,45.7650377 60.5827862,45.831761 61.7799182,45.831761 C62.018956,45.831761 62.1277862,45.7650377 62.1277862,45.6568553 C62.1277862,45.5920755 62.0850314,45.5266478 61.9541761,45.5266478" id="Fill-62" fill="#AD8F60"></path>
                <path d="M48.4339686,39.0998365 L44.2634403,39.0998365 C44.1539623,39.0998365 44.0898302,39.1646164 44.0444843,39.2740943 L42.8162579,42.9030629 C42.6607862,43.3591132 42.5713899,43.7957296 42.5733023,44.0749308 C42.5824025,44.1150943 42.5655597,44.1008428 42.6283962,44.1513711 C42.6504214,44.167566 42.6886415,44.180522 42.7281572,44.1915346 C42.7793333,43.9531447 42.851239,43.6992075 42.9438742,43.4355535 L44.2517799,39.5837421 C44.2958302,39.4742642 44.3606101,39.4081887 44.4687925,39.4081887 L48.5492767,39.4081887 L48.4339686,39.0998365" id="Fill-63" fill="#AD8F60"></path>
                <path d="M72.5476289,51.393761 C72.5903836,51.1560189 72.6739497,51.0309937 72.7853711,51.0309937 C72.8954969,51.0309937 72.9803585,51.100956 73.1617421,51.4637233 L76.9662642,59.3260566 L80.7597736,51.3659057 C80.8705472,51.1424151 80.9405094,51.0309937 81.0655346,51.0309937 C81.1912075,51.0309937 81.2760692,51.1709182 81.3175283,51.4637233 L82.5859182,60.0781509 C82.7109434,60.9578616 82.8502201,61.3614403 83.2686981,61.4871132 C83.6729245,61.613434 83.9521258,61.6257421 84.1335094,61.6257421 C84.2585346,61.6257421 84.3563522,61.6412893 84.3563522,61.7235597 C84.3563522,61.8349811 84.1885723,61.8790314 83.9935849,61.8790314 C83.6444214,61.8790314 81.7211069,61.8349811 81.164,61.7941698 C80.8433396,61.7663145 80.7597736,61.7235597 80.7597736,61.6412893 C80.7597736,61.5706792 80.8154843,61.5298679 80.9120063,61.4871132 C80.9955723,61.4592579 81.0370314,61.2778742 80.9819686,60.8866038 L80.1463082,54.7538931 L80.0905975,54.7538931 L77.0511258,61.0828868 C76.7298176,61.7384591 76.6598553,61.8634843 76.5348302,61.8634843 C76.409805,61.8634843 76.2705283,61.5855786 76.0463899,61.1664528 C75.7127736,60.5251321 74.6108679,58.3919308 74.4443836,58.001956 C74.3180629,57.7091509 73.4811069,55.9529686 72.9939623,54.9067736 L72.9382516,54.9067736 L72.2133648,60.4551698 C72.1848616,60.7065157 72.1712579,60.8866038 72.1712579,61.1107421 C72.1712579,61.3756918 72.3519937,61.500717 72.5903836,61.5564277 C72.840434,61.613434 73.0354214,61.6257421 73.1753459,61.6257421 C73.2867673,61.6257421 73.3845849,61.6542453 73.3845849,61.7235597 C73.3845849,61.8498805 73.2595597,61.8790314 73.049673,61.8790314 C72.4640629,61.8790314 71.8369937,61.8349811 71.5856478,61.8349811 C71.3206981,61.8349811 70.6521698,61.8790314 70.2058365,61.8790314 C70.0659119,61.8790314 69.9544906,61.8498805 69.9544906,61.7235597 C69.9544906,61.6542453 70.0380566,61.6257421 70.1779811,61.6257421 C70.2894025,61.6257421 70.3859245,61.6257421 70.5958113,61.5855786 C70.986434,61.500717 71.0978553,60.9578616 71.1678176,60.483673 L72.5476289,51.393761" id="Fill-64" fill="#FFFFFE"></path>
                <path d="M84.4677736,56.3435912 C84.4677736,54.5440063 84.4813774,54.2097421 84.4541698,53.8333711 C84.4256667,53.4142453 84.3135975,53.3028239 83.9242704,53.1926981 C83.8251572,53.1648428 83.6172138,53.151239 83.4487862,53.151239 C83.3101572,53.151239 83.240195,53.1084843 83.240195,53.025566 C83.240195,52.9413522 83.3231132,52.9134969 83.5051447,52.9134969 C84.160717,52.9134969 84.9834214,52.9413522 85.3461887,52.9413522 C85.6519497,52.9413522 86.4746541,52.9134969 86.9203396,52.9134969 C87.1017233,52.9134969 87.1852893,52.9413522 87.1852893,53.025566 C87.1852893,53.1084843 87.1166226,53.151239 86.9909497,53.151239 C86.851673,53.151239 86.7804151,53.1648428 86.6281824,53.1926981 C86.307522,53.247761 86.2103522,53.4142453 86.1831447,53.8333711 C86.1552893,54.2097421 86.1552893,54.5440063 86.1552893,56.3435912 L86.1552893,58.001956 C86.1552893,59.730283 86.4889057,60.4007547 87.0887673,60.873 C87.6322704,61.3057296 88.2165849,61.3471887 88.6357107,61.3471887 C89.1656101,61.3471887 89.7926792,61.1943082 90.2811195,60.7207673 C90.9638994,60.0781509 90.9924025,59.0481509 90.9924025,57.8354717 L90.9924025,56.3435912 C90.9924025,54.5440063 90.9787987,54.2097421 90.9638994,53.8333711 C90.936044,53.4297925 90.8382264,53.3028239 90.4488994,53.1926981 C90.3510818,53.1648428 90.1405472,53.151239 90.002566,53.151239 C89.8626415,53.151239 89.7926792,53.1084843 89.7926792,53.025566 C89.7926792,52.9413522 89.8762453,52.9134969 90.0440252,52.9134969 C90.6710943,52.9134969 91.4931509,52.9413522 91.5067547,52.9413522 C91.6486226,52.9413522 92.4687358,52.9134969 92.9435723,52.9134969 C93.1107044,52.9134969 93.1942704,52.9413522 93.1942704,53.025566 C93.1942704,53.1084843 93.1243082,53.151239 92.9856792,53.151239 C92.8464025,53.151239 92.7764403,53.1648428 92.6222642,53.1926981 C92.2886478,53.247761 92.204434,53.4142453 92.1765786,53.8333711 C92.1629748,54.2097421 92.1493711,54.5440063 92.1493711,56.3435912 L92.1493711,57.6113333 C92.1493711,58.9367296 92.0094465,60.3301447 90.9787987,61.1800566 C90.1133396,61.9055912 89.1792138,62.0319119 88.3843648,62.0319119 C87.7436918,62.0319119 86.4746541,62.002761 85.5819874,61.2221635 C84.955566,60.6793082 84.4677736,59.8002453 84.4677736,58.085522 L84.4677736,56.3435912" id="Fill-65" fill="#FFFFFE"></path>
                <path d="M96.6800755,58.4340377 C96.6800755,59.9544214 96.6800755,60.7058679 96.9450252,60.9300063 C97.1542642,61.1100943 97.6271572,61.1807044 98.5755346,61.1807044 C99.2311069,61.1807044 99.7046478,61.1664528 100.011704,60.8464403 C100.165233,60.6922642 100.290258,60.358 100.318113,60.1351572 C100.333013,60.0230881 100.36022,59.9544214 100.458038,59.9544214 C100.541604,59.9544214 100.569459,60.0787987 100.569459,60.2180755 C100.569459,60.358 100.485245,61.2357673 100.388075,61.584283 C100.304509,61.8498805 100.247503,61.9055912 99.607478,61.9055912 C98.7290629,61.9055912 98.0184277,61.8906918 97.4043145,61.8641321 C96.7908491,61.8498805 96.2758491,61.8356289 95.7731572,61.8356289 C95.6338805,61.8356289 95.3689308,61.8498805 95.0761258,61.8498805 C94.7833208,61.8641321 94.4769119,61.8777358 94.2268616,61.8777358 C94.0726855,61.8777358 93.9891195,61.8356289 93.9891195,61.7520629 C93.9891195,61.6963522 94.0305786,61.6263899 94.1841069,61.6263899 C94.3654906,61.6263899 94.5047673,61.613434 94.6168365,61.584283 C94.8668868,61.5298679 94.9374969,61.3057296 94.978956,60.9578616 C95.0346667,60.454522 95.0346667,59.521044 95.0346667,58.4340377 L95.0346667,56.3435912 C95.0346667,54.5453019 95.0346667,54.2090943 95.0210629,53.8327233 C94.9925597,53.4284969 94.8811384,53.3034717 94.4905157,53.1926981 C94.3933459,53.1654906 94.2404654,53.1499434 94.0862893,53.1499434 C93.9463648,53.1499434 93.8770503,53.1084843 93.8770503,53.0249182 C93.8770503,52.9407044 93.9612642,52.9134969 94.1426478,52.9134969 C94.7133585,52.9134969 95.493956,52.9407044 95.8295157,52.9407044 C96.121673,52.9407044 97.1264088,52.9134969 97.6005975,52.9134969 C97.7819811,52.9134969 97.8648994,52.9407044 97.8648994,53.0249182 C97.8648994,53.1084843 97.7949371,53.1499434 97.6420566,53.1499434 C97.5021321,53.1499434 97.3077925,53.1654906 97.1678679,53.1926981 C96.8323082,53.2484088 96.7351384,53.4148931 96.707283,53.8327233 C96.6800755,54.2090943 96.6800755,54.5453019 96.6800755,56.3435912 L96.6800755,58.4340377" id="Fill-66" fill="#FFFFFE"></path>
                <path d="M100.485245,54.0698176 C100.332365,53.6377358 100.233899,53.3591824 100.052516,53.247761 C99.9274906,53.1648428 99.6903962,53.151239 99.578327,53.151239 C99.4533019,53.151239 99.3833396,53.1084843 99.3833396,53.0249182 C99.3833396,52.9413522 99.481805,52.9128491 99.6631887,52.9128491 C100.28961,52.9128491 100.973038,52.9413522 101.084459,52.9413522 C101.195881,52.9413522 101.795094,52.9128491 102.507025,52.9128491 C102.687113,52.9128491 102.771975,52.9413522 102.771975,53.0249182 C102.771975,53.1084843 102.674805,53.151239 102.548484,53.151239 C102.451962,53.151239 102.339245,53.1648428 102.242075,53.2063019 C102.130654,53.247761 102.116403,53.3170755 102.116403,53.4421006 C102.116403,53.5962767 102.227824,53.9868994 102.380704,54.5291069 C102.590591,55.3103522 103.705453,58.8939748 103.886836,59.4368302 L103.928296,59.4368302 L106.270088,53.3870377 C106.395761,53.0534214 106.521434,52.954956 106.632208,52.954956 C106.77278,52.954956 106.884201,53.1369874 107.037082,53.5127107 L109.491591,59.3539119 L109.533698,59.3539119 C109.770792,58.6717799 110.70427,55.5474465 111.137,54.1676352 C111.219918,53.8890818 111.262025,53.6519874 111.262025,53.4848553 C111.262025,53.2892201 111.149956,53.151239 110.662164,53.151239 C110.550742,53.151239 110.453572,53.0948805 110.453572,53.0249182 C110.453572,52.9413522 110.550742,52.9128491 110.74573,52.9128491 C111.38705,52.9128491 111.945453,52.9413522 112.056226,52.9413522 C112.141088,52.9413522 112.669044,52.9128491 113.074566,52.9128491 C113.213195,52.9128491 113.296761,52.9413522 113.296761,53.0106667 C113.296761,53.0948805 113.242346,53.151239 113.129629,53.151239 C113.003956,53.151239 112.837472,53.1648428 112.697547,53.2063019 C112.406038,53.3170755 112.266113,53.7634088 112.014767,54.4468365 C111.442761,55.9374214 110.188623,59.7030755 109.588761,61.4741572 C109.450132,61.890044 109.380818,62.0319119 109.198138,62.0319119 C109.031654,62.0319119 108.94744,61.890044 108.765409,61.4586101 L106.270088,55.6180566 L106.243528,55.6180566 C106.034289,56.1194528 104.388233,60.3158931 103.886836,61.4035472 C103.663994,61.890044 103.594031,62.0319119 103.413943,62.0319119 C103.259767,62.0319119 103.189805,61.906239 103.078384,61.5991824 L100.485245,54.0698176" id="Fill-67" fill="#FFFFFE"></path>
                <path d="M116.831799,58.2396981 C116.886214,58.2396981 116.899818,58.2118428 116.886214,58.1690881 L115.729245,55.1574717 C115.716289,55.1160126 115.702686,55.0460503 115.673535,55.0460503 C115.631428,55.0460503 115.618472,55.1160126 115.603572,55.1574717 L114.419396,58.1561321 C114.390245,58.2118428 114.419396,58.2396981 114.461503,58.2396981 L116.831799,58.2396981 Z M114.210157,58.893327 C114.140195,58.893327 114.126591,58.9082264 114.09744,58.9768931 L113.443164,60.567239 C113.318138,60.860044 113.262428,61.1528491 113.262428,61.291478 C113.262428,61.5020126 113.375145,61.6270377 113.749572,61.6270377 L113.930956,61.6270377 C114.085132,61.6270377 114.11234,61.6814528 114.11234,61.7520629 C114.11234,61.8498805 114.042377,61.8777358 113.918,61.8777358 C113.513126,61.8777358 112.942415,61.8356289 112.551792,61.8356289 C112.426119,61.8356289 111.770547,61.8777358 111.129226,61.8777358 C110.97505,61.8777358 110.905088,61.8498805 110.905088,61.7520629 C110.905088,61.6814528 110.947195,61.6270377 111.046308,61.6270377 C111.158377,61.6270377 111.296358,61.613434 111.40778,61.613434 C111.96683,61.5298679 112.174774,61.1664528 112.426119,60.567239 L115.631428,53.1091321 C115.771352,52.7742201 115.870465,52.6342956 115.994195,52.6342956 C116.175579,52.6342956 116.231937,52.7463648 116.356962,53.0106667 C116.649767,53.666239 118.70005,58.5182516 119.479352,60.3165409 C119.952245,61.3892956 120.302704,61.5428239 120.524899,61.5849308 C120.706931,61.613434 120.847503,61.6270377 120.985484,61.6270377 C121.096906,61.6270377 121.151969,61.6691447 121.151969,61.7520629 C121.151969,61.8498805 121.083302,61.8777358 120.622717,61.8777358 C120.191283,61.8777358 119.299264,61.8777358 118.266025,61.8498805 C118.045126,61.8356289 117.903258,61.8356289 117.903258,61.7520629 C117.903258,61.6814528 117.932409,61.6412893 118.05873,61.6270377 C118.142296,61.613434 118.226509,61.5020126 118.169503,61.3614403 L117.221126,58.9768931 C117.193918,58.9082264 117.151811,58.893327 117.096101,58.893327 L114.210157,58.893327 L114.210157,58.893327 Z" id="Fill-68" fill="#FFFFFE"></path>
                <path d="M124.366346,58.4340377 C124.366346,59.9544214 124.366346,60.7058679 124.631943,60.9300063 C124.840535,61.1100943 125.31278,61.1807044 126.261157,61.1807044 C126.918025,61.1807044 127.391566,61.1664528 127.698623,60.8464403 C127.852151,60.6922642 127.977824,60.358 128.006327,60.1351572 C128.019931,60.0230881 128.045195,59.9544214 128.144308,59.9544214 C128.228522,59.9544214 128.254434,60.0787987 128.254434,60.2180755 C128.254434,60.358 128.172164,61.2357673 128.074346,61.584283 C127.99078,61.8498805 127.935069,61.9055912 127.293748,61.9055912 C126.415333,61.9055912 125.704698,61.8906918 125.091233,61.8641321 C124.476472,61.8498805 123.962119,61.8356289 123.460075,61.8356289 C123.320799,61.8356289 123.055201,61.8498805 122.76434,61.8498805 C122.471535,61.8641321 122.163182,61.8777358 121.911836,61.8777358 C121.759604,61.8777358 121.676038,61.8356289 121.676038,61.7520629 C121.676038,61.6963522 121.718792,61.6263899 121.871025,61.6263899 C122.051761,61.6263899 122.192333,61.613434 122.303755,61.584283 C122.555748,61.5298679 122.622472,61.3057296 122.665226,60.9578616 C122.721585,60.454522 122.721585,59.521044 122.721585,58.4340377 L122.721585,56.3435912 C122.721585,54.5453019 122.721585,54.2090943 122.707333,53.8327233 C122.679478,53.4284969 122.568057,53.3034717 122.178082,53.1926981 C122.080912,53.1654906 121.926736,53.1499434 121.773208,53.1499434 C121.634579,53.1499434 121.564616,53.1084843 121.564616,53.0249182 C121.564616,52.9407044 121.648182,52.9134969 121.829566,52.9134969 C122.400925,52.9134969 123.181522,52.9407044 123.515786,52.9407044 C123.810535,52.9407044 124.812679,52.9134969 125.286868,52.9134969 C125.468252,52.9134969 125.552465,52.9407044 125.552465,53.0249182 C125.552465,53.1084843 125.481855,53.1499434 125.329623,53.1499434 C125.188403,53.1499434 124.993415,53.1654906 124.855434,53.1926981 C124.519226,53.2484088 124.422704,53.4148931 124.394201,53.8327233 C124.366346,54.2090943 124.366346,54.5453019 124.366346,56.3435912 L124.366346,58.4340377" id="Fill-69" fill="#FFFFFE"></path>
                <path d="M134.433786,58.2396981 C134.490145,58.2396981 134.501805,58.2118428 134.490145,58.1690881 L133.329937,55.1574717 C133.318277,55.1160126 133.303377,55.0460503 133.274874,55.0460503 C133.234063,55.0460503 133.218516,55.1160126 133.204912,55.1574717 L132.022031,58.1561321 C131.992881,58.2118428 132.022031,58.2396981 132.062195,58.2396981 L134.433786,58.2396981 Z M131.812145,58.893327 C131.740887,58.893327 131.727931,58.9082264 131.700075,58.9768931 L131.045151,60.567239 C130.921421,60.860044 130.863119,61.1528491 130.863119,61.291478 C130.863119,61.5020126 130.976484,61.6270377 131.35156,61.6270377 L131.532296,61.6270377 C131.685176,61.6270377 131.715623,61.6814528 131.715623,61.7520629 C131.715623,61.8498805 131.643717,61.8777358 131.518044,61.8777358 C131.11317,61.8777358 130.543107,61.8356289 130.153132,61.8356289 C130.028107,61.8356289 129.37383,61.8777358 128.731862,61.8777358 C128.577038,61.8777358 128.508371,61.8498805 128.508371,61.7520629 C128.508371,61.6814528 128.548535,61.6270377 128.647,61.6270377 C128.759069,61.6270377 128.898346,61.613434 129.009119,61.613434 C129.568818,61.5298679 129.776113,61.1664528 130.028107,60.567239 L133.234063,53.1091321 C133.372692,52.7742201 133.470509,52.6342956 133.59683,52.6342956 C133.778214,52.6342956 133.833277,52.7463648 133.960245,53.0106667 C134.251107,53.666239 136.300742,58.5182516 137.080692,60.3165409 C137.555528,61.3892956 137.904692,61.5428239 138.128182,61.5849308 C138.307623,61.613434 138.447547,61.6270377 138.587472,61.6270377 C138.698245,61.6270377 138.755252,61.6691447 138.755252,61.7520629 C138.755252,61.8498805 138.684642,61.8777358 138.225352,61.8777358 C137.793918,61.8777358 136.900604,61.8777358 135.869308,61.8498805 C135.646465,61.8356289 135.505893,61.8356289 135.505893,61.7520629 C135.505893,61.6814528 135.53634,61.6412893 135.660717,61.6270377 C135.745579,61.613434 135.827849,61.5020126 135.770843,61.3614403 L134.824409,58.9768931 C134.795258,58.9082264 134.754447,58.893327 134.699384,58.893327 L131.812145,58.893327 L131.812145,58.893327 Z" id="Fill-70" fill="#FFFFFE"></path>
            </g>
        </g>
    </g>
</svg>