<?xml version="1.0" encoding="UTF-8"?>
<svg id="Layer_1" data-name="Layer 1" xmlns="http://www.w3.org/2000/svg" version="1.1" viewBox="0 0 456.8 277.1">
  <defs>
    <style>
      .cls-1 {
        fill: #003e75;
      }

      .cls-1, .cls-2, .cls-3 {
        stroke-width: 0px;
      }

      .cls-2 {
        fill: #fff;
        opacity: .3;
      }

      .cls-3 {
        fill: #5dc5c6;
      }
    </style>
  </defs>
  <path class="cls-1" d="M256.9,55h23.6v133.5h-23.6V55Z"/>
  <rect class="cls-1" x="295.1" y="97.1" width="56.1" height="22.6"/>
  <rect class="cls-2" x="295.1" y="97.1" width="56.1" height="22.6"/>
  <g>
    <path class="cls-3" d="M12.9,5.6H1.8V0h29v5.6h-11.1v30.1h-6.8V5.6Z"/>
    <path class="cls-3" d="M66.8,0v35.7h-6.8v-15.5h-16.7v15.5h-6.8V0h6.8v14.6h16.7V0h6.8Z"/>
    <path class="cls-3" d="M82.8,5.6v9.1h14.3v5.4h-14.3v10h16.4v5.6h-23.2V0h23.2v5.6h-16.4Z"/>
  </g>
  <g>
    <path class="cls-1" d="M131.5,129.6c0,4.3-.4,8.5-1,12.4-5.2,29.9-29.4,49-61.9,49S0,161.3,0,124.7,28.9,58,67.1,58s45,12.2,55.8,29.8l-21.6,12.4c-5.9-10.2-18.8-17.7-34.4-17.7-24.3,0-41.9,17.9-41.9,42.2s17,41.7,43.7,41.7,32.9-9.7,37.3-24.3h-38.8v-22.3h64.2v9.9Z"/>
    <path class="cls-1" d="M143.5,142.8c0-27.2,21.4-48.3,48.3-48.3s48.5,21,48.5,48.3-21.6,48.3-48.5,48.3-48.3-21-48.3-48.3ZM216.7,142.8c0-14.8-10.8-25.2-24.9-25.2s-24.7,10.4-24.7,25.2,10.8,25.2,24.7,25.2,24.9-10.4,24.9-25.2Z"/>
    <path class="cls-1" d="M308.3,97.1v-.9c0-25.2,13.9-40.1,43-38.2v22.7c-12.3-.9-19.4,3.1-19.4,15.5v.9h-23.6ZM331.9,119.8v68.8h-23.6v-68.8h23.6Z"/>
    <path class="cls-1" d="M450.5,97.1l-33.3,91.4c-9.5,26.3-25.1,37.9-48.3,36.6v-21.9c13,.2,19.6-5.3,24-17.6l-37.5-88.5h25.8l23.8,61.4,20.3-61.4h25.2Z"/>
  </g>
  <g>
    <path class="cls-3" d="M295.1,263.7v13h-6.8v-12.8l-12.3-22.9h7.4l6.6,12.7c.9,1.7,1.6,3.5,1.7,4.4h.2c.2-.9.9-2.8,1.7-4.4l6.5-12.7h7.1l-12.1,22.7Z"/>
    <path class="cls-3" d="M343.3,258.8c0,11.1-7.1,18.2-17.2,18.2s-17.2-7-17.2-18.2,7.1-18.2,17.2-18.2,17.2,7,17.2,18.2ZM336.4,258.8c0-7.7-4.3-12.3-10.3-12.3s-10.3,4.6-10.3,12.3,4.3,12.3,10.3,12.3,10.3-4.7,10.3-12.3Z"/>
    <path class="cls-3" d="M379.7,241v21.7c0,8.7-6,14.4-14.7,14.4s-14.8-5.7-14.8-14.4v-21.7h6.8v21.6c0,5.4,3.2,8.5,8,8.5s7.8-3.1,7.8-8.4v-21.7h6.8Z"/>
    <path class="cls-3" d="M418.2,276.7h-6.7l-12.3-18.8c-1.5-2.2-3.4-5.5-4.1-6.7l-.3.2c.2.8.3,3.6.3,6.4v18.9c.1,0-6.6,0-6.6,0v-35.7h6.4l12.7,19.5c1.9,3,3.4,5.7,3.9,6.7l.3-.2c-.1-.9-.3-3.6-.3-6.6v-19.4c0,0,6.6,0,6.6,0v35.7Z"/>
    <path class="cls-3" d="M456.8,276.7h-4.5c-.1-.4-.4-2-.6-4.3-2.1,3.1-5.5,4.7-10.2,4.7-9.6,0-16-7.2-16-18.2s6.9-18.2,16.6-18.2,14.2,7.2,14.2,12.4l-6.3,1c0-3.4-2.2-7.4-7.8-7.4s-9.8,4.5-9.8,12.3,3.9,12.5,10.2,12.5,8.5-3.2,8.5-7.5h-10v-4.6h15.7v17.5Z"/>
  </g>
  <path class="cls-2" d="M191.8,168c14.1,0,24.9-10.4,24.9-25.2s-10.8-25.2-24.9-25.2v-23c26.9,0,48.5,21,48.5,48.3s-21.6,48.3-48.5,48.3v-23Z"/>
  <path class="cls-2" d="M256.9,55h23.6v133.5h-23.6V55Z"/>
  <path class="cls-2" d="M106.1,142.1h-38.8v-22.3h64.2v9.9c0,4.3-.4,8.5-1,12.4"/>
  <polygon class="cls-2" points="392.9 185.6 355.4 97.1 381.2 97.1 405 158.5 392.9 185.6"/>
</svg>