<svg xmlns="http://www.w3.org/2000/svg" viewBox="0 0 64 64" role="img" aria-labelledby="title desc">
  <title id="title">Golf ball marker</title>
  <desc id="desc">A shaded white golf ball marker with many dimples.</desc>
  <defs>
    <radialGradient id="ball" cx="28%" cy="22%" r="74%">
      <stop offset="0" stop-color="#ffffff"/>
      <stop offset=".56" stop-color="#f4fbf0"/>
      <stop offset="1" stop-color="#d7e7d0"/>
    </radialGradient>
  </defs>
  <ellipse cx="32" cy="57" rx="17" ry="5" fill="#062f1d" opacity=".25"/>
  <circle cx="32" cy="31" r="24" fill="url(#ball)" stroke="#06361f" stroke-width="4"/>
  <g fill="#c8d9c1" stroke="#ffffff" stroke-width=".6" opacity=".95">
    <circle cx="23" cy="15" r="2.6"/><circle cx="32" cy="13" r="2.7"/><circle cx="42" cy="16" r="2.6"/>
    <circle cx="17" cy="23" r="2.6"/><circle cx="27" cy="23" r="2.8"/><circle cx="37" cy="24" r="2.7"/><circle cx="47" cy="25" r="2.5"/>
    <circle cx="15" cy="33" r="2.5"/><circle cx="24" cy="32" r="2.8"/><circle cx="34" cy="33" r="2.7"/><circle cx="44" cy="34" r="2.8"/><circle cx="51" cy="36" r="2.3"/>
    <circle cx="20" cy="42" r="2.5"/><circle cx="30" cy="43" r="2.7"/><circle cx="40" cy="43" r="2.6"/><circle cx="48" cy="46" r="2.3"/>
    <circle cx="29" cy="52" r="2.2"/><circle cx="39" cy="51" r="2.1"/>
  </g>
  <path d="M16 23c7-12 21-17 34-9" fill="none" stroke="#ffffff" stroke-width="2.5" opacity=".42" stroke-linecap="round"/>
</svg>