<svg xmlns="http://www.w3.org/2000/svg" width="360" height="360" viewBox="0 0 360 360">
  <rect width="360" height="360" fill="#0d4b2c"/>
  <path d="M0 58c42-20 79-15 116 2s76 21 124 0 84-16 120 1v299H0z" fill="#145f36" opacity=".42"/>
  <path d="M0 207c34-18 74-14 119 1s91 22 137-1 74-18 104-1v154H0z" fill="#0a3b24" opacity=".34"/>
  <g fill="none" stroke-linecap="round">
    <g stroke="#2f8f4d" stroke-width="2" opacity=".48">
      <path d="M17 357C21 320 33 297 46 271"/><path d="M55 357c-5-35 2-62 17-91"/><path d="M91 357c2-30 12-56 31-79"/><path d="M129 357c-3-38 8-70 26-96"/><path d="M168 357c-1-28 8-52 24-73"/><path d="M209 357c5-35 17-62 33-84"/><path d="M247 357c-3-33 3-57 18-84"/><path d="M286 357c4-36 15-62 31-90"/><path d="M328 357c-1-31 6-56 19-78"/>
      <path d="M8 180c7-29 21-50 39-69"/><path d="M48 191c-2-34 8-61 27-83"/><path d="M91 184c5-30 16-54 34-77"/><path d="M139 190c-3-32 5-57 22-82"/><path d="M184 184c8-33 23-58 43-78"/><path d="M230 189c-2-31 8-56 29-76"/><path d="M279 184c5-30 16-53 36-73"/><path d="M322 189c-3-29 5-53 23-73"/>
      <path d="M20 75c5-28 15-49 31-68"/><path d="M68 81c-1-28 8-52 27-74"/><path d="M113 72c7-26 21-48 39-65"/><path d="M165 79c-2-27 7-50 25-70"/><path d="M213 73c6-28 19-50 37-67"/><path d="M263 80c-3-27 6-49 26-71"/><path d="M314 76c4-27 15-49 31-68"/>
    </g>
    <g stroke="#7ec86d" stroke-width="1.35" opacity=".42">
      <path d="M34 360c10-24 25-44 45-60"/><path d="M72 360c15-31 35-55 60-73"/><path d="M115 360c11-29 27-52 49-70"/><path d="M157 360c16-27 35-49 57-64"/><path d="M198 360c11-25 29-46 53-62"/><path d="M239 360c16-30 36-52 61-68"/><path d="M282 360c10-27 25-48 46-64"/>
      <path d="M28 205c13-24 31-42 53-57"/><path d="M76 211c11-27 28-48 51-64"/><path d="M121 204c15-25 34-45 57-60"/><path d="M172 208c10-26 27-46 50-61"/><path d="M219 204c14-24 33-43 56-57"/><path d="M269 210c10-25 27-45 49-61"/>
    </g>
    <g stroke="#052817" stroke-width="1" opacity=".3">
      <path d="M0 115c45 16 88 15 129-2s77-19 111 0 73 20 120 1"/><path d="M0 259c42-15 78-15 111 1s75 18 126 0 86-16 123 1"/><path d="M0 32c39 14 76 13 110-1s72-16 113 0 83 16 137 0"/>
    </g>
  </g>
</svg>