<svg xmlns="http://www.w3.org/2000/svg" viewBox="0 0 512 512" role="img" aria-labelledby="title desc">
  <title id="title">Aussie Golf Guide icon</title>
  <desc id="desc">The outline of Australia styled as a dimpled golf ball on a green grass background.</desc>
  <defs>
    <linearGradient id="bg" x1="76" y1="38" x2="444" y2="474" gradientUnits="userSpaceOnUse">
      <stop offset="0" stop-color="#0b4f2f"/>
      <stop offset="1" stop-color="#062f1d"/>
    </linearGradient>
    <linearGradient id="ball" x1="148" y1="118" x2="390" y2="382" gradientUnits="userSpaceOnUse">
      <stop offset="0" stop-color="#ffffff"/>
      <stop offset=".6" stop-color="#edf7e7"/>
      <stop offset="1" stop-color="#dcebd6"/>
    </linearGradient>
    <clipPath id="ausClip">
      <path id="aus" d="M109 224c-17-16-18-45-1-65 18-21 43-19 61-35 25-22 50-21 68 2 15 19 37 17 60-4 23-21 49-13 61 12 9 19 29 21 57 21 37 0 59 24 56 52-3 24-25 33-38 51-13 18 5 38 3 64-2 28-31 43-57 27-28-17-46-5-63 18-19 27-50 13-73 1-22-12-44 0-68 2-26 2-38-17-41-41-3-22-24-23-43-37-23-17-18-46 3-56 7-3 12-7 15-12z"/>
    </clipPath>
    <filter id="softShadow" x="-20%" y="-20%" width="140%" height="150%">
      <feDropShadow dx="0" dy="12" stdDeviation="12" flood-color="#02180e" flood-opacity=".35"/>
    </filter>
  </defs>
  <rect width="512" height="512" rx="108" fill="url(#bg)"/>
  <g opacity=".22" fill="none" stroke="#7fc96c" stroke-linecap="round" stroke-width="5">
    <path d="M46 473C73 362 113 264 169 177"/>
    <path d="M127 490c13-106 46-202 101-288"/>
    <path d="M219 492c6-93 31-174 75-244"/>
    <path d="M312 491c16-98 51-183 105-254"/>
    <path d="M406 480c8-75 25-138 52-189"/>
  </g>
  <use href="#aus" fill="url(#ball)" stroke="#f9fff4" stroke-width="12" stroke-linejoin="round" filter="url(#softShadow)"/>
  <use href="#aus" fill="none" stroke="#07351f" stroke-width="9" stroke-linejoin="round"/>
  <g clip-path="url(#ausClip)" fill="#b9cfb3">
    <circle cx="142" cy="183" r="10"/><circle cx="183" cy="159" r="9"/><circle cx="228" cy="166" r="10"/><circle cx="282" cy="155" r="9"/><circle cx="332" cy="151" r="10"/><circle cx="390" cy="182" r="9"/>
    <circle cx="124" cy="232" r="9"/><circle cx="170" cy="217" r="10"/><circle cx="218" cy="220" r="9"/><circle cx="266" cy="210" r="10"/><circle cx="314" cy="222" r="9"/><circle cx="365" cy="223" r="10"/><circle cx="426" cy="218" r="9"/>
    <circle cx="116" cy="282" r="10"/><circle cx="164" cy="272" r="9"/><circle cx="214" cy="281" r="10"/><circle cx="263" cy="270" r="9"/><circle cx="313" cy="283" r="10"/><circle cx="367" cy="283" r="9"/><circle cx="411" cy="307" r="10"/>
    <circle cx="152" cy="329" r="9"/><circle cx="203" cy="332" r="10"/><circle cx="252" cy="331" r="9"/><circle cx="303" cy="340" r="10"/><circle cx="351" cy="331" r="9"/>
  </g>
  <g transform="translate(0 0)" filter="url(#softShadow)">
    <path d="M296 409c17-13 43-8 54 12-8 24-38 31-58 14-9-11-8-20 4-26z" fill="url(#ball)" stroke="#07351f" stroke-width="8" stroke-linejoin="round"/>
    <circle cx="315" cy="421" r="5.5" fill="#b9cfb3"/><circle cx="335" cy="424" r="5" fill="#b9cfb3"/>
  </g>
  <circle cx="402" cy="96" r="28" fill="#f8fff4" stroke="#07351f" stroke-width="8"/>
  <g fill="#b9cfb3">
    <circle cx="392" cy="88" r="4"/><circle cx="407" cy="86" r="4"/><circle cx="397" cy="102" r="4"/><circle cx="414" cy="102" r="4"/>
  </g>
</svg>